%TF.GenerationSoftware,KiCad,Pcbnew,7.0.7*%
%TF.CreationDate,2024-05-12T11:23:56+02:00*%
%TF.ProjectId,Projekt,50726f6a-656b-4742-9e6b-696361645f70,rev?*%
%TF.SameCoordinates,Original*%
%TF.FileFunction,Copper,L2,Bot*%
%TF.FilePolarity,Positive*%
%FSLAX46Y46*%
G04 Gerber Fmt 4.6, Leading zero omitted, Abs format (unit mm)*
G04 Created by KiCad (PCBNEW 7.0.7) date 2024-05-12 11:23:56*
%MOMM*%
%LPD*%
G01*
G04 APERTURE LIST*
G04 Aperture macros list*
%AMRoundRect*
0 Rectangle with rounded corners*
0 $1 Rounding radius*
0 $2 $3 $4 $5 $6 $7 $8 $9 X,Y pos of 4 corners*
0 Add a 4 corners polygon primitive as box body*
4,1,4,$2,$3,$4,$5,$6,$7,$8,$9,$2,$3,0*
0 Add four circle primitives for the rounded corners*
1,1,$1+$1,$2,$3*
1,1,$1+$1,$4,$5*
1,1,$1+$1,$6,$7*
1,1,$1+$1,$8,$9*
0 Add four rect primitives between the rounded corners*
20,1,$1+$1,$2,$3,$4,$5,0*
20,1,$1+$1,$4,$5,$6,$7,0*
20,1,$1+$1,$6,$7,$8,$9,0*
20,1,$1+$1,$8,$9,$2,$3,0*%
%AMHorizOval*
0 Thick line with rounded ends*
0 $1 width*
0 $2 $3 position (X,Y) of the first rounded end (center of the circle)*
0 $4 $5 position (X,Y) of the second rounded end (center of the circle)*
0 Add line between two ends*
20,1,$1,$2,$3,$4,$5,0*
0 Add two circle primitives to create the rounded ends*
1,1,$1,$2,$3*
1,1,$1,$4,$5*%
G04 Aperture macros list end*
%TA.AperFunction,ComponentPad*%
%ADD10R,1.600000X1.600000*%
%TD*%
%TA.AperFunction,ComponentPad*%
%ADD11O,1.600000X1.600000*%
%TD*%
%TA.AperFunction,ComponentPad*%
%ADD12R,2.200000X2.200000*%
%TD*%
%TA.AperFunction,ComponentPad*%
%ADD13O,2.200000X2.200000*%
%TD*%
%TA.AperFunction,ComponentPad*%
%ADD14R,2.400000X2.400000*%
%TD*%
%TA.AperFunction,ComponentPad*%
%ADD15O,2.400000X2.400000*%
%TD*%
%TA.AperFunction,ComponentPad*%
%ADD16RoundRect,0.550000X-0.550000X-0.950000X0.550000X-0.950000X0.550000X0.950000X-0.550000X0.950000X0*%
%TD*%
%TA.AperFunction,ComponentPad*%
%ADD17C,1.800000*%
%TD*%
%TA.AperFunction,ComponentPad*%
%ADD18R,1.800000X1.800000*%
%TD*%
%TA.AperFunction,SMDPad,CuDef*%
%ADD19R,3.000000X12.000000*%
%TD*%
%TA.AperFunction,ComponentPad*%
%ADD20R,1.050000X1.500000*%
%TD*%
%TA.AperFunction,ComponentPad*%
%ADD21O,1.050000X1.500000*%
%TD*%
%TA.AperFunction,ComponentPad*%
%ADD22R,1.600000X2.400000*%
%TD*%
%TA.AperFunction,ComponentPad*%
%ADD23O,1.600000X2.400000*%
%TD*%
%TA.AperFunction,ComponentPad*%
%ADD24R,1.500000X1.050000*%
%TD*%
%TA.AperFunction,ComponentPad*%
%ADD25O,1.500000X1.050000*%
%TD*%
%TA.AperFunction,ComponentPad*%
%ADD26C,1.600000*%
%TD*%
%TA.AperFunction,ComponentPad*%
%ADD27HorizOval,1.600000X0.000000X0.000000X0.000000X0.000000X0*%
%TD*%
%TA.AperFunction,ComponentPad*%
%ADD28O,1.905000X2.000000*%
%TD*%
%TA.AperFunction,ComponentPad*%
%ADD29R,1.905000X2.000000*%
%TD*%
%TA.AperFunction,Conductor*%
%ADD30C,0.500000*%
%TD*%
%TA.AperFunction,Conductor*%
%ADD31C,0.900000*%
%TD*%
%TA.AperFunction,Conductor*%
%ADD32C,0.700000*%
%TD*%
G04 APERTURE END LIST*
D10*
%TO.P,D3,1,K*%
%TO.N,Net-(D3-K)*%
X69250000Y-67000000D03*
D11*
%TO.P,D3,2,A*%
%TO.N,Net-(D3-A)*%
X56550000Y-67000000D03*
%TD*%
D10*
%TO.P,D1,1,K*%
%TO.N,Net-(D1-K)*%
X30300000Y-4800000D03*
D11*
%TO.P,D1,2,A*%
%TO.N,Net-(D1-A)*%
X22680000Y-4800000D03*
%TD*%
D12*
%TO.P,Z2,1,K*%
%TO.N,Net-(T1-C)*%
X37100000Y-15160000D03*
D13*
%TO.P,Z2,2,A*%
%TO.N,GND*%
X37100000Y-5000000D03*
%TD*%
D12*
%TO.P,Z1,1,K*%
%TO.N,Net-(D1-K)*%
X33020000Y-5080000D03*
D13*
%TO.P,Z1,2,A*%
%TO.N,Net-(T1-C)*%
X33020000Y-15240000D03*
%TD*%
D10*
%TO.P,D6,1,K*%
%TO.N,Net-(D5-A)*%
X19500000Y-33820000D03*
D11*
%TO.P,D6,2,A*%
%TO.N,Net-(D6-A)*%
X19500000Y-43980000D03*
%TD*%
D10*
%TO.P,D5,1,K*%
%TO.N,Net-(D5-K)*%
X19700000Y-19000000D03*
D11*
%TO.P,D5,2,A*%
%TO.N,Net-(D5-A)*%
X19700000Y-29160000D03*
%TD*%
D10*
%TO.P,D7,1,K*%
%TO.N,Net-(D6-A)*%
X19300000Y-56700000D03*
D11*
%TO.P,D7,2,A*%
%TO.N,Net-(D7-A)*%
X19300000Y-69400000D03*
%TD*%
D10*
%TO.P,D4,1,K*%
%TO.N,Net-(D4-K)*%
X45720000Y-33020000D03*
D11*
%TO.P,D4,2,A*%
%TO.N,Net-(D4-A)*%
X45720000Y-25400000D03*
%TD*%
D10*
%TO.P,D2,1,K*%
%TO.N,Net-(D2-K)*%
X80010000Y-25400000D03*
D11*
%TO.P,D2,2,A*%
%TO.N,Net-(D2-A)*%
X87630000Y-25400000D03*
%TD*%
D10*
%TO.P,D8,1,K*%
%TO.N,Net-(D7-A)*%
X19300000Y-74250000D03*
D11*
%TO.P,D8,2,A*%
%TO.N,9VAC+Phase*%
X19300000Y-86950000D03*
%TD*%
D14*
%TO.P,C  1,1*%
%TO.N,Net-(D7-A)*%
X9400000Y-57300000D03*
D15*
%TO.P,C  1,2*%
%TO.N,9VAC -Phase*%
X9400000Y-87300000D03*
%TD*%
D14*
%TO.P,C  4,1*%
%TO.N,Net-(D5-K)*%
X29600000Y-19100000D03*
D15*
%TO.P,C  4,2*%
%TO.N,GND*%
X29600000Y-49100000D03*
%TD*%
D14*
%TO.P,C  3,1*%
%TO.N,Net-(D5-A)*%
X9400000Y-18900000D03*
D15*
%TO.P,C  3,2*%
%TO.N,Net-(D7-A)*%
X9400000Y-48900000D03*
%TD*%
D14*
%TO.P,C  2,1*%
%TO.N,Net-(D6-A)*%
X29500000Y-57000000D03*
D15*
%TO.P,C  2,2*%
%TO.N,9VAC+Phase*%
X29500000Y-87000000D03*
%TD*%
D16*
%TO.P,CB1,6*%
%TO.N,Net-(IC4-VO)*%
X109900000Y-30000000D03*
%TO.P,CB1,5*%
%TO.N,Net-(D2-A)*%
X109890000Y-26010000D03*
%TO.P,CB1,4*%
X109890000Y-22010000D03*
%TO.P,CB1,1*%
%TO.N,Net-(EPROMSOCKEL1-VCC)*%
X107270000Y-22000000D03*
%TO.P,CB1,2*%
X107270000Y-26000000D03*
%TO.P,CB1,3*%
%TO.N,Net-(D2-A)*%
X107280000Y-29990000D03*
%TD*%
D17*
%TO.P,,1*%
%TO.N,Net-(D5-A)*%
X9400000Y-41600000D03*
%TD*%
%TO.P,,1*%
%TO.N,Net-(D5-K)*%
X29400000Y-41600000D03*
%TD*%
%TO.P,,1*%
%TO.N,Net-(D6-A)*%
X29400000Y-79800000D03*
%TD*%
%TO.P,,1*%
%TO.N,Net-(D7-A)*%
X9400000Y-79800000D03*
%TD*%
%TO.P,LED,2,A*%
%TO.N,Net-(EPROMSOCKEL1-VCC)*%
X107600000Y-10365000D03*
D18*
%TO.P,LED,1,K*%
%TO.N,Net-(LED1-K)*%
X107600000Y-7825000D03*
%TD*%
D19*
%TO.P,REF\u002A\u002A,1*%
%TO.N,GND*%
X45500000Y-109500000D03*
%TD*%
%TO.P,REF\u002A\u002A,1*%
%TO.N,PA2*%
X49500000Y-109500000D03*
%TD*%
%TO.P,REF\u002A\u002A,1*%
%TO.N,PB7*%
X53500000Y-109500000D03*
%TD*%
%TO.P,REF\u002A\u002A,1*%
%TO.N,PB6*%
X57500000Y-109500000D03*
%TD*%
%TO.P,REF\u002A\u002A,1*%
%TO.N,PB5*%
X61500000Y-109500000D03*
%TD*%
%TO.P,REF\u002A\u002A,1*%
%TO.N,PB4*%
X65500000Y-109500000D03*
%TD*%
%TO.P,REF\u002A\u002A,1*%
%TO.N,PB3*%
X69500000Y-109500000D03*
%TD*%
%TO.P,REF\u002A\u002A,1*%
%TO.N,PB2*%
X73500000Y-109500000D03*
%TD*%
%TO.P,REF\u002A\u002A,1*%
%TO.N,PB1*%
X77500000Y-109500000D03*
%TD*%
%TO.P,REF\u002A\u002A,1*%
%TO.N,PB0*%
X81500000Y-109500000D03*
%TD*%
%TO.P,REF\u002A\u002A,1*%
%TO.N,N/C*%
X85500000Y-109500000D03*
%TD*%
%TO.P,REF\u002A\u002A,1*%
%TO.N,GND*%
X89500000Y-109500000D03*
%TD*%
D17*
%TO.P,,1*%
%TO.N,Net-(D2-A)*%
X103800000Y-17400000D03*
%TD*%
%TO.P,,1*%
%TO.N,Net-(IC2-O5)*%
X61400000Y-94200000D03*
%TD*%
%TO.P,REF\u002A\u002A,1*%
%TO.N,Net-(EPROMSOCKEL1-~{PGM})*%
X99000000Y-73800000D03*
%TD*%
%TO.P,,1*%
%TO.N,Net-(EPROMSOCKEL1-~{PGM})*%
X99200000Y-78800000D03*
%TD*%
%TO.P,,1*%
%TO.N,PB7*%
X42800000Y-54800000D03*
%TD*%
%TO.P,,1*%
%TO.N,Net-(D2-A)*%
X50000000Y-31600000D03*
%TD*%
D20*
%TO.P,T5,1,C*%
%TO.N,Net-(EPROMSOCKEL1-A13)*%
X77100000Y-59100000D03*
D21*
%TO.P,T5,2,B*%
%TO.N,Net-(T5-B)*%
X75830000Y-59100000D03*
%TO.P,T5,3,E*%
%TO.N,Net-(EPROMSOCKEL1-VCC)*%
X74560000Y-59100000D03*
%TD*%
D22*
%TO.P,IC1,1,Q11*%
%TO.N,Net-(D4-A)*%
X46000000Y-22820000D03*
D23*
%TO.P,IC1,2,Q5*%
%TO.N,Net-(EPROMSOCKEL1-A5)*%
X48540000Y-22820000D03*
%TO.P,IC1,3,Q4*%
%TO.N,Net-(EPROMSOCKEL1-A4)*%
X51080000Y-22820000D03*
%TO.P,IC1,4,Q6*%
%TO.N,Net-(EPROMSOCKEL1-A6)*%
X53620000Y-22820000D03*
%TO.P,IC1,5,Q3*%
%TO.N,Net-(EPROMSOCKEL1-A3)*%
X56160000Y-22820000D03*
%TO.P,IC1,6,Q2*%
%TO.N,Net-(EPROMSOCKEL1-A2)*%
X58700000Y-22820000D03*
%TO.P,IC1,7,Q1*%
%TO.N,Net-(EPROMSOCKEL1-A1)*%
X61240000Y-22820000D03*
%TO.P,IC1,8,VSS*%
%TO.N,GND*%
X63780000Y-22820000D03*
%TO.P,IC1,9,Q0*%
%TO.N,Net-(EPROMSOCKEL1-A0)*%
X63780000Y-15200000D03*
%TO.P,IC1,10,CLK*%
%TO.N,SP1*%
X61240000Y-15200000D03*
%TO.P,IC1,11,Reset*%
%TO.N,Net-(IC1-Reset)*%
X58700000Y-15200000D03*
%TO.P,IC1,12,Q8*%
%TO.N,Net-(EPROMSOCKEL1-A8)*%
X56160000Y-15200000D03*
%TO.P,IC1,13,Q7*%
%TO.N,Net-(EPROMSOCKEL1-A7)*%
X53620000Y-15200000D03*
%TO.P,IC1,14,Q9*%
%TO.N,Net-(EPROMSOCKEL1-A9)*%
X51080000Y-15200000D03*
%TO.P,IC1,15,Q10*%
%TO.N,Net-(EPROMSOCKEL1-A10)*%
X48540000Y-15200000D03*
%TO.P,IC1,16,VDD*%
%TO.N,Net-(EPROMSOCKEL1-VCC)*%
X46000000Y-15200000D03*
%TD*%
D17*
%TO.P,,1*%
%TO.N,SP1*%
X99200000Y-55400000D03*
%TD*%
D24*
%TO.P,T2,1,C*%
%TO.N,Net-(D1-A)*%
X10040000Y-6030000D03*
D25*
%TO.P,T2,2,B*%
%TO.N,Net-(T2-B)*%
X10040000Y-7300000D03*
%TO.P,T2,3,E*%
%TO.N,GND*%
X10040000Y-8570000D03*
%TD*%
D17*
%TO.P,,1*%
%TO.N,Net-(IC2-O5)*%
X96900000Y-77400000D03*
%TD*%
D26*
%TO.P,R7,1*%
%TO.N,Net-(IC2-O1)*%
X55800000Y-63200000D03*
D11*
%TO.P,R7,2*%
%TO.N,Net-(EPROMSOCKEL1-A13)*%
X68500000Y-63200000D03*
%TD*%
D26*
%TO.P,R1,1*%
%TO.N,Net-(D2-A)*%
X3840000Y-12600000D03*
D11*
%TO.P,R1,2*%
%TO.N,Net-(T2-B)*%
X14000000Y-12600000D03*
%TD*%
D26*
%TO.P,R8,1*%
%TO.N,Net-(D3-K)*%
X71500000Y-63700000D03*
D11*
%TO.P,R8,2*%
%TO.N,GND*%
X84200000Y-63700000D03*
%TD*%
D17*
%TO.P,,1*%
%TO.N,Net-(EPROMSOCKEL1-VCC)*%
X86400000Y-52400000D03*
%TD*%
%TO.P,,1*%
%TO.N,GND*%
X94000000Y-19400000D03*
%TD*%
%TO.P,,1*%
%TO.N,Net-(IC2-LE)*%
X46400000Y-87800000D03*
%TD*%
%TO.P,,1*%
%TO.N,Net-(EPROMSOCKEL1-~{PGM})*%
X89200000Y-86000000D03*
%TD*%
D26*
%TO.P,R6,1*%
%TO.N,Net-(D2-A)*%
X96900000Y-32350000D03*
D11*
%TO.P,R6,2*%
%TO.N,Net-(T4-B)*%
X96900000Y-45050000D03*
%TD*%
D26*
%TO.P,R11,1*%
%TO.N,GND*%
X89443809Y-100668990D03*
D27*
%TO.P,R11,2*%
%TO.N,Net-(IC2-O5)*%
X92084286Y-88246515D03*
%TD*%
D17*
%TO.P,,1*%
%TO.N,PA2*%
X48600000Y-45000000D03*
%TD*%
%TO.P,,1*%
%TO.N,SP1*%
X100800000Y-84800000D03*
%TD*%
D22*
%TO.P,EPROM-SOCKEL,1,VPP*%
%TO.N,Net-(D2-K)*%
X78740000Y-38100000D03*
D23*
%TO.P,EPROM-SOCKEL,2,A12*%
%TO.N,Net-(EPROMSOCKEL1-A12)*%
X76200000Y-38100000D03*
%TO.P,EPROM-SOCKEL,3,A7*%
%TO.N,Net-(EPROMSOCKEL1-A7)*%
X73660000Y-38100000D03*
%TO.P,EPROM-SOCKEL,4,A6*%
%TO.N,Net-(EPROMSOCKEL1-A6)*%
X71120000Y-38100000D03*
%TO.P,EPROM-SOCKEL,5,A5*%
%TO.N,Net-(EPROMSOCKEL1-A5)*%
X68580000Y-38100000D03*
%TO.P,EPROM-SOCKEL,6,A4*%
%TO.N,Net-(EPROMSOCKEL1-A4)*%
X66040000Y-38100000D03*
%TO.P,EPROM-SOCKEL,7,A3*%
%TO.N,Net-(EPROMSOCKEL1-A3)*%
X63500000Y-38100000D03*
%TO.P,EPROM-SOCKEL,8,A2*%
%TO.N,Net-(EPROMSOCKEL1-A2)*%
X60960000Y-38100000D03*
%TO.P,EPROM-SOCKEL,9,A1*%
%TO.N,Net-(EPROMSOCKEL1-A1)*%
X58420000Y-38100000D03*
%TO.P,EPROM-SOCKEL,10,A0*%
%TO.N,Net-(EPROMSOCKEL1-A0)*%
X55880000Y-38100000D03*
%TO.P,EPROM-SOCKEL,11,D0*%
%TO.N,PB0*%
X53340000Y-38100000D03*
%TO.P,EPROM-SOCKEL,12,D1*%
%TO.N,PB1*%
X50800000Y-38100000D03*
%TO.P,EPROM-SOCKEL,13,D2*%
%TO.N,PB2*%
X48260000Y-38100000D03*
%TO.P,EPROM-SOCKEL,14,GND*%
%TO.N,GND*%
X45720000Y-38100000D03*
%TO.P,EPROM-SOCKEL,15,D3*%
%TO.N,PB3*%
X45720000Y-53340000D03*
%TO.P,EPROM-SOCKEL,16,D4*%
%TO.N,PB4*%
X48260000Y-53340000D03*
%TO.P,EPROM-SOCKEL,17,D5*%
%TO.N,PB5*%
X50800000Y-53340000D03*
%TO.P,EPROM-SOCKEL,18,D6*%
%TO.N,PB6*%
X53340000Y-53340000D03*
%TO.P,EPROM-SOCKEL,19,D7*%
%TO.N,PB7*%
X55880000Y-53340000D03*
%TO.P,EPROM-SOCKEL,20,~{CE}*%
%TO.N,PA2*%
X58420000Y-53340000D03*
%TO.P,EPROM-SOCKEL,21,A10*%
%TO.N,Net-(EPROMSOCKEL1-A10)*%
X60960000Y-53340000D03*
%TO.P,EPROM-SOCKEL,22,~{OE}*%
%TO.N,Net-(D3-K)*%
X63500000Y-53340000D03*
%TO.P,EPROM-SOCKEL,23,A11*%
%TO.N,Net-(D4-K)*%
X66040000Y-53340000D03*
%TO.P,EPROM-SOCKEL,24,A9*%
%TO.N,Net-(EPROMSOCKEL1-A9)*%
X68580000Y-53340000D03*
%TO.P,EPROM-SOCKEL,25,A8*%
%TO.N,Net-(EPROMSOCKEL1-A8)*%
X71120000Y-53340000D03*
%TO.P,EPROM-SOCKEL,26,A13*%
%TO.N,Net-(EPROMSOCKEL1-A13)*%
X73660000Y-53340000D03*
%TO.P,EPROM-SOCKEL,27,~{PGM}*%
%TO.N,Net-(EPROMSOCKEL1-~{PGM})*%
X76200000Y-53340000D03*
%TO.P,EPROM-SOCKEL,28,VCC*%
%TO.N,Net-(EPROMSOCKEL1-VCC)*%
X78740000Y-53340000D03*
%TD*%
D24*
%TO.P,T4,1,C*%
%TO.N,Net-(D2-A)*%
X91440000Y-43180000D03*
D25*
%TO.P,T4,2,B*%
%TO.N,Net-(T4-B)*%
X91440000Y-44450000D03*
%TO.P,T4,3,E*%
%TO.N,Net-(D3-K)*%
X91440000Y-45720000D03*
%TD*%
D22*
%TO.P,IC3,1*%
%TO.N,Net-(IC2-O5)*%
X94140000Y-73100000D03*
D23*
%TO.P,IC3,2*%
%TO.N,Net-(T2-B)*%
X91600000Y-73100000D03*
%TO.P,IC3,3*%
%TO.N,Net-(EPROMSOCKEL1-~{PGM})*%
X89060000Y-73100000D03*
%TO.P,IC3,4*%
%TO.N,Net-(D2-A)*%
X86520000Y-73100000D03*
%TO.P,IC3,5*%
%TO.N,Net-(IC2-O1)*%
X83980000Y-73100000D03*
%TO.P,IC3,6*%
%TO.N,Net-(IC3-Pad6)*%
X81440000Y-73100000D03*
%TO.P,IC3,7,GND*%
%TO.N,GND*%
X78900000Y-73100000D03*
%TO.P,IC3,8*%
%TO.N,Net-(T3-B)*%
X78900000Y-80720000D03*
%TO.P,IC3,9*%
%TO.N,Net-(IC2-O6)*%
X81440000Y-80720000D03*
%TO.P,IC3,10*%
%TO.N,Net-(T4-B)*%
X83980000Y-80720000D03*
%TO.P,IC3,11*%
%TO.N,Net-(IC2-O7)*%
X86520000Y-80720000D03*
%TO.P,IC3,12*%
%TO.N,Net-(IC2-LE)*%
X89060000Y-80720000D03*
%TO.P,IC3,13*%
%TO.N,SP2*%
X91600000Y-80720000D03*
%TO.P,IC3,14,VCC*%
%TO.N,Net-(D2-A)*%
X94140000Y-80720000D03*
%TD*%
D17*
%TO.P,,1*%
%TO.N,Net-(D2-A)*%
X93000000Y-32600000D03*
%TD*%
D25*
%TO.P,T1,3,E*%
%TO.N,GND*%
X4420000Y-8570000D03*
%TO.P,T1,2,B*%
%TO.N,Net-(D2-A)*%
X4420000Y-7300000D03*
D24*
%TO.P,T1,1,C*%
%TO.N,Net-(T1-C)*%
X4420000Y-6030000D03*
%TD*%
D26*
%TO.P,C6,1*%
%TO.N,GND*%
X73600000Y-74000000D03*
%TO.P,C6,2*%
%TO.N,Net-(EPROMSOCKEL1-VCC)*%
X73600000Y-79000000D03*
%TD*%
D17*
%TO.P,,1*%
%TO.N,Net-(EPROMSOCKEL1-~{PGM})*%
X56400000Y-92000000D03*
%TD*%
%TO.P,,1*%
%TO.N,Net-(D2-A)*%
X37000000Y-23800000D03*
%TD*%
D26*
%TO.P,R9,1*%
%TO.N,Net-(T5-B)*%
X73100000Y-67500000D03*
D11*
%TO.P,R9,2*%
%TO.N,Net-(IC3-Pad6)*%
X85800000Y-67500000D03*
%TD*%
D22*
%TO.P,IC2,1,OE*%
%TO.N,GND*%
X68740000Y-73100000D03*
D23*
%TO.P,IC2,2,O0*%
%TO.N,Net-(EPROMSOCKEL1-A12)*%
X66200000Y-73100000D03*
%TO.P,IC2,3,D0*%
%TO.N,PB0*%
X63660000Y-73100000D03*
%TO.P,IC2,4,D1*%
%TO.N,PB1*%
X61120000Y-73100000D03*
%TO.P,IC2,5,O1*%
%TO.N,Net-(IC2-O1)*%
X58580000Y-73100000D03*
%TO.P,IC2,6,O2*%
%TO.N,Net-(D3-A)*%
X56040000Y-73100000D03*
%TO.P,IC2,7,D2*%
%TO.N,PB2*%
X53500000Y-73100000D03*
%TO.P,IC2,8,D3*%
%TO.N,PB3*%
X50960000Y-73100000D03*
%TO.P,IC2,9,O3*%
%TO.N,Net-(IC1-Reset)*%
X48420000Y-73100000D03*
%TO.P,IC2,10,GND*%
%TO.N,GND*%
X45880000Y-73100000D03*
%TO.P,IC2,11,LE*%
%TO.N,Net-(IC2-LE)*%
X45880000Y-80720000D03*
%TO.P,IC2,12,O4*%
%TO.N,Net-(EPROMSOCKEL1-~{PGM})*%
X48420000Y-80720000D03*
%TO.P,IC2,13,D4*%
%TO.N,PB4*%
X50960000Y-80720000D03*
%TO.P,IC2,14,D5*%
%TO.N,PB5*%
X53500000Y-80720000D03*
%TO.P,IC2,15,O5*%
%TO.N,Net-(IC2-O5)*%
X56040000Y-80720000D03*
%TO.P,IC2,16,O6*%
%TO.N,Net-(IC2-O6)*%
X58580000Y-80720000D03*
%TO.P,IC2,17,D6*%
%TO.N,PB6*%
X61120000Y-80720000D03*
%TO.P,IC2,18,D7*%
%TO.N,PB7*%
X63660000Y-80720000D03*
%TO.P,IC2,19,O7*%
%TO.N,Net-(IC2-O7)*%
X66200000Y-80720000D03*
%TO.P,IC2,20,VCC*%
%TO.N,Net-(EPROMSOCKEL1-VCC)*%
X68740000Y-80720000D03*
%TD*%
D17*
%TO.P,,1*%
%TO.N,SP1*%
X102200000Y-78800000D03*
%TD*%
D26*
%TO.P,R3,1*%
%TO.N,Net-(D2-A)*%
X36700000Y-35320000D03*
D11*
%TO.P,R3,2*%
%TO.N,Net-(T3-B)*%
X36700000Y-45480000D03*
%TD*%
D26*
%TO.P,R10,1*%
%TO.N,Net-(IC2-LE)*%
X85200000Y-85650000D03*
D11*
%TO.P,R10,2*%
%TO.N,Net-(EPROMSOCKEL1-VCC)*%
X85200000Y-98350000D03*
%TD*%
D20*
%TO.P,T3,1,C*%
%TO.N,Net-(D2-A)*%
X37430000Y-31100000D03*
D21*
%TO.P,T3,2,B*%
%TO.N,Net-(T3-B)*%
X38700000Y-31100000D03*
%TO.P,T3,3,E*%
%TO.N,Net-(D4-K)*%
X39970000Y-31100000D03*
%TD*%
D17*
%TO.P,,1*%
%TO.N,SP1*%
X99800000Y-65600000D03*
%TD*%
%TO.P,,1*%
%TO.N,Net-(T2-B)*%
X50000000Y-28800000D03*
%TD*%
D26*
%TO.P,R2,1*%
%TO.N,+5V*%
X3840000Y-15800000D03*
D11*
%TO.P,R2,2*%
%TO.N,Net-(D2-A)*%
X14000000Y-15800000D03*
%TD*%
D28*
%TO.P,IC4,3,VO*%
%TO.N,Net-(IC4-VO)*%
X17780000Y-7620000D03*
%TO.P,IC4,2,GND*%
%TO.N,Net-(D1-A)*%
X20320000Y-7620000D03*
D29*
%TO.P,IC4,1,VI*%
%TO.N,Net-(D5-K)*%
X22860000Y-7620000D03*
%TD*%
D26*
%TO.P,R5,1*%
%TO.N,GND*%
X84080000Y-9700000D03*
D11*
%TO.P,R5,2*%
%TO.N,Net-(LED1-K)*%
X99320000Y-9700000D03*
%TD*%
D26*
%TO.P,R4,1*%
%TO.N,GND*%
X59600000Y-26600000D03*
D11*
%TO.P,R4,2*%
%TO.N,Net-(D4-K)*%
X49440000Y-26600000D03*
%TD*%
D26*
%TO.P,C5,1*%
%TO.N,Net-(EPROMSOCKEL1-VCC)*%
X42400000Y-16200000D03*
%TO.P,C5,2*%
%TO.N,GND*%
X42400000Y-21200000D03*
%TD*%
D30*
%TO.N,Net-(EPROMSOCKEL1-A10)*%
X60960000Y-54260000D02*
X60960000Y-53340000D01*
X63000000Y-56300000D02*
X60960000Y-54260000D01*
X80500000Y-56300000D02*
X63000000Y-56300000D01*
X82800000Y-23100000D02*
X82800000Y-54000000D01*
X82800000Y-54000000D02*
X80500000Y-56300000D01*
X73400000Y-9800000D02*
X79200000Y-15600000D01*
X48540000Y-14660000D02*
X53400000Y-9800000D01*
X53400000Y-9800000D02*
X73400000Y-9800000D01*
X79200000Y-15600000D02*
X79200000Y-19500000D01*
X79200000Y-19500000D02*
X82800000Y-23100000D01*
X48540000Y-15200000D02*
X48540000Y-14660000D01*
%TO.N,Net-(EPROMSOCKEL1-A9)*%
X68580000Y-53480000D02*
X68580000Y-53340000D01*
X70600000Y-55500000D02*
X68580000Y-53480000D01*
X79600000Y-55500000D02*
X70600000Y-55500000D01*
X81600000Y-23600000D02*
X81600000Y-53500000D01*
X77700000Y-19700000D02*
X81600000Y-23600000D01*
X77700000Y-16400000D02*
X77700000Y-19700000D01*
X55100000Y-10800000D02*
X72100000Y-10800000D01*
X51080000Y-14820000D02*
X55100000Y-10800000D01*
X72100000Y-10800000D02*
X77700000Y-16400000D01*
X81600000Y-53500000D02*
X79600000Y-55500000D01*
X51080000Y-15200000D02*
X51080000Y-14820000D01*
%TO.N,Net-(EPROMSOCKEL1-A7)*%
X74200000Y-37560000D02*
X73660000Y-38100000D01*
X76000000Y-28800000D02*
X74200000Y-30600000D01*
X56100000Y-12100000D02*
X70600000Y-12100000D01*
X70600000Y-12100000D02*
X76000000Y-17500000D01*
X53620000Y-14580000D02*
X56100000Y-12100000D01*
X76000000Y-17500000D02*
X76000000Y-28800000D01*
X74200000Y-30600000D02*
X74200000Y-37560000D01*
X53620000Y-15200000D02*
X53620000Y-14580000D01*
%TO.N,Net-(EPROMSOCKEL1-A8)*%
X71120000Y-49980000D02*
X71120000Y-53340000D01*
X72370000Y-48730000D02*
X71120000Y-49980000D01*
X72370000Y-30030000D02*
X72370000Y-48730000D01*
X69400000Y-13300000D02*
X74100000Y-18000000D01*
X56160000Y-14540000D02*
X57400000Y-13300000D01*
X74100000Y-18000000D02*
X74100000Y-28300000D01*
X74100000Y-28300000D02*
X72370000Y-30030000D01*
X56160000Y-15200000D02*
X56160000Y-14540000D01*
X57400000Y-13300000D02*
X69400000Y-13300000D01*
D31*
%TO.N,Net-(EPROMSOCKEL1-VCC)*%
X107270000Y-15330000D02*
X107600000Y-15000000D01*
X107600000Y-15000000D02*
X107600000Y-10365000D01*
X107270000Y-22270000D02*
X107270000Y-15330000D01*
X107000000Y-22540000D02*
X107270000Y-22270000D01*
%TO.N,Net-(D2-A)*%
X103800000Y-26700000D02*
X107090000Y-29990000D01*
X107090000Y-29990000D02*
X107280000Y-29990000D01*
%TO.N,Net-(IC4-VO)*%
X18500000Y-3000000D02*
X17780000Y-3720000D01*
X17780000Y-3720000D02*
X17780000Y-7620000D01*
X112000000Y-27900000D02*
X112000000Y-7800000D01*
X112000000Y-7800000D02*
X107200000Y-3000000D01*
X107200000Y-3000000D02*
X18500000Y-3000000D01*
X109900000Y-30000000D02*
X112000000Y-27900000D01*
D30*
%TO.N,Net-(D3-K)*%
X67900000Y-67000000D02*
X69250000Y-67000000D01*
X66300000Y-65400000D02*
X67900000Y-67000000D01*
X66300000Y-63000000D02*
X66300000Y-65400000D01*
X59700000Y-56400000D02*
X66300000Y-63000000D01*
X59700000Y-48100000D02*
X59700000Y-56400000D01*
X60700000Y-47100000D02*
X59700000Y-48100000D01*
X62300000Y-47100000D02*
X60700000Y-47100000D01*
X63500000Y-48300000D02*
X62300000Y-47100000D01*
X63500000Y-53340000D02*
X63500000Y-48300000D01*
D31*
%TO.N,Net-(D5-A)*%
X19700000Y-29160000D02*
X9600000Y-29160000D01*
X9400000Y-28960000D02*
X9400000Y-18900000D01*
X9400000Y-29360000D02*
X9400000Y-41600000D01*
D30*
X9600000Y-29160000D02*
X9400000Y-29360000D01*
D31*
X9600000Y-29160000D02*
X9400000Y-28960000D01*
D30*
%TO.N,Net-(D5-K)*%
X29400000Y-19300000D02*
X29600000Y-19100000D01*
D31*
X29400000Y-41600000D02*
X29400000Y-19300000D01*
%TO.N,Net-(D7-A)*%
X9400000Y-79800000D02*
X14950000Y-74250000D01*
X14950000Y-74250000D02*
X19300000Y-74250000D01*
D30*
%TO.N,Net-(D6-A)*%
X29400000Y-57100000D02*
X29500000Y-57000000D01*
D31*
X29400000Y-79800000D02*
X29400000Y-57100000D01*
%TO.N,GND*%
X105800000Y-33400000D02*
X105800000Y-75500000D01*
X101300000Y-28900000D02*
X105800000Y-33400000D01*
X101300000Y-24700000D02*
X101300000Y-28900000D01*
X96000000Y-19400000D02*
X101300000Y-24700000D01*
X94000000Y-19400000D02*
X96000000Y-19400000D01*
X105800000Y-88600000D02*
X105800000Y-75500000D01*
X104100000Y-90300000D02*
X105800000Y-88600000D01*
X100200000Y-90300000D02*
X104100000Y-90300000D01*
X89831010Y-100668990D02*
X100200000Y-90300000D01*
D30*
X89443809Y-100668990D02*
X89831010Y-100668990D01*
%TO.N,Net-(EPROMSOCKEL1-VCC)*%
X106680000Y-22860000D02*
X107000000Y-22540000D01*
D31*
%TO.N,GND*%
X45500000Y-102500000D02*
X45500000Y-109500000D01*
X37300000Y-101500000D02*
X44500000Y-101500000D01*
X33200000Y-52700000D02*
X33200000Y-97400000D01*
X33200000Y-97400000D02*
X37300000Y-101500000D01*
X29600000Y-49100000D02*
X33200000Y-52700000D01*
X44500000Y-101500000D02*
X45500000Y-102500000D01*
D30*
X89500000Y-100725181D02*
X89443809Y-100668990D01*
D31*
X89500000Y-109500000D02*
X89500000Y-100725181D01*
D30*
%TO.N,PB0*%
X81500000Y-95900000D02*
X81500000Y-109500000D01*
X77500000Y-91900000D02*
X81500000Y-95900000D01*
X74900000Y-70200000D02*
X76400000Y-71700000D01*
X76400000Y-75600000D02*
X77500000Y-76700000D01*
X73400000Y-70200000D02*
X74900000Y-70200000D01*
X77500000Y-76700000D02*
X77500000Y-91900000D01*
X72400000Y-69200000D02*
X73400000Y-70200000D01*
X63660000Y-69200000D02*
X72400000Y-69200000D01*
X63660000Y-68600000D02*
X63660000Y-69200000D01*
X76400000Y-71700000D02*
X76400000Y-75600000D01*
%TO.N,PB1*%
X63020000Y-75000000D02*
X61120000Y-73100000D01*
X69100000Y-75000000D02*
X63020000Y-75000000D01*
X69800000Y-75700000D02*
X69100000Y-75000000D01*
X76600000Y-77900000D02*
X74400000Y-75700000D01*
X76600000Y-96100000D02*
X76600000Y-77900000D01*
X77600000Y-97100000D02*
X76600000Y-96100000D01*
X74400000Y-75700000D02*
X69800000Y-75700000D01*
X77600000Y-109400000D02*
X77600000Y-97100000D01*
X77500000Y-109500000D02*
X77600000Y-109400000D01*
%TO.N,PB2*%
X73500000Y-99000000D02*
X73500000Y-109500000D01*
X72000000Y-97500000D02*
X73500000Y-99000000D01*
X70800000Y-76600000D02*
X72000000Y-77800000D01*
X69200000Y-76600000D02*
X70800000Y-76600000D01*
X68700000Y-76100000D02*
X69200000Y-76600000D01*
X55500000Y-75100000D02*
X61700000Y-75100000D01*
X53500000Y-73100000D02*
X55500000Y-75100000D01*
X61700000Y-75100000D02*
X62700000Y-76100000D01*
X62700000Y-76100000D02*
X68700000Y-76100000D01*
X72000000Y-77800000D02*
X72000000Y-97500000D01*
%TO.N,PB3*%
X69900000Y-109100000D02*
X69500000Y-109500000D01*
X69900000Y-91800000D02*
X69900000Y-109100000D01*
X71000000Y-90700000D02*
X69900000Y-91800000D01*
X71000000Y-78600000D02*
X71000000Y-90700000D01*
X70400000Y-78000000D02*
X71000000Y-78600000D01*
X69200000Y-78000000D02*
X70400000Y-78000000D01*
X68200000Y-77000000D02*
X69200000Y-78000000D01*
X53300000Y-76000000D02*
X61610050Y-76000000D01*
X61610050Y-76000000D02*
X62610050Y-77000000D01*
X50960000Y-73100000D02*
X50960000Y-73660000D01*
X50960000Y-73660000D02*
X53300000Y-76000000D01*
X62610050Y-77000000D02*
X68200000Y-77000000D01*
%TO.N,PB5*%
X61500000Y-101500000D02*
X61500000Y-109500000D01*
X42800000Y-87100000D02*
X50300000Y-94600000D01*
X42800000Y-79900000D02*
X42800000Y-87100000D01*
X53200000Y-78700000D02*
X44000000Y-78700000D01*
X53500000Y-79000000D02*
X53200000Y-78700000D01*
X54600000Y-94600000D02*
X61500000Y-101500000D01*
X44000000Y-78700000D02*
X42800000Y-79900000D01*
X50300000Y-94600000D02*
X54600000Y-94600000D01*
X53500000Y-80720000D02*
X53500000Y-79000000D01*
%TO.N,PB6*%
X57500000Y-101800000D02*
X57500000Y-109500000D01*
X53000000Y-97300000D02*
X57500000Y-101800000D01*
X49900000Y-97300000D02*
X53000000Y-97300000D01*
X60300000Y-77800000D02*
X42700000Y-77800000D01*
X42700000Y-77800000D02*
X40900000Y-79600000D01*
X61120000Y-78620000D02*
X60300000Y-77800000D01*
X40900000Y-88300000D02*
X49900000Y-97300000D01*
X61120000Y-80720000D02*
X61120000Y-78620000D01*
X40900000Y-79600000D02*
X40900000Y-88300000D01*
%TO.N,PB7*%
X48000000Y-97800000D02*
X53500000Y-103300000D01*
X38600000Y-97800000D02*
X48000000Y-97800000D01*
X36100000Y-95300000D02*
X38600000Y-97800000D01*
X53500000Y-103300000D02*
X53500000Y-109500000D01*
X36100000Y-75400000D02*
X36100000Y-95300000D01*
%TO.N,PA2*%
X34700000Y-96600000D02*
X37500000Y-99400000D01*
X37500000Y-99400000D02*
X46400000Y-99400000D01*
X34700000Y-54800000D02*
X34700000Y-96600000D01*
X49500000Y-102500000D02*
X49500000Y-109500000D01*
X44500000Y-45000000D02*
X34700000Y-54800000D01*
X48600000Y-45000000D02*
X44500000Y-45000000D01*
X46400000Y-99400000D02*
X49500000Y-102500000D01*
%TO.N,Net-(D1-A)*%
X20320000Y-7160000D02*
X20320000Y-7620000D01*
%TO.N,Net-(D2-K)*%
X78800000Y-26610000D02*
X78800000Y-26900000D01*
D32*
X80010000Y-25400000D02*
X78800000Y-26610000D01*
X78740000Y-26960000D02*
X78740000Y-38100000D01*
D30*
X78800000Y-26900000D02*
X78740000Y-26960000D01*
D32*
%TO.N,Net-(D2-A)*%
X90200000Y-59800000D02*
X100300000Y-49700000D01*
X87630000Y-36630000D02*
X87630000Y-25400000D01*
X88850000Y-25400000D02*
X87630000Y-25400000D01*
X86520000Y-70880000D02*
X90200000Y-67200000D01*
X100300000Y-39900000D02*
X93000000Y-32600000D01*
X90200000Y-67200000D02*
X90200000Y-59800000D01*
X98700000Y-16000000D02*
X100100000Y-17400000D01*
X91440000Y-40440000D02*
X87630000Y-36630000D01*
X93800000Y-28200000D02*
X91650000Y-28200000D01*
X91440000Y-43180000D02*
X91440000Y-40440000D01*
X96900000Y-31300000D02*
X93800000Y-28200000D01*
D30*
X96900000Y-32350000D02*
X96900000Y-31300000D01*
D32*
X87630000Y-19070000D02*
X90700000Y-16000000D01*
X87630000Y-25400000D02*
X87630000Y-19070000D01*
D31*
X37430000Y-31100000D02*
X37430000Y-24230000D01*
D30*
X37430000Y-24230000D02*
X37000000Y-23800000D01*
D32*
X91650000Y-28200000D02*
X88850000Y-25400000D01*
X100300000Y-49700000D02*
X100300000Y-39900000D01*
X86520000Y-73100000D02*
X86520000Y-70880000D01*
X100100000Y-17400000D02*
X103800000Y-17400000D01*
X90700000Y-16000000D02*
X98700000Y-16000000D01*
D30*
%TO.N,Net-(D3-A)*%
X56040000Y-67510000D02*
X56550000Y-67000000D01*
X56040000Y-73100000D02*
X56040000Y-67510000D01*
%TO.N,Net-(D4-K)*%
X39970000Y-31100000D02*
X41890000Y-33020000D01*
X41890000Y-33020000D02*
X45720000Y-33020000D01*
%TO.N,Net-(D5-K)*%
X19800000Y-19100000D02*
X19700000Y-19000000D01*
D31*
X29600000Y-19100000D02*
X19800000Y-19100000D01*
D30*
%TO.N,Net-(D5-A)*%
X19500000Y-29360000D02*
X19700000Y-29160000D01*
D31*
X19500000Y-33820000D02*
X19500000Y-29360000D01*
D30*
%TO.N,Net-(D6-A)*%
X19300000Y-44180000D02*
X19500000Y-43980000D01*
D31*
X29500000Y-57000000D02*
X19600000Y-57000000D01*
D30*
X19600000Y-57000000D02*
X19300000Y-56700000D01*
D31*
X19300000Y-56700000D02*
X19300000Y-44180000D01*
%TO.N,Net-(D7-A)*%
X9400000Y-57300000D02*
X9400000Y-48900000D01*
X19300000Y-69400000D02*
X19300000Y-74250000D01*
X9400000Y-64200000D02*
X14600000Y-69400000D01*
X14600000Y-69400000D02*
X19300000Y-69400000D01*
X9400000Y-57300000D02*
X9400000Y-64200000D01*
D30*
%TO.N,9VAC+Phase*%
X29450000Y-86950000D02*
X29500000Y-87000000D01*
D31*
X19300000Y-86950000D02*
X29450000Y-86950000D01*
D30*
%TO.N,Net-(EPROMSOCKEL1-A6)*%
X69200000Y-44400000D02*
X71120000Y-42480000D01*
X54590000Y-40590000D02*
X58400000Y-44400000D01*
X53600000Y-29900000D02*
X54590000Y-30890000D01*
X71120000Y-42480000D02*
X71120000Y-38100000D01*
X53620000Y-29880000D02*
X53600000Y-29900000D01*
X53620000Y-22820000D02*
X53620000Y-29880000D01*
X54590000Y-30890000D02*
X54590000Y-40590000D01*
X58400000Y-44400000D02*
X69200000Y-44400000D01*
%TO.N,Net-(EPROMSOCKEL1-A5)*%
X53260000Y-18100000D02*
X54900000Y-18100000D01*
X68400000Y-18100000D02*
X70800000Y-20500000D01*
X70800000Y-20500000D02*
X70800000Y-26800000D01*
X48540000Y-22820000D02*
X53260000Y-18100000D01*
X64900000Y-18100000D02*
X68400000Y-18100000D01*
X54900000Y-18100000D02*
X64900000Y-18100000D01*
X70800000Y-26800000D02*
X68580000Y-29020000D01*
X68580000Y-29020000D02*
X68580000Y-38100000D01*
%TO.N,Net-(EPROMSOCKEL1-A4)*%
X51080000Y-22820000D02*
X55000000Y-18900000D01*
X55000000Y-18900000D02*
X67200000Y-18900000D01*
X69300000Y-26100000D02*
X66040000Y-29360000D01*
X66040000Y-29360000D02*
X66040000Y-38100000D01*
X67200000Y-18900000D02*
X69300000Y-21000000D01*
X69300000Y-21000000D02*
X69300000Y-26100000D01*
%TO.N,Net-(EPROMSOCKEL1-A3)*%
X56160000Y-22820000D02*
X59180000Y-19800000D01*
X67900000Y-25400000D02*
X63500000Y-29800000D01*
X63500000Y-29800000D02*
X63500000Y-38100000D01*
X65900000Y-19800000D02*
X67900000Y-21800000D01*
X59180000Y-19800000D02*
X65900000Y-19800000D01*
X67900000Y-21800000D02*
X67900000Y-25400000D01*
%TO.N,Net-(EPROMSOCKEL1-A2)*%
X66200000Y-22300000D02*
X66200000Y-24800000D01*
X58700000Y-22820000D02*
X60820000Y-20700000D01*
X60820000Y-20700000D02*
X64600000Y-20700000D01*
X64600000Y-20700000D02*
X66200000Y-22300000D01*
X60960000Y-30040000D02*
X60960000Y-38100000D01*
X66200000Y-24800000D02*
X60960000Y-30040000D01*
%TO.N,Net-(EPROMSOCKEL1-A1)*%
X61240000Y-22820000D02*
X61240000Y-27460000D01*
X61240000Y-27460000D02*
X58420000Y-30280000D01*
X58420000Y-30280000D02*
X58420000Y-38100000D01*
%TO.N,Net-(EPROMSOCKEL1-A0)*%
X69900000Y-37152233D02*
X69870000Y-37182233D01*
X69900000Y-40000000D02*
X68800000Y-41100000D01*
X69870000Y-37182233D02*
X69870000Y-39017767D01*
X68200000Y-15200000D02*
X72500000Y-19500000D01*
X69900000Y-30000000D02*
X69900000Y-37152233D01*
X72500000Y-19500000D02*
X72500000Y-27400000D01*
X69900000Y-39047767D02*
X69900000Y-40000000D01*
X72500000Y-27400000D02*
X69900000Y-30000000D01*
X68800000Y-41100000D02*
X57600000Y-41100000D01*
X63780000Y-15200000D02*
X68200000Y-15200000D01*
X55880000Y-39380000D02*
X55880000Y-38100000D01*
X69870000Y-39017767D02*
X69900000Y-39047767D01*
X57600000Y-41100000D02*
X55880000Y-39380000D01*
%TO.N,PB0*%
X57130000Y-56930000D02*
X57130000Y-46130000D01*
X53340000Y-42340000D02*
X53340000Y-38100000D01*
X63660000Y-73100000D02*
X63660000Y-68600000D01*
X63660000Y-63460000D02*
X57130000Y-56930000D01*
X57130000Y-46130000D02*
X53340000Y-42340000D01*
X63660000Y-68600000D02*
X63660000Y-63460000D01*
%TO.N,PB1*%
X61120000Y-64720000D02*
X54630000Y-58230000D01*
X61120000Y-73100000D02*
X61120000Y-64720000D01*
X54630000Y-46030000D02*
X50800000Y-42200000D01*
X50800000Y-42200000D02*
X50800000Y-38100000D01*
X54630000Y-58230000D02*
X54630000Y-46030000D01*
%TO.N,PB2*%
X52090000Y-46090000D02*
X48260000Y-42260000D01*
X48260000Y-42260000D02*
X48260000Y-38100000D01*
X53500000Y-73100000D02*
X53500000Y-60400000D01*
X52090000Y-58990000D02*
X52090000Y-46090000D01*
X53500000Y-60400000D02*
X52090000Y-58990000D01*
D32*
%TO.N,Net-(EPROMSOCKEL1-VCC)*%
X81600000Y-57200000D02*
X86400000Y-52400000D01*
X74560000Y-58300000D02*
X75660000Y-57200000D01*
D30*
X74560000Y-59100000D02*
X74560000Y-58300000D01*
D32*
X75660000Y-57200000D02*
X81600000Y-57200000D01*
D30*
%TO.N,PB3*%
X45720000Y-62220000D02*
X45720000Y-53340000D01*
X50960000Y-67460000D02*
X45720000Y-62220000D01*
X50960000Y-73100000D02*
X50960000Y-67460000D01*
%TO.N,PB4*%
X50960000Y-84560000D02*
X55800000Y-89400000D01*
X65700000Y-101800000D02*
X65700000Y-103500000D01*
X55800000Y-89400000D02*
X56900000Y-89400000D01*
X50960000Y-80720000D02*
X50960000Y-84560000D01*
X58900000Y-91400000D02*
X58900000Y-95000000D01*
X56900000Y-89400000D02*
X58900000Y-91400000D01*
X58900000Y-95000000D02*
X65700000Y-101800000D01*
%TO.N,PB7*%
X36300000Y-75600000D02*
X36100000Y-75400000D01*
X49700000Y-75600000D02*
X36300000Y-75600000D01*
X63660000Y-80720000D02*
X63660000Y-79510000D01*
X40000000Y-54800000D02*
X39200000Y-55600000D01*
X50900000Y-76800000D02*
X49700000Y-75600000D01*
X36100000Y-58700000D02*
X36100000Y-67200000D01*
X36100000Y-67200000D02*
X36100000Y-75400000D01*
X60950000Y-76800000D02*
X50900000Y-76800000D01*
X42800000Y-54800000D02*
X40000000Y-54800000D01*
X63660000Y-79510000D02*
X60950000Y-76800000D01*
X39200000Y-55600000D02*
X36100000Y-58700000D01*
%TO.N,Net-(EPROMSOCKEL1-~{PGM})*%
X48420000Y-80720000D02*
X48420000Y-87620000D01*
X92100000Y-68900000D02*
X89060000Y-71940000D01*
X52800000Y-92000000D02*
X56400000Y-92000000D01*
X92900000Y-91800000D02*
X89200000Y-88100000D01*
X48420000Y-87620000D02*
X52800000Y-92000000D01*
X95900000Y-91800000D02*
X92900000Y-91800000D01*
X99200000Y-88500000D02*
X95900000Y-91800000D01*
X89200000Y-88100000D02*
X89200000Y-86000000D01*
X89060000Y-71940000D02*
X89060000Y-73100000D01*
X99000000Y-73800000D02*
X99000000Y-71600000D01*
X99000000Y-71600000D02*
X96300000Y-68900000D01*
X99200000Y-78800000D02*
X99200000Y-88500000D01*
X96300000Y-68900000D02*
X92100000Y-68900000D01*
%TO.N,GND*%
X23500000Y-46300000D02*
X26800000Y-46300000D01*
X78900000Y-74100000D02*
X78900000Y-73100000D01*
D31*
X80300000Y-75500000D02*
X78900000Y-74100000D01*
X82900000Y-63700000D02*
X78900000Y-67700000D01*
D30*
X4420000Y-8570000D02*
X10040000Y-8570000D01*
X3530000Y-8570000D02*
X1700000Y-10400000D01*
X4420000Y-8570000D02*
X3530000Y-8570000D01*
X23500000Y-27800000D02*
X23500000Y-46300000D01*
D31*
X105800000Y-75500000D02*
X80300000Y-75500000D01*
D30*
X3400000Y-19500000D02*
X4300000Y-19500000D01*
X1700000Y-17800000D02*
X3400000Y-19500000D01*
X26800000Y-46300000D02*
X29600000Y-49100000D01*
X4300000Y-19500000D02*
X7200000Y-16600000D01*
X1700000Y-10400000D02*
X1700000Y-17800000D01*
X12300000Y-16600000D02*
X23500000Y-27800000D01*
D31*
X78900000Y-67700000D02*
X78900000Y-73100000D01*
X84200000Y-63700000D02*
X82900000Y-63700000D01*
D30*
X7200000Y-16600000D02*
X12300000Y-16600000D01*
D31*
%TO.N,Net-(D2-A)*%
X105700000Y-15700000D02*
X105700000Y-19600000D01*
X53100000Y-7900000D02*
X90500000Y-7900000D01*
X27100000Y-9400000D02*
X51600000Y-9400000D01*
X3840000Y-12600000D02*
X10600000Y-12600000D01*
X51600000Y-9400000D02*
X53100000Y-7900000D01*
X12100000Y-11100000D02*
X25400000Y-11100000D01*
X103800000Y-21500000D02*
X103800000Y-26700000D01*
X25400000Y-11100000D02*
X27100000Y-9400000D01*
X105700000Y-19600000D02*
X103800000Y-21500000D01*
X96400000Y-13800000D02*
X103800000Y-13800000D01*
X10600000Y-12600000D02*
X12100000Y-11100000D01*
X90500000Y-7900000D02*
X96400000Y-13800000D01*
X103800000Y-13800000D02*
X105700000Y-15700000D01*
D30*
%TO.N,Net-(T2-B)*%
X14000000Y-12600000D02*
X38200000Y-12600000D01*
X38200000Y-12600000D02*
X40400000Y-14800000D01*
X40400000Y-14800000D02*
X40400000Y-22400000D01*
X40400000Y-22400000D02*
X46800000Y-28800000D01*
X46800000Y-28800000D02*
X50000000Y-28800000D01*
%TO.N,Net-(D2-A)*%
X27800000Y-15800000D02*
X14000000Y-15800000D01*
X50000000Y-31600000D02*
X47600000Y-31600000D01*
X29100000Y-17100000D02*
X27800000Y-15800000D01*
X47600000Y-31600000D02*
X33100000Y-17100000D01*
X33100000Y-17100000D02*
X29100000Y-17100000D01*
%TO.N,Net-(T3-B)*%
X38700000Y-43480000D02*
X36700000Y-45480000D01*
X38700000Y-31100000D02*
X38700000Y-43480000D01*
D31*
%TO.N,Net-(LED1-K)*%
X107600000Y-7825000D02*
X101195000Y-7825000D01*
X101195000Y-7825000D02*
X99320000Y-9700000D01*
D30*
%TO.N,Net-(T4-B)*%
X82300000Y-76700000D02*
X83980000Y-78380000D01*
X96900000Y-47900000D02*
X77400000Y-67400000D01*
X79400000Y-76700000D02*
X82300000Y-76700000D01*
X96900000Y-45050000D02*
X96900000Y-47900000D01*
X77400000Y-67400000D02*
X77400000Y-74700000D01*
X83980000Y-78380000D02*
X83980000Y-80720000D01*
X77400000Y-74700000D02*
X79400000Y-76700000D01*
%TO.N,Net-(IC2-O1)*%
X58580000Y-73100000D02*
X58580000Y-65980000D01*
X58580000Y-65980000D02*
X55800000Y-63200000D01*
%TO.N,Net-(T5-B)*%
X75830000Y-64770000D02*
X73100000Y-67500000D01*
X75830000Y-59100000D02*
X75830000Y-64770000D01*
%TO.N,Net-(IC3-Pad6)*%
X85800000Y-67500000D02*
X84200000Y-67500000D01*
X81440000Y-70260000D02*
X81440000Y-73100000D01*
X84200000Y-67500000D02*
X81440000Y-70260000D01*
%TO.N,Net-(IC2-LE)*%
X85200000Y-85650000D02*
X89060000Y-81790000D01*
X89060000Y-81790000D02*
X89060000Y-80720000D01*
X45880000Y-80720000D02*
X45880000Y-87280000D01*
X45880000Y-87280000D02*
X46400000Y-87800000D01*
%TO.N,Net-(IC2-O5)*%
X56040000Y-85340000D02*
X61400000Y-90700000D01*
X96900000Y-84600000D02*
X93253485Y-88246515D01*
X61400000Y-90700000D02*
X61400000Y-94200000D01*
X93253485Y-88246515D02*
X92084287Y-88246515D01*
X56040000Y-80720000D02*
X56040000Y-85340000D01*
X96900000Y-77400000D02*
X96900000Y-84600000D01*
%TO.N,SP1*%
X99200000Y-60200000D02*
X99800000Y-60800000D01*
X99200000Y-55400000D02*
X99200000Y-60200000D01*
X100800000Y-80200000D02*
X102200000Y-78800000D01*
X99800000Y-60800000D02*
X99800000Y-65600000D01*
X100800000Y-84800000D02*
X100800000Y-80200000D01*
%TD*%
%TA.AperFunction,Conductor*%
%TO.N,Net-(EPROMSOCKEL1-A10)*%
G36*
X49416965Y-13442073D02*
G01*
X49759502Y-13784610D01*
X49762929Y-13792883D01*
X49762561Y-13795796D01*
X49343027Y-15428052D01*
X49337648Y-15435211D01*
X49328782Y-15436471D01*
X49328347Y-15436350D01*
X48546302Y-15202800D01*
X48539355Y-15197149D01*
X48538105Y-15193489D01*
X48349334Y-14046241D01*
X48351372Y-14037521D01*
X48355109Y-14034163D01*
X48775591Y-13795796D01*
X49402923Y-13440167D01*
X49411809Y-13439069D01*
X49416965Y-13442073D01*
G37*
%TD.AperFunction*%
%TD*%
%TA.AperFunction,Conductor*%
%TO.N,Net-(EPROMSOCKEL1-A9)*%
G36*
X69378253Y-53037864D02*
G01*
X69384314Y-53044135D01*
X69989363Y-54531543D01*
X69989306Y-54540498D01*
X69986798Y-54544225D01*
X69643850Y-54887173D01*
X69635577Y-54890600D01*
X69631872Y-54889998D01*
X68590086Y-54542241D01*
X68583324Y-54536371D01*
X68582091Y-54531170D01*
X68579311Y-53347365D01*
X68582718Y-53339087D01*
X68586832Y-53336413D01*
X69369302Y-53037614D01*
X69378253Y-53037864D01*
G37*
%TD.AperFunction*%
%TD*%
%TA.AperFunction,Conductor*%
%TO.N,Net-(EPROMSOCKEL1-A9)*%
G36*
X52048470Y-13509708D02*
G01*
X52391109Y-13852347D01*
X52394536Y-13860620D01*
X52393977Y-13864194D01*
X51883609Y-15455182D01*
X51877819Y-15462013D01*
X51868894Y-15462749D01*
X51868783Y-15462712D01*
X51086500Y-15203098D01*
X51079727Y-15197240D01*
X51078542Y-15193151D01*
X50963080Y-14031567D01*
X50965672Y-14022996D01*
X50969649Y-14019867D01*
X52035129Y-13507436D01*
X52044067Y-13506940D01*
X52048470Y-13509708D01*
G37*
%TD.AperFunction*%
%TD*%
%TA.AperFunction,Conductor*%
%TO.N,Net-(EPROMSOCKEL1-A7)*%
G36*
X54449225Y-13410245D02*
G01*
X54791708Y-13752728D01*
X54795135Y-13761001D01*
X54794849Y-13763574D01*
X54422713Y-15414567D01*
X54417551Y-15421884D01*
X54408726Y-15423408D01*
X54408122Y-15423254D01*
X53626211Y-15202658D01*
X53619179Y-15197114D01*
X53617908Y-15193656D01*
X53393989Y-14053259D01*
X53395758Y-14044482D01*
X53399367Y-14041024D01*
X54434855Y-13408532D01*
X54443700Y-13407145D01*
X54449225Y-13410245D01*
G37*
%TD.AperFunction*%
%TD*%
%TA.AperFunction,Conductor*%
%TO.N,Net-(EPROMSOCKEL1-A7)*%
G36*
X74446657Y-36320580D02*
G01*
X74450084Y-36328768D01*
X74459947Y-37692717D01*
X74456580Y-37701015D01*
X74453490Y-37703262D01*
X73670102Y-38095936D01*
X73661170Y-38096579D01*
X73654588Y-38091078D01*
X73441835Y-37701015D01*
X73126745Y-37123326D01*
X73125792Y-37114423D01*
X73128892Y-37109308D01*
X73946600Y-36320432D01*
X73954723Y-36317153D01*
X74438384Y-36317153D01*
X74446657Y-36320580D01*
G37*
%TD.AperFunction*%
%TD*%
%TA.AperFunction,Conductor*%
%TO.N,Net-(EPROMSOCKEL1-A8)*%
G36*
X71370188Y-51343427D02*
G01*
X71372859Y-51347563D01*
X71856367Y-52626613D01*
X71856087Y-52635563D01*
X71853511Y-52639204D01*
X71128087Y-53333261D01*
X71119741Y-53336504D01*
X71111911Y-53333261D01*
X70386487Y-52639202D01*
X70382879Y-52631008D01*
X70383631Y-52626617D01*
X70867141Y-51347562D01*
X70873272Y-51341036D01*
X70878085Y-51340000D01*
X71361915Y-51340000D01*
X71370188Y-51343427D01*
G37*
%TD.AperFunction*%
%TD*%
%TA.AperFunction,Conductor*%
%TO.N,Net-(EPROMSOCKEL1-A8)*%
G36*
X56965356Y-13394332D02*
G01*
X57307810Y-13736786D01*
X57311237Y-13745059D01*
X57310988Y-13747462D01*
X56962552Y-15407875D01*
X56957499Y-15415268D01*
X56948698Y-15416923D01*
X56948010Y-15416756D01*
X56166169Y-15202590D01*
X56159095Y-15197099D01*
X56157814Y-15193733D01*
X55916718Y-14056683D01*
X55918355Y-14047879D01*
X55921900Y-14044375D01*
X56950825Y-13392720D01*
X56959646Y-13391189D01*
X56965356Y-13394332D01*
G37*
%TD.AperFunction*%
%TD*%
%TA.AperFunction,Conductor*%
%TO.N,Net-(EPROMSOCKEL1-VCC)*%
G36*
X107604487Y-10365864D02*
G01*
X108422077Y-10705504D01*
X108428403Y-10711843D01*
X108428907Y-10719275D01*
X108052289Y-12156266D01*
X108046876Y-12163400D01*
X108040971Y-12165000D01*
X107159029Y-12165000D01*
X107150756Y-12161573D01*
X107147711Y-12156266D01*
X106771092Y-10719275D01*
X106772310Y-10710404D01*
X106777921Y-10705504D01*
X107595512Y-10365863D01*
X107604465Y-10365855D01*
X107604487Y-10365864D01*
G37*
%TD.AperFunction*%
%TD*%
%TA.AperFunction,Conductor*%
%TO.N,Net-(EPROMSOCKEL1-VCC)*%
G36*
X107720632Y-19503427D02*
G01*
X107723072Y-19506996D01*
X108267151Y-20746032D01*
X108267339Y-20754985D01*
X108265570Y-20758050D01*
X107279132Y-21989598D01*
X107271285Y-21993913D01*
X107262686Y-21991416D01*
X107260868Y-21989598D01*
X106274429Y-20758050D01*
X106271932Y-20749451D01*
X106272846Y-20746037D01*
X106816927Y-19506996D01*
X106823392Y-19500799D01*
X106827641Y-19500000D01*
X107712359Y-19500000D01*
X107720632Y-19503427D01*
G37*
%TD.AperFunction*%
%TD*%
%TA.AperFunction,Conductor*%
%TO.N,Net-(D2-A)*%
G36*
X105797943Y-28056969D02*
G01*
X106442134Y-28270666D01*
X107096251Y-28487657D01*
X107103024Y-28493515D01*
X107104186Y-28497389D01*
X107279579Y-29981168D01*
X107277147Y-29989786D01*
X107271569Y-29993670D01*
X106188729Y-30344808D01*
X106179802Y-30344101D01*
X106175171Y-30339837D01*
X105159572Y-28698970D01*
X105158132Y-28690131D01*
X105161246Y-28684541D01*
X105785987Y-28059800D01*
X105794259Y-28056374D01*
X105797943Y-28056969D01*
G37*
%TD.AperFunction*%
%TD*%
%TA.AperFunction,Conductor*%
%TO.N,Net-(IC4-VO)*%
G36*
X18229392Y-5670927D02*
G01*
X18232388Y-5676054D01*
X18657333Y-7198460D01*
X18656257Y-7207350D01*
X18651035Y-7212198D01*
X17784971Y-7618666D01*
X17776026Y-7619078D01*
X17775029Y-7618666D01*
X16908964Y-7212198D01*
X16902931Y-7205580D01*
X16902666Y-7198460D01*
X17327612Y-5676054D01*
X17333137Y-5669007D01*
X17338881Y-5667500D01*
X18221119Y-5667500D01*
X18229392Y-5670927D01*
G37*
%TD.AperFunction*%
%TD*%
%TA.AperFunction,Conductor*%
%TO.N,Net-(D3-K)*%
G36*
X68457458Y-66207458D02*
G01*
X69241936Y-66991936D01*
X69245363Y-67000209D01*
X69241936Y-67008482D01*
X69241440Y-67008950D01*
X68457327Y-67706533D01*
X68448868Y-67709472D01*
X68442302Y-67706977D01*
X67556777Y-67008152D01*
X67552405Y-67000336D01*
X67554840Y-66991719D01*
X67555743Y-66990703D01*
X67899792Y-66646654D01*
X67900224Y-66646264D01*
X68441811Y-66206646D01*
X68450394Y-66204094D01*
X68457458Y-66207458D01*
G37*
%TD.AperFunction*%
%TD*%
%TA.AperFunction,Conductor*%
%TO.N,Net-(D3-K)*%
G36*
X63750188Y-51343427D02*
G01*
X63752859Y-51347563D01*
X64236367Y-52626613D01*
X64236087Y-52635563D01*
X64233511Y-52639204D01*
X63508088Y-53333261D01*
X63499742Y-53336504D01*
X63491912Y-53333261D01*
X63148502Y-53004700D01*
X62766487Y-52639202D01*
X62762879Y-52631008D01*
X62763631Y-52626617D01*
X63247141Y-51347562D01*
X63253272Y-51341036D01*
X63258085Y-51340000D01*
X63741915Y-51340000D01*
X63750188Y-51343427D01*
G37*
%TD.AperFunction*%
%TD*%
%TA.AperFunction,Conductor*%
%TO.N,Net-(D5-A)*%
G36*
X19393088Y-28424577D02*
G01*
X19397622Y-28429965D01*
X19699134Y-29155510D01*
X19699144Y-29164463D01*
X19699135Y-29164485D01*
X19699134Y-29164490D01*
X19397622Y-29890034D01*
X19391283Y-29896359D01*
X19384267Y-29896962D01*
X18109149Y-29612044D01*
X18101822Y-29606896D01*
X18100000Y-29600626D01*
X18100000Y-28719373D01*
X18103427Y-28711100D01*
X18109146Y-28707956D01*
X19384269Y-28423037D01*
X19393088Y-28424577D01*
G37*
%TD.AperFunction*%
%TD*%
%TA.AperFunction,Conductor*%
%TO.N,Net-(D5-A)*%
G36*
X9407486Y-18908293D02*
G01*
X9408991Y-18909798D01*
X10394893Y-20093867D01*
X10397554Y-20102417D01*
X10396154Y-20106991D01*
X9853334Y-21093938D01*
X9846344Y-21099536D01*
X9843082Y-21100000D01*
X8956918Y-21100000D01*
X8948645Y-21096573D01*
X8946666Y-21093938D01*
X8403845Y-20106991D01*
X8402861Y-20098091D01*
X8405104Y-20093868D01*
X9391009Y-18909797D01*
X9398936Y-18905632D01*
X9407486Y-18908293D01*
G37*
%TD.AperFunction*%
%TD*%
%TA.AperFunction,Conductor*%
%TO.N,Net-(D5-A)*%
G36*
X9849244Y-39803427D02*
G01*
X9852289Y-39808734D01*
X10228907Y-41245724D01*
X10227689Y-41254595D01*
X10222077Y-41259495D01*
X9404487Y-41599135D01*
X9395533Y-41599144D01*
X9395511Y-41599135D01*
X8577922Y-41259495D01*
X8571596Y-41253156D01*
X8571092Y-41245724D01*
X8947711Y-39808734D01*
X8953124Y-39801600D01*
X8959029Y-39800000D01*
X9840971Y-39800000D01*
X9849244Y-39803427D01*
G37*
%TD.AperFunction*%
%TD*%
%TA.AperFunction,Conductor*%
%TO.N,Net-(D5-K)*%
G36*
X29606975Y-19108686D02*
G01*
X29608403Y-19110276D01*
X30490137Y-20293490D01*
X30492332Y-20302171D01*
X30490587Y-20306823D01*
X29853456Y-21294642D01*
X29846092Y-21299737D01*
X29843624Y-21300000D01*
X28957474Y-21300000D01*
X28949201Y-21296573D01*
X28946858Y-21293218D01*
X28490045Y-20307118D01*
X28489677Y-20298171D01*
X28492076Y-20294251D01*
X29590440Y-19109312D01*
X29598578Y-19105575D01*
X29606975Y-19108686D01*
G37*
%TD.AperFunction*%
%TD*%
%TA.AperFunction,Conductor*%
%TO.N,Net-(D5-K)*%
G36*
X29849244Y-39803427D02*
G01*
X29852289Y-39808734D01*
X30228907Y-41245724D01*
X30227689Y-41254595D01*
X30222077Y-41259495D01*
X29404488Y-41599135D01*
X29395534Y-41599144D01*
X29395512Y-41599135D01*
X28577922Y-41259495D01*
X28571596Y-41253156D01*
X28571092Y-41245724D01*
X28947711Y-39808734D01*
X28953124Y-39801600D01*
X28959029Y-39800000D01*
X29840971Y-39800000D01*
X29849244Y-39803427D01*
G37*
%TD.AperFunction*%
%TD*%
%TA.AperFunction,Conductor*%
%TO.N,Net-(D7-A)*%
G36*
X10360977Y-78215393D02*
G01*
X10984606Y-78839022D01*
X10988033Y-78847295D01*
X10986433Y-78853200D01*
X10236637Y-80135615D01*
X10229503Y-80141028D01*
X10222071Y-80140524D01*
X9403785Y-79802562D01*
X9397446Y-79796236D01*
X9397437Y-79796214D01*
X9059475Y-78977926D01*
X9059484Y-78968974D01*
X9064381Y-78963364D01*
X10346802Y-78213565D01*
X10355670Y-78212348D01*
X10360977Y-78215393D01*
G37*
%TD.AperFunction*%
%TD*%
%TA.AperFunction,Conductor*%
%TO.N,Net-(D7-A)*%
G36*
X18505646Y-73455639D02*
G01*
X19292711Y-74241722D01*
X19296143Y-74249993D01*
X19292721Y-74258268D01*
X19292711Y-74258278D01*
X18505646Y-75044360D01*
X18497371Y-75047782D01*
X18492688Y-75046801D01*
X17707010Y-74703066D01*
X17700804Y-74696610D01*
X17700000Y-74692347D01*
X17700000Y-73807652D01*
X17703427Y-73799379D01*
X17707010Y-73796933D01*
X18492690Y-73453197D01*
X18501641Y-73453021D01*
X18505646Y-73455639D01*
G37*
%TD.AperFunction*%
%TD*%
%TA.AperFunction,Conductor*%
%TO.N,Net-(D6-A)*%
G36*
X29507233Y-57008492D02*
G01*
X29508698Y-57010038D01*
X30441482Y-58193677D01*
X30443912Y-58202296D01*
X30442341Y-58206912D01*
X29853404Y-59194293D01*
X29846223Y-59199643D01*
X29843356Y-59200000D01*
X28957195Y-59200000D01*
X28948922Y-59196573D01*
X28946754Y-59193579D01*
X28717374Y-58739899D01*
X28447971Y-58207058D01*
X28447297Y-58198131D01*
X28449622Y-58194061D01*
X29490722Y-57009555D01*
X29498757Y-57005604D01*
X29507233Y-57008492D01*
G37*
%TD.AperFunction*%
%TD*%
%TA.AperFunction,Conductor*%
%TO.N,Net-(D6-A)*%
G36*
X29849244Y-78003427D02*
G01*
X29852289Y-78008734D01*
X30228907Y-79445724D01*
X30227689Y-79454595D01*
X30222077Y-79459495D01*
X29404488Y-79799135D01*
X29395534Y-79799144D01*
X29395512Y-79799135D01*
X28577922Y-79459495D01*
X28571596Y-79453156D01*
X28571092Y-79445724D01*
X28947711Y-78008734D01*
X28953124Y-78001600D01*
X28959029Y-78000000D01*
X29840971Y-78000000D01*
X29849244Y-78003427D01*
G37*
%TD.AperFunction*%
%TD*%
%TA.AperFunction,Conductor*%
%TO.N,GND*%
G36*
X95791267Y-18947711D02*
G01*
X95798400Y-18953123D01*
X95800000Y-18959028D01*
X95800000Y-19840971D01*
X95796573Y-19849244D01*
X95791266Y-19852289D01*
X94354275Y-20228907D01*
X94345404Y-20227689D01*
X94340504Y-20222077D01*
X94000864Y-19404487D01*
X94000855Y-19395534D01*
X94340504Y-18577921D01*
X94346843Y-18571596D01*
X94354274Y-18571092D01*
X95791267Y-18947711D01*
G37*
%TD.AperFunction*%
%TD*%
%TA.AperFunction,Conductor*%
%TO.N,GND*%
G36*
X90413967Y-99454480D02*
G01*
X90417402Y-99456860D01*
X91040593Y-100080051D01*
X91044020Y-100088324D01*
X91040991Y-100096180D01*
X90017736Y-101225577D01*
X90009641Y-101229407D01*
X90001209Y-101226392D01*
X90000802Y-101226004D01*
X89444760Y-100671351D01*
X89442209Y-100667535D01*
X89142274Y-99941056D01*
X89142285Y-99932102D01*
X89148624Y-99925777D01*
X89148929Y-99925656D01*
X90405018Y-99454179D01*
X90413967Y-99454480D01*
G37*
%TD.AperFunction*%
%TD*%
%TA.AperFunction,Conductor*%
%TO.N,GND*%
G36*
X45951355Y-102503427D02*
G01*
X45953334Y-102506062D01*
X46498043Y-103496443D01*
X46499332Y-103504004D01*
X45511541Y-109431742D01*
X45506801Y-109439339D01*
X45498077Y-109441360D01*
X45490480Y-109436620D01*
X45488459Y-109431742D01*
X44500667Y-103504004D01*
X44501956Y-103496443D01*
X45046666Y-102506062D01*
X45053656Y-102500464D01*
X45056918Y-102500000D01*
X45943082Y-102500000D01*
X45951355Y-102503427D01*
G37*
%TD.AperFunction*%
%TD*%
%TA.AperFunction,Conductor*%
%TO.N,GND*%
G36*
X30753860Y-48843503D02*
G01*
X30758160Y-48848349D01*
X31191676Y-49756796D01*
X31437506Y-50271940D01*
X31460571Y-50320272D01*
X31461042Y-50329214D01*
X31458285Y-50333584D01*
X30833560Y-50958309D01*
X30825287Y-50961736D01*
X30820290Y-50960615D01*
X29362133Y-50271940D01*
X29356116Y-50265309D01*
X29355680Y-50258959D01*
X29597746Y-49106654D01*
X29602800Y-49099263D01*
X29606628Y-49097645D01*
X30745039Y-48841972D01*
X30753860Y-48843503D01*
G37*
%TD.AperFunction*%
%TD*%
%TA.AperFunction,Conductor*%
%TO.N,GND*%
G36*
X89951355Y-102503427D02*
G01*
X89953334Y-102506062D01*
X90498043Y-103496443D01*
X90499332Y-103504004D01*
X89511541Y-109431742D01*
X89506801Y-109439339D01*
X89498077Y-109441360D01*
X89490480Y-109436620D01*
X89488459Y-109431742D01*
X88500667Y-103504004D01*
X88501956Y-103496443D01*
X89046666Y-102506062D01*
X89053656Y-102500464D01*
X89056918Y-102500000D01*
X89943082Y-102500000D01*
X89951355Y-102503427D01*
G37*
%TD.AperFunction*%
%TD*%
%TA.AperFunction,Conductor*%
%TO.N,GND*%
G36*
X90229766Y-100668972D02*
G01*
X90238033Y-100672409D01*
X90241450Y-100680687D01*
X90241255Y-100682800D01*
X89951770Y-102248241D01*
X89946896Y-102255753D01*
X89940265Y-102257813D01*
X89058967Y-102257813D01*
X89050694Y-102254386D01*
X89047669Y-102249154D01*
X88707372Y-100985044D01*
X88708531Y-100976165D01*
X88714178Y-100971199D01*
X89441650Y-100668886D01*
X89446145Y-100667992D01*
X90229766Y-100668972D01*
G37*
%TD.AperFunction*%
%TD*%
%TA.AperFunction,Conductor*%
%TO.N,PB0*%
G36*
X81752423Y-102503427D02*
G01*
X81753510Y-102504680D01*
X82496996Y-103495994D01*
X82499218Y-103504669D01*
X82499177Y-103504937D01*
X81511541Y-109431742D01*
X81506801Y-109439339D01*
X81498077Y-109441360D01*
X81490480Y-109436620D01*
X81488459Y-109431742D01*
X81390696Y-108845068D01*
X80500822Y-103504935D01*
X80502843Y-103496213D01*
X80502946Y-103496071D01*
X81246490Y-102504680D01*
X81254195Y-102500118D01*
X81255850Y-102500000D01*
X81744150Y-102500000D01*
X81752423Y-102503427D01*
G37*
%TD.AperFunction*%
%TD*%
%TA.AperFunction,Conductor*%
%TO.N,PB1*%
G36*
X61918578Y-72772923D02*
G01*
X61924710Y-72778820D01*
X62584940Y-74207402D01*
X62585300Y-74216349D01*
X62582592Y-74220583D01*
X62239569Y-74563606D01*
X62231296Y-74567033D01*
X62228305Y-74566644D01*
X61856773Y-74468365D01*
X61185520Y-74290802D01*
X61178398Y-74285373D01*
X61176826Y-74280060D01*
X61119694Y-73107528D01*
X61122714Y-73099098D01*
X61126911Y-73096146D01*
X61909623Y-72772914D01*
X61918578Y-72772923D01*
G37*
%TD.AperFunction*%
%TD*%
%TA.AperFunction,Conductor*%
%TO.N,PB1*%
G36*
X77852356Y-102503427D02*
G01*
X77853507Y-102504766D01*
X78582831Y-103495941D01*
X78584974Y-103504635D01*
X78584920Y-103504958D01*
X77512501Y-109431905D01*
X77507656Y-109439436D01*
X77498905Y-109441335D01*
X77491374Y-109436490D01*
X77489423Y-109431587D01*
X76586363Y-103504915D01*
X76588504Y-103496221D01*
X76588634Y-103496049D01*
X77346488Y-102504595D01*
X77354234Y-102500103D01*
X77355783Y-102500000D01*
X77844083Y-102500000D01*
X77852356Y-102503427D01*
G37*
%TD.AperFunction*%
%TD*%
%TA.AperFunction,Conductor*%
%TO.N,PB2*%
G36*
X73752423Y-102503427D02*
G01*
X73753510Y-102504680D01*
X74496996Y-103495994D01*
X74499218Y-103504669D01*
X74499177Y-103504937D01*
X73511541Y-109431742D01*
X73506801Y-109439339D01*
X73498077Y-109441360D01*
X73490480Y-109436620D01*
X73488459Y-109431742D01*
X73390696Y-108845068D01*
X72500822Y-103504935D01*
X72502843Y-103496213D01*
X72502946Y-103496071D01*
X73246490Y-102504680D01*
X73254195Y-102500118D01*
X73255850Y-102500000D01*
X73744150Y-102500000D01*
X73752423Y-102503427D01*
G37*
%TD.AperFunction*%
%TD*%
%TA.AperFunction,Conductor*%
%TO.N,PB2*%
G36*
X54298578Y-72772923D02*
G01*
X54304710Y-72778820D01*
X54964940Y-74207402D01*
X54965300Y-74216349D01*
X54962592Y-74220583D01*
X54619569Y-74563606D01*
X54611296Y-74567033D01*
X54608305Y-74566644D01*
X54236773Y-74468365D01*
X53565520Y-74290802D01*
X53558398Y-74285373D01*
X53556826Y-74280060D01*
X53499694Y-73107528D01*
X53502714Y-73099098D01*
X53506911Y-73096146D01*
X54289623Y-72772914D01*
X54298578Y-72772923D01*
G37*
%TD.AperFunction*%
%TD*%
%TA.AperFunction,Conductor*%
%TO.N,PB3*%
G36*
X70152154Y-102503427D02*
G01*
X70153491Y-102505026D01*
X70841565Y-103495780D01*
X70843469Y-103504530D01*
X70843372Y-103505012D01*
X69515373Y-109432381D01*
X69510220Y-109439705D01*
X69501398Y-109441240D01*
X69494074Y-109436087D01*
X69492326Y-109431102D01*
X68841765Y-103504842D01*
X68844266Y-103496250D01*
X69423554Y-102779988D01*
X69646488Y-102504343D01*
X69654355Y-102500065D01*
X69655585Y-102500000D01*
X70143881Y-102500000D01*
X70152154Y-102503427D01*
G37*
%TD.AperFunction*%
%TD*%
%TA.AperFunction,Conductor*%
%TO.N,PB3*%
G36*
X51757195Y-72867884D02*
G01*
X51762819Y-72874852D01*
X51762949Y-72875329D01*
X52170634Y-74512258D01*
X52169308Y-74521115D01*
X52167554Y-74523359D01*
X51825030Y-74865883D01*
X51816757Y-74869310D01*
X51810904Y-74867741D01*
X50766070Y-74264101D01*
X50760621Y-74256995D01*
X50760393Y-74251981D01*
X50958055Y-73106467D01*
X50962838Y-73098899D01*
X50966275Y-73097236D01*
X51748291Y-72866934D01*
X51757195Y-72867884D01*
G37*
%TD.AperFunction*%
%TD*%
%TA.AperFunction,Conductor*%
%TO.N,PB5*%
G36*
X61752423Y-102503427D02*
G01*
X61753510Y-102504680D01*
X62496996Y-103495994D01*
X62499218Y-103504669D01*
X62499177Y-103504937D01*
X61511541Y-109431742D01*
X61506801Y-109439339D01*
X61498077Y-109441360D01*
X61490480Y-109436620D01*
X61488459Y-109431742D01*
X61390696Y-108845068D01*
X60500822Y-103504935D01*
X60502843Y-103496213D01*
X60502946Y-103496071D01*
X61246490Y-102504680D01*
X61254195Y-102500118D01*
X61255850Y-102500000D01*
X61744150Y-102500000D01*
X61752423Y-102503427D01*
G37*
%TD.AperFunction*%
%TD*%
%TA.AperFunction,Conductor*%
%TO.N,PB5*%
G36*
X53484284Y-78636282D02*
G01*
X53486278Y-78638945D01*
X54226211Y-79993146D01*
X54227171Y-80002049D01*
X54224160Y-80007086D01*
X53508793Y-80712730D01*
X53500497Y-80716100D01*
X53492494Y-80712859D01*
X52766357Y-80019071D01*
X52762743Y-80010878D01*
X52763404Y-80006727D01*
X52765459Y-80000890D01*
X53124352Y-78981292D01*
X53127112Y-78976908D01*
X53467739Y-78636281D01*
X53476011Y-78632855D01*
X53484284Y-78636282D01*
G37*
%TD.AperFunction*%
%TD*%
%TA.AperFunction,Conductor*%
%TO.N,PB6*%
G36*
X57752423Y-102503427D02*
G01*
X57753510Y-102504680D01*
X58496996Y-103495994D01*
X58499218Y-103504669D01*
X58499177Y-103504937D01*
X57511541Y-109431742D01*
X57506801Y-109439339D01*
X57498077Y-109441360D01*
X57490480Y-109436620D01*
X57488459Y-109431742D01*
X57390696Y-108845068D01*
X56500822Y-103504935D01*
X56502843Y-103496213D01*
X56502946Y-103496071D01*
X57246490Y-102504680D01*
X57254195Y-102500118D01*
X57255850Y-102500000D01*
X57744150Y-102500000D01*
X57752423Y-102503427D01*
G37*
%TD.AperFunction*%
%TD*%
%TA.AperFunction,Conductor*%
%TO.N,PB6*%
G36*
X61370188Y-78723427D02*
G01*
X61372859Y-78727563D01*
X61856367Y-80006613D01*
X61856087Y-80015563D01*
X61853511Y-80019204D01*
X61128087Y-80713261D01*
X61119741Y-80716504D01*
X61111911Y-80713261D01*
X60386487Y-80019202D01*
X60382879Y-80011008D01*
X60383631Y-80006617D01*
X60867141Y-78727562D01*
X60873272Y-78721036D01*
X60878085Y-78720000D01*
X61361915Y-78720000D01*
X61370188Y-78723427D01*
G37*
%TD.AperFunction*%
%TD*%
%TA.AperFunction,Conductor*%
%TO.N,PB7*%
G36*
X53119128Y-102566047D02*
G01*
X53119349Y-102566274D01*
X53556099Y-103028346D01*
X53998313Y-103496200D01*
X54001505Y-103504566D01*
X54001469Y-103505211D01*
X53506584Y-109430339D01*
X53502481Y-109438298D01*
X53493951Y-109441024D01*
X53485992Y-109436921D01*
X53483575Y-109432204D01*
X53483109Y-109430339D01*
X52001849Y-103507394D01*
X52003166Y-103498538D01*
X52006013Y-103495325D01*
X52757538Y-102911092D01*
X53102583Y-102566046D01*
X53110855Y-102562620D01*
X53119128Y-102566047D01*
G37*
%TD.AperFunction*%
%TD*%
%TA.AperFunction,Conductor*%
%TO.N,PA2*%
G36*
X49752423Y-102503427D02*
G01*
X49753510Y-102504680D01*
X50496996Y-103495994D01*
X50499218Y-103504669D01*
X50499177Y-103504937D01*
X49511541Y-109431742D01*
X49506801Y-109439339D01*
X49498077Y-109441360D01*
X49490480Y-109436620D01*
X49488459Y-109431742D01*
X49390696Y-108845068D01*
X48500822Y-103504935D01*
X48502843Y-103496213D01*
X48502946Y-103496071D01*
X49246490Y-102504680D01*
X49254195Y-102500118D01*
X49255850Y-102500000D01*
X49744150Y-102500000D01*
X49752423Y-102503427D01*
G37*
%TD.AperFunction*%
%TD*%
%TA.AperFunction,Conductor*%
%TO.N,PA2*%
G36*
X48253821Y-44172902D02*
G01*
X48260012Y-44179166D01*
X48599135Y-44995512D01*
X48599144Y-45004466D01*
X48599135Y-45004488D01*
X48260012Y-45820833D01*
X48253673Y-45827159D01*
X48244867Y-45827210D01*
X46807360Y-45252940D01*
X46800948Y-45246689D01*
X46800000Y-45242075D01*
X46800000Y-44757924D01*
X46803427Y-44749651D01*
X46807357Y-44747060D01*
X48244868Y-44172789D01*
X48253821Y-44172902D01*
G37*
%TD.AperFunction*%
%TD*%
%TA.AperFunction,Conductor*%
%TO.N,Net-(D2-K)*%
G36*
X80005439Y-25397330D02*
G01*
X80012030Y-25403392D01*
X80012037Y-25403406D01*
X80375524Y-26189477D01*
X80375886Y-26198425D01*
X80369913Y-26204962D01*
X79052377Y-26829047D01*
X79047368Y-26830173D01*
X78567007Y-26830173D01*
X78558734Y-26826746D01*
X78555307Y-26818473D01*
X78556080Y-26814290D01*
X79205878Y-25116900D01*
X79212035Y-25110402D01*
X79220826Y-25110099D01*
X80005439Y-25397330D01*
G37*
%TD.AperFunction*%
%TD*%
%TA.AperFunction,Conductor*%
%TO.N,Net-(D2-K)*%
G36*
X79091431Y-36103427D02*
G01*
X79093355Y-36105964D01*
X79536483Y-36893748D01*
X79537553Y-36902639D01*
X79536023Y-36905970D01*
X78749737Y-38086382D01*
X78742299Y-38091368D01*
X78733514Y-38089633D01*
X78730263Y-38086382D01*
X78540020Y-37800780D01*
X77943975Y-36905968D01*
X77942241Y-36897185D01*
X77943514Y-36893751D01*
X78386645Y-36105963D01*
X78393687Y-36100433D01*
X78396842Y-36100000D01*
X79083158Y-36100000D01*
X79091431Y-36103427D01*
G37*
%TD.AperFunction*%
%TD*%
%TA.AperFunction,Conductor*%
%TO.N,Net-(D2-A)*%
G36*
X88286635Y-25671875D02*
G01*
X88359346Y-25702092D01*
X88365671Y-25708431D01*
X88366060Y-25716265D01*
X87982505Y-26991669D01*
X87976841Y-26998605D01*
X87971301Y-27000000D01*
X87288699Y-27000000D01*
X87280426Y-26996573D01*
X87277495Y-26991670D01*
X86893939Y-25716266D01*
X86894838Y-25707356D01*
X86900652Y-25702092D01*
X87625512Y-25400864D01*
X87634461Y-25400854D01*
X88286635Y-25671875D01*
G37*
%TD.AperFunction*%
%TD*%
%TA.AperFunction,Conductor*%
%TO.N,Net-(D2-A)*%
G36*
X87946503Y-24666462D02*
G01*
X87947501Y-24666932D01*
X88712422Y-25073622D01*
X89352225Y-25413790D01*
X89357921Y-25420700D01*
X89357063Y-25429614D01*
X89355005Y-25432394D01*
X88873553Y-25913846D01*
X88867993Y-25916954D01*
X87945846Y-26136791D01*
X87937004Y-26135376D01*
X87932327Y-26129894D01*
X87631153Y-25403779D01*
X87631149Y-25394826D01*
X87931210Y-24672774D01*
X87937548Y-24666451D01*
X87946503Y-24666462D01*
G37*
%TD.AperFunction*%
%TD*%
%TA.AperFunction,Conductor*%
%TO.N,Net-(D2-A)*%
G36*
X93830406Y-32259740D02*
G01*
X93836371Y-32265289D01*
X94516481Y-33617752D01*
X94517136Y-33626682D01*
X94514301Y-33631281D01*
X94031281Y-34114301D01*
X94023008Y-34117728D01*
X94017752Y-34116481D01*
X92665289Y-33436371D01*
X92659437Y-33429592D01*
X92659730Y-33421453D01*
X92997438Y-32603783D01*
X93003761Y-32597447D01*
X93821453Y-32259731D01*
X93830406Y-32259740D01*
G37*
%TD.AperFunction*%
%TD*%
%TA.AperFunction,Conductor*%
%TO.N,Net-(D2-A)*%
G36*
X91789840Y-42133427D02*
G01*
X91792667Y-42138000D01*
X91962715Y-42648147D01*
X91962080Y-42657079D01*
X91959896Y-42660112D01*
X91448281Y-43172703D01*
X91440011Y-43176138D01*
X91431735Y-43172719D01*
X91431719Y-43172703D01*
X90920103Y-42660112D01*
X90916684Y-42651836D01*
X90917284Y-42648147D01*
X91087333Y-42138000D01*
X91093201Y-42131235D01*
X91098433Y-42130000D01*
X91781567Y-42130000D01*
X91789840Y-42133427D01*
G37*
%TD.AperFunction*%
%TD*%
%TA.AperFunction,Conductor*%
%TO.N,Net-(D2-A)*%
G36*
X96764823Y-30673905D02*
G01*
X96766414Y-30675885D01*
X97631608Y-32032104D01*
X97633168Y-32040922D01*
X97628037Y-32048261D01*
X97626234Y-32049201D01*
X96902868Y-32349808D01*
X96898368Y-32350704D01*
X96113404Y-32350011D01*
X96105134Y-32346577D01*
X96101714Y-32338301D01*
X96101822Y-32336729D01*
X96263069Y-31162474D01*
X96266385Y-31155797D01*
X96748278Y-30673904D01*
X96756550Y-30670478D01*
X96764823Y-30673905D01*
G37*
%TD.AperFunction*%
%TD*%
%TA.AperFunction,Conductor*%
%TO.N,Net-(D2-A)*%
G36*
X87979574Y-23803427D02*
G01*
X87982505Y-23808331D01*
X88366060Y-25083734D01*
X88365161Y-25092643D01*
X88359346Y-25097907D01*
X87634490Y-25399134D01*
X87625536Y-25399144D01*
X87625510Y-25399134D01*
X86900653Y-25097907D01*
X86894328Y-25091568D01*
X86893939Y-25083733D01*
X87277495Y-23808330D01*
X87283159Y-23801395D01*
X87288699Y-23800000D01*
X87971301Y-23800000D01*
X87979574Y-23803427D01*
G37*
%TD.AperFunction*%
%TD*%
%TA.AperFunction,Conductor*%
%TO.N,Net-(D2-A)*%
G36*
X37888174Y-23799986D02*
G01*
X37896441Y-23803422D01*
X37899859Y-23811699D01*
X37899858Y-23811826D01*
X37880138Y-25462746D01*
X37876613Y-25470977D01*
X37868439Y-25474306D01*
X36986566Y-25474306D01*
X36978293Y-25470879D01*
X36976579Y-25468700D01*
X36175622Y-24156074D01*
X36174237Y-24147227D01*
X36179515Y-24139993D01*
X36181117Y-24139176D01*
X36997842Y-23799896D01*
X37002336Y-23799002D01*
X37888174Y-23799986D01*
G37*
%TD.AperFunction*%
%TD*%
%TA.AperFunction,Conductor*%
%TO.N,Net-(D2-A)*%
G36*
X37878126Y-29828427D02*
G01*
X37881435Y-29835045D01*
X37954346Y-30345426D01*
X37952353Y-30353785D01*
X37439589Y-31087283D01*
X37432041Y-31092100D01*
X37423296Y-31090168D01*
X37420411Y-31087283D01*
X36907646Y-30353785D01*
X36905653Y-30345426D01*
X36978565Y-29835045D01*
X36983127Y-29827340D01*
X36990147Y-29825000D01*
X37869853Y-29825000D01*
X37878126Y-29828427D01*
G37*
%TD.AperFunction*%
%TD*%
%TA.AperFunction,Conductor*%
%TO.N,Net-(D2-A)*%
G36*
X86869574Y-71103427D02*
G01*
X86872505Y-71108331D01*
X87257038Y-72386987D01*
X87256139Y-72395896D01*
X87253922Y-72398810D01*
X86528088Y-73093261D01*
X86519742Y-73096504D01*
X86511912Y-73093261D01*
X85786077Y-72398810D01*
X85782468Y-72390614D01*
X85782961Y-72386986D01*
X86167495Y-71108330D01*
X86173159Y-71101395D01*
X86178699Y-71100000D01*
X86861301Y-71100000D01*
X86869574Y-71103427D01*
G37*
%TD.AperFunction*%
%TD*%
%TA.AperFunction,Conductor*%
%TO.N,Net-(D2-A)*%
G36*
X103454203Y-16572574D02*
G01*
X103459752Y-16578539D01*
X103799135Y-17395512D01*
X103799144Y-17404466D01*
X103799135Y-17404488D01*
X103459752Y-18221460D01*
X103453413Y-18227786D01*
X103445273Y-18228080D01*
X102008026Y-17752654D01*
X102001247Y-17746802D01*
X102000000Y-17741546D01*
X102000000Y-17058453D01*
X102003427Y-17050180D01*
X102008026Y-17047345D01*
X103445273Y-16571919D01*
X103454203Y-16572574D01*
G37*
%TD.AperFunction*%
%TD*%
%TA.AperFunction,Conductor*%
%TO.N,Net-(D3-A)*%
G36*
X56553417Y-67002423D02*
G01*
X56553434Y-67002440D01*
X57107483Y-67557468D01*
X57110903Y-67565744D01*
X57107533Y-67573950D01*
X56293436Y-68399409D01*
X56285187Y-68402893D01*
X55801371Y-68402893D01*
X55793098Y-68399466D01*
X55789676Y-68391526D01*
X55784244Y-68201049D01*
X55750342Y-67012015D01*
X55753531Y-67003650D01*
X55761704Y-66999989D01*
X55761954Y-66999985D01*
X56545139Y-66999006D01*
X56553417Y-67002423D01*
G37*
%TD.AperFunction*%
%TD*%
%TA.AperFunction,Conductor*%
%TO.N,Net-(D3-A)*%
G36*
X56290188Y-71103427D02*
G01*
X56292859Y-71107563D01*
X56776367Y-72386613D01*
X56776087Y-72395563D01*
X56773511Y-72399204D01*
X56048088Y-73093261D01*
X56039742Y-73096504D01*
X56031912Y-73093261D01*
X55688502Y-72764700D01*
X55306487Y-72399202D01*
X55302879Y-72391008D01*
X55303631Y-72386617D01*
X55787141Y-71107562D01*
X55793272Y-71101036D01*
X55798085Y-71100000D01*
X56281915Y-71100000D01*
X56290188Y-71103427D01*
G37*
%TD.AperFunction*%
%TD*%
%TA.AperFunction,Conductor*%
%TO.N,Net-(D4-K)*%
G36*
X40494318Y-30886526D02*
G01*
X40500055Y-30891653D01*
X40975083Y-31748096D01*
X40976099Y-31756993D01*
X40973124Y-31762044D01*
X40631270Y-32103898D01*
X40622997Y-32107325D01*
X40618640Y-32106484D01*
X39983555Y-31851665D01*
X39977153Y-31845403D01*
X39976213Y-31840919D01*
X39969366Y-31107201D01*
X39972715Y-31098898D01*
X39976600Y-31096280D01*
X40485364Y-30886511D01*
X40494318Y-30886526D01*
G37*
%TD.AperFunction*%
%TD*%
%TA.AperFunction,Conductor*%
%TO.N,Net-(D4-K)*%
G36*
X44926881Y-32226872D02*
G01*
X45712711Y-33011722D01*
X45716143Y-33019993D01*
X45712721Y-33028268D01*
X45712711Y-33028278D01*
X44926881Y-33813127D01*
X44918606Y-33816549D01*
X44911985Y-33814490D01*
X44910002Y-33813127D01*
X44125072Y-33273487D01*
X44120196Y-33265976D01*
X44120000Y-33263846D01*
X44120000Y-32776154D01*
X44123427Y-32767881D01*
X44125072Y-32766513D01*
X44125071Y-32766512D01*
X44911987Y-32225508D01*
X44920743Y-32223646D01*
X44926881Y-32226872D01*
G37*
%TD.AperFunction*%
%TD*%
%TA.AperFunction,Conductor*%
%TO.N,Net-(D5-K)*%
G36*
X20507295Y-18252133D02*
G01*
X21293549Y-18646762D01*
X21299405Y-18653535D01*
X21300000Y-18657218D01*
X21300000Y-19541398D01*
X21296573Y-19549671D01*
X21291790Y-19552565D01*
X20506752Y-19797889D01*
X20497833Y-19797086D01*
X20494994Y-19795000D01*
X19707551Y-19008540D01*
X19704119Y-19000269D01*
X19707541Y-18991994D01*
X19707814Y-18991730D01*
X20494046Y-18254058D01*
X20502422Y-18250897D01*
X20507295Y-18252133D01*
G37*
%TD.AperFunction*%
%TD*%
%TA.AperFunction,Conductor*%
%TO.N,Net-(D5-K)*%
G36*
X28406132Y-18105106D02*
G01*
X29590201Y-19091009D01*
X29594367Y-19098936D01*
X29591706Y-19107486D01*
X29590201Y-19108991D01*
X28406132Y-20094893D01*
X28397582Y-20097554D01*
X28393008Y-20096154D01*
X27406062Y-19553334D01*
X27400464Y-19546344D01*
X27400000Y-19543082D01*
X27400000Y-18656917D01*
X27403427Y-18648644D01*
X27406057Y-18646668D01*
X28393009Y-18103844D01*
X28401908Y-18102861D01*
X28406132Y-18105106D01*
G37*
%TD.AperFunction*%
%TD*%
%TA.AperFunction,Conductor*%
%TO.N,Net-(D5-A)*%
G36*
X19950621Y-32223427D02*
G01*
X19953067Y-32227010D01*
X20296801Y-33012688D01*
X20296978Y-33021641D01*
X20294360Y-33025646D01*
X19508278Y-33812711D01*
X19500007Y-33816143D01*
X19491732Y-33812721D01*
X19491722Y-33812711D01*
X18705639Y-33025646D01*
X18702217Y-33017371D01*
X18703197Y-33012692D01*
X19046933Y-32227009D01*
X19053389Y-32220804D01*
X19057652Y-32220000D01*
X19942348Y-32220000D01*
X19950621Y-32223427D01*
G37*
%TD.AperFunction*%
%TD*%
%TA.AperFunction,Conductor*%
%TO.N,Net-(D5-A)*%
G36*
X19702158Y-29159897D02*
G01*
X20428536Y-29461755D01*
X20434860Y-29468093D01*
X20434945Y-29476809D01*
X19952905Y-30712769D01*
X19946707Y-30719232D01*
X19942005Y-30720218D01*
X19060629Y-30720218D01*
X19052356Y-30716791D01*
X19048983Y-30709638D01*
X19025714Y-30467614D01*
X18901230Y-29172800D01*
X18903849Y-29164240D01*
X18911756Y-29160037D01*
X18912841Y-29159983D01*
X19697662Y-29159002D01*
X19702158Y-29159897D01*
G37*
%TD.AperFunction*%
%TD*%
%TA.AperFunction,Conductor*%
%TO.N,Net-(D6-A)*%
G36*
X20107198Y-56040793D02*
G01*
X20894623Y-56546546D01*
X20899732Y-56553900D01*
X20900000Y-56556390D01*
X20900000Y-57439008D01*
X20896573Y-57447281D01*
X20889030Y-57450685D01*
X20105265Y-57499670D01*
X20096794Y-57496766D01*
X20096267Y-57496271D01*
X19308095Y-56709083D01*
X19304663Y-56700812D01*
X19308085Y-56692537D01*
X19308886Y-56691806D01*
X20093412Y-56041629D01*
X20101968Y-56038989D01*
X20107198Y-56040793D01*
G37*
%TD.AperFunction*%
%TD*%
%TA.AperFunction,Conductor*%
%TO.N,Net-(D6-A)*%
G36*
X28306132Y-56005106D02*
G01*
X29490201Y-56991009D01*
X29494367Y-56998936D01*
X29491706Y-57007486D01*
X29490201Y-57008991D01*
X28306132Y-57994893D01*
X28297582Y-57997554D01*
X28293008Y-57996154D01*
X27306062Y-57453334D01*
X27300464Y-57446344D01*
X27300000Y-57443082D01*
X27300000Y-56556917D01*
X27303427Y-56548644D01*
X27306057Y-56546668D01*
X28293009Y-56003844D01*
X28301908Y-56002861D01*
X28306132Y-56005106D01*
G37*
%TD.AperFunction*%
%TD*%
%TA.AperFunction,Conductor*%
%TO.N,Net-(D6-A)*%
G36*
X19502158Y-43979897D02*
G01*
X20228536Y-44281755D01*
X20234860Y-44288093D01*
X20234945Y-44296809D01*
X19752905Y-45532769D01*
X19746707Y-45539232D01*
X19742005Y-45540218D01*
X18860629Y-45540218D01*
X18852356Y-45536791D01*
X18848983Y-45529638D01*
X18825714Y-45287614D01*
X18701230Y-43992800D01*
X18703849Y-43984240D01*
X18711756Y-43980037D01*
X18712841Y-43979983D01*
X19497662Y-43979002D01*
X19502158Y-43979897D01*
G37*
%TD.AperFunction*%
%TD*%
%TA.AperFunction,Conductor*%
%TO.N,Net-(D6-A)*%
G36*
X19750621Y-55103427D02*
G01*
X19753067Y-55107010D01*
X20096801Y-55892688D01*
X20096978Y-55901641D01*
X20094360Y-55905646D01*
X19308277Y-56692711D01*
X19300006Y-56696143D01*
X19291731Y-56692721D01*
X19291721Y-56692711D01*
X18505639Y-55905646D01*
X18502217Y-55897371D01*
X18503197Y-55892692D01*
X18846933Y-55107009D01*
X18853389Y-55100804D01*
X18857652Y-55100000D01*
X19742348Y-55100000D01*
X19750621Y-55103427D01*
G37*
%TD.AperFunction*%
%TD*%
%TA.AperFunction,Conductor*%
%TO.N,Net-(D7-A)*%
G36*
X9851355Y-55103427D02*
G01*
X9853334Y-55106062D01*
X10396154Y-56093008D01*
X10397138Y-56101908D01*
X10394893Y-56106132D01*
X9408991Y-57290201D01*
X9401064Y-57294367D01*
X9392514Y-57291706D01*
X9391009Y-57290201D01*
X8405106Y-56106132D01*
X8402445Y-56097582D01*
X8403844Y-56093010D01*
X8946665Y-55106062D01*
X8953656Y-55100464D01*
X8956918Y-55100000D01*
X9843082Y-55100000D01*
X9851355Y-55103427D01*
G37*
%TD.AperFunction*%
%TD*%
%TA.AperFunction,Conductor*%
%TO.N,Net-(D7-A)*%
G36*
X9406253Y-48902955D02*
G01*
X10392102Y-49526492D01*
X10397262Y-49533810D01*
X10396875Y-49540292D01*
X9852763Y-51073981D01*
X9846767Y-51080632D01*
X9841736Y-51081769D01*
X8958264Y-51081769D01*
X8949991Y-51078342D01*
X8947237Y-51073981D01*
X8403123Y-49540290D01*
X8403587Y-49531349D01*
X8407894Y-49526494D01*
X9393747Y-48902954D01*
X9402569Y-48901429D01*
X9406253Y-48902955D01*
G37*
%TD.AperFunction*%
%TD*%
%TA.AperFunction,Conductor*%
%TO.N,Net-(D7-A)*%
G36*
X20030035Y-69702378D02*
G01*
X20036359Y-69708716D01*
X20036962Y-69715732D01*
X19752044Y-70990851D01*
X19746896Y-70998178D01*
X19740626Y-71000000D01*
X18859374Y-71000000D01*
X18851101Y-70996573D01*
X18847956Y-70990851D01*
X18765307Y-70620968D01*
X18563037Y-69715730D01*
X18564577Y-69706911D01*
X18569962Y-69702379D01*
X19295512Y-69400864D01*
X19304461Y-69400854D01*
X20030035Y-69702378D01*
G37*
%TD.AperFunction*%
%TD*%
%TA.AperFunction,Conductor*%
%TO.N,Net-(D7-A)*%
G36*
X19750621Y-72653427D02*
G01*
X19753067Y-72657010D01*
X20096801Y-73442688D01*
X20096978Y-73451641D01*
X20094360Y-73455646D01*
X19308277Y-74242711D01*
X19300006Y-74246143D01*
X19291731Y-74242721D01*
X19291721Y-74242711D01*
X18505639Y-73455646D01*
X18502217Y-73447371D01*
X18503197Y-73442692D01*
X18846933Y-72657009D01*
X18853389Y-72650804D01*
X18857652Y-72650000D01*
X19742348Y-72650000D01*
X19750621Y-72653427D01*
G37*
%TD.AperFunction*%
%TD*%
%TA.AperFunction,Conductor*%
%TO.N,Net-(D7-A)*%
G36*
X18993088Y-68664577D02*
G01*
X18997622Y-68669965D01*
X19299134Y-69395510D01*
X19299144Y-69404463D01*
X19299135Y-69404485D01*
X19299134Y-69404490D01*
X18997622Y-70130034D01*
X18991283Y-70136359D01*
X18984267Y-70136962D01*
X17709149Y-69852044D01*
X17701822Y-69846896D01*
X17700000Y-69840626D01*
X17700000Y-68959373D01*
X17703427Y-68951100D01*
X17709146Y-68947956D01*
X18984269Y-68663037D01*
X18993088Y-68664577D01*
G37*
%TD.AperFunction*%
%TD*%
%TA.AperFunction,Conductor*%
%TO.N,Net-(D7-A)*%
G36*
X9407486Y-57308293D02*
G01*
X9408991Y-57309798D01*
X10394893Y-58493867D01*
X10397554Y-58502417D01*
X10396154Y-58506991D01*
X9853334Y-59493938D01*
X9846344Y-59499536D01*
X9843082Y-59500000D01*
X8956918Y-59500000D01*
X8948645Y-59496573D01*
X8946666Y-59493938D01*
X8403845Y-58506991D01*
X8402861Y-58498091D01*
X8405104Y-58493868D01*
X9391009Y-57309797D01*
X9398936Y-57305632D01*
X9407486Y-57308293D01*
G37*
%TD.AperFunction*%
%TD*%
%TA.AperFunction,Conductor*%
%TO.N,9VAC+Phase*%
G36*
X20890852Y-86497956D02*
G01*
X20898178Y-86503103D01*
X20900000Y-86509373D01*
X20900000Y-87390626D01*
X20896573Y-87398899D01*
X20890851Y-87402044D01*
X19615732Y-87686962D01*
X19606911Y-87685422D01*
X19602378Y-87680035D01*
X19300864Y-86954487D01*
X19300854Y-86945538D01*
X19602379Y-86219962D01*
X19608716Y-86213640D01*
X19615729Y-86213037D01*
X20890852Y-86497956D01*
G37*
%TD.AperFunction*%
%TD*%
%TA.AperFunction,Conductor*%
%TO.N,9VAC+Phase*%
G36*
X28870878Y-85988908D02*
G01*
X28875546Y-85993180D01*
X29195649Y-86508463D01*
X29496998Y-86993558D01*
X29498453Y-87002394D01*
X29496755Y-87006282D01*
X28840670Y-87977378D01*
X28833199Y-87982315D01*
X28826788Y-87981753D01*
X27316329Y-87402879D01*
X27309830Y-87396719D01*
X27308816Y-87391954D01*
X27308816Y-86508463D01*
X27312243Y-86500190D01*
X27316852Y-86497352D01*
X28861949Y-85988243D01*
X28870878Y-85988908D01*
G37*
%TD.AperFunction*%
%TD*%
%TA.AperFunction,Conductor*%
%TO.N,Net-(EPROMSOCKEL1-A6)*%
G36*
X71128087Y-38106737D02*
G01*
X71853511Y-38800796D01*
X71857120Y-38808991D01*
X71856367Y-38813386D01*
X71372859Y-40092437D01*
X71366728Y-40098964D01*
X71361915Y-40100000D01*
X70878085Y-40100000D01*
X70869812Y-40096573D01*
X70867141Y-40092437D01*
X70383632Y-38813386D01*
X70383912Y-38804436D01*
X70386484Y-38800800D01*
X71111912Y-38106737D01*
X71120258Y-38103495D01*
X71128087Y-38106737D01*
G37*
%TD.AperFunction*%
%TD*%
%TA.AperFunction,Conductor*%
%TO.N,Net-(EPROMSOCKEL1-A6)*%
G36*
X53628087Y-22826738D02*
G01*
X53950429Y-23135142D01*
X54353511Y-23520796D01*
X54357120Y-23528991D01*
X54356367Y-23533386D01*
X53872859Y-24812437D01*
X53866728Y-24818964D01*
X53861915Y-24820000D01*
X53378085Y-24820000D01*
X53369812Y-24816573D01*
X53367141Y-24812437D01*
X52883632Y-23533386D01*
X52883912Y-23524436D01*
X52886484Y-23520800D01*
X53611913Y-22826737D01*
X53620257Y-22823495D01*
X53628087Y-22826738D01*
G37*
%TD.AperFunction*%
%TD*%
%TA.AperFunction,Conductor*%
%TO.N,Net-(EPROMSOCKEL1-A5)*%
G36*
X49657178Y-21354552D02*
G01*
X49659569Y-21356393D01*
X50002592Y-21699416D01*
X50006019Y-21707689D01*
X50004940Y-21712597D01*
X49344710Y-23141178D01*
X49338128Y-23147251D01*
X49329623Y-23147084D01*
X48546914Y-22823854D01*
X48540575Y-22817529D01*
X48539694Y-22812471D01*
X48596826Y-21639938D01*
X48600651Y-21631841D01*
X48605518Y-21629197D01*
X49648307Y-21353355D01*
X49657178Y-21354552D01*
G37*
%TD.AperFunction*%
%TD*%
%TA.AperFunction,Conductor*%
%TO.N,Net-(EPROMSOCKEL1-A5)*%
G36*
X68830188Y-36103427D02*
G01*
X68832859Y-36107563D01*
X69316367Y-37386613D01*
X69316087Y-37395563D01*
X69313511Y-37399204D01*
X68588088Y-38093261D01*
X68579742Y-38096504D01*
X68571912Y-38093261D01*
X68228502Y-37764700D01*
X67846487Y-37399202D01*
X67842879Y-37391008D01*
X67843631Y-37386617D01*
X68327141Y-36107562D01*
X68333272Y-36101036D01*
X68338085Y-36100000D01*
X68821915Y-36100000D01*
X68830188Y-36103427D01*
G37*
%TD.AperFunction*%
%TD*%
%TA.AperFunction,Conductor*%
%TO.N,Net-(EPROMSOCKEL1-A4)*%
G36*
X52197178Y-21354552D02*
G01*
X52199569Y-21356393D01*
X52542592Y-21699416D01*
X52546019Y-21707689D01*
X52544940Y-21712597D01*
X51884710Y-23141178D01*
X51878128Y-23147251D01*
X51869623Y-23147084D01*
X51086914Y-22823854D01*
X51080575Y-22817529D01*
X51079694Y-22812471D01*
X51136826Y-21639938D01*
X51140651Y-21631841D01*
X51145518Y-21629197D01*
X52188307Y-21353355D01*
X52197178Y-21354552D01*
G37*
%TD.AperFunction*%
%TD*%
%TA.AperFunction,Conductor*%
%TO.N,Net-(EPROMSOCKEL1-A4)*%
G36*
X66290188Y-36103427D02*
G01*
X66292859Y-36107563D01*
X66776367Y-37386613D01*
X66776087Y-37395563D01*
X66773511Y-37399204D01*
X66048087Y-38093261D01*
X66039741Y-38096504D01*
X66031911Y-38093261D01*
X65306487Y-37399202D01*
X65302879Y-37391008D01*
X65303631Y-37386617D01*
X65787141Y-36107562D01*
X65793272Y-36101036D01*
X65798085Y-36100000D01*
X66281915Y-36100000D01*
X66290188Y-36103427D01*
G37*
%TD.AperFunction*%
%TD*%
%TA.AperFunction,Conductor*%
%TO.N,Net-(EPROMSOCKEL1-A3)*%
G36*
X57277178Y-21354552D02*
G01*
X57279569Y-21356393D01*
X57622592Y-21699416D01*
X57626019Y-21707689D01*
X57624940Y-21712597D01*
X56964710Y-23141178D01*
X56958128Y-23147251D01*
X56949623Y-23147084D01*
X56166914Y-22823854D01*
X56160575Y-22817529D01*
X56159694Y-22812471D01*
X56216826Y-21639938D01*
X56220651Y-21631841D01*
X56225518Y-21629197D01*
X57268307Y-21353355D01*
X57277178Y-21354552D01*
G37*
%TD.AperFunction*%
%TD*%
%TA.AperFunction,Conductor*%
%TO.N,Net-(EPROMSOCKEL1-A3)*%
G36*
X63750188Y-36103427D02*
G01*
X63752859Y-36107563D01*
X64236367Y-37386613D01*
X64236087Y-37395563D01*
X64233511Y-37399204D01*
X63508088Y-38093261D01*
X63499742Y-38096504D01*
X63491912Y-38093261D01*
X63148502Y-37764700D01*
X62766487Y-37399202D01*
X62762879Y-37391008D01*
X62763631Y-37386617D01*
X63247141Y-36107562D01*
X63253272Y-36101036D01*
X63258085Y-36100000D01*
X63741915Y-36100000D01*
X63750188Y-36103427D01*
G37*
%TD.AperFunction*%
%TD*%
%TA.AperFunction,Conductor*%
%TO.N,Net-(EPROMSOCKEL1-A2)*%
G36*
X59817178Y-21354552D02*
G01*
X59819569Y-21356393D01*
X60162592Y-21699416D01*
X60166019Y-21707689D01*
X60164940Y-21712597D01*
X59504710Y-23141178D01*
X59498128Y-23147251D01*
X59489623Y-23147084D01*
X58706914Y-22823854D01*
X58700575Y-22817529D01*
X58699694Y-22812471D01*
X58756826Y-21639938D01*
X58760651Y-21631841D01*
X58765518Y-21629197D01*
X59808307Y-21353355D01*
X59817178Y-21354552D01*
G37*
%TD.AperFunction*%
%TD*%
%TA.AperFunction,Conductor*%
%TO.N,Net-(EPROMSOCKEL1-A2)*%
G36*
X61210188Y-36103427D02*
G01*
X61212859Y-36107563D01*
X61696367Y-37386613D01*
X61696087Y-37395563D01*
X61693511Y-37399204D01*
X60968088Y-38093261D01*
X60959742Y-38096504D01*
X60951912Y-38093261D01*
X60608502Y-37764700D01*
X60226487Y-37399202D01*
X60222879Y-37391008D01*
X60223631Y-37386617D01*
X60707141Y-36107562D01*
X60713272Y-36101036D01*
X60718085Y-36100000D01*
X61201915Y-36100000D01*
X61210188Y-36103427D01*
G37*
%TD.AperFunction*%
%TD*%
%TA.AperFunction,Conductor*%
%TO.N,Net-(EPROMSOCKEL1-A1)*%
G36*
X61248087Y-22826738D02*
G01*
X61570429Y-23135142D01*
X61973511Y-23520796D01*
X61977120Y-23528991D01*
X61976367Y-23533386D01*
X61492859Y-24812437D01*
X61486728Y-24818964D01*
X61481915Y-24820000D01*
X60998085Y-24820000D01*
X60989812Y-24816573D01*
X60987141Y-24812437D01*
X60503632Y-23533386D01*
X60503912Y-23524436D01*
X60506484Y-23520800D01*
X61231913Y-22826737D01*
X61240257Y-22823495D01*
X61248087Y-22826738D01*
G37*
%TD.AperFunction*%
%TD*%
%TA.AperFunction,Conductor*%
%TO.N,Net-(EPROMSOCKEL1-A1)*%
G36*
X58670188Y-36103427D02*
G01*
X58672859Y-36107563D01*
X59156367Y-37386613D01*
X59156087Y-37395563D01*
X59153511Y-37399204D01*
X58428087Y-38093261D01*
X58419741Y-38096504D01*
X58411911Y-38093261D01*
X57686487Y-37399202D01*
X57682879Y-37391008D01*
X57683631Y-37386617D01*
X58167141Y-36107562D01*
X58173272Y-36101036D01*
X58178085Y-36100000D01*
X58661915Y-36100000D01*
X58670188Y-36103427D01*
G37*
%TD.AperFunction*%
%TD*%
%TA.AperFunction,Conductor*%
%TO.N,Net-(EPROMSOCKEL1-A0)*%
G36*
X64464905Y-14405069D02*
G01*
X65374286Y-14946597D01*
X65379641Y-14953775D01*
X65380000Y-14956650D01*
X65380000Y-15443349D01*
X65376573Y-15451622D01*
X65374286Y-15453402D01*
X64464905Y-15994930D01*
X64456044Y-15996218D01*
X64449990Y-15992438D01*
X63785402Y-15207560D01*
X63782671Y-15199031D01*
X63785400Y-15192440D01*
X64449991Y-14407560D01*
X64457951Y-14403462D01*
X64464905Y-14405069D01*
G37*
%TD.AperFunction*%
%TD*%
%TA.AperFunction,Conductor*%
%TO.N,Net-(EPROMSOCKEL1-A0)*%
G36*
X55889206Y-38104254D02*
G01*
X56672836Y-38496415D01*
X56678701Y-38503182D01*
X56679249Y-38507974D01*
X56566287Y-39708144D01*
X56562911Y-39715321D01*
X56221090Y-40057142D01*
X56212817Y-40060569D01*
X56204544Y-40057142D01*
X56204093Y-40056665D01*
X55330333Y-39078916D01*
X55327375Y-39070464D01*
X55328890Y-39065330D01*
X55873806Y-38108923D01*
X55880877Y-38103433D01*
X55889206Y-38104254D01*
G37*
%TD.AperFunction*%
%TD*%
%TA.AperFunction,Conductor*%
%TO.N,PB0*%
G36*
X53348087Y-38106737D02*
G01*
X54073511Y-38800796D01*
X54077120Y-38808991D01*
X54076367Y-38813386D01*
X53592859Y-40092437D01*
X53586728Y-40098964D01*
X53581915Y-40100000D01*
X53098085Y-40100000D01*
X53089812Y-40096573D01*
X53087141Y-40092437D01*
X52603632Y-38813386D01*
X52603912Y-38804436D01*
X52606484Y-38800800D01*
X53331912Y-38106737D01*
X53340258Y-38103495D01*
X53348087Y-38106737D01*
G37*
%TD.AperFunction*%
%TD*%
%TA.AperFunction,Conductor*%
%TO.N,PB0*%
G36*
X63910188Y-71103427D02*
G01*
X63912859Y-71107563D01*
X64396367Y-72386613D01*
X64396087Y-72395563D01*
X64393511Y-72399204D01*
X63668088Y-73093261D01*
X63659742Y-73096504D01*
X63651912Y-73093261D01*
X63308502Y-72764700D01*
X62926487Y-72399202D01*
X62922879Y-72391008D01*
X62923631Y-72386617D01*
X63407141Y-71107562D01*
X63413272Y-71101036D01*
X63418085Y-71100000D01*
X63901915Y-71100000D01*
X63910188Y-71103427D01*
G37*
%TD.AperFunction*%
%TD*%
%TA.AperFunction,Conductor*%
%TO.N,PB1*%
G36*
X61370188Y-71103427D02*
G01*
X61372859Y-71107563D01*
X61856367Y-72386613D01*
X61856087Y-72395563D01*
X61853511Y-72399204D01*
X61128088Y-73093261D01*
X61119742Y-73096504D01*
X61111912Y-73093261D01*
X60768502Y-72764700D01*
X60386487Y-72399202D01*
X60382879Y-72391008D01*
X60383631Y-72386617D01*
X60867141Y-71107562D01*
X60873272Y-71101036D01*
X60878085Y-71100000D01*
X61361915Y-71100000D01*
X61370188Y-71103427D01*
G37*
%TD.AperFunction*%
%TD*%
%TA.AperFunction,Conductor*%
%TO.N,PB1*%
G36*
X50808087Y-38106737D02*
G01*
X51533511Y-38800796D01*
X51537120Y-38808991D01*
X51536367Y-38813386D01*
X51052859Y-40092437D01*
X51046728Y-40098964D01*
X51041915Y-40100000D01*
X50558085Y-40100000D01*
X50549812Y-40096573D01*
X50547141Y-40092437D01*
X50063632Y-38813386D01*
X50063912Y-38804436D01*
X50066484Y-38800800D01*
X50791912Y-38106737D01*
X50800258Y-38103495D01*
X50808087Y-38106737D01*
G37*
%TD.AperFunction*%
%TD*%
%TA.AperFunction,Conductor*%
%TO.N,PB2*%
G36*
X48268087Y-38106737D02*
G01*
X48993511Y-38800796D01*
X48997120Y-38808991D01*
X48996367Y-38813386D01*
X48512859Y-40092437D01*
X48506728Y-40098964D01*
X48501915Y-40100000D01*
X48018085Y-40100000D01*
X48009812Y-40096573D01*
X48007141Y-40092437D01*
X47523632Y-38813386D01*
X47523912Y-38804436D01*
X47526484Y-38800800D01*
X48251912Y-38106737D01*
X48260258Y-38103495D01*
X48268087Y-38106737D01*
G37*
%TD.AperFunction*%
%TD*%
%TA.AperFunction,Conductor*%
%TO.N,PB2*%
G36*
X53750188Y-71103427D02*
G01*
X53752859Y-71107563D01*
X54236367Y-72386613D01*
X54236087Y-72395563D01*
X54233511Y-72399204D01*
X53508088Y-73093261D01*
X53499742Y-73096504D01*
X53491912Y-73093261D01*
X53148502Y-72764700D01*
X52766487Y-72399202D01*
X52762879Y-72391008D01*
X52763631Y-72386617D01*
X53247141Y-71107562D01*
X53253272Y-71101036D01*
X53258085Y-71100000D01*
X53741915Y-71100000D01*
X53750188Y-71103427D01*
G37*
%TD.AperFunction*%
%TD*%
%TA.AperFunction,Conductor*%
%TO.N,Net-(EPROMSOCKEL1-VCC)*%
G36*
X85578546Y-52059730D02*
G01*
X86396214Y-52397437D01*
X86402553Y-52403763D01*
X86402562Y-52403785D01*
X86740268Y-53221452D01*
X86740259Y-53230406D01*
X86734710Y-53236371D01*
X85382247Y-53916481D01*
X85373317Y-53917136D01*
X85368718Y-53914301D01*
X84885698Y-53431281D01*
X84882271Y-53423008D01*
X84883517Y-53417754D01*
X85563628Y-52065288D01*
X85570407Y-52059437D01*
X85578546Y-52059730D01*
G37*
%TD.AperFunction*%
%TD*%
%TA.AperFunction,Conductor*%
%TO.N,Net-(EPROMSOCKEL1-VCC)*%
G36*
X74656741Y-57725533D02*
G01*
X74659114Y-57727363D01*
X75139638Y-58207887D01*
X75143065Y-58216160D01*
X75143044Y-58216868D01*
X75109653Y-58767705D01*
X75109359Y-58769695D01*
X75104500Y-58790201D01*
X75104500Y-58852545D01*
X75104489Y-58852899D01*
X75085766Y-59161782D01*
X75081844Y-59169833D01*
X75073379Y-59172753D01*
X75072462Y-59172661D01*
X74564712Y-59101466D01*
X74556995Y-59096923D01*
X74556402Y-59096059D01*
X74192066Y-58510396D01*
X74190606Y-58501561D01*
X74191896Y-58498319D01*
X74640738Y-57729735D01*
X74647869Y-57724320D01*
X74656741Y-57725533D01*
G37*
%TD.AperFunction*%
%TD*%
%TA.AperFunction,Conductor*%
%TO.N,PB3*%
G36*
X45728087Y-53346738D02*
G01*
X46050429Y-53655142D01*
X46453511Y-54040796D01*
X46457120Y-54048991D01*
X46456367Y-54053386D01*
X45972859Y-55332437D01*
X45966728Y-55338964D01*
X45961915Y-55340000D01*
X45478085Y-55340000D01*
X45469812Y-55336573D01*
X45467141Y-55332437D01*
X44983632Y-54053386D01*
X44983912Y-54044436D01*
X44986484Y-54040800D01*
X45711913Y-53346737D01*
X45720257Y-53343495D01*
X45728087Y-53346738D01*
G37*
%TD.AperFunction*%
%TD*%
%TA.AperFunction,Conductor*%
%TO.N,PB3*%
G36*
X51210188Y-71103427D02*
G01*
X51212859Y-71107563D01*
X51696367Y-72386613D01*
X51696087Y-72395563D01*
X51693511Y-72399204D01*
X50968087Y-73093261D01*
X50959741Y-73096504D01*
X50951911Y-73093261D01*
X50226487Y-72399202D01*
X50222879Y-72391008D01*
X50223631Y-72386617D01*
X50707141Y-71107562D01*
X50713272Y-71101036D01*
X50718085Y-71100000D01*
X51201915Y-71100000D01*
X51210188Y-71103427D01*
G37*
%TD.AperFunction*%
%TD*%
%TA.AperFunction,Conductor*%
%TO.N,PB4*%
G36*
X50968087Y-80726737D02*
G01*
X51693511Y-81420796D01*
X51697120Y-81428991D01*
X51696367Y-81433386D01*
X51212859Y-82712437D01*
X51206728Y-82718964D01*
X51201915Y-82720000D01*
X50718085Y-82720000D01*
X50709812Y-82716573D01*
X50707141Y-82712437D01*
X50223632Y-81433386D01*
X50223912Y-81424436D01*
X50226484Y-81420800D01*
X50951912Y-80726737D01*
X50960258Y-80723495D01*
X50968087Y-80726737D01*
G37*
%TD.AperFunction*%
%TD*%
%TA.AperFunction,Conductor*%
%TO.N,PB7*%
G36*
X63286231Y-78783086D02*
G01*
X63286407Y-78783265D01*
X63611852Y-79124995D01*
X64180001Y-79721573D01*
X64183225Y-79729927D01*
X64181871Y-79735111D01*
X63666055Y-80710593D01*
X63659158Y-80716305D01*
X63650476Y-80715587D01*
X62866862Y-80323434D01*
X62860997Y-80316667D01*
X62860415Y-80312338D01*
X62924366Y-79132633D01*
X62927775Y-79124996D01*
X63269686Y-78783085D01*
X63277958Y-78779659D01*
X63286231Y-78783086D01*
G37*
%TD.AperFunction*%
%TD*%
%TA.AperFunction,Conductor*%
%TO.N,PB7*%
G36*
X42453821Y-53972902D02*
G01*
X42460012Y-53979166D01*
X42799135Y-54795512D01*
X42799144Y-54804466D01*
X42799135Y-54804488D01*
X42460012Y-55620833D01*
X42453673Y-55627159D01*
X42444867Y-55627210D01*
X41007360Y-55052940D01*
X41000948Y-55046689D01*
X41000000Y-55042075D01*
X41000000Y-54557924D01*
X41003427Y-54549651D01*
X41007357Y-54547060D01*
X42444868Y-53972789D01*
X42453821Y-53972902D01*
G37*
%TD.AperFunction*%
%TD*%
%TA.AperFunction,Conductor*%
%TO.N,Net-(EPROMSOCKEL1-~{PGM})*%
G36*
X48428087Y-80726737D02*
G01*
X49153511Y-81420796D01*
X49157120Y-81428991D01*
X49156367Y-81433386D01*
X48672859Y-82712437D01*
X48666728Y-82718964D01*
X48661915Y-82720000D01*
X48178085Y-82720000D01*
X48169812Y-82716573D01*
X48167141Y-82712437D01*
X47683632Y-81433386D01*
X47683912Y-81424436D01*
X47686484Y-81420800D01*
X48411912Y-80726737D01*
X48420258Y-80723495D01*
X48428087Y-80726737D01*
G37*
%TD.AperFunction*%
%TD*%
%TA.AperFunction,Conductor*%
%TO.N,Net-(EPROMSOCKEL1-~{PGM})*%
G36*
X56053821Y-91172902D02*
G01*
X56060012Y-91179166D01*
X56399135Y-91995512D01*
X56399144Y-92004466D01*
X56399135Y-92004488D01*
X56060012Y-92820833D01*
X56053673Y-92827159D01*
X56044867Y-92827210D01*
X54607360Y-92252940D01*
X54600948Y-92246689D01*
X54600000Y-92242075D01*
X54600000Y-91757924D01*
X54603427Y-91749651D01*
X54607357Y-91747060D01*
X56044868Y-91172789D01*
X56053821Y-91172902D01*
G37*
%TD.AperFunction*%
%TD*%
%TA.AperFunction,Conductor*%
%TO.N,Net-(EPROMSOCKEL1-~{PGM})*%
G36*
X90020833Y-86339987D02*
G01*
X90027159Y-86346326D01*
X90027210Y-86355132D01*
X89452940Y-87792640D01*
X89446689Y-87799052D01*
X89442075Y-87800000D01*
X88957925Y-87800000D01*
X88949652Y-87796573D01*
X88947060Y-87792640D01*
X88372789Y-86355132D01*
X88372902Y-86346178D01*
X88379165Y-86339987D01*
X89195512Y-86000863D01*
X89204465Y-86000855D01*
X90020833Y-86339987D01*
G37*
%TD.AperFunction*%
%TD*%
%TA.AperFunction,Conductor*%
%TO.N,Net-(EPROMSOCKEL1-~{PGM})*%
G36*
X99250348Y-72003427D02*
G01*
X99252940Y-72007360D01*
X99827210Y-73444867D01*
X99827097Y-73453821D01*
X99820833Y-73460012D01*
X99004488Y-73799135D01*
X98995534Y-73799144D01*
X98995512Y-73799135D01*
X98179166Y-73460012D01*
X98172840Y-73453673D01*
X98172789Y-73444868D01*
X98747060Y-72007358D01*
X98753311Y-72000948D01*
X98757925Y-72000000D01*
X99242075Y-72000000D01*
X99250348Y-72003427D01*
G37*
%TD.AperFunction*%
%TD*%
%TA.AperFunction,Conductor*%
%TO.N,Net-(EPROMSOCKEL1-~{PGM})*%
G36*
X99204487Y-78800864D02*
G01*
X100020833Y-79139987D01*
X100027159Y-79146326D01*
X100027210Y-79155132D01*
X99452940Y-80592640D01*
X99446689Y-80599052D01*
X99442075Y-80600000D01*
X98957925Y-80600000D01*
X98949652Y-80596573D01*
X98947060Y-80592640D01*
X98372789Y-79155132D01*
X98372902Y-79146178D01*
X98379165Y-79139987D01*
X99195512Y-78800863D01*
X99204465Y-78800855D01*
X99204487Y-78800864D01*
G37*
%TD.AperFunction*%
%TD*%
%TA.AperFunction,Conductor*%
%TO.N,GND*%
G36*
X9615915Y-8088013D02*
G01*
X9618932Y-8090463D01*
X10034196Y-8562270D01*
X10037089Y-8570744D01*
X10034196Y-8577730D01*
X9618932Y-9049536D01*
X9610893Y-9053482D01*
X9607028Y-9053082D01*
X8773579Y-8822374D01*
X8766520Y-8816864D01*
X8765000Y-8811098D01*
X8765000Y-8328901D01*
X8768427Y-8320628D01*
X8773578Y-8317625D01*
X9607030Y-8086917D01*
X9615915Y-8088013D01*
G37*
%TD.AperFunction*%
%TD*%
%TA.AperFunction,Conductor*%
%TO.N,GND*%
G36*
X4852966Y-8086916D02*
G01*
X5686421Y-8317625D01*
X5693480Y-8323135D01*
X5695000Y-8328901D01*
X5695000Y-8811098D01*
X5691573Y-8819371D01*
X5686421Y-8822374D01*
X4852971Y-9053082D01*
X4844084Y-9051986D01*
X4841067Y-9049536D01*
X4425802Y-8577728D01*
X4422910Y-8569256D01*
X4425802Y-8562271D01*
X4841068Y-8090462D01*
X4849106Y-8086517D01*
X4852966Y-8086916D01*
G37*
%TD.AperFunction*%
%TD*%
%TA.AperFunction,Conductor*%
%TO.N,GND*%
G36*
X3896326Y-8159690D02*
G01*
X4413600Y-8563742D01*
X4418011Y-8571535D01*
X4417149Y-8577578D01*
X4198382Y-9087121D01*
X4191969Y-9093371D01*
X4186468Y-9094147D01*
X3438697Y-9019427D01*
X3431587Y-9016058D01*
X3091337Y-8675808D01*
X3087910Y-8667535D01*
X3091337Y-8659262D01*
X3093355Y-8657648D01*
X3882877Y-8159017D01*
X3891701Y-8157497D01*
X3896326Y-8159690D01*
G37*
%TD.AperFunction*%
%TD*%
%TA.AperFunction,Conductor*%
%TO.N,GND*%
G36*
X28237746Y-47379656D02*
G01*
X28777298Y-47564670D01*
X29798919Y-47914987D01*
X29805633Y-47920912D01*
X29806648Y-47928078D01*
X29602056Y-49093024D01*
X29597249Y-49100579D01*
X29593096Y-49102416D01*
X28456031Y-49357785D01*
X28447208Y-49356254D01*
X28442421Y-49350225D01*
X27879707Y-47737772D01*
X27880217Y-47728835D01*
X27882478Y-47725650D01*
X28225679Y-47382449D01*
X28233951Y-47379023D01*
X28237746Y-47379656D01*
G37*
%TD.AperFunction*%
%TD*%
%TA.AperFunction,Conductor*%
%TO.N,GND*%
G36*
X79348899Y-71103427D02*
G01*
X79352044Y-71109149D01*
X79637664Y-72387411D01*
X79636124Y-72396232D01*
X79634334Y-72398416D01*
X78908088Y-73093261D01*
X78899742Y-73096504D01*
X78891912Y-73093261D01*
X78165665Y-72398416D01*
X78162056Y-72390220D01*
X78162335Y-72387411D01*
X78447956Y-71109149D01*
X78453104Y-71101822D01*
X78459374Y-71100000D01*
X79340626Y-71100000D01*
X79348899Y-71103427D01*
G37*
%TD.AperFunction*%
%TD*%
%TA.AperFunction,Conductor*%
%TO.N,GND*%
G36*
X83898341Y-62971697D02*
G01*
X84198842Y-63694807D01*
X84198853Y-63703762D01*
X84198845Y-63703780D01*
X83897661Y-64429922D01*
X83891326Y-64436251D01*
X83884176Y-64436828D01*
X83009307Y-64231092D01*
X83003712Y-64227976D01*
X82382038Y-63606302D01*
X82378611Y-63598029D01*
X82382038Y-63589756D01*
X82385818Y-63587227D01*
X83883051Y-62965381D01*
X83892004Y-62965373D01*
X83898341Y-62971697D01*
G37*
%TD.AperFunction*%
%TD*%
%TA.AperFunction,Conductor*%
%TO.N,Net-(D2-A)*%
G36*
X5430852Y-12147956D02*
G01*
X5438178Y-12153103D01*
X5440000Y-12159373D01*
X5440000Y-13040626D01*
X5436573Y-13048899D01*
X5430851Y-13052044D01*
X4155732Y-13336962D01*
X4146911Y-13335422D01*
X4142378Y-13330035D01*
X3840864Y-12604487D01*
X3840854Y-12595538D01*
X4142379Y-11869962D01*
X4148716Y-11863640D01*
X4155729Y-11863037D01*
X5430852Y-12147956D01*
G37*
%TD.AperFunction*%
%TD*%
%TA.AperFunction,Conductor*%
%TO.N,Net-(T2-B)*%
G36*
X15592437Y-12347141D02*
G01*
X15598964Y-12353272D01*
X15600000Y-12358085D01*
X15600000Y-12841914D01*
X15596573Y-12850187D01*
X15592437Y-12852858D01*
X14316741Y-13335099D01*
X14307791Y-13334819D01*
X14301801Y-13328646D01*
X14000864Y-12604487D01*
X14000854Y-12595538D01*
X14301801Y-11871352D01*
X14308139Y-11865029D01*
X14316739Y-11864900D01*
X15592437Y-12347141D01*
G37*
%TD.AperFunction*%
%TD*%
%TA.AperFunction,Conductor*%
%TO.N,Net-(T2-B)*%
G36*
X49653821Y-27972902D02*
G01*
X49660012Y-27979166D01*
X49999135Y-28795512D01*
X49999144Y-28804466D01*
X49999135Y-28804488D01*
X49660012Y-29620833D01*
X49653673Y-29627159D01*
X49644867Y-29627210D01*
X48207360Y-29052940D01*
X48200948Y-29046689D01*
X48200000Y-29042075D01*
X48200000Y-28557924D01*
X48203427Y-28549651D01*
X48207357Y-28547060D01*
X49644868Y-27972789D01*
X49653821Y-27972902D01*
G37*
%TD.AperFunction*%
%TD*%
%TA.AperFunction,Conductor*%
%TO.N,Net-(D2-A)*%
G36*
X15592437Y-15547141D02*
G01*
X15598964Y-15553272D01*
X15600000Y-15558085D01*
X15600000Y-16041914D01*
X15596573Y-16050187D01*
X15592437Y-16052858D01*
X14316741Y-16535099D01*
X14307791Y-16534819D01*
X14301801Y-16528646D01*
X14000864Y-15804487D01*
X14000854Y-15795538D01*
X14301801Y-15071352D01*
X14308139Y-15065029D01*
X14316739Y-15064900D01*
X15592437Y-15547141D01*
G37*
%TD.AperFunction*%
%TD*%
%TA.AperFunction,Conductor*%
%TO.N,Net-(D2-A)*%
G36*
X49653821Y-30772902D02*
G01*
X49660012Y-30779166D01*
X49999135Y-31595512D01*
X49999144Y-31604466D01*
X49999135Y-31604488D01*
X49660012Y-32420833D01*
X49653673Y-32427159D01*
X49644867Y-32427210D01*
X48207360Y-31852940D01*
X48200948Y-31846689D01*
X48200000Y-31842075D01*
X48200000Y-31357924D01*
X48203427Y-31349651D01*
X48207357Y-31347060D01*
X49644868Y-30772789D01*
X49653821Y-30772902D01*
G37*
%TD.AperFunction*%
%TD*%
%TA.AperFunction,Conductor*%
%TO.N,Net-(T3-B)*%
G36*
X37660310Y-44177570D02*
G01*
X38002429Y-44519689D01*
X38005856Y-44527962D01*
X38004820Y-44532775D01*
X37443763Y-45775822D01*
X37437236Y-45781953D01*
X37428634Y-45781824D01*
X36703787Y-45482562D01*
X36697448Y-45476237D01*
X36697437Y-45476212D01*
X36398175Y-44751365D01*
X36398186Y-44742410D01*
X36404177Y-44736236D01*
X36865618Y-44527962D01*
X37647224Y-44175178D01*
X37656174Y-44174899D01*
X37660310Y-44177570D01*
G37*
%TD.AperFunction*%
%TD*%
%TA.AperFunction,Conductor*%
%TO.N,Net-(T3-B)*%
G36*
X38707728Y-31105802D02*
G01*
X39179536Y-31521067D01*
X39183482Y-31529106D01*
X39183082Y-31532971D01*
X38952375Y-32366421D01*
X38946865Y-32373480D01*
X38941099Y-32375000D01*
X38458901Y-32375000D01*
X38450628Y-32371573D01*
X38447625Y-32366421D01*
X38216917Y-31532968D01*
X38218013Y-31524084D01*
X38220459Y-31521070D01*
X38692271Y-31105802D01*
X38700744Y-31102910D01*
X38707728Y-31105802D01*
G37*
%TD.AperFunction*%
%TD*%
%TA.AperFunction,Conductor*%
%TO.N,Net-(LED1-K)*%
G36*
X106705962Y-6930956D02*
G01*
X107592712Y-7816721D01*
X107596143Y-7824992D01*
X107592721Y-7833268D01*
X107592712Y-7833277D01*
X106705962Y-8719043D01*
X106697687Y-8722465D01*
X106692461Y-8721230D01*
X105806468Y-8278233D01*
X105800600Y-8271468D01*
X105800000Y-8267768D01*
X105800000Y-7382231D01*
X105803427Y-7373958D01*
X105806468Y-7371766D01*
X105806468Y-7371765D01*
X106692462Y-6928768D01*
X106701393Y-6928134D01*
X106705962Y-6930956D01*
G37*
%TD.AperFunction*%
%TD*%
%TA.AperFunction,Conductor*%
%TO.N,Net-(LED1-K)*%
G36*
X100139800Y-8257060D02*
G01*
X100762939Y-8880199D01*
X100766366Y-8888472D01*
X100764544Y-8894742D01*
X100064368Y-9997853D01*
X100057041Y-10003001D01*
X100050025Y-10002398D01*
X99323787Y-9702562D01*
X99317448Y-9696237D01*
X99317437Y-9696212D01*
X99017601Y-8969974D01*
X99017612Y-8961019D01*
X99022143Y-8955633D01*
X100125258Y-8255454D01*
X100134078Y-8253915D01*
X100139800Y-8257060D01*
G37*
%TD.AperFunction*%
%TD*%
%TA.AperFunction,Conductor*%
%TO.N,Net-(T4-B)*%
G36*
X97628646Y-45351801D02*
G01*
X97634970Y-45358139D01*
X97635099Y-45366741D01*
X97152859Y-46642437D01*
X97146728Y-46648964D01*
X97141915Y-46650000D01*
X96658085Y-46650000D01*
X96649812Y-46646573D01*
X96647141Y-46642437D01*
X96164900Y-45366739D01*
X96165180Y-45357791D01*
X96171352Y-45351801D01*
X96895512Y-45050864D01*
X96904461Y-45050854D01*
X97628646Y-45351801D01*
G37*
%TD.AperFunction*%
%TD*%
%TA.AperFunction,Conductor*%
%TO.N,Net-(T4-B)*%
G36*
X84230188Y-78723427D02*
G01*
X84232859Y-78727563D01*
X84716367Y-80006613D01*
X84716087Y-80015563D01*
X84713511Y-80019204D01*
X83988088Y-80713261D01*
X83979742Y-80716504D01*
X83971912Y-80713261D01*
X83628502Y-80384700D01*
X83246487Y-80019202D01*
X83242879Y-80011008D01*
X83243631Y-80006617D01*
X83727141Y-78727562D01*
X83733272Y-78721036D01*
X83738085Y-78720000D01*
X84221915Y-78720000D01*
X84230188Y-78723427D01*
G37*
%TD.AperFunction*%
%TD*%
%TA.AperFunction,Conductor*%
%TO.N,Net-(IC2-O1)*%
G36*
X58830188Y-71103427D02*
G01*
X58832859Y-71107563D01*
X59316367Y-72386613D01*
X59316087Y-72395563D01*
X59313511Y-72399204D01*
X58588087Y-73093261D01*
X58579741Y-73096504D01*
X58571911Y-73093261D01*
X57846487Y-72399202D01*
X57842879Y-72391008D01*
X57843631Y-72386617D01*
X58327141Y-71107562D01*
X58333272Y-71101036D01*
X58338085Y-71100000D01*
X58821915Y-71100000D01*
X58830188Y-71103427D01*
G37*
%TD.AperFunction*%
%TD*%
%TA.AperFunction,Conductor*%
%TO.N,Net-(IC2-O1)*%
G36*
X56537589Y-62898186D02*
G01*
X56543763Y-62904177D01*
X57104820Y-64147224D01*
X57105100Y-64156174D01*
X57102429Y-64160310D01*
X56760310Y-64502429D01*
X56752037Y-64505856D01*
X56747224Y-64504820D01*
X55504177Y-63943763D01*
X55498046Y-63937236D01*
X55498174Y-63928635D01*
X55797438Y-63203785D01*
X55803762Y-63197448D01*
X55803764Y-63197446D01*
X56528635Y-62898175D01*
X56537589Y-62898186D01*
G37*
%TD.AperFunction*%
%TD*%
%TA.AperFunction,Conductor*%
%TO.N,Net-(T5-B)*%
G36*
X74060310Y-66197570D02*
G01*
X74402429Y-66539689D01*
X74405856Y-66547962D01*
X74404820Y-66552775D01*
X73843763Y-67795822D01*
X73837236Y-67801953D01*
X73828634Y-67801824D01*
X73103787Y-67502562D01*
X73097448Y-67496237D01*
X73097437Y-67496212D01*
X72798175Y-66771365D01*
X72798186Y-66762410D01*
X72804177Y-66756236D01*
X73265618Y-66547962D01*
X74047224Y-66195178D01*
X74056174Y-66194899D01*
X74060310Y-66197570D01*
G37*
%TD.AperFunction*%
%TD*%
%TA.AperFunction,Conductor*%
%TO.N,Net-(T5-B)*%
G36*
X75837728Y-59105802D02*
G01*
X76309536Y-59521067D01*
X76313482Y-59529106D01*
X76313082Y-59532971D01*
X76082375Y-60366421D01*
X76076865Y-60373480D01*
X76071099Y-60375000D01*
X75588901Y-60375000D01*
X75580628Y-60371573D01*
X75577625Y-60366421D01*
X75346917Y-59532968D01*
X75348013Y-59524084D01*
X75350459Y-59521070D01*
X75822271Y-59105802D01*
X75830744Y-59102910D01*
X75837728Y-59105802D01*
G37*
%TD.AperFunction*%
%TD*%
%TA.AperFunction,Conductor*%
%TO.N,Net-(IC3-Pad6)*%
G36*
X85492208Y-66765180D02*
G01*
X85498199Y-66771354D01*
X85799134Y-67495510D01*
X85799144Y-67504463D01*
X85799135Y-67504485D01*
X85799134Y-67504490D01*
X85498199Y-68228645D01*
X85491860Y-68234970D01*
X85483258Y-68235099D01*
X84207563Y-67752858D01*
X84201036Y-67746727D01*
X84200000Y-67741914D01*
X84200000Y-67258085D01*
X84203427Y-67249812D01*
X84207563Y-67247141D01*
X85483260Y-66764900D01*
X85492208Y-66765180D01*
G37*
%TD.AperFunction*%
%TD*%
%TA.AperFunction,Conductor*%
%TO.N,Net-(IC3-Pad6)*%
G36*
X81690188Y-71103427D02*
G01*
X81692859Y-71107563D01*
X82176367Y-72386613D01*
X82176087Y-72395563D01*
X82173511Y-72399204D01*
X81448088Y-73093261D01*
X81439742Y-73096504D01*
X81431912Y-73093261D01*
X81088502Y-72764700D01*
X80706487Y-72399202D01*
X80702879Y-72391008D01*
X80703631Y-72386617D01*
X81187141Y-71107562D01*
X81193272Y-71101036D01*
X81198085Y-71100000D01*
X81681915Y-71100000D01*
X81690188Y-71103427D01*
G37*
%TD.AperFunction*%
%TD*%
%TA.AperFunction,Conductor*%
%TO.N,Net-(IC2-LE)*%
G36*
X86160310Y-84347570D02*
G01*
X86502429Y-84689689D01*
X86505856Y-84697962D01*
X86504820Y-84702775D01*
X85943763Y-85945822D01*
X85937236Y-85951953D01*
X85928634Y-85951824D01*
X85203787Y-85652562D01*
X85197448Y-85646237D01*
X85197437Y-85646212D01*
X84898175Y-84921365D01*
X84898186Y-84912410D01*
X84904177Y-84906236D01*
X85365618Y-84697962D01*
X86147224Y-84345178D01*
X86156174Y-84344899D01*
X86160310Y-84347570D01*
G37*
%TD.AperFunction*%
%TD*%
%TA.AperFunction,Conductor*%
%TO.N,Net-(IC2-LE)*%
G36*
X46133166Y-86189257D02*
G01*
X46133460Y-86189563D01*
X47028743Y-87155348D01*
X47031855Y-87163745D01*
X47028443Y-87171569D01*
X46403433Y-87797561D01*
X46395162Y-87800994D01*
X46395140Y-87800994D01*
X45512665Y-87800014D01*
X45504396Y-87796578D01*
X45500978Y-87788301D01*
X45501015Y-87787394D01*
X45629133Y-86196590D01*
X45633213Y-86188619D01*
X45640795Y-86185830D01*
X46124893Y-86185830D01*
X46133166Y-86189257D01*
G37*
%TD.AperFunction*%
%TD*%
%TA.AperFunction,Conductor*%
%TO.N,Net-(IC2-LE)*%
G36*
X45888087Y-80726738D02*
G01*
X46210429Y-81035142D01*
X46613511Y-81420796D01*
X46617120Y-81428991D01*
X46616367Y-81433386D01*
X46132859Y-82712437D01*
X46126728Y-82718964D01*
X46121915Y-82720000D01*
X45638085Y-82720000D01*
X45629812Y-82716573D01*
X45627141Y-82712437D01*
X45143632Y-81433386D01*
X45143912Y-81424436D01*
X45146484Y-81420800D01*
X45871913Y-80726737D01*
X45880257Y-80723495D01*
X45888087Y-80726738D01*
G37*
%TD.AperFunction*%
%TD*%
%TA.AperFunction,Conductor*%
%TO.N,Net-(IC2-O5)*%
G36*
X61650348Y-92403427D02*
G01*
X61652940Y-92407360D01*
X62227210Y-93844867D01*
X62227097Y-93853821D01*
X62220833Y-93860012D01*
X61404488Y-94199135D01*
X61395534Y-94199144D01*
X61395512Y-94199135D01*
X60579166Y-93860012D01*
X60572840Y-93853673D01*
X60572789Y-93844868D01*
X61147060Y-92407358D01*
X61153311Y-92400948D01*
X61157925Y-92400000D01*
X61642075Y-92400000D01*
X61650348Y-92403427D01*
G37*
%TD.AperFunction*%
%TD*%
%TA.AperFunction,Conductor*%
%TO.N,Net-(IC2-O5)*%
G36*
X93378251Y-87764315D02*
G01*
X93383579Y-87767365D01*
X93724633Y-88108419D01*
X93728060Y-88116692D01*
X93724633Y-88124965D01*
X93722701Y-88126525D01*
X92402203Y-88978028D01*
X92393393Y-88979631D01*
X92386029Y-88974536D01*
X92385058Y-88972685D01*
X92085443Y-88251707D01*
X92085432Y-88242754D01*
X92386533Y-87516812D01*
X92392868Y-87510484D01*
X92400284Y-87509973D01*
X93378251Y-87764315D01*
G37*
%TD.AperFunction*%
%TD*%
%TA.AperFunction,Conductor*%
%TO.N,Net-(IC2-O5)*%
G36*
X56048087Y-80726737D02*
G01*
X56773511Y-81420796D01*
X56777120Y-81428991D01*
X56776367Y-81433386D01*
X56292859Y-82712437D01*
X56286728Y-82718964D01*
X56281915Y-82720000D01*
X55798085Y-82720000D01*
X55789812Y-82716573D01*
X55787141Y-82712437D01*
X55303632Y-81433386D01*
X55303912Y-81424436D01*
X55306484Y-81420800D01*
X56031912Y-80726737D01*
X56040258Y-80723495D01*
X56048087Y-80726737D01*
G37*
%TD.AperFunction*%
%TD*%
%TA.AperFunction,Conductor*%
%TO.N,Net-(IC2-O5)*%
G36*
X97720833Y-77739987D02*
G01*
X97727159Y-77746326D01*
X97727210Y-77755132D01*
X97152940Y-79192640D01*
X97146689Y-79199052D01*
X97142075Y-79200000D01*
X96657925Y-79200000D01*
X96649652Y-79196573D01*
X96647060Y-79192640D01*
X96072789Y-77755132D01*
X96072902Y-77746178D01*
X96079165Y-77739987D01*
X96895512Y-77400863D01*
X96904465Y-77400855D01*
X97720833Y-77739987D01*
G37*
%TD.AperFunction*%
%TD*%
%TA.AperFunction,Conductor*%
%TO.N,SP1*%
G36*
X100020833Y-55739987D02*
G01*
X100027159Y-55746326D01*
X100027210Y-55755132D01*
X99452940Y-57192640D01*
X99446689Y-57199052D01*
X99442075Y-57200000D01*
X98957925Y-57200000D01*
X98949652Y-57196573D01*
X98947060Y-57192640D01*
X98372789Y-55755132D01*
X98372902Y-55746178D01*
X98379165Y-55739987D01*
X99195512Y-55400863D01*
X99204465Y-55400855D01*
X100020833Y-55739987D01*
G37*
%TD.AperFunction*%
%TD*%
%TA.AperFunction,Conductor*%
%TO.N,SP1*%
G36*
X101379173Y-78459989D02*
G01*
X102196214Y-78797437D01*
X102202553Y-78803763D01*
X102202562Y-78803785D01*
X102540009Y-79620824D01*
X102540000Y-79629778D01*
X102533809Y-79636042D01*
X101111267Y-80246442D01*
X101102312Y-80246555D01*
X101098380Y-80243963D01*
X100756036Y-79901619D01*
X100752609Y-79893346D01*
X100753557Y-79888732D01*
X100861984Y-79636042D01*
X101363957Y-78466189D01*
X101370368Y-78459939D01*
X101379173Y-78459989D01*
G37*
%TD.AperFunction*%
%TD*%
%TA.AperFunction,Conductor*%
%TO.N,SP1*%
G36*
X100050348Y-63803427D02*
G01*
X100052940Y-63807360D01*
X100627210Y-65244867D01*
X100627097Y-65253821D01*
X100620833Y-65260012D01*
X99804487Y-65599135D01*
X99795533Y-65599144D01*
X99795511Y-65599135D01*
X98979166Y-65260012D01*
X98972840Y-65253673D01*
X98972789Y-65244868D01*
X99547060Y-63807358D01*
X99553311Y-63800948D01*
X99557925Y-63800000D01*
X100042075Y-63800000D01*
X100050348Y-63803427D01*
G37*
%TD.AperFunction*%
%TD*%
%TA.AperFunction,Conductor*%
%TO.N,SP1*%
G36*
X101050348Y-83003427D02*
G01*
X101052940Y-83007360D01*
X101627210Y-84444867D01*
X101627097Y-84453821D01*
X101620833Y-84460012D01*
X100804488Y-84799135D01*
X100795534Y-84799144D01*
X100795512Y-84799135D01*
X99979166Y-84460012D01*
X99972840Y-84453673D01*
X99972789Y-84444868D01*
X100547060Y-83007358D01*
X100553311Y-83000948D01*
X100557925Y-83000000D01*
X101042075Y-83000000D01*
X101050348Y-83003427D01*
G37*
%TD.AperFunction*%
%TD*%
M02*
