%TF.GenerationSoftware,KiCad,Pcbnew,7.0.7*%
%TF.CreationDate,2024-05-12T11:23:56+02:00*%
%TF.ProjectId,Projekt,50726f6a-656b-4742-9e6b-696361645f70,rev?*%
%TF.SameCoordinates,Original*%
%TF.FileFunction,Copper,L1,Top*%
%TF.FilePolarity,Positive*%
%FSLAX46Y46*%
G04 Gerber Fmt 4.6, Leading zero omitted, Abs format (unit mm)*
G04 Created by KiCad (PCBNEW 7.0.7) date 2024-05-12 11:23:56*
%MOMM*%
%LPD*%
G01*
G04 APERTURE LIST*
G04 Aperture macros list*
%AMRoundRect*
0 Rectangle with rounded corners*
0 $1 Rounding radius*
0 $2 $3 $4 $5 $6 $7 $8 $9 X,Y pos of 4 corners*
0 Add a 4 corners polygon primitive as box body*
4,1,4,$2,$3,$4,$5,$6,$7,$8,$9,$2,$3,0*
0 Add four circle primitives for the rounded corners*
1,1,$1+$1,$2,$3*
1,1,$1+$1,$4,$5*
1,1,$1+$1,$6,$7*
1,1,$1+$1,$8,$9*
0 Add four rect primitives between the rounded corners*
20,1,$1+$1,$2,$3,$4,$5,0*
20,1,$1+$1,$4,$5,$6,$7,0*
20,1,$1+$1,$6,$7,$8,$9,0*
20,1,$1+$1,$8,$9,$2,$3,0*%
%AMHorizOval*
0 Thick line with rounded ends*
0 $1 width*
0 $2 $3 position (X,Y) of the first rounded end (center of the circle)*
0 $4 $5 position (X,Y) of the second rounded end (center of the circle)*
0 Add line between two ends*
20,1,$1,$2,$3,$4,$5,0*
0 Add two circle primitives to create the rounded ends*
1,1,$1,$2,$3*
1,1,$1,$4,$5*%
G04 Aperture macros list end*
%ADD10C,0.600000*%
%TA.AperFunction,NonConductor*%
%ADD11C,0.600000*%
%TD*%
%TA.AperFunction,ComponentPad*%
%ADD12R,1.600000X1.600000*%
%TD*%
%TA.AperFunction,ComponentPad*%
%ADD13O,1.600000X1.600000*%
%TD*%
%TA.AperFunction,ComponentPad*%
%ADD14R,2.200000X2.200000*%
%TD*%
%TA.AperFunction,ComponentPad*%
%ADD15O,2.200000X2.200000*%
%TD*%
%TA.AperFunction,ComponentPad*%
%ADD16R,2.400000X2.400000*%
%TD*%
%TA.AperFunction,ComponentPad*%
%ADD17O,2.400000X2.400000*%
%TD*%
%TA.AperFunction,ComponentPad*%
%ADD18RoundRect,0.550000X-0.550000X-0.950000X0.550000X-0.950000X0.550000X0.950000X-0.550000X0.950000X0*%
%TD*%
%TA.AperFunction,ComponentPad*%
%ADD19C,1.800000*%
%TD*%
%TA.AperFunction,ComponentPad*%
%ADD20R,1.800000X1.800000*%
%TD*%
%TA.AperFunction,SMDPad,CuDef*%
%ADD21R,3.000000X12.000000*%
%TD*%
%TA.AperFunction,ComponentPad*%
%ADD22R,1.050000X1.500000*%
%TD*%
%TA.AperFunction,ComponentPad*%
%ADD23O,1.050000X1.500000*%
%TD*%
%TA.AperFunction,ComponentPad*%
%ADD24R,1.600000X2.400000*%
%TD*%
%TA.AperFunction,ComponentPad*%
%ADD25O,1.600000X2.400000*%
%TD*%
%TA.AperFunction,ComponentPad*%
%ADD26R,1.500000X1.050000*%
%TD*%
%TA.AperFunction,ComponentPad*%
%ADD27O,1.500000X1.050000*%
%TD*%
%TA.AperFunction,ComponentPad*%
%ADD28C,1.600000*%
%TD*%
%TA.AperFunction,ComponentPad*%
%ADD29HorizOval,1.600000X0.000000X0.000000X0.000000X0.000000X0*%
%TD*%
%TA.AperFunction,ComponentPad*%
%ADD30O,1.905000X2.000000*%
%TD*%
%TA.AperFunction,ComponentPad*%
%ADD31R,1.905000X2.000000*%
%TD*%
%TA.AperFunction,Conductor*%
%ADD32C,0.900000*%
%TD*%
%TA.AperFunction,Conductor*%
%ADD33C,0.500000*%
%TD*%
%TA.AperFunction,Conductor*%
%ADD34C,1.000000*%
%TD*%
G04 APERTURE END LIST*
D10*
D11*
G36*
X4779902Y-74356845D02*
G01*
X5962526Y-74606950D01*
X5945138Y-74648258D01*
X5927046Y-74688897D01*
X5908249Y-74728866D01*
X5888749Y-74768165D01*
X5868545Y-74806795D01*
X5847636Y-74844755D01*
X5826023Y-74882045D01*
X5803707Y-74918665D01*
X5780686Y-74954615D01*
X5732532Y-75024507D01*
X5681561Y-75091720D01*
X5627775Y-75156253D01*
X5571171Y-75218108D01*
X5511752Y-75277283D01*
X5449516Y-75333779D01*
X5384463Y-75387597D01*
X5316594Y-75438735D01*
X5245909Y-75487194D01*
X5172407Y-75532975D01*
X5096088Y-75576076D01*
X5056873Y-75596622D01*
X4976588Y-75635781D01*
X4893635Y-75672414D01*
X4808015Y-75706520D01*
X4719726Y-75738100D01*
X4628771Y-75767153D01*
X4535148Y-75793680D01*
X4438857Y-75817681D01*
X4339898Y-75839155D01*
X4238272Y-75858103D01*
X4133979Y-75874525D01*
X4027018Y-75888420D01*
X3917389Y-75899788D01*
X3805092Y-75908631D01*
X3690128Y-75914947D01*
X3572497Y-75918736D01*
X3512681Y-75919684D01*
X3452198Y-75920000D01*
X3377419Y-75919469D01*
X3303477Y-75917878D01*
X3230370Y-75915225D01*
X3158099Y-75911512D01*
X3086663Y-75906738D01*
X3016064Y-75900903D01*
X2946300Y-75894007D01*
X2877372Y-75886050D01*
X2809280Y-75877032D01*
X2742023Y-75866953D01*
X2675603Y-75855813D01*
X2610018Y-75843613D01*
X2545269Y-75830351D01*
X2481355Y-75816028D01*
X2418278Y-75800645D01*
X2356036Y-75784200D01*
X2294630Y-75766695D01*
X2234059Y-75748129D01*
X2174325Y-75728502D01*
X2115426Y-75707814D01*
X2057363Y-75686064D01*
X2000136Y-75663254D01*
X1943744Y-75639384D01*
X1888189Y-75614452D01*
X1833469Y-75588459D01*
X1779585Y-75561405D01*
X1726536Y-75533291D01*
X1674323Y-75504115D01*
X1622947Y-75473878D01*
X1572406Y-75442581D01*
X1522700Y-75410223D01*
X1473831Y-75376803D01*
X1426226Y-75342464D01*
X1380133Y-75307347D01*
X1335551Y-75271451D01*
X1292480Y-75234776D01*
X1250921Y-75197323D01*
X1210873Y-75159091D01*
X1172336Y-75120081D01*
X1135310Y-75080293D01*
X1099796Y-75039725D01*
X1065792Y-74998380D01*
X1033300Y-74956255D01*
X1002320Y-74913353D01*
X972850Y-74869671D01*
X944892Y-74825211D01*
X918445Y-74779973D01*
X893510Y-74733956D01*
X870085Y-74687161D01*
X848172Y-74639587D01*
X827770Y-74591234D01*
X808879Y-74542103D01*
X791500Y-74492194D01*
X775632Y-74441506D01*
X761275Y-74390039D01*
X748429Y-74337794D01*
X737095Y-74284771D01*
X727272Y-74230969D01*
X718960Y-74176388D01*
X712159Y-74121029D01*
X706870Y-74064891D01*
X703092Y-74007975D01*
X700825Y-73950280D01*
X700069Y-73891807D01*
X700829Y-73829960D01*
X703109Y-73768983D01*
X706909Y-73708877D01*
X712228Y-73649640D01*
X719067Y-73591274D01*
X727426Y-73533777D01*
X737305Y-73477151D01*
X748704Y-73421395D01*
X761623Y-73366509D01*
X776061Y-73312493D01*
X792020Y-73259348D01*
X809498Y-73207072D01*
X828496Y-73155667D01*
X849014Y-73105131D01*
X871051Y-73055466D01*
X894609Y-73006671D01*
X919686Y-72958746D01*
X946283Y-72911691D01*
X974400Y-72865506D01*
X1004037Y-72820191D01*
X1035194Y-72775747D01*
X1067870Y-72732172D01*
X1102067Y-72689468D01*
X1137783Y-72647634D01*
X1175019Y-72606670D01*
X1213775Y-72566576D01*
X1254051Y-72527352D01*
X1295846Y-72488998D01*
X1339162Y-72451514D01*
X1383997Y-72414901D01*
X1430352Y-72379158D01*
X1478227Y-72344284D01*
X1527431Y-72310384D01*
X1577592Y-72277560D01*
X1628708Y-72245812D01*
X1680781Y-72215141D01*
X1733809Y-72185545D01*
X1787793Y-72157026D01*
X1842734Y-72129583D01*
X1898630Y-72103217D01*
X1955482Y-72077926D01*
X2013291Y-72053712D01*
X2072055Y-72030573D01*
X2131775Y-72008511D01*
X2192451Y-71987526D01*
X2254083Y-71967616D01*
X2316672Y-71948783D01*
X2380216Y-71931025D01*
X2444716Y-71914344D01*
X2510172Y-71898739D01*
X2576584Y-71884211D01*
X2643952Y-71870758D01*
X2712276Y-71858382D01*
X2781556Y-71847082D01*
X2851792Y-71836858D01*
X2922984Y-71827711D01*
X2995132Y-71819639D01*
X3068236Y-71812644D01*
X3142296Y-71806725D01*
X3217312Y-71801882D01*
X3293284Y-71798115D01*
X3370212Y-71795425D01*
X3448096Y-71793810D01*
X3526936Y-71793272D01*
X3595863Y-71793725D01*
X3663973Y-71795081D01*
X3731269Y-71797342D01*
X3797748Y-71800508D01*
X3863412Y-71804578D01*
X3928259Y-71809553D01*
X3992292Y-71815432D01*
X4055508Y-71822215D01*
X4117909Y-71829903D01*
X4179494Y-71838495D01*
X4240263Y-71847992D01*
X4300216Y-71858394D01*
X4359354Y-71869699D01*
X4417676Y-71881910D01*
X4475183Y-71895024D01*
X4531873Y-71909043D01*
X4587748Y-71923967D01*
X4642807Y-71939795D01*
X4697051Y-71956528D01*
X4750478Y-71974165D01*
X4803090Y-71992706D01*
X4854886Y-72012152D01*
X4905867Y-72032502D01*
X4956031Y-72053757D01*
X5005380Y-72075917D01*
X5053914Y-72098980D01*
X5101631Y-72122949D01*
X5148533Y-72147821D01*
X5194619Y-72173599D01*
X5239889Y-72200280D01*
X5284344Y-72227866D01*
X5327983Y-72256357D01*
X5378656Y-72291604D01*
X5427725Y-72328714D01*
X5475192Y-72367686D01*
X5521057Y-72408520D01*
X5565318Y-72451217D01*
X5607977Y-72495776D01*
X5649032Y-72542197D01*
X5688485Y-72590481D01*
X5726335Y-72640627D01*
X5762582Y-72692636D01*
X5797227Y-72746506D01*
X5830268Y-72802240D01*
X5861707Y-72859835D01*
X5891543Y-72919293D01*
X5919776Y-72980613D01*
X5946406Y-73043796D01*
X4738869Y-73168848D01*
X4724587Y-73129559D01*
X4708484Y-73091316D01*
X4680916Y-73035912D01*
X4649253Y-72982861D01*
X4613494Y-72932162D01*
X4573639Y-72883817D01*
X4529688Y-72837824D01*
X4481641Y-72794183D01*
X4429499Y-72752896D01*
X4373260Y-72713961D01*
X4312926Y-72677379D01*
X4291905Y-72665708D01*
X4226869Y-72632709D01*
X4159258Y-72602956D01*
X4089070Y-72576449D01*
X4016307Y-72553188D01*
X3940968Y-72533173D01*
X3863052Y-72516403D01*
X3782561Y-72502879D01*
X3699494Y-72492601D01*
X3613850Y-72485568D01*
X3555324Y-72482683D01*
X3495652Y-72481241D01*
X3465387Y-72481060D01*
X3382474Y-72482304D01*
X3301530Y-72486037D01*
X3222556Y-72492257D01*
X3145551Y-72500966D01*
X3070515Y-72512163D01*
X2997448Y-72525848D01*
X2926350Y-72542022D01*
X2857222Y-72560683D01*
X2790063Y-72581833D01*
X2724873Y-72605471D01*
X2661652Y-72631598D01*
X2600401Y-72660212D01*
X2541118Y-72691315D01*
X2483805Y-72724906D01*
X2428461Y-72760985D01*
X2375087Y-72799553D01*
X2324511Y-72840910D01*
X2277199Y-72885358D01*
X2233149Y-72932898D01*
X2192363Y-72983529D01*
X2154839Y-73037251D01*
X2120578Y-73094064D01*
X2089580Y-73153968D01*
X2061845Y-73216964D01*
X2037373Y-73283051D01*
X2016164Y-73352229D01*
X1998218Y-73424498D01*
X1983535Y-73499858D01*
X1972115Y-73578310D01*
X1967628Y-73618695D01*
X1963957Y-73659853D01*
X1961102Y-73701783D01*
X1959063Y-73744486D01*
X1957839Y-73787963D01*
X1957431Y-73832212D01*
X1957834Y-73879108D01*
X1959040Y-73925154D01*
X1961051Y-73970348D01*
X1963866Y-74014692D01*
X1967485Y-74058184D01*
X1971909Y-74100825D01*
X1977136Y-74142616D01*
X1983169Y-74183555D01*
X1990005Y-74223643D01*
X1997646Y-74262880D01*
X2015340Y-74338802D01*
X2036251Y-74411319D01*
X2060380Y-74480432D01*
X2087725Y-74546141D01*
X2118288Y-74608446D01*
X2152068Y-74667347D01*
X2189065Y-74722843D01*
X2229279Y-74774936D01*
X2272711Y-74823624D01*
X2319359Y-74868908D01*
X2369225Y-74910788D01*
X2421667Y-74949710D01*
X2476043Y-74986122D01*
X2532354Y-75020022D01*
X2590601Y-75051411D01*
X2650782Y-75080289D01*
X2712897Y-75106656D01*
X2776948Y-75130511D01*
X2842934Y-75151856D01*
X2910854Y-75170689D01*
X2980710Y-75187011D01*
X3052500Y-75200823D01*
X3126225Y-75212123D01*
X3201885Y-75220912D01*
X3279480Y-75227189D01*
X3359009Y-75230956D01*
X3440474Y-75232212D01*
X3500758Y-75231387D01*
X3559977Y-75228914D01*
X3646810Y-75222114D01*
X3731247Y-75211604D01*
X3813288Y-75197384D01*
X3892934Y-75179455D01*
X3970184Y-75157817D01*
X4045038Y-75132469D01*
X4117497Y-75103412D01*
X4187559Y-75070645D01*
X4255227Y-75034169D01*
X4277250Y-75021186D01*
X4320258Y-74993861D01*
X4361720Y-74964644D01*
X4401636Y-74933533D01*
X4440007Y-74900530D01*
X4476833Y-74865634D01*
X4512112Y-74828845D01*
X4545847Y-74790163D01*
X4578035Y-74749588D01*
X4608678Y-74707120D01*
X4637775Y-74662759D01*
X4665327Y-74616506D01*
X4691333Y-74568360D01*
X4715794Y-74518320D01*
X4738709Y-74466388D01*
X4760078Y-74412563D01*
X4779902Y-74356845D01*
G37*
D10*
D11*
G36*
X6277390Y-75710001D02*
G01*
X6277390Y-68597649D01*
X7496650Y-68597649D01*
X7496650Y-75710001D01*
X6277390Y-75710001D01*
G37*
D10*
D11*
G36*
X4426560Y-62386318D02*
G01*
X4511701Y-62392586D01*
X4594782Y-62403033D01*
X4675802Y-62417659D01*
X4754761Y-62436464D01*
X4831659Y-62459448D01*
X4906497Y-62486610D01*
X4979274Y-62517951D01*
X5049990Y-62553472D01*
X5118645Y-62593171D01*
X5185239Y-62637048D01*
X5249773Y-62685105D01*
X5312245Y-62737341D01*
X5372657Y-62793755D01*
X5431009Y-62854348D01*
X5487299Y-62919120D01*
X5540684Y-62987172D01*
X5590625Y-63057972D01*
X5637122Y-63131520D01*
X5680174Y-63207815D01*
X5719783Y-63286858D01*
X5755947Y-63368649D01*
X5788667Y-63453188D01*
X5817943Y-63540474D01*
X5843774Y-63630508D01*
X5866162Y-63723290D01*
X5885105Y-63818819D01*
X5900604Y-63917096D01*
X5912658Y-64018121D01*
X5921269Y-64121894D01*
X5926435Y-64228415D01*
X5928157Y-64337683D01*
X5926731Y-64439732D01*
X5922452Y-64539618D01*
X5915320Y-64637340D01*
X5905336Y-64732898D01*
X5892499Y-64826292D01*
X5876809Y-64917523D01*
X5858267Y-65006589D01*
X5836871Y-65093492D01*
X5812624Y-65178231D01*
X5785523Y-65260806D01*
X5755570Y-65341217D01*
X5722764Y-65419465D01*
X5687106Y-65495548D01*
X5648595Y-65569468D01*
X5607231Y-65641224D01*
X5563014Y-65710816D01*
X5507883Y-65789252D01*
X5450262Y-65862628D01*
X5390150Y-65930944D01*
X5327549Y-65994199D01*
X5262457Y-66052393D01*
X5194875Y-66105528D01*
X5124803Y-66153602D01*
X5052241Y-66196615D01*
X4977189Y-66234568D01*
X4899647Y-66267461D01*
X4819614Y-66295293D01*
X4737092Y-66318065D01*
X4652079Y-66335776D01*
X4564576Y-66348427D01*
X4474583Y-66356018D01*
X4382100Y-66358548D01*
X4330618Y-66357598D01*
X4279671Y-66354747D01*
X4229257Y-66349996D01*
X4179378Y-66343344D01*
X4130034Y-66334792D01*
X4081223Y-66324339D01*
X4032947Y-66311985D01*
X3985205Y-66297732D01*
X3937998Y-66281577D01*
X3891325Y-66263522D01*
X3845186Y-66243567D01*
X3799581Y-66221711D01*
X3754510Y-66197955D01*
X3709974Y-66172298D01*
X3665972Y-66144740D01*
X3622505Y-66115282D01*
X3579920Y-66083775D01*
X3538565Y-66050069D01*
X3498442Y-66014166D01*
X3459549Y-65976064D01*
X3421887Y-65935764D01*
X3385456Y-65893265D01*
X3350255Y-65848569D01*
X3316285Y-65801674D01*
X3283546Y-65752581D01*
X3252038Y-65701290D01*
X3221760Y-65647801D01*
X3192714Y-65592114D01*
X3164898Y-65534228D01*
X3138312Y-65474145D01*
X3112958Y-65411863D01*
X3088834Y-65347383D01*
X3068837Y-65402658D01*
X3047923Y-65456010D01*
X3014836Y-65532431D01*
X2979688Y-65604525D01*
X2942479Y-65672290D01*
X2903210Y-65735729D01*
X2861879Y-65794839D01*
X2818488Y-65849622D01*
X2773036Y-65900077D01*
X2725523Y-65946205D01*
X2675949Y-65988005D01*
X2658967Y-66000976D01*
X2606985Y-66037380D01*
X2554081Y-66070202D01*
X2500253Y-66099444D01*
X2445502Y-66125105D01*
X2389828Y-66147186D01*
X2333232Y-66165686D01*
X2275712Y-66180605D01*
X2217269Y-66191944D01*
X2157903Y-66199702D01*
X2097614Y-66203879D01*
X2056908Y-66204675D01*
X1987905Y-66202832D01*
X1920418Y-66197302D01*
X1854449Y-66188086D01*
X1789996Y-66175183D01*
X1727061Y-66158593D01*
X1665642Y-66138317D01*
X1605741Y-66114355D01*
X1547356Y-66086706D01*
X1490489Y-66055370D01*
X1435138Y-66020348D01*
X1381305Y-65981639D01*
X1328988Y-65939244D01*
X1278188Y-65893162D01*
X1228906Y-65843394D01*
X1181140Y-65789939D01*
X1134891Y-65732798D01*
X1090675Y-65672256D01*
X1049311Y-65608600D01*
X1010800Y-65541830D01*
X975141Y-65471946D01*
X942335Y-65398948D01*
X912382Y-65322836D01*
X885282Y-65243610D01*
X861034Y-65161270D01*
X839639Y-65075815D01*
X821097Y-64987247D01*
X805407Y-64895564D01*
X792570Y-64800767D01*
X782585Y-64702856D01*
X775454Y-64601831D01*
X771175Y-64497692D01*
X769748Y-64390439D01*
X769906Y-64378715D01*
X1551325Y-64378715D01*
X1552731Y-64440166D01*
X1556950Y-64499221D01*
X1566948Y-64574234D01*
X1581946Y-64644988D01*
X1601944Y-64711483D01*
X1626940Y-64773719D01*
X1656937Y-64831696D01*
X1691932Y-64885414D01*
X1711304Y-64910676D01*
X1752616Y-64957044D01*
X1797171Y-64997230D01*
X1844970Y-65031233D01*
X1896013Y-65059054D01*
X1950300Y-65080692D01*
X2007831Y-65096148D01*
X2068605Y-65105422D01*
X2132623Y-65108513D01*
X2183757Y-65106800D01*
X2232744Y-65101661D01*
X2294720Y-65089479D01*
X2352881Y-65071207D01*
X2407225Y-65046844D01*
X2457753Y-65016390D01*
X2504464Y-64979845D01*
X2547359Y-64937209D01*
X2567376Y-64913607D01*
X2604012Y-64862500D01*
X2635764Y-64807362D01*
X2662630Y-64748194D01*
X2684612Y-64684996D01*
X2701709Y-64617768D01*
X2713921Y-64546510D01*
X2721249Y-64471222D01*
X2723538Y-64412112D01*
X2723691Y-64391905D01*
X2723290Y-64374319D01*
X3505268Y-64374319D01*
X3507447Y-64452097D01*
X3513984Y-64526063D01*
X3524878Y-64596216D01*
X3540130Y-64662556D01*
X3559740Y-64725084D01*
X3583707Y-64783800D01*
X3612033Y-64838703D01*
X3644716Y-64889794D01*
X3681756Y-64937072D01*
X3723155Y-64980537D01*
X3753175Y-65007397D01*
X3799804Y-65044585D01*
X3847184Y-65078116D01*
X3895316Y-65107989D01*
X3944199Y-65134204D01*
X3993834Y-65156762D01*
X4044220Y-65175661D01*
X4095357Y-65190902D01*
X4147245Y-65202486D01*
X4199885Y-65210411D01*
X4253276Y-65214679D01*
X4289288Y-65215491D01*
X4339124Y-65214535D01*
X4411284Y-65209517D01*
X4480331Y-65200196D01*
X4546266Y-65186573D01*
X4609088Y-65168648D01*
X4668798Y-65146422D01*
X4725395Y-65119893D01*
X4778879Y-65089063D01*
X4829250Y-65053931D01*
X4876509Y-65014496D01*
X4920655Y-64970760D01*
X4961031Y-64923542D01*
X4997435Y-64874212D01*
X5029867Y-64822769D01*
X5058328Y-64769214D01*
X5082818Y-64713547D01*
X5103337Y-64655767D01*
X5119884Y-64595875D01*
X5132460Y-64533871D01*
X5141064Y-64469754D01*
X5145698Y-64403525D01*
X5146580Y-64358199D01*
X5144670Y-64292236D01*
X5138938Y-64228437D01*
X5129385Y-64166802D01*
X5116012Y-64107331D01*
X5098817Y-64050024D01*
X5077801Y-63994880D01*
X5052964Y-63941901D01*
X5024306Y-63891085D01*
X4991827Y-63842433D01*
X4955527Y-63795944D01*
X4929204Y-63766154D01*
X4886532Y-63723990D01*
X4840489Y-63685972D01*
X4791077Y-63652102D01*
X4738294Y-63622379D01*
X4682141Y-63596804D01*
X4622617Y-63575376D01*
X4559723Y-63558095D01*
X4493459Y-63544962D01*
X4423825Y-63535976D01*
X4350821Y-63531137D01*
X4300279Y-63530216D01*
X4234204Y-63532315D01*
X4170620Y-63538614D01*
X4109526Y-63549111D01*
X4050922Y-63563807D01*
X3994808Y-63582702D01*
X3941184Y-63605796D01*
X3890051Y-63633088D01*
X3841407Y-63664580D01*
X3795254Y-63700270D01*
X3751591Y-63740160D01*
X3723866Y-63769085D01*
X3684800Y-63814994D01*
X3649577Y-63863144D01*
X3618196Y-63913534D01*
X3590658Y-63966166D01*
X3566962Y-64021039D01*
X3547109Y-64078154D01*
X3531099Y-64137509D01*
X3518931Y-64199105D01*
X3510605Y-64262943D01*
X3506122Y-64329022D01*
X3505268Y-64374319D01*
X2723290Y-64374319D01*
X2722306Y-64331240D01*
X2716153Y-64253960D01*
X2705076Y-64180801D01*
X2689076Y-64111765D01*
X2668153Y-64046850D01*
X2642307Y-63986056D01*
X2611539Y-63929384D01*
X2575847Y-63876834D01*
X2566154Y-63864340D01*
X2524862Y-63817972D01*
X2479754Y-63777786D01*
X2430829Y-63743783D01*
X2378087Y-63715963D01*
X2321530Y-63694324D01*
X2261156Y-63678868D01*
X2196966Y-63669595D01*
X2146319Y-63666697D01*
X2128960Y-63666503D01*
X2064960Y-63669572D01*
X2004243Y-63678777D01*
X1946808Y-63694118D01*
X1892655Y-63715596D01*
X1841784Y-63743211D01*
X1794194Y-63776962D01*
X1749887Y-63816850D01*
X1708862Y-63862875D01*
X1671939Y-63913570D01*
X1639940Y-63968204D01*
X1612863Y-64026777D01*
X1590710Y-64089288D01*
X1573479Y-64155737D01*
X1561171Y-64226125D01*
X1553787Y-64300451D01*
X1551325Y-64378715D01*
X769906Y-64378715D01*
X771175Y-64284411D01*
X775454Y-64181383D01*
X782585Y-64081354D01*
X792570Y-63984324D01*
X805407Y-63890295D01*
X821097Y-63799265D01*
X839639Y-63711234D01*
X861034Y-63626203D01*
X885282Y-63544172D01*
X912382Y-63465140D01*
X942335Y-63389108D01*
X975141Y-63316076D01*
X1010800Y-63246043D01*
X1049311Y-63179010D01*
X1090675Y-63114976D01*
X1134891Y-63053942D01*
X1181140Y-62996269D01*
X1228906Y-62942316D01*
X1278188Y-62892084D01*
X1328988Y-62845573D01*
X1381305Y-62802782D01*
X1435138Y-62763713D01*
X1490489Y-62728365D01*
X1547356Y-62696737D01*
X1605741Y-62668830D01*
X1665642Y-62644645D01*
X1727061Y-62624180D01*
X1789996Y-62607436D01*
X1854449Y-62594413D01*
X1920418Y-62585110D01*
X1987905Y-62579529D01*
X2056908Y-62577669D01*
X2121491Y-62579601D01*
X2184721Y-62585397D01*
X2246598Y-62595057D01*
X2307123Y-62608581D01*
X2366296Y-62625969D01*
X2424117Y-62647221D01*
X2480585Y-62672337D01*
X2535700Y-62701317D01*
X2589464Y-62734161D01*
X2641874Y-62770869D01*
X2676064Y-62797487D01*
X2725551Y-62839987D01*
X2772807Y-62885604D01*
X2817830Y-62934337D01*
X2860620Y-62986188D01*
X2901177Y-63041155D01*
X2939503Y-63099240D01*
X2975595Y-63160441D01*
X3009455Y-63224760D01*
X3041083Y-63292195D01*
X3070478Y-63362747D01*
X3088834Y-63411514D01*
X3110668Y-63349621D01*
X3133733Y-63289606D01*
X3158028Y-63231469D01*
X3183555Y-63175209D01*
X3210312Y-63120827D01*
X3238299Y-63068322D01*
X3267518Y-63017695D01*
X3297967Y-62968946D01*
X3329647Y-62922074D01*
X3362558Y-62877080D01*
X3396699Y-62833963D01*
X3432072Y-62792725D01*
X3468675Y-62753363D01*
X3506508Y-62715880D01*
X3545573Y-62680274D01*
X3585868Y-62646545D01*
X3627022Y-62614780D01*
X3690238Y-62570975D01*
X3755235Y-62531782D01*
X3822015Y-62497199D01*
X3890576Y-62467227D01*
X3937273Y-62449808D01*
X3984762Y-62434437D01*
X4033043Y-62421117D01*
X4082115Y-62409845D01*
X4131980Y-62400623D01*
X4182637Y-62393450D01*
X4234085Y-62388327D01*
X4286325Y-62385253D01*
X4339357Y-62384228D01*
X4426560Y-62386318D01*
G37*
G36*
X4396755Y-61652965D02*
G01*
X4286845Y-60499651D01*
X4353084Y-60488608D01*
X4416704Y-60474165D01*
X4477705Y-60456322D01*
X4536087Y-60435079D01*
X4591851Y-60410435D01*
X4644995Y-60382391D01*
X4695520Y-60350947D01*
X4743427Y-60316102D01*
X4788714Y-60277857D01*
X4831383Y-60236212D01*
X4858374Y-60206559D01*
X4895912Y-60160303D01*
X4929757Y-60112758D01*
X4959911Y-60063926D01*
X4986372Y-60013806D01*
X5015910Y-59944975D01*
X5038884Y-59873855D01*
X5055294Y-59800444D01*
X5065140Y-59724744D01*
X5068422Y-59646755D01*
X5066490Y-59579603D01*
X5060694Y-59514434D01*
X5051034Y-59451249D01*
X5037510Y-59390048D01*
X5020122Y-59330830D01*
X4998870Y-59273595D01*
X4973754Y-59218344D01*
X4944774Y-59165077D01*
X4911930Y-59113793D01*
X4875222Y-59064493D01*
X4848604Y-59032728D01*
X4805195Y-58987682D01*
X4757857Y-58947067D01*
X4706591Y-58910883D01*
X4651397Y-58879130D01*
X4592274Y-58851807D01*
X4529223Y-58828915D01*
X4462243Y-58810454D01*
X4391335Y-58796423D01*
X4341881Y-58789531D01*
X4290681Y-58784608D01*
X4237734Y-58781654D01*
X4183042Y-58780669D01*
X4131656Y-58781643D01*
X4081910Y-58784562D01*
X4010369Y-58792591D01*
X3942520Y-58804998D01*
X3878363Y-58821785D01*
X3817899Y-58842951D01*
X3761127Y-58868497D01*
X3708047Y-58898421D01*
X3658659Y-58932725D01*
X3612964Y-58971408D01*
X3570961Y-59014470D01*
X3557780Y-59029797D01*
X3520461Y-59077835D01*
X3486812Y-59128527D01*
X3456833Y-59181871D01*
X3430526Y-59237869D01*
X3407889Y-59296520D01*
X3388924Y-59357825D01*
X3373629Y-59421783D01*
X3362004Y-59488394D01*
X3354051Y-59557658D01*
X3349768Y-59629576D01*
X3348953Y-59678995D01*
X3350479Y-59740876D01*
X3355059Y-59801956D01*
X3362691Y-59862234D01*
X3373377Y-59921711D01*
X3387116Y-59980386D01*
X3403907Y-60038261D01*
X3423752Y-60095333D01*
X3446650Y-60151605D01*
X3472601Y-60207074D01*
X3501605Y-60261743D01*
X3533661Y-60315610D01*
X3568771Y-60368675D01*
X3606934Y-60420940D01*
X3648150Y-60472402D01*
X3692419Y-60523064D01*
X3739741Y-60572923D01*
X3618841Y-61512281D01*
X847906Y-60918771D01*
X847906Y-57857431D01*
X1785799Y-57857431D01*
X1785799Y-60040963D01*
X2667515Y-60222679D01*
X2635652Y-60149985D01*
X2606922Y-60076981D01*
X2581327Y-60003668D01*
X2558865Y-59930046D01*
X2539538Y-59856115D01*
X2523345Y-59781874D01*
X2510286Y-59707325D01*
X2500362Y-59632466D01*
X2493571Y-59557299D01*
X2489914Y-59481822D01*
X2489218Y-59431332D01*
X2491035Y-59335900D01*
X2496488Y-59242311D01*
X2505576Y-59150566D01*
X2518298Y-59060663D01*
X2534656Y-58972604D01*
X2554648Y-58886388D01*
X2578276Y-58802016D01*
X2605539Y-58719487D01*
X2636436Y-58638801D01*
X2670969Y-58559958D01*
X2709137Y-58482958D01*
X2750939Y-58407802D01*
X2796377Y-58334489D01*
X2845450Y-58263020D01*
X2898158Y-58193393D01*
X2954501Y-58125610D01*
X3013596Y-58060661D01*
X3074866Y-57999901D01*
X3138312Y-57943332D01*
X3203934Y-57890954D01*
X3271730Y-57842765D01*
X3341702Y-57798767D01*
X3413849Y-57758960D01*
X3488171Y-57723342D01*
X3564669Y-57691915D01*
X3643342Y-57664678D01*
X3724190Y-57641631D01*
X3807213Y-57622775D01*
X3892412Y-57608109D01*
X3979786Y-57597633D01*
X4069336Y-57591348D01*
X4161060Y-57589253D01*
X4237787Y-57590942D01*
X4313483Y-57596008D01*
X4388149Y-57604451D01*
X4461784Y-57616272D01*
X4534389Y-57631471D01*
X4605964Y-57650046D01*
X4676508Y-57672000D01*
X4746022Y-57697330D01*
X4814505Y-57726038D01*
X4881958Y-57758124D01*
X4948381Y-57793587D01*
X5013773Y-57832427D01*
X5078135Y-57874645D01*
X5141466Y-57920240D01*
X5203767Y-57969213D01*
X5265038Y-58021563D01*
X5305835Y-58058830D01*
X5345337Y-58096994D01*
X5383545Y-58136053D01*
X5420456Y-58176008D01*
X5456073Y-58216859D01*
X5490395Y-58258606D01*
X5555153Y-58344788D01*
X5614730Y-58434553D01*
X5669126Y-58527901D01*
X5718342Y-58624833D01*
X5762377Y-58725348D01*
X5801232Y-58829447D01*
X5834906Y-58937130D01*
X5863399Y-59048396D01*
X5875703Y-59105373D01*
X5886712Y-59163245D01*
X5896426Y-59222014D01*
X5904844Y-59281678D01*
X5911968Y-59342239D01*
X5917796Y-59403695D01*
X5922329Y-59466047D01*
X5925567Y-59529295D01*
X5927510Y-59593439D01*
X5928157Y-59658478D01*
X5926535Y-59761867D01*
X5921670Y-59862841D01*
X5913560Y-59961398D01*
X5902206Y-60057540D01*
X5887609Y-60151267D01*
X5869768Y-60242577D01*
X5848683Y-60331472D01*
X5824354Y-60417951D01*
X5796781Y-60502015D01*
X5765965Y-60583662D01*
X5731904Y-60662894D01*
X5694600Y-60739711D01*
X5654052Y-60814111D01*
X5610260Y-60886096D01*
X5563224Y-60955665D01*
X5512944Y-61022819D01*
X5459926Y-61087104D01*
X5404676Y-61148070D01*
X5347193Y-61205715D01*
X5287478Y-61260040D01*
X5225530Y-61311044D01*
X5161349Y-61358729D01*
X5094936Y-61403093D01*
X5026290Y-61444138D01*
X4955412Y-61481862D01*
X4882302Y-61516266D01*
X4806959Y-61547349D01*
X4729383Y-61575113D01*
X4649575Y-61599556D01*
X4567534Y-61620679D01*
X4483260Y-61638482D01*
X4396755Y-61652965D01*
G37*
G36*
X3438993Y-53079156D02*
G01*
X3526239Y-53080894D01*
X3611910Y-53083792D01*
X3696007Y-53087850D01*
X3778529Y-53093066D01*
X3859478Y-53099442D01*
X3938852Y-53106976D01*
X4016652Y-53115670D01*
X4092877Y-53125523D01*
X4167529Y-53136536D01*
X4240606Y-53148707D01*
X4312109Y-53162038D01*
X4382038Y-53176528D01*
X4450393Y-53192177D01*
X4517173Y-53208986D01*
X4582379Y-53226953D01*
X4646011Y-53246080D01*
X4708069Y-53266366D01*
X4768552Y-53287811D01*
X4827462Y-53310416D01*
X4884797Y-53334179D01*
X4940557Y-53359102D01*
X4994744Y-53385184D01*
X5047356Y-53412425D01*
X5098395Y-53440826D01*
X5147859Y-53470385D01*
X5195748Y-53501104D01*
X5242064Y-53532982D01*
X5286805Y-53566019D01*
X5329972Y-53600216D01*
X5371565Y-53635571D01*
X5411584Y-53672086D01*
X5474137Y-53734958D01*
X5532656Y-53800840D01*
X5587138Y-53869734D01*
X5637585Y-53941639D01*
X5683995Y-54016554D01*
X5726371Y-54094481D01*
X5764710Y-54175419D01*
X5799014Y-54259368D01*
X5829282Y-54346328D01*
X5855514Y-54436299D01*
X5877711Y-54529281D01*
X5895871Y-54625274D01*
X5909996Y-54724278D01*
X5920086Y-54826294D01*
X5926139Y-54931320D01*
X5928157Y-55039357D01*
X5925944Y-55148299D01*
X5919303Y-55254574D01*
X5908236Y-55358180D01*
X5892742Y-55459119D01*
X5872821Y-55557391D01*
X5848473Y-55652995D01*
X5819698Y-55745931D01*
X5786496Y-55836200D01*
X5748868Y-55923801D01*
X5706812Y-56008734D01*
X5660330Y-56091000D01*
X5609420Y-56170599D01*
X5554084Y-56247530D01*
X5494321Y-56321793D01*
X5430131Y-56393388D01*
X5361514Y-56462316D01*
X5287215Y-56527621D01*
X5205981Y-56588712D01*
X5162762Y-56617678D01*
X5117810Y-56645590D01*
X5071124Y-56672449D01*
X5022703Y-56698255D01*
X4972549Y-56723007D01*
X4920660Y-56746707D01*
X4867038Y-56769352D01*
X4811681Y-56790945D01*
X4754591Y-56811484D01*
X4695766Y-56830970D01*
X4635207Y-56849403D01*
X4572915Y-56866782D01*
X4508888Y-56883109D01*
X4443127Y-56898381D01*
X4375633Y-56912601D01*
X4306404Y-56925767D01*
X4235441Y-56937880D01*
X4162744Y-56948940D01*
X4088313Y-56958946D01*
X4012148Y-56967899D01*
X3934249Y-56975799D01*
X3854617Y-56982645D01*
X3773250Y-56988438D01*
X3690149Y-56993178D01*
X3605314Y-56996865D01*
X3518744Y-56999498D01*
X3430441Y-57001078D01*
X3340404Y-57001605D01*
X3252036Y-57001025D01*
X3165227Y-56999286D01*
X3079978Y-56996388D01*
X2996289Y-56992331D01*
X2914160Y-56987115D01*
X2833591Y-56980739D01*
X2754582Y-56973204D01*
X2677132Y-56964510D01*
X2601243Y-56954657D01*
X2526913Y-56943645D01*
X2454144Y-56931473D01*
X2382934Y-56918142D01*
X2313284Y-56903652D01*
X2245195Y-56888003D01*
X2178665Y-56871195D01*
X2113695Y-56853227D01*
X2050284Y-56834100D01*
X1988434Y-56813814D01*
X1928144Y-56792369D01*
X1869414Y-56769765D01*
X1812243Y-56746001D01*
X1756632Y-56721078D01*
X1702582Y-56694996D01*
X1650091Y-56667755D01*
X1599160Y-56639355D01*
X1549789Y-56609795D01*
X1501978Y-56579076D01*
X1455727Y-56547198D01*
X1411036Y-56514161D01*
X1367905Y-56479965D01*
X1326333Y-56444609D01*
X1286322Y-56408094D01*
X1223768Y-56345217D01*
X1165250Y-56279317D01*
X1110768Y-56210395D01*
X1060321Y-56138450D01*
X1013910Y-56063483D01*
X971535Y-55985493D01*
X933195Y-55904481D01*
X898892Y-55820446D01*
X868624Y-55733389D01*
X842391Y-55643309D01*
X820195Y-55550207D01*
X802034Y-55454082D01*
X787909Y-55354935D01*
X777820Y-55252765D01*
X771766Y-55147572D01*
X769748Y-55039357D01*
X1629483Y-55039357D01*
X1632137Y-55103772D01*
X1640097Y-55166039D01*
X1653365Y-55226160D01*
X1671939Y-55284135D01*
X1695821Y-55339962D01*
X1725010Y-55393643D01*
X1738171Y-55414515D01*
X1776310Y-55464403D01*
X1822797Y-55510571D01*
X1865998Y-55544826D01*
X1914541Y-55576699D01*
X1968427Y-55606192D01*
X2027656Y-55633303D01*
X2075584Y-55652073D01*
X2126517Y-55669504D01*
X2173944Y-55684056D01*
X2225245Y-55697668D01*
X2280419Y-55710342D01*
X2339467Y-55722077D01*
X2402388Y-55732874D01*
X2469182Y-55742731D01*
X2539851Y-55751650D01*
X2614392Y-55759630D01*
X2692808Y-55766671D01*
X2775097Y-55772773D01*
X2861259Y-55777936D01*
X2951295Y-55782161D01*
X3045204Y-55785447D01*
X3142987Y-55787794D01*
X3193331Y-55788615D01*
X3244644Y-55789202D01*
X3296925Y-55789554D01*
X3350174Y-55789672D01*
X3403458Y-55789567D01*
X3455690Y-55789254D01*
X3506870Y-55788731D01*
X3556998Y-55788000D01*
X3606074Y-55787060D01*
X3701072Y-55784552D01*
X3791861Y-55781209D01*
X3878443Y-55777031D01*
X3960818Y-55772016D01*
X4038985Y-55766166D01*
X4112945Y-55759479D01*
X4182697Y-55751957D01*
X4248242Y-55743600D01*
X4309580Y-55734406D01*
X4366710Y-55724377D01*
X4419632Y-55713512D01*
X4468347Y-55701811D01*
X4533531Y-55682693D01*
X4591873Y-55662145D01*
X4646459Y-55640619D01*
X4697289Y-55618113D01*
X4744362Y-55594628D01*
X4801282Y-55561793D01*
X4851523Y-55527217D01*
X4895086Y-55490901D01*
X4940148Y-55443059D01*
X4962177Y-55413049D01*
X4992785Y-55360649D01*
X5018205Y-55306031D01*
X5038437Y-55249194D01*
X5053482Y-55190139D01*
X5063338Y-55128866D01*
X5068007Y-55065375D01*
X5068422Y-55039357D01*
X5065769Y-54974943D01*
X5057808Y-54912676D01*
X5044541Y-54852555D01*
X5025966Y-54794580D01*
X5002084Y-54738753D01*
X4972896Y-54685072D01*
X4959734Y-54664200D01*
X4921595Y-54614312D01*
X4875108Y-54568144D01*
X4831908Y-54533889D01*
X4783364Y-54502016D01*
X4729478Y-54472523D01*
X4670249Y-54445412D01*
X4622321Y-54426642D01*
X4571388Y-54409211D01*
X4499439Y-54387736D01*
X4446583Y-54374592D01*
X4389816Y-54362388D01*
X4329137Y-54351122D01*
X4264546Y-54340795D01*
X4196044Y-54331407D01*
X4123630Y-54322958D01*
X4047304Y-54315447D01*
X3967066Y-54308876D01*
X3882917Y-54303243D01*
X3794856Y-54298549D01*
X3702883Y-54294794D01*
X3606999Y-54291977D01*
X3557590Y-54290921D01*
X3507203Y-54290100D01*
X3455838Y-54289513D01*
X3403495Y-54289161D01*
X3350174Y-54289043D01*
X3296966Y-54289148D01*
X3244811Y-54289461D01*
X3193707Y-54289984D01*
X3143655Y-54290715D01*
X3094655Y-54291655D01*
X2999811Y-54294163D01*
X2909174Y-54297506D01*
X2822744Y-54301684D01*
X2740522Y-54306699D01*
X2662508Y-54312549D01*
X2588700Y-54319236D01*
X2519101Y-54326758D01*
X2453708Y-54335115D01*
X2392524Y-54344309D01*
X2335546Y-54354338D01*
X2282777Y-54365203D01*
X2234214Y-54376904D01*
X2169260Y-54396022D01*
X2110688Y-54416583D01*
X2055873Y-54438148D01*
X2004814Y-54460718D01*
X1957513Y-54484293D01*
X1900287Y-54517288D01*
X1849741Y-54552070D01*
X1805872Y-54588638D01*
X1768682Y-54626992D01*
X1738171Y-54667131D01*
X1706860Y-54719109D01*
X1680855Y-54773377D01*
X1660158Y-54829935D01*
X1644767Y-54888782D01*
X1634684Y-54949919D01*
X1629908Y-55013346D01*
X1629483Y-55039357D01*
X769748Y-55039357D01*
X771795Y-54931303D01*
X777934Y-54826225D01*
X788167Y-54724124D01*
X802492Y-54625000D01*
X820910Y-54528852D01*
X843422Y-54435681D01*
X870026Y-54345486D01*
X900724Y-54258269D01*
X935514Y-54174028D01*
X974397Y-54092764D01*
X1017373Y-54014476D01*
X1064443Y-53939166D01*
X1115605Y-53866832D01*
X1170860Y-53797474D01*
X1230208Y-53731094D01*
X1293649Y-53667690D01*
X1333219Y-53631445D01*
X1374383Y-53596352D01*
X1417140Y-53562409D01*
X1461490Y-53529616D01*
X1507433Y-53497974D01*
X1554970Y-53467483D01*
X1604100Y-53438142D01*
X1654823Y-53409952D01*
X1707140Y-53382913D01*
X1761050Y-53357024D01*
X1816553Y-53332286D01*
X1873650Y-53308698D01*
X1932339Y-53286262D01*
X1992623Y-53264975D01*
X2054499Y-53244839D01*
X2117969Y-53225854D01*
X2183032Y-53208020D01*
X2249688Y-53191336D01*
X2317938Y-53175803D01*
X2387781Y-53161420D01*
X2459217Y-53148188D01*
X2532247Y-53136107D01*
X2606870Y-53125176D01*
X2683086Y-53115396D01*
X2760895Y-53106766D01*
X2840298Y-53099287D01*
X2921294Y-53092959D01*
X3003883Y-53087781D01*
X3088066Y-53083754D01*
X3173842Y-53080877D01*
X3261211Y-53079151D01*
X3350174Y-53078576D01*
X3438993Y-53079156D01*
G37*
G36*
X3438993Y-48407278D02*
G01*
X3526239Y-48409017D01*
X3611910Y-48411915D01*
X3696007Y-48415972D01*
X3778529Y-48421189D01*
X3859478Y-48427564D01*
X3938852Y-48435099D01*
X4016652Y-48443793D01*
X4092877Y-48453646D01*
X4167529Y-48464659D01*
X4240606Y-48476830D01*
X4312109Y-48490161D01*
X4382038Y-48504651D01*
X4450393Y-48520300D01*
X4517173Y-48537109D01*
X4582379Y-48555076D01*
X4646011Y-48574203D01*
X4708069Y-48594489D01*
X4768552Y-48615934D01*
X4827462Y-48638539D01*
X4884797Y-48662302D01*
X4940557Y-48687225D01*
X4994744Y-48713307D01*
X5047356Y-48740548D01*
X5098395Y-48768949D01*
X5147859Y-48798508D01*
X5195748Y-48829227D01*
X5242064Y-48861105D01*
X5286805Y-48894142D01*
X5329972Y-48928338D01*
X5371565Y-48963694D01*
X5411584Y-49000209D01*
X5474137Y-49063080D01*
X5532656Y-49128963D01*
X5587138Y-49197857D01*
X5637585Y-49269761D01*
X5683995Y-49344677D01*
X5726371Y-49422604D01*
X5764710Y-49503542D01*
X5799014Y-49587491D01*
X5829282Y-49674451D01*
X5855514Y-49764422D01*
X5877711Y-49857404D01*
X5895871Y-49953397D01*
X5909996Y-50052401D01*
X5920086Y-50154417D01*
X5926139Y-50259443D01*
X5928157Y-50367480D01*
X5925944Y-50476422D01*
X5919303Y-50582696D01*
X5908236Y-50686303D01*
X5892742Y-50787242D01*
X5872821Y-50885514D01*
X5848473Y-50981118D01*
X5819698Y-51074054D01*
X5786496Y-51164323D01*
X5748868Y-51251924D01*
X5706812Y-51336857D01*
X5660330Y-51419123D01*
X5609420Y-51498722D01*
X5554084Y-51575652D01*
X5494321Y-51649916D01*
X5430131Y-51721511D01*
X5361514Y-51790439D01*
X5287215Y-51855744D01*
X5205981Y-51916835D01*
X5162762Y-51945800D01*
X5117810Y-51973713D01*
X5071124Y-52000572D01*
X5022703Y-52026378D01*
X4972549Y-52051130D01*
X4920660Y-52074829D01*
X4867038Y-52097475D01*
X4811681Y-52119068D01*
X4754591Y-52139607D01*
X4695766Y-52159093D01*
X4635207Y-52177526D01*
X4572915Y-52194905D01*
X4508888Y-52211231D01*
X4443127Y-52226504D01*
X4375633Y-52240724D01*
X4306404Y-52253890D01*
X4235441Y-52266003D01*
X4162744Y-52277062D01*
X4088313Y-52287069D01*
X4012148Y-52296022D01*
X3934249Y-52303922D01*
X3854617Y-52310768D01*
X3773250Y-52316561D01*
X3690149Y-52321301D01*
X3605314Y-52324988D01*
X3518744Y-52327621D01*
X3430441Y-52329201D01*
X3340404Y-52329727D01*
X3252036Y-52329148D01*
X3165227Y-52327409D01*
X3079978Y-52324511D01*
X2996289Y-52320454D01*
X2914160Y-52315237D01*
X2833591Y-52308862D01*
X2754582Y-52301327D01*
X2677132Y-52292633D01*
X2601243Y-52282780D01*
X2526913Y-52271767D01*
X2454144Y-52259596D01*
X2382934Y-52246265D01*
X2313284Y-52231775D01*
X2245195Y-52216126D01*
X2178665Y-52199317D01*
X2113695Y-52181350D01*
X2050284Y-52162223D01*
X1988434Y-52141937D01*
X1928144Y-52120492D01*
X1869414Y-52097887D01*
X1812243Y-52074124D01*
X1756632Y-52049201D01*
X1702582Y-52023119D01*
X1650091Y-51995878D01*
X1599160Y-51967478D01*
X1549789Y-51937918D01*
X1501978Y-51907199D01*
X1455727Y-51875321D01*
X1411036Y-51842284D01*
X1367905Y-51808088D01*
X1326333Y-51772732D01*
X1286322Y-51736217D01*
X1223768Y-51673340D01*
X1165250Y-51607440D01*
X1110768Y-51538518D01*
X1060321Y-51466573D01*
X1013910Y-51391606D01*
X971535Y-51313616D01*
X933195Y-51232604D01*
X898892Y-51148569D01*
X868624Y-51061512D01*
X842391Y-50971432D01*
X820195Y-50878329D01*
X802034Y-50782205D01*
X787909Y-50683057D01*
X777820Y-50580887D01*
X771766Y-50475695D01*
X769748Y-50367480D01*
X1629483Y-50367480D01*
X1632137Y-50431895D01*
X1640097Y-50494162D01*
X1653365Y-50554283D01*
X1671939Y-50612257D01*
X1695821Y-50668085D01*
X1725010Y-50721766D01*
X1738171Y-50742637D01*
X1776310Y-50792526D01*
X1822797Y-50838693D01*
X1865998Y-50872949D01*
X1914541Y-50904822D01*
X1968427Y-50934315D01*
X2027656Y-50961425D01*
X2075584Y-50980196D01*
X2126517Y-50997627D01*
X2173944Y-51012178D01*
X2225245Y-51025791D01*
X2280419Y-51038465D01*
X2339467Y-51050200D01*
X2402388Y-51060996D01*
X2469182Y-51070854D01*
X2539851Y-51079773D01*
X2614392Y-51087752D01*
X2692808Y-51094794D01*
X2775097Y-51100896D01*
X2861259Y-51106059D01*
X2951295Y-51110284D01*
X3045204Y-51113570D01*
X3142987Y-51115917D01*
X3193331Y-51116738D01*
X3244644Y-51117325D01*
X3296925Y-51117677D01*
X3350174Y-51117794D01*
X3403458Y-51117690D01*
X3455690Y-51117376D01*
X3506870Y-51116854D01*
X3556998Y-51116123D01*
X3606074Y-51115183D01*
X3701072Y-51112675D01*
X3791861Y-51109332D01*
X3878443Y-51105153D01*
X3960818Y-51100139D01*
X4038985Y-51094288D01*
X4112945Y-51087602D01*
X4182697Y-51080080D01*
X4248242Y-51071723D01*
X4309580Y-51062529D01*
X4366710Y-51052500D01*
X4419632Y-51041635D01*
X4468347Y-51029934D01*
X4533531Y-51010816D01*
X4591873Y-50990268D01*
X4646459Y-50968741D01*
X4697289Y-50946236D01*
X4744362Y-50922751D01*
X4801282Y-50889916D01*
X4851523Y-50855340D01*
X4895086Y-50819024D01*
X4940148Y-50771182D01*
X4962177Y-50741172D01*
X4992785Y-50688772D01*
X5018205Y-50634153D01*
X5038437Y-50577317D01*
X5053482Y-50518262D01*
X5063338Y-50456989D01*
X5068007Y-50393498D01*
X5068422Y-50367480D01*
X5065769Y-50303066D01*
X5057808Y-50240798D01*
X5044541Y-50180677D01*
X5025966Y-50122703D01*
X5002084Y-50066876D01*
X4972896Y-50013195D01*
X4959734Y-49992323D01*
X4921595Y-49942435D01*
X4875108Y-49896267D01*
X4831908Y-49862012D01*
X4783364Y-49830138D01*
X4729478Y-49800646D01*
X4670249Y-49773535D01*
X4622321Y-49754765D01*
X4571388Y-49737334D01*
X4499439Y-49715859D01*
X4446583Y-49702715D01*
X4389816Y-49690511D01*
X4329137Y-49679245D01*
X4264546Y-49668918D01*
X4196044Y-49659530D01*
X4123630Y-49651081D01*
X4047304Y-49643570D01*
X3967066Y-49636999D01*
X3882917Y-49631366D01*
X3794856Y-49626672D01*
X3702883Y-49622916D01*
X3606999Y-49620100D01*
X3557590Y-49619044D01*
X3507203Y-49618222D01*
X3455838Y-49617636D01*
X3403495Y-49617284D01*
X3350174Y-49617166D01*
X3296966Y-49617271D01*
X3244811Y-49617584D01*
X3193707Y-49618107D01*
X3143655Y-49618838D01*
X3094655Y-49619778D01*
X2999811Y-49622285D01*
X2909174Y-49625628D01*
X2822744Y-49629807D01*
X2740522Y-49634822D01*
X2662508Y-49640672D01*
X2588700Y-49647358D01*
X2519101Y-49654880D01*
X2453708Y-49663238D01*
X2392524Y-49672431D01*
X2335546Y-49682461D01*
X2282777Y-49693326D01*
X2234214Y-49705026D01*
X2169260Y-49724145D01*
X2110688Y-49744705D01*
X2055873Y-49766271D01*
X2004814Y-49788841D01*
X1957513Y-49812416D01*
X1900287Y-49845411D01*
X1849741Y-49880193D01*
X1805872Y-49916761D01*
X1768682Y-49955114D01*
X1738171Y-49995254D01*
X1706860Y-50047232D01*
X1680855Y-50101500D01*
X1660158Y-50158057D01*
X1644767Y-50216905D01*
X1634684Y-50278042D01*
X1629908Y-50341468D01*
X1629483Y-50367480D01*
X769748Y-50367480D01*
X771795Y-50259426D01*
X777934Y-50154348D01*
X788167Y-50052247D01*
X802492Y-49953122D01*
X820910Y-49856975D01*
X843422Y-49763804D01*
X870026Y-49673609D01*
X900724Y-49586392D01*
X935514Y-49502151D01*
X974397Y-49420887D01*
X1017373Y-49342599D01*
X1064443Y-49267288D01*
X1115605Y-49194954D01*
X1170860Y-49125597D01*
X1230208Y-49059216D01*
X1293649Y-48995812D01*
X1333219Y-48959568D01*
X1374383Y-48924474D01*
X1417140Y-48890531D01*
X1461490Y-48857739D01*
X1507433Y-48826097D01*
X1554970Y-48795606D01*
X1604100Y-48766265D01*
X1654823Y-48738075D01*
X1707140Y-48711036D01*
X1761050Y-48685147D01*
X1816553Y-48660409D01*
X1873650Y-48636821D01*
X1932339Y-48614384D01*
X1992623Y-48593098D01*
X2054499Y-48572962D01*
X2117969Y-48553977D01*
X2183032Y-48536143D01*
X2249688Y-48519459D01*
X2317938Y-48503926D01*
X2387781Y-48489543D01*
X2459217Y-48476311D01*
X2532247Y-48464229D01*
X2606870Y-48453299D01*
X2683086Y-48443518D01*
X2760895Y-48434889D01*
X2840298Y-48427410D01*
X2921294Y-48421081D01*
X3003883Y-48415904D01*
X3088066Y-48411876D01*
X3173842Y-48409000D01*
X3261211Y-48407274D01*
X3350174Y-48406699D01*
X3438993Y-48407278D01*
G37*
G36*
X4352080Y-43621174D02*
G01*
X4443065Y-43627546D01*
X4531713Y-43638164D01*
X4618023Y-43653031D01*
X4701996Y-43672145D01*
X4783631Y-43695506D01*
X4862929Y-43723115D01*
X4939890Y-43754972D01*
X5014512Y-43791076D01*
X5086798Y-43831427D01*
X5156746Y-43876026D01*
X5224356Y-43924873D01*
X5289629Y-43977967D01*
X5352565Y-44035309D01*
X5413163Y-44096898D01*
X5471423Y-44162735D01*
X5526731Y-44231903D01*
X5578470Y-44303488D01*
X5626641Y-44377487D01*
X5671244Y-44453903D01*
X5712279Y-44532734D01*
X5749745Y-44613981D01*
X5783644Y-44697644D01*
X5813974Y-44783722D01*
X5840735Y-44872217D01*
X5863929Y-44963126D01*
X5883554Y-45056452D01*
X5899611Y-45152193D01*
X5912100Y-45250350D01*
X5921021Y-45350923D01*
X5926373Y-45453911D01*
X5928157Y-45559316D01*
X5925839Y-45672528D01*
X5918884Y-45783187D01*
X5907292Y-45891293D01*
X5891063Y-45996846D01*
X5870197Y-46099846D01*
X5844695Y-46200293D01*
X5814556Y-46298186D01*
X5779780Y-46393527D01*
X5740367Y-46486315D01*
X5696317Y-46576549D01*
X5647631Y-46664230D01*
X5594308Y-46749358D01*
X5536348Y-46831933D01*
X5473751Y-46911955D01*
X5406517Y-46989424D01*
X5334647Y-47064340D01*
X5257339Y-47135678D01*
X5216459Y-47169621D01*
X5174096Y-47202414D01*
X5130249Y-47234055D01*
X5084918Y-47264547D01*
X5038104Y-47293887D01*
X4989807Y-47322077D01*
X4940026Y-47349117D01*
X4888761Y-47375005D01*
X4836012Y-47399744D01*
X4781781Y-47423331D01*
X4726065Y-47445768D01*
X4668866Y-47467055D01*
X4610183Y-47487190D01*
X4550017Y-47506175D01*
X4488367Y-47524010D01*
X4425234Y-47540694D01*
X4360617Y-47556227D01*
X4294516Y-47570610D01*
X4226932Y-47583842D01*
X4157864Y-47595923D01*
X4087313Y-47606854D01*
X4015278Y-47616634D01*
X3941759Y-47625264D01*
X3866757Y-47632743D01*
X3790271Y-47639071D01*
X3712302Y-47644249D01*
X3632849Y-47648276D01*
X3551913Y-47651153D01*
X3469493Y-47652878D01*
X3385589Y-47653454D01*
X3299564Y-47652854D01*
X3215053Y-47651055D01*
X3132057Y-47648057D01*
X3050576Y-47643860D01*
X2970609Y-47638463D01*
X2892157Y-47631867D01*
X2815219Y-47624072D01*
X2739796Y-47615077D01*
X2665887Y-47604883D01*
X2593493Y-47593490D01*
X2522614Y-47580898D01*
X2453249Y-47567106D01*
X2385399Y-47552115D01*
X2319064Y-47535925D01*
X2254243Y-47518536D01*
X2190936Y-47499947D01*
X2129145Y-47480159D01*
X2068867Y-47459172D01*
X2010105Y-47436985D01*
X1952857Y-47413600D01*
X1897123Y-47389015D01*
X1842905Y-47363230D01*
X1790200Y-47336247D01*
X1739011Y-47308064D01*
X1689336Y-47278682D01*
X1641175Y-47248100D01*
X1594529Y-47216320D01*
X1549398Y-47183340D01*
X1505781Y-47149161D01*
X1463679Y-47113782D01*
X1423092Y-47077204D01*
X1384019Y-47039427D01*
X1346227Y-47000693D01*
X1309635Y-46961243D01*
X1240049Y-46880196D01*
X1175263Y-46796287D01*
X1115276Y-46709516D01*
X1060087Y-46619883D01*
X1009698Y-46527387D01*
X964107Y-46432030D01*
X923316Y-46333810D01*
X887324Y-46232727D01*
X856130Y-46128783D01*
X829736Y-46021976D01*
X808140Y-45912308D01*
X791344Y-45799777D01*
X779346Y-45684383D01*
X775147Y-45625613D01*
X772148Y-45566128D01*
X770348Y-45505927D01*
X769748Y-45445010D01*
X771055Y-45359842D01*
X774977Y-45276528D01*
X781512Y-45195069D01*
X790662Y-45115465D01*
X802425Y-45037716D01*
X816803Y-44961821D01*
X833795Y-44887781D01*
X853401Y-44815596D01*
X875622Y-44745266D01*
X900456Y-44676790D01*
X927905Y-44610169D01*
X957968Y-44545403D01*
X990645Y-44482491D01*
X1025936Y-44421434D01*
X1063841Y-44362232D01*
X1104361Y-44304884D01*
X1147371Y-44249747D01*
X1192746Y-44197173D01*
X1240488Y-44147165D01*
X1290596Y-44099720D01*
X1343070Y-44054841D01*
X1397910Y-44012526D01*
X1455117Y-43972775D01*
X1514689Y-43935589D01*
X1576627Y-43900968D01*
X1640932Y-43868911D01*
X1707603Y-43839419D01*
X1776639Y-43812491D01*
X1848042Y-43788128D01*
X1921811Y-43766329D01*
X1997946Y-43747095D01*
X2076448Y-43730425D01*
X2176587Y-44851500D01*
X2125439Y-44860353D01*
X2076867Y-44871524D01*
X2016112Y-44890025D01*
X1959936Y-44912648D01*
X1908340Y-44939393D01*
X1861323Y-44970259D01*
X1818886Y-45005247D01*
X1781028Y-45044356D01*
X1763817Y-45065457D01*
X1732332Y-45110313D01*
X1698880Y-45170957D01*
X1671987Y-45236680D01*
X1655195Y-45292917D01*
X1642602Y-45352406D01*
X1634206Y-45415146D01*
X1630008Y-45481137D01*
X1629483Y-45515352D01*
X1631962Y-45583053D01*
X1639401Y-45648771D01*
X1651798Y-45712506D01*
X1669153Y-45774257D01*
X1691468Y-45834024D01*
X1718741Y-45891808D01*
X1750974Y-45947609D01*
X1788165Y-46001426D01*
X1830314Y-46053259D01*
X1877423Y-46103109D01*
X1911584Y-46135240D01*
X1969508Y-46181127D01*
X2013968Y-46209887D01*
X2063102Y-46237181D01*
X2116912Y-46263010D01*
X2175397Y-46287373D01*
X2238557Y-46310271D01*
X2306391Y-46331703D01*
X2378901Y-46351670D01*
X2456085Y-46370171D01*
X2537945Y-46387207D01*
X2624479Y-46402778D01*
X2715689Y-46416883D01*
X2811573Y-46429522D01*
X2861268Y-46435293D01*
X2912133Y-46440696D01*
X2964165Y-46445734D01*
X3017367Y-46450405D01*
X3071737Y-46454710D01*
X3020127Y-46399847D01*
X2971846Y-46343335D01*
X2926894Y-46285175D01*
X2885273Y-46225366D01*
X2846981Y-46163908D01*
X2812019Y-46100802D01*
X2780387Y-46036047D01*
X2752084Y-45969644D01*
X2727111Y-45901591D01*
X2705468Y-45831891D01*
X2687155Y-45760541D01*
X2672171Y-45687543D01*
X2660517Y-45612896D01*
X2654671Y-45559316D01*
X3505268Y-45559316D01*
X3506900Y-45621062D01*
X3511794Y-45681006D01*
X3519951Y-45739146D01*
X3535903Y-45813862D01*
X3557656Y-45885371D01*
X3585210Y-45953675D01*
X3618564Y-46018774D01*
X3657720Y-46080666D01*
X3690893Y-46124982D01*
X3727014Y-46166099D01*
X3766226Y-46203172D01*
X3808530Y-46236201D01*
X3853925Y-46265185D01*
X3902411Y-46290125D01*
X3953988Y-46311021D01*
X4008656Y-46327872D01*
X4066416Y-46340679D01*
X4127267Y-46349442D01*
X4191209Y-46354160D01*
X4235554Y-46355059D01*
X4284761Y-46354046D01*
X4355905Y-46348726D01*
X4423850Y-46338847D01*
X4488597Y-46324409D01*
X4550146Y-46305411D01*
X4608496Y-46281853D01*
X4663647Y-46253736D01*
X4715600Y-46221060D01*
X4764354Y-46183824D01*
X4809910Y-46142028D01*
X4852267Y-46095673D01*
X4890897Y-46046381D01*
X4925726Y-45995776D01*
X4956756Y-45943856D01*
X4983987Y-45890623D01*
X5007418Y-45836077D01*
X5027049Y-45780216D01*
X5042881Y-45723042D01*
X5054913Y-45664554D01*
X5063145Y-45604752D01*
X5067578Y-45543636D01*
X5068422Y-45502163D01*
X5066866Y-45442666D01*
X5059949Y-45366302D01*
X5047498Y-45293327D01*
X5029514Y-45223740D01*
X5005996Y-45157543D01*
X4976945Y-45094734D01*
X4942359Y-45035315D01*
X4902241Y-44979284D01*
X4891346Y-44965806D01*
X4843242Y-44915659D01*
X4802530Y-44882438D01*
X4757848Y-44852977D01*
X4709193Y-44827277D01*
X4656568Y-44805338D01*
X4599971Y-44787160D01*
X4539403Y-44772743D01*
X4474863Y-44762087D01*
X4406353Y-44755192D01*
X4333870Y-44752058D01*
X4308827Y-44751849D01*
X4257646Y-44752753D01*
X4208211Y-44755467D01*
X4137331Y-44762928D01*
X4070380Y-44774460D01*
X4007358Y-44790062D01*
X3948264Y-44809734D01*
X3893098Y-44833476D01*
X3841861Y-44861289D01*
X3794552Y-44893171D01*
X3751171Y-44929123D01*
X3711719Y-44969146D01*
X3699441Y-44983391D01*
X3664740Y-45027548D01*
X3633453Y-45073740D01*
X3605578Y-45121967D01*
X3573722Y-45189435D01*
X3547933Y-45260521D01*
X3532574Y-45316210D01*
X3520628Y-45373934D01*
X3512095Y-45433693D01*
X3506975Y-45495487D01*
X3505268Y-45559316D01*
X2654671Y-45559316D01*
X2652193Y-45536601D01*
X2647198Y-45458657D01*
X2645533Y-45379064D01*
X2647294Y-45289202D01*
X2652574Y-45200966D01*
X2661376Y-45114355D01*
X2673698Y-45029370D01*
X2689540Y-44946010D01*
X2708903Y-44864277D01*
X2731786Y-44784169D01*
X2758190Y-44705687D01*
X2788115Y-44628831D01*
X2821560Y-44553600D01*
X2858526Y-44479995D01*
X2899012Y-44408016D01*
X2943018Y-44337663D01*
X2990545Y-44268935D01*
X3041593Y-44201833D01*
X3096161Y-44136357D01*
X3153368Y-44073714D01*
X3212635Y-44015113D01*
X3273963Y-43960553D01*
X3337351Y-43910035D01*
X3402801Y-43863559D01*
X3470311Y-43821123D01*
X3539882Y-43782729D01*
X3611514Y-43748377D01*
X3685206Y-43718066D01*
X3760960Y-43691797D01*
X3838774Y-43669569D01*
X3918649Y-43651382D01*
X4000585Y-43637237D01*
X4084582Y-43627133D01*
X4170639Y-43621071D01*
X4258757Y-43619050D01*
X4352080Y-43621174D01*
G37*
D10*
D11*
G36*
X110389088Y-83816674D02*
G01*
X110450122Y-83818128D01*
X110510080Y-83820551D01*
X110568961Y-83823944D01*
X110626767Y-83828306D01*
X110683496Y-83833637D01*
X110739149Y-83839938D01*
X110793726Y-83847208D01*
X110847227Y-83855448D01*
X110899651Y-83864656D01*
X110950999Y-83874834D01*
X111001271Y-83885982D01*
X111050467Y-83898098D01*
X111098587Y-83911185D01*
X111145630Y-83925240D01*
X111191598Y-83940265D01*
X111246380Y-83959579D01*
X111299843Y-83979908D01*
X111351985Y-84001253D01*
X111402807Y-84023613D01*
X111452308Y-84046987D01*
X111500488Y-84071377D01*
X111547349Y-84096782D01*
X111592889Y-84123203D01*
X111637108Y-84150638D01*
X111680007Y-84179088D01*
X111721585Y-84208554D01*
X111761844Y-84239035D01*
X111800781Y-84270531D01*
X111838398Y-84303042D01*
X111874695Y-84336568D01*
X111909672Y-84371109D01*
X111947882Y-84412156D01*
X111984479Y-84455796D01*
X112019461Y-84502030D01*
X112041885Y-84534293D01*
X112063592Y-84567708D01*
X112084582Y-84602276D01*
X112104854Y-84637997D01*
X112124409Y-84674870D01*
X112143246Y-84712895D01*
X112161366Y-84752074D01*
X112178768Y-84792404D01*
X112195453Y-84833887D01*
X112211420Y-84876523D01*
X112226670Y-84920311D01*
X112234026Y-84942637D01*
X112249390Y-84994784D01*
X112263244Y-85050108D01*
X112271639Y-85088756D01*
X112279364Y-85128815D01*
X112286416Y-85170287D01*
X112292797Y-85213171D01*
X112298506Y-85257466D01*
X112303544Y-85303174D01*
X112307909Y-85350294D01*
X112311604Y-85398826D01*
X112314626Y-85448770D01*
X112316977Y-85500125D01*
X112318656Y-85552893D01*
X112319664Y-85607073D01*
X112320000Y-85662665D01*
X112320000Y-87193579D01*
X108255799Y-87193579D01*
X108255799Y-86379762D01*
X108943586Y-86379762D01*
X111632212Y-86379762D01*
X111632212Y-85773063D01*
X111632059Y-85731183D01*
X111631601Y-85690784D01*
X111630342Y-85632961D01*
X111628395Y-85578470D01*
X111625762Y-85527311D01*
X111622442Y-85479483D01*
X111618435Y-85434987D01*
X111613741Y-85393823D01*
X111606413Y-85344119D01*
X111597865Y-85300339D01*
X111593133Y-85280669D01*
X111579608Y-85232386D01*
X111563946Y-85186209D01*
X111546147Y-85142138D01*
X111526210Y-85100174D01*
X111504137Y-85060317D01*
X111479926Y-85022566D01*
X111453579Y-84986922D01*
X111425094Y-84953384D01*
X111392899Y-84921419D01*
X111355912Y-84890980D01*
X111314131Y-84862068D01*
X111279650Y-84841385D01*
X111242473Y-84821562D01*
X111202599Y-84802596D01*
X111160029Y-84784490D01*
X111114763Y-84767242D01*
X111066801Y-84750853D01*
X111033328Y-84740404D01*
X110980303Y-84725564D01*
X110923808Y-84712183D01*
X110884218Y-84704073D01*
X110843086Y-84696612D01*
X110800412Y-84689800D01*
X110756197Y-84683637D01*
X110710439Y-84678122D01*
X110663140Y-84673257D01*
X110614299Y-84669040D01*
X110563916Y-84665471D01*
X110511992Y-84662552D01*
X110458526Y-84660281D01*
X110403517Y-84658659D01*
X110346968Y-84657686D01*
X110288876Y-84657362D01*
X110230987Y-84657686D01*
X110174799Y-84658659D01*
X110120314Y-84660281D01*
X110067531Y-84662552D01*
X110016450Y-84665471D01*
X109967071Y-84669040D01*
X109919394Y-84673257D01*
X109873419Y-84678122D01*
X109829146Y-84683637D01*
X109786575Y-84689800D01*
X109745707Y-84696612D01*
X109706540Y-84704073D01*
X109650981Y-84716481D01*
X109599252Y-84730348D01*
X109566894Y-84740404D01*
X109520612Y-84756375D01*
X109476288Y-84773514D01*
X109433921Y-84791821D01*
X109393512Y-84811296D01*
X109355061Y-84831938D01*
X109318568Y-84853748D01*
X109284032Y-84876726D01*
X109251454Y-84900872D01*
X109220834Y-84926185D01*
X109183053Y-84961753D01*
X109174152Y-84970969D01*
X109140171Y-85009117D01*
X109109061Y-85049799D01*
X109080820Y-85093015D01*
X109061523Y-85127089D01*
X109043840Y-85162589D01*
X109027772Y-85199515D01*
X109013318Y-85237866D01*
X109000478Y-85277642D01*
X108989252Y-85318844D01*
X108982665Y-85347103D01*
X108973506Y-85394716D01*
X108967438Y-85437137D01*
X108962057Y-85485311D01*
X108957363Y-85539238D01*
X108954615Y-85578385D01*
X108952173Y-85620090D01*
X108950036Y-85664351D01*
X108948204Y-85711169D01*
X108946678Y-85760545D01*
X108945456Y-85812477D01*
X108944540Y-85866966D01*
X108943930Y-85924012D01*
X108943625Y-85983615D01*
X108943586Y-86014375D01*
X108943586Y-86379762D01*
X108255799Y-86379762D01*
X108255799Y-85706629D01*
X108256100Y-85644671D01*
X108257004Y-85584584D01*
X108258512Y-85526366D01*
X108260622Y-85470019D01*
X108263336Y-85415541D01*
X108266652Y-85362933D01*
X108270571Y-85312196D01*
X108275094Y-85263328D01*
X108280219Y-85216331D01*
X108285947Y-85171203D01*
X108292278Y-85127945D01*
X108299213Y-85086557D01*
X108306750Y-85047040D01*
X108319186Y-84991269D01*
X108332979Y-84939706D01*
X108346810Y-84895892D01*
X108361922Y-84852863D01*
X108378317Y-84810620D01*
X108395994Y-84769164D01*
X108414953Y-84728494D01*
X108435195Y-84688609D01*
X108456719Y-84649512D01*
X108479525Y-84611200D01*
X108503613Y-84573674D01*
X108528984Y-84536935D01*
X108555637Y-84500981D01*
X108583572Y-84465814D01*
X108612790Y-84431433D01*
X108643290Y-84397838D01*
X108675072Y-84365030D01*
X108708136Y-84333007D01*
X108742193Y-84301851D01*
X108777196Y-84271641D01*
X108813145Y-84242378D01*
X108850041Y-84214061D01*
X108887884Y-84186690D01*
X108926673Y-84160266D01*
X108966408Y-84134789D01*
X109007090Y-84110258D01*
X109048718Y-84086673D01*
X109091292Y-84064035D01*
X109134813Y-84042343D01*
X109179281Y-84021598D01*
X109224695Y-84001799D01*
X109271055Y-83982946D01*
X109318362Y-83965040D01*
X109366615Y-83948080D01*
X109415933Y-83932109D01*
X109466678Y-83917168D01*
X109518851Y-83903258D01*
X109572451Y-83890378D01*
X109627478Y-83878528D01*
X109683932Y-83867709D01*
X109741814Y-83857920D01*
X109801123Y-83849162D01*
X109861859Y-83841434D01*
X109924023Y-83834737D01*
X109987614Y-83829069D01*
X110052632Y-83824433D01*
X110119078Y-83820826D01*
X110186950Y-83818250D01*
X110256250Y-83816705D01*
X110326978Y-83816189D01*
X110389088Y-83816674D01*
G37*
G36*
X112320000Y-83149895D02*
G01*
X108255799Y-83149895D01*
X108255799Y-80163293D01*
X108943586Y-80163293D01*
X108943586Y-82336078D01*
X109818953Y-82336078D01*
X109818953Y-80313747D01*
X110506741Y-80313747D01*
X110506741Y-82336078D01*
X111632212Y-82336078D01*
X111632212Y-80086113D01*
X112320000Y-80086113D01*
X112320000Y-83149895D01*
G37*
G36*
X112320000Y-79395394D02*
G01*
X108255799Y-79395394D01*
X108255799Y-78582554D01*
X111632212Y-78582554D01*
X111632212Y-76560223D01*
X112320000Y-76560223D01*
X112320000Y-79395394D01*
G37*
G36*
X112320000Y-73250244D02*
G01*
X111382107Y-73601953D01*
X111382107Y-75212979D01*
X112320000Y-75545150D01*
X112320000Y-76407815D01*
X108255799Y-74838799D01*
X108255799Y-74418702D01*
X109256217Y-74418702D01*
X110694319Y-74962875D01*
X110694319Y-73863782D01*
X109256217Y-74418702D01*
X108255799Y-74418702D01*
X108255799Y-73979064D01*
X112320000Y-72366085D01*
X112320000Y-73250244D01*
G37*
G36*
X112320000Y-70609490D02*
G01*
X108255799Y-70609490D01*
X108255799Y-67622889D01*
X108943586Y-67622889D01*
X108943586Y-69795673D01*
X109818953Y-69795673D01*
X109818953Y-67773342D01*
X110506741Y-67773342D01*
X110506741Y-69795673D01*
X111632212Y-69795673D01*
X111632212Y-67545708D01*
X112320000Y-67545708D01*
X112320000Y-70609490D01*
G37*
G36*
X109537371Y-63791733D02*
G01*
X109582159Y-63793313D01*
X109626031Y-63795947D01*
X109668988Y-63799633D01*
X109711028Y-63804373D01*
X109752152Y-63810166D01*
X109792361Y-63817013D01*
X109831653Y-63824912D01*
X109870030Y-63833865D01*
X109925878Y-63849270D01*
X109979665Y-63867044D01*
X110031391Y-63887188D01*
X110081056Y-63909703D01*
X110113021Y-63926029D01*
X110159329Y-63951943D01*
X110203731Y-63979129D01*
X110246226Y-64007585D01*
X110286815Y-64037312D01*
X110325498Y-64068310D01*
X110362275Y-64100578D01*
X110397145Y-64134118D01*
X110430109Y-64168928D01*
X110461167Y-64205009D01*
X110490319Y-64242361D01*
X110508695Y-64267969D01*
X110534772Y-64306872D01*
X110559150Y-64345913D01*
X110581827Y-64385091D01*
X110602804Y-64424406D01*
X110622081Y-64463859D01*
X110639658Y-64503449D01*
X110655535Y-64543177D01*
X110669712Y-64583042D01*
X110682188Y-64623044D01*
X110692964Y-64663184D01*
X110699204Y-64690020D01*
X110709505Y-64746901D01*
X110715810Y-64787369D01*
X110721664Y-64829875D01*
X110727068Y-64874419D01*
X110732021Y-64921001D01*
X110736524Y-64969620D01*
X110740577Y-65020278D01*
X110744180Y-65072973D01*
X110747332Y-65127706D01*
X110750034Y-65184478D01*
X110752286Y-65243287D01*
X110754087Y-65304134D01*
X110755438Y-65367019D01*
X110756339Y-65431941D01*
X110756789Y-65498902D01*
X110756845Y-65533147D01*
X110756845Y-66063642D01*
X112320000Y-66063642D01*
X112320000Y-66877459D01*
X108255799Y-66877459D01*
X108255799Y-66063642D01*
X108943586Y-66063642D01*
X110069057Y-66063642D01*
X110069057Y-65618143D01*
X110068817Y-65559304D01*
X110068096Y-65502952D01*
X110066894Y-65449089D01*
X110065211Y-65397714D01*
X110063047Y-65348827D01*
X110060402Y-65302429D01*
X110057277Y-65258519D01*
X110053670Y-65217096D01*
X110049583Y-65178163D01*
X110042550Y-65124427D01*
X110034436Y-65076290D01*
X110025240Y-65033752D01*
X110011295Y-64985743D01*
X110007508Y-64975296D01*
X109990778Y-64935851D01*
X109971849Y-64898604D01*
X109950722Y-64863555D01*
X109927397Y-64830704D01*
X109901873Y-64800052D01*
X109874152Y-64771598D01*
X109844232Y-64745341D01*
X109812114Y-64721284D01*
X109778225Y-64699760D01*
X109742993Y-64681106D01*
X109706418Y-64665321D01*
X109668499Y-64652407D01*
X109629237Y-64642363D01*
X109588632Y-64635188D01*
X109546683Y-64630883D01*
X109503391Y-64629448D01*
X109463569Y-64630582D01*
X109412530Y-64635619D01*
X109363841Y-64644687D01*
X109317504Y-64657784D01*
X109273517Y-64674912D01*
X109231882Y-64696069D01*
X109192597Y-64721257D01*
X109155663Y-64750474D01*
X109146796Y-64758408D01*
X109113274Y-64791732D01*
X109083049Y-64827224D01*
X109056121Y-64864883D01*
X109032491Y-64904710D01*
X109012158Y-64946704D01*
X108995122Y-64990867D01*
X108981383Y-65037196D01*
X108970942Y-65085694D01*
X108964530Y-65126681D01*
X108958974Y-65176857D01*
X108955367Y-65220521D01*
X108952242Y-65269353D01*
X108949597Y-65323355D01*
X108947433Y-65382525D01*
X108946258Y-65424844D01*
X108945296Y-65469460D01*
X108944548Y-65516374D01*
X108944014Y-65565585D01*
X108943693Y-65617094D01*
X108943586Y-65670900D01*
X108943586Y-66063642D01*
X108255799Y-66063642D01*
X108255799Y-65572226D01*
X108255858Y-65526325D01*
X108256035Y-65481436D01*
X108256331Y-65437558D01*
X108256745Y-65394692D01*
X108257277Y-65352836D01*
X108257928Y-65311992D01*
X108258697Y-65272160D01*
X108260590Y-65195529D01*
X108262956Y-65122943D01*
X108265795Y-65054402D01*
X108269108Y-64989907D01*
X108272894Y-64929457D01*
X108277153Y-64873052D01*
X108281885Y-64820692D01*
X108287090Y-64772378D01*
X108292769Y-64728109D01*
X108298921Y-64687885D01*
X108309036Y-64635134D01*
X108316371Y-64605024D01*
X108328438Y-64562114D01*
X108342169Y-64520088D01*
X108357564Y-64478949D01*
X108374623Y-64438695D01*
X108393345Y-64399326D01*
X108413732Y-64360842D01*
X108435783Y-64323244D01*
X108459497Y-64286531D01*
X108484875Y-64250704D01*
X108511918Y-64215762D01*
X108540624Y-64181705D01*
X108570994Y-64148534D01*
X108603028Y-64116248D01*
X108636726Y-64084848D01*
X108672088Y-64054333D01*
X108709113Y-64024703D01*
X108747662Y-63996428D01*
X108787592Y-63969977D01*
X108828903Y-63945351D01*
X108871596Y-63922548D01*
X108915670Y-63901570D01*
X108961126Y-63882416D01*
X109007963Y-63865086D01*
X109056182Y-63849581D01*
X109105783Y-63835899D01*
X109156765Y-63824042D01*
X109209128Y-63814009D01*
X109262873Y-63805800D01*
X109317999Y-63799416D01*
X109374507Y-63794855D01*
X109432396Y-63792119D01*
X109491667Y-63791207D01*
X109537371Y-63791733D01*
G37*
G36*
X112320000Y-60493928D02*
G01*
X111426071Y-61082065D01*
X111369525Y-61120491D01*
X111315658Y-61157368D01*
X111264470Y-61192696D01*
X111215961Y-61226474D01*
X111170131Y-61258702D01*
X111126980Y-61289381D01*
X111086508Y-61318511D01*
X111048715Y-61346092D01*
X111013602Y-61372123D01*
X110981167Y-61396604D01*
X110937538Y-61430421D01*
X110899937Y-61460752D01*
X110868364Y-61487597D01*
X110842819Y-61510956D01*
X110813723Y-61539990D01*
X110787009Y-61569452D01*
X110756965Y-61606880D01*
X110730643Y-61644976D01*
X110708041Y-61683740D01*
X110689159Y-61723172D01*
X110676734Y-61755198D01*
X110663787Y-61799195D01*
X110655009Y-61839717D01*
X110647636Y-61884971D01*
X110641668Y-61934956D01*
X110638113Y-61975551D01*
X110635348Y-62018808D01*
X110633373Y-62064727D01*
X110632188Y-62113307D01*
X110631793Y-62164549D01*
X110631793Y-62329658D01*
X112320000Y-62329658D01*
X112320000Y-63142498D01*
X108255799Y-63142498D01*
X108255799Y-62329658D01*
X108943586Y-62329658D01*
X109944005Y-62329658D01*
X109944005Y-61727843D01*
X109943818Y-61656410D01*
X109943257Y-61588411D01*
X109942322Y-61523847D01*
X109941013Y-61462718D01*
X109939330Y-61405023D01*
X109937273Y-61350763D01*
X109934842Y-61299937D01*
X109932037Y-61252547D01*
X109928858Y-61208591D01*
X109925305Y-61168069D01*
X109919275Y-61113727D01*
X109912402Y-61067113D01*
X109904689Y-61028227D01*
X109896133Y-60997069D01*
X109879175Y-60953129D01*
X109858829Y-60912290D01*
X109835097Y-60874551D01*
X109807977Y-60839914D01*
X109777471Y-60808377D01*
X109743577Y-60779941D01*
X109729071Y-60769434D01*
X109690675Y-60745511D01*
X109649368Y-60725642D01*
X109605152Y-60709829D01*
X109558025Y-60698070D01*
X109518229Y-60691582D01*
X109476570Y-60687689D01*
X109433049Y-60686392D01*
X109384429Y-60688086D01*
X109338222Y-60693169D01*
X109294426Y-60701642D01*
X109253042Y-60713503D01*
X109214070Y-60728753D01*
X109177510Y-60747391D01*
X109143362Y-60769419D01*
X109111625Y-60794836D01*
X109082500Y-60823351D01*
X109056182Y-60854675D01*
X109032674Y-60888808D01*
X109011974Y-60925750D01*
X108994084Y-60965500D01*
X108979002Y-61008060D01*
X108966728Y-61053428D01*
X108957264Y-61101605D01*
X108953324Y-61142100D01*
X108950652Y-61188407D01*
X108948929Y-61231252D01*
X108947447Y-61281051D01*
X108946204Y-61337806D01*
X108945510Y-61379507D01*
X108944922Y-61424299D01*
X108944441Y-61472182D01*
X108944067Y-61523156D01*
X108943800Y-61577222D01*
X108943640Y-61634378D01*
X108943586Y-61694626D01*
X108943586Y-62329658D01*
X108255799Y-62329658D01*
X108255799Y-61430844D01*
X108255905Y-61390828D01*
X108256226Y-61351503D01*
X108257508Y-61274925D01*
X108259645Y-61201111D01*
X108262637Y-61130059D01*
X108266484Y-61061770D01*
X108271186Y-60996244D01*
X108276742Y-60933481D01*
X108283154Y-60873482D01*
X108290420Y-60816245D01*
X108298541Y-60761771D01*
X108307517Y-60710060D01*
X108317348Y-60661113D01*
X108328033Y-60614928D01*
X108339574Y-60571506D01*
X108351969Y-60530847D01*
X108365219Y-60492951D01*
X108387238Y-60439027D01*
X108412263Y-60387164D01*
X108440293Y-60337361D01*
X108471328Y-60289619D01*
X108505368Y-60243938D01*
X108542414Y-60200318D01*
X108582465Y-60158758D01*
X108625521Y-60119260D01*
X108655895Y-60094072D01*
X108687605Y-60069801D01*
X108720650Y-60046445D01*
X108755031Y-60024005D01*
X108790397Y-60002710D01*
X108826396Y-59982789D01*
X108863028Y-59964242D01*
X108900294Y-59947069D01*
X108938194Y-59931269D01*
X108976727Y-59916844D01*
X109015894Y-59903792D01*
X109055694Y-59892114D01*
X109096127Y-59881810D01*
X109137195Y-59872880D01*
X109178895Y-59865324D01*
X109221229Y-59859141D01*
X109264197Y-59854333D01*
X109307798Y-59850898D01*
X109352033Y-59848837D01*
X109396901Y-59848150D01*
X109453550Y-59849192D01*
X109508948Y-59852318D01*
X109563093Y-59857527D01*
X109615987Y-59864820D01*
X109667629Y-59874196D01*
X109718019Y-59885657D01*
X109767158Y-59899201D01*
X109815045Y-59914829D01*
X109861680Y-59932540D01*
X109907063Y-59952335D01*
X109951195Y-59974214D01*
X109994075Y-59998176D01*
X110035703Y-60024223D01*
X110076079Y-60052353D01*
X110115204Y-60082566D01*
X110153077Y-60114863D01*
X110189465Y-60149115D01*
X110224136Y-60185434D01*
X110257090Y-60223822D01*
X110288326Y-60264279D01*
X110317845Y-60306804D01*
X110345647Y-60351397D01*
X110371732Y-60398059D01*
X110396099Y-60446789D01*
X110418748Y-60497588D01*
X110439681Y-60550455D01*
X110458896Y-60605391D01*
X110476393Y-60662395D01*
X110492174Y-60721467D01*
X110506237Y-60782608D01*
X110518583Y-60845817D01*
X110529211Y-60911095D01*
X110558603Y-60862452D01*
X110588528Y-60815440D01*
X110618985Y-60770059D01*
X110649974Y-60726310D01*
X110681495Y-60684193D01*
X110713549Y-60643706D01*
X110746136Y-60604852D01*
X110779255Y-60567629D01*
X110812906Y-60532037D01*
X110847089Y-60498077D01*
X110870174Y-60476343D01*
X110907337Y-60443055D01*
X110949583Y-60407672D01*
X110980572Y-60382920D01*
X111013819Y-60357236D01*
X111049326Y-60330621D01*
X111087092Y-60303075D01*
X111127117Y-60274598D01*
X111169402Y-60245190D01*
X111213946Y-60214850D01*
X111260749Y-60183580D01*
X111309811Y-60151378D01*
X111361133Y-60118245D01*
X111414713Y-60084180D01*
X111470553Y-60049185D01*
X111528653Y-60013258D01*
X112320000Y-59520865D01*
X112320000Y-60493928D01*
G37*
G36*
X110354649Y-55362416D02*
G01*
X110414703Y-55363970D01*
X110473923Y-55366560D01*
X110532310Y-55370187D01*
X110589862Y-55374849D01*
X110646581Y-55380548D01*
X110702466Y-55387283D01*
X110757517Y-55395054D01*
X110811734Y-55403861D01*
X110865117Y-55413704D01*
X110917667Y-55424583D01*
X110969382Y-55436499D01*
X111020264Y-55449450D01*
X111070312Y-55463438D01*
X111119526Y-55478462D01*
X111167906Y-55494521D01*
X111215452Y-55511618D01*
X111262165Y-55529750D01*
X111308043Y-55548918D01*
X111353088Y-55569122D01*
X111397299Y-55590363D01*
X111440676Y-55612640D01*
X111483219Y-55635952D01*
X111524928Y-55660301D01*
X111565803Y-55685686D01*
X111605845Y-55712108D01*
X111645053Y-55739565D01*
X111683426Y-55768058D01*
X111720966Y-55797588D01*
X111757672Y-55828153D01*
X111793545Y-55859755D01*
X111828583Y-55892393D01*
X111862663Y-55925897D01*
X111895662Y-55960098D01*
X111927579Y-55994995D01*
X111958413Y-56030589D01*
X111988166Y-56066879D01*
X112016837Y-56103865D01*
X112044426Y-56141548D01*
X112070933Y-56179928D01*
X112096358Y-56219004D01*
X112120701Y-56258776D01*
X112143962Y-56299245D01*
X112166142Y-56340411D01*
X112187239Y-56382273D01*
X112207255Y-56424831D01*
X112226188Y-56468086D01*
X112244040Y-56512037D01*
X112260810Y-56556685D01*
X112276498Y-56602029D01*
X112291103Y-56648070D01*
X112304627Y-56694807D01*
X112317070Y-56742241D01*
X112328430Y-56790371D01*
X112338708Y-56839198D01*
X112347904Y-56888721D01*
X112356019Y-56938940D01*
X112363051Y-56989856D01*
X112369002Y-57041469D01*
X112373870Y-57093778D01*
X112377657Y-57146783D01*
X112380362Y-57200485D01*
X112381985Y-57254884D01*
X112382526Y-57309979D01*
X112381988Y-57365795D01*
X112380373Y-57420892D01*
X112377683Y-57475269D01*
X112373916Y-57528927D01*
X112369073Y-57581866D01*
X112363154Y-57634085D01*
X112356159Y-57685585D01*
X112348087Y-57736366D01*
X112338940Y-57786427D01*
X112328716Y-57835769D01*
X112317416Y-57884391D01*
X112305040Y-57932294D01*
X112291587Y-57979478D01*
X112277059Y-58025942D01*
X112261454Y-58071687D01*
X112244773Y-58116713D01*
X112227015Y-58161019D01*
X112208182Y-58204606D01*
X112188272Y-58247473D01*
X112167287Y-58289621D01*
X112145225Y-58331050D01*
X112122086Y-58371759D01*
X112097872Y-58411749D01*
X112072581Y-58451020D01*
X112046215Y-58489571D01*
X112018772Y-58527403D01*
X111990253Y-58564516D01*
X111960657Y-58600909D01*
X111929986Y-58636583D01*
X111898238Y-58671537D01*
X111865414Y-58705772D01*
X111831514Y-58739288D01*
X111796609Y-58771926D01*
X111760893Y-58803527D01*
X111724367Y-58834093D01*
X111687029Y-58863623D01*
X111648880Y-58892116D01*
X111609921Y-58919573D01*
X111570150Y-58945994D01*
X111529569Y-58971379D01*
X111488176Y-58995728D01*
X111445973Y-59019041D01*
X111402958Y-59041318D01*
X111359133Y-59062558D01*
X111314497Y-59082763D01*
X111269049Y-59101931D01*
X111222791Y-59120063D01*
X111175722Y-59137159D01*
X111127842Y-59153219D01*
X111079150Y-59168243D01*
X111029648Y-59182231D01*
X110979335Y-59195182D01*
X110928211Y-59207098D01*
X110876276Y-59217977D01*
X110823530Y-59227820D01*
X110769973Y-59236627D01*
X110715605Y-59244398D01*
X110660427Y-59251133D01*
X110604437Y-59256832D01*
X110547636Y-59261494D01*
X110490024Y-59265121D01*
X110431602Y-59267711D01*
X110372368Y-59269265D01*
X110312323Y-59269783D01*
X110235795Y-59269066D01*
X110160816Y-59266913D01*
X110087387Y-59263326D01*
X110015507Y-59258304D01*
X109945177Y-59251847D01*
X109876396Y-59243954D01*
X109809164Y-59234627D01*
X109743482Y-59223866D01*
X109679349Y-59211669D01*
X109616765Y-59198037D01*
X109555731Y-59182970D01*
X109496247Y-59166468D01*
X109438312Y-59148532D01*
X109381926Y-59129160D01*
X109327090Y-59108354D01*
X109273803Y-59086113D01*
X109235342Y-59068504D01*
X109197385Y-59050117D01*
X109159932Y-59030952D01*
X109122983Y-59011008D01*
X109086537Y-58990285D01*
X109050595Y-58968784D01*
X109015157Y-58946505D01*
X108980223Y-58923447D01*
X108945792Y-58899610D01*
X108911865Y-58874995D01*
X108878442Y-58849602D01*
X108845523Y-58823429D01*
X108813107Y-58796479D01*
X108781195Y-58768750D01*
X108749787Y-58740242D01*
X108718883Y-58710956D01*
X108688604Y-58680986D01*
X108659318Y-58650673D01*
X108631024Y-58620017D01*
X108603722Y-58589017D01*
X108577413Y-58557674D01*
X108552096Y-58525987D01*
X108527771Y-58493957D01*
X108504438Y-58461584D01*
X108482097Y-58428866D01*
X108460749Y-58395806D01*
X108440393Y-58362402D01*
X108411719Y-58311652D01*
X108385278Y-58260129D01*
X108361069Y-58207833D01*
X108353496Y-58190230D01*
X108334094Y-58142644D01*
X108315943Y-58094166D01*
X108299045Y-58044795D01*
X108283398Y-57994530D01*
X108269003Y-57943373D01*
X108255860Y-57891322D01*
X108243968Y-57838379D01*
X108233328Y-57784542D01*
X108223940Y-57729813D01*
X108215804Y-57674190D01*
X108208919Y-57617675D01*
X108203286Y-57560266D01*
X108198905Y-57501965D01*
X108195776Y-57442770D01*
X108193898Y-57382683D01*
X108193272Y-57321702D01*
X108193358Y-57312909D01*
X108881060Y-57312909D01*
X108882426Y-57375039D01*
X108886525Y-57435642D01*
X108893356Y-57494718D01*
X108902920Y-57552267D01*
X108915216Y-57608291D01*
X108930245Y-57662787D01*
X108948006Y-57715758D01*
X108968499Y-57767201D01*
X108991725Y-57817118D01*
X109017684Y-57865509D01*
X109046374Y-57912373D01*
X109077798Y-57957711D01*
X109111954Y-58001522D01*
X109148842Y-58043806D01*
X109188463Y-58084564D01*
X109230816Y-58123796D01*
X109275921Y-58161062D01*
X109323796Y-58195924D01*
X109374442Y-58228381D01*
X109427859Y-58258435D01*
X109484046Y-58286084D01*
X109543004Y-58311328D01*
X109604733Y-58334169D01*
X109669232Y-58354605D01*
X109736502Y-58372637D01*
X109806542Y-58388265D01*
X109879353Y-58401488D01*
X109954935Y-58412308D01*
X109993765Y-58416816D01*
X110033287Y-58420723D01*
X110073502Y-58424028D01*
X110114410Y-58426733D01*
X110156011Y-58428837D01*
X110198304Y-58430340D01*
X110241290Y-58431241D01*
X110284968Y-58431542D01*
X110327994Y-58431234D01*
X110370365Y-58430309D01*
X110412082Y-58428768D01*
X110453145Y-58426611D01*
X110493552Y-58423838D01*
X110533306Y-58420448D01*
X110572405Y-58416442D01*
X110648639Y-58406580D01*
X110722255Y-58394254D01*
X110793254Y-58379462D01*
X110861634Y-58362204D01*
X110927396Y-58342482D01*
X110990541Y-58320294D01*
X111051067Y-58295641D01*
X111108976Y-58268522D01*
X111164266Y-58238938D01*
X111216939Y-58206889D01*
X111266993Y-58172374D01*
X111314430Y-58135394D01*
X111337166Y-58115980D01*
X111380466Y-58075749D01*
X111420972Y-58034189D01*
X111458685Y-57991302D01*
X111493604Y-57947086D01*
X111525729Y-57901542D01*
X111555061Y-57854671D01*
X111581600Y-57806471D01*
X111605345Y-57756943D01*
X111626296Y-57706087D01*
X111644454Y-57653903D01*
X111659819Y-57600391D01*
X111672390Y-57545551D01*
X111682167Y-57489383D01*
X111689151Y-57431886D01*
X111693341Y-57373062D01*
X111694738Y-57312909D01*
X111693352Y-57252776D01*
X111689197Y-57194009D01*
X111682270Y-57136608D01*
X111672573Y-57080573D01*
X111660105Y-57025905D01*
X111644866Y-56972603D01*
X111626857Y-56920667D01*
X111606078Y-56870097D01*
X111582527Y-56820894D01*
X111556206Y-56773056D01*
X111527115Y-56726585D01*
X111495252Y-56681481D01*
X111460620Y-56637742D01*
X111423216Y-56595370D01*
X111383042Y-56554364D01*
X111340097Y-56514724D01*
X111294260Y-56476985D01*
X111245652Y-56441680D01*
X111194273Y-56408810D01*
X111140123Y-56378375D01*
X111083203Y-56350375D01*
X111023513Y-56324810D01*
X110961051Y-56301679D01*
X110895819Y-56280983D01*
X110827817Y-56262722D01*
X110757044Y-56246896D01*
X110683500Y-56233505D01*
X110607185Y-56222548D01*
X110567989Y-56217983D01*
X110528100Y-56214027D01*
X110487519Y-56210679D01*
X110446245Y-56207940D01*
X110404278Y-56205809D01*
X110361618Y-56204287D01*
X110318266Y-56203374D01*
X110274221Y-56203070D01*
X110230668Y-56203367D01*
X110187813Y-56204257D01*
X110145656Y-56205740D01*
X110104198Y-56207817D01*
X110063438Y-56210488D01*
X110023376Y-56213752D01*
X109984013Y-56217609D01*
X109907382Y-56227104D01*
X109833544Y-56238973D01*
X109762500Y-56253215D01*
X109694250Y-56269831D01*
X109628793Y-56288821D01*
X109566129Y-56310185D01*
X109506259Y-56333922D01*
X109449182Y-56360033D01*
X109394899Y-56388518D01*
X109343410Y-56419377D01*
X109294714Y-56452609D01*
X109248812Y-56488215D01*
X109226908Y-56506908D01*
X109185028Y-56545663D01*
X109145850Y-56585966D01*
X109109374Y-56627820D01*
X109075600Y-56671222D01*
X109044527Y-56716175D01*
X109016157Y-56762676D01*
X108990489Y-56810727D01*
X108967522Y-56860327D01*
X108947258Y-56911477D01*
X108929695Y-56964176D01*
X108914834Y-57018425D01*
X108902676Y-57074223D01*
X108893219Y-57131571D01*
X108886464Y-57190467D01*
X108882411Y-57250914D01*
X108881060Y-57312909D01*
X108193358Y-57312909D01*
X108193815Y-57266363D01*
X108195444Y-57211720D01*
X108198158Y-57157774D01*
X108201958Y-57104525D01*
X108206844Y-57051971D01*
X108212816Y-57000115D01*
X108219873Y-56948954D01*
X108228016Y-56898490D01*
X108237245Y-56848723D01*
X108247559Y-56799652D01*
X108258959Y-56751278D01*
X108271445Y-56703600D01*
X108285017Y-56656618D01*
X108299674Y-56610333D01*
X108315418Y-56564745D01*
X108332247Y-56519853D01*
X108350161Y-56475657D01*
X108369162Y-56432158D01*
X108389248Y-56389356D01*
X108410420Y-56347250D01*
X108432677Y-56305840D01*
X108456020Y-56265127D01*
X108480449Y-56225110D01*
X108505964Y-56185790D01*
X108532565Y-56147166D01*
X108560251Y-56109239D01*
X108589023Y-56072008D01*
X108618881Y-56035474D01*
X108649824Y-55999636D01*
X108681853Y-55964494D01*
X108714968Y-55930049D01*
X108749169Y-55896301D01*
X108784276Y-55863423D01*
X108820232Y-55831588D01*
X108857038Y-55800797D01*
X108894692Y-55771050D01*
X108933196Y-55742347D01*
X108972548Y-55714687D01*
X109012750Y-55688072D01*
X109053801Y-55662500D01*
X109095701Y-55637971D01*
X109138450Y-55614487D01*
X109182048Y-55592046D01*
X109226496Y-55570649D01*
X109271792Y-55550296D01*
X109317938Y-55530986D01*
X109364933Y-55512720D01*
X109412777Y-55495498D01*
X109461470Y-55479320D01*
X109511012Y-55464186D01*
X109561403Y-55450095D01*
X109612644Y-55437048D01*
X109664733Y-55425045D01*
X109717672Y-55414085D01*
X109771460Y-55404170D01*
X109826097Y-55395298D01*
X109881583Y-55387470D01*
X109937918Y-55380685D01*
X109995102Y-55374945D01*
X110053136Y-55370248D01*
X110112018Y-55366595D01*
X110171750Y-55363985D01*
X110232331Y-55362419D01*
X110293761Y-55361898D01*
X110354649Y-55362416D01*
G37*
G36*
X112320000Y-54762037D02*
G01*
X108255799Y-54762037D01*
X108255799Y-53544731D01*
X111028443Y-52813956D01*
X108255799Y-52090997D01*
X108255799Y-50871737D01*
X112320000Y-50871737D01*
X112320000Y-51626936D01*
X109120418Y-51626936D01*
X112320000Y-52427076D01*
X112320000Y-53209630D01*
X109120418Y-54006838D01*
X112320000Y-54006838D01*
X112320000Y-54762037D01*
G37*
G36*
X112320000Y-50099930D02*
G01*
X108255799Y-50099930D01*
X108255799Y-48882623D01*
X111028443Y-48151849D01*
X108255799Y-47428890D01*
X108255799Y-46209630D01*
X112320000Y-46209630D01*
X112320000Y-46964829D01*
X109120418Y-46964829D01*
X112320000Y-47764968D01*
X112320000Y-48547522D01*
X109120418Y-49344731D01*
X112320000Y-49344731D01*
X112320000Y-50099930D01*
G37*
G36*
X112320000Y-45427076D02*
G01*
X108255799Y-45427076D01*
X108255799Y-42440474D01*
X108943586Y-42440474D01*
X108943586Y-44613258D01*
X109818953Y-44613258D01*
X109818953Y-42590928D01*
X110506741Y-42590928D01*
X110506741Y-44613258D01*
X111632212Y-44613258D01*
X111632212Y-42363293D01*
X112320000Y-42363293D01*
X112320000Y-45427076D01*
G37*
G36*
X112320000Y-39043545D02*
G01*
X111426071Y-39631681D01*
X111369525Y-39670108D01*
X111315658Y-39706984D01*
X111264470Y-39742312D01*
X111215961Y-39776090D01*
X111170131Y-39808318D01*
X111126980Y-39838998D01*
X111086508Y-39868127D01*
X111048715Y-39895708D01*
X111013602Y-39921739D01*
X110981167Y-39946220D01*
X110937538Y-39980037D01*
X110899937Y-40010368D01*
X110868364Y-40037213D01*
X110842819Y-40060572D01*
X110813723Y-40089606D01*
X110787009Y-40119068D01*
X110756965Y-40156496D01*
X110730643Y-40194592D01*
X110708041Y-40233356D01*
X110689159Y-40272788D01*
X110676734Y-40304815D01*
X110663787Y-40348812D01*
X110655009Y-40389333D01*
X110647636Y-40434587D01*
X110641668Y-40484573D01*
X110638113Y-40525167D01*
X110635348Y-40568424D01*
X110633373Y-40614343D01*
X110632188Y-40662923D01*
X110631793Y-40714166D01*
X110631793Y-40879274D01*
X112320000Y-40879274D01*
X112320000Y-41692114D01*
X108255799Y-41692114D01*
X108255799Y-40879274D01*
X108943586Y-40879274D01*
X109944005Y-40879274D01*
X109944005Y-40277459D01*
X109943818Y-40206026D01*
X109943257Y-40138027D01*
X109942322Y-40073463D01*
X109941013Y-40012334D01*
X109939330Y-39954639D01*
X109937273Y-39900379D01*
X109934842Y-39849554D01*
X109932037Y-39802163D01*
X109928858Y-39758207D01*
X109925305Y-39717685D01*
X109919275Y-39663343D01*
X109912402Y-39616729D01*
X109904689Y-39577843D01*
X109896133Y-39546685D01*
X109879175Y-39502745D01*
X109858829Y-39461906D01*
X109835097Y-39424167D01*
X109807977Y-39389530D01*
X109777471Y-39357993D01*
X109743577Y-39329557D01*
X109729071Y-39319050D01*
X109690675Y-39295127D01*
X109649368Y-39275258D01*
X109605152Y-39259445D01*
X109558025Y-39247686D01*
X109518229Y-39241198D01*
X109476570Y-39237305D01*
X109433049Y-39236008D01*
X109384429Y-39237702D01*
X109338222Y-39242786D01*
X109294426Y-39251258D01*
X109253042Y-39263119D01*
X109214070Y-39278369D01*
X109177510Y-39297008D01*
X109143362Y-39319035D01*
X109111625Y-39344452D01*
X109082500Y-39372967D01*
X109056182Y-39404291D01*
X109032674Y-39438424D01*
X109011974Y-39475366D01*
X108994084Y-39515116D01*
X108979002Y-39557676D01*
X108966728Y-39603044D01*
X108957264Y-39651221D01*
X108953324Y-39691716D01*
X108950652Y-39738023D01*
X108948929Y-39780868D01*
X108947447Y-39830668D01*
X108946204Y-39887423D01*
X108945510Y-39929123D01*
X108944922Y-39973915D01*
X108944441Y-40021798D01*
X108944067Y-40072772D01*
X108943800Y-40126838D01*
X108943640Y-40183995D01*
X108943586Y-40244242D01*
X108943586Y-40879274D01*
X108255799Y-40879274D01*
X108255799Y-39980460D01*
X108255905Y-39940444D01*
X108256226Y-39901119D01*
X108257508Y-39824542D01*
X108259645Y-39750727D01*
X108262637Y-39679675D01*
X108266484Y-39611386D01*
X108271186Y-39545860D01*
X108276742Y-39483098D01*
X108283154Y-39423098D01*
X108290420Y-39365861D01*
X108298541Y-39311387D01*
X108307517Y-39259677D01*
X108317348Y-39210729D01*
X108328033Y-39164544D01*
X108339574Y-39121122D01*
X108351969Y-39080463D01*
X108365219Y-39042568D01*
X108387238Y-38988643D01*
X108412263Y-38936780D01*
X108440293Y-38886977D01*
X108471328Y-38839235D01*
X108505368Y-38793554D01*
X108542414Y-38749934D01*
X108582465Y-38708375D01*
X108625521Y-38668876D01*
X108655895Y-38643688D01*
X108687605Y-38619417D01*
X108720650Y-38596061D01*
X108755031Y-38573621D01*
X108790397Y-38552326D01*
X108826396Y-38532405D01*
X108863028Y-38513858D01*
X108900294Y-38496685D01*
X108938194Y-38480885D01*
X108976727Y-38466460D01*
X109015894Y-38453408D01*
X109055694Y-38441730D01*
X109096127Y-38431426D01*
X109137195Y-38422496D01*
X109178895Y-38414940D01*
X109221229Y-38408757D01*
X109264197Y-38403949D01*
X109307798Y-38400514D01*
X109352033Y-38398453D01*
X109396901Y-38397766D01*
X109453550Y-38398808D01*
X109508948Y-38401934D01*
X109563093Y-38407143D01*
X109615987Y-38414436D01*
X109667629Y-38423813D01*
X109718019Y-38435273D01*
X109767158Y-38448817D01*
X109815045Y-38464445D01*
X109861680Y-38482156D01*
X109907063Y-38501951D01*
X109951195Y-38523830D01*
X109994075Y-38547793D01*
X110035703Y-38573839D01*
X110076079Y-38601969D01*
X110115204Y-38632182D01*
X110153077Y-38664480D01*
X110189465Y-38698731D01*
X110224136Y-38735051D01*
X110257090Y-38773439D01*
X110288326Y-38813895D01*
X110317845Y-38856420D01*
X110345647Y-38901014D01*
X110371732Y-38947675D01*
X110396099Y-38996406D01*
X110418748Y-39047204D01*
X110439681Y-39100071D01*
X110458896Y-39155007D01*
X110476393Y-39212011D01*
X110492174Y-39271083D01*
X110506237Y-39332224D01*
X110518583Y-39395434D01*
X110529211Y-39460711D01*
X110558603Y-39412068D01*
X110588528Y-39365056D01*
X110618985Y-39319675D01*
X110649974Y-39275926D01*
X110681495Y-39233809D01*
X110713549Y-39193323D01*
X110746136Y-39154468D01*
X110779255Y-39117245D01*
X110812906Y-39081653D01*
X110847089Y-39047693D01*
X110870174Y-39025959D01*
X110907337Y-38992671D01*
X110949583Y-38957289D01*
X110980572Y-38932536D01*
X111013819Y-38906852D01*
X111049326Y-38880238D01*
X111087092Y-38852692D01*
X111127117Y-38824214D01*
X111169402Y-38794806D01*
X111213946Y-38764467D01*
X111260749Y-38733196D01*
X111309811Y-38700994D01*
X111361133Y-38667861D01*
X111414713Y-38633797D01*
X111470553Y-38598801D01*
X111528653Y-38562875D01*
X112320000Y-38070481D01*
X112320000Y-39043545D01*
G37*
D10*
D11*
G36*
X4779902Y-70856845D02*
G01*
X5962526Y-71106950D01*
X5945138Y-71148258D01*
X5927046Y-71188897D01*
X5908249Y-71228866D01*
X5888749Y-71268165D01*
X5868545Y-71306795D01*
X5847636Y-71344755D01*
X5826023Y-71382045D01*
X5803707Y-71418665D01*
X5780686Y-71454615D01*
X5732532Y-71524507D01*
X5681561Y-71591720D01*
X5627775Y-71656253D01*
X5571171Y-71718108D01*
X5511752Y-71777283D01*
X5449516Y-71833779D01*
X5384463Y-71887597D01*
X5316594Y-71938735D01*
X5245909Y-71987194D01*
X5172407Y-72032975D01*
X5096088Y-72076076D01*
X5056873Y-72096622D01*
X4976588Y-72135781D01*
X4893635Y-72172414D01*
X4808015Y-72206520D01*
X4719726Y-72238100D01*
X4628771Y-72267153D01*
X4535148Y-72293680D01*
X4438857Y-72317681D01*
X4339898Y-72339155D01*
X4238272Y-72358103D01*
X4133979Y-72374525D01*
X4027018Y-72388420D01*
X3917389Y-72399788D01*
X3805092Y-72408631D01*
X3690128Y-72414947D01*
X3572497Y-72418736D01*
X3512681Y-72419684D01*
X3452198Y-72420000D01*
X3377419Y-72419469D01*
X3303477Y-72417878D01*
X3230370Y-72415225D01*
X3158099Y-72411512D01*
X3086663Y-72406738D01*
X3016064Y-72400903D01*
X2946300Y-72394007D01*
X2877372Y-72386050D01*
X2809280Y-72377032D01*
X2742023Y-72366953D01*
X2675603Y-72355813D01*
X2610018Y-72343613D01*
X2545269Y-72330351D01*
X2481355Y-72316028D01*
X2418278Y-72300645D01*
X2356036Y-72284200D01*
X2294630Y-72266695D01*
X2234059Y-72248129D01*
X2174325Y-72228502D01*
X2115426Y-72207814D01*
X2057363Y-72186064D01*
X2000136Y-72163254D01*
X1943744Y-72139384D01*
X1888189Y-72114452D01*
X1833469Y-72088459D01*
X1779585Y-72061405D01*
X1726536Y-72033291D01*
X1674323Y-72004115D01*
X1622947Y-71973878D01*
X1572406Y-71942581D01*
X1522700Y-71910223D01*
X1473831Y-71876803D01*
X1426226Y-71842464D01*
X1380133Y-71807347D01*
X1335551Y-71771451D01*
X1292480Y-71734776D01*
X1250921Y-71697323D01*
X1210873Y-71659091D01*
X1172336Y-71620081D01*
X1135310Y-71580293D01*
X1099796Y-71539725D01*
X1065792Y-71498380D01*
X1033300Y-71456255D01*
X1002320Y-71413353D01*
X972850Y-71369671D01*
X944892Y-71325211D01*
X918445Y-71279973D01*
X893510Y-71233956D01*
X870085Y-71187161D01*
X848172Y-71139587D01*
X827770Y-71091234D01*
X808879Y-71042103D01*
X791500Y-70992194D01*
X775632Y-70941506D01*
X761275Y-70890039D01*
X748429Y-70837794D01*
X737095Y-70784771D01*
X727272Y-70730969D01*
X718960Y-70676388D01*
X712159Y-70621029D01*
X706870Y-70564891D01*
X703092Y-70507975D01*
X700825Y-70450280D01*
X700069Y-70391807D01*
X700829Y-70329960D01*
X703109Y-70268983D01*
X706909Y-70208877D01*
X712228Y-70149640D01*
X719067Y-70091274D01*
X727426Y-70033777D01*
X737305Y-69977151D01*
X748704Y-69921395D01*
X761623Y-69866509D01*
X776061Y-69812493D01*
X792020Y-69759348D01*
X809498Y-69707072D01*
X828496Y-69655667D01*
X849014Y-69605131D01*
X871051Y-69555466D01*
X894609Y-69506671D01*
X919686Y-69458746D01*
X946283Y-69411691D01*
X974400Y-69365506D01*
X1004037Y-69320191D01*
X1035194Y-69275747D01*
X1067870Y-69232172D01*
X1102067Y-69189468D01*
X1137783Y-69147634D01*
X1175019Y-69106670D01*
X1213775Y-69066576D01*
X1254051Y-69027352D01*
X1295846Y-68988998D01*
X1339162Y-68951514D01*
X1383997Y-68914901D01*
X1430352Y-68879158D01*
X1478227Y-68844284D01*
X1527431Y-68810384D01*
X1577592Y-68777560D01*
X1628708Y-68745812D01*
X1680781Y-68715141D01*
X1733809Y-68685545D01*
X1787793Y-68657026D01*
X1842734Y-68629583D01*
X1898630Y-68603217D01*
X1955482Y-68577926D01*
X2013291Y-68553712D01*
X2072055Y-68530573D01*
X2131775Y-68508511D01*
X2192451Y-68487526D01*
X2254083Y-68467616D01*
X2316672Y-68448783D01*
X2380216Y-68431025D01*
X2444716Y-68414344D01*
X2510172Y-68398739D01*
X2576584Y-68384211D01*
X2643952Y-68370758D01*
X2712276Y-68358382D01*
X2781556Y-68347082D01*
X2851792Y-68336858D01*
X2922984Y-68327711D01*
X2995132Y-68319639D01*
X3068236Y-68312644D01*
X3142296Y-68306725D01*
X3217312Y-68301882D01*
X3293284Y-68298115D01*
X3370212Y-68295425D01*
X3448096Y-68293810D01*
X3526936Y-68293272D01*
X3595863Y-68293725D01*
X3663973Y-68295081D01*
X3731269Y-68297342D01*
X3797748Y-68300508D01*
X3863412Y-68304578D01*
X3928259Y-68309553D01*
X3992292Y-68315432D01*
X4055508Y-68322215D01*
X4117909Y-68329903D01*
X4179494Y-68338495D01*
X4240263Y-68347992D01*
X4300216Y-68358394D01*
X4359354Y-68369699D01*
X4417676Y-68381910D01*
X4475183Y-68395024D01*
X4531873Y-68409043D01*
X4587748Y-68423967D01*
X4642807Y-68439795D01*
X4697051Y-68456528D01*
X4750478Y-68474165D01*
X4803090Y-68492706D01*
X4854886Y-68512152D01*
X4905867Y-68532502D01*
X4956031Y-68553757D01*
X5005380Y-68575917D01*
X5053914Y-68598980D01*
X5101631Y-68622949D01*
X5148533Y-68647821D01*
X5194619Y-68673599D01*
X5239889Y-68700280D01*
X5284344Y-68727866D01*
X5327983Y-68756357D01*
X5378656Y-68791604D01*
X5427725Y-68828714D01*
X5475192Y-68867686D01*
X5521057Y-68908520D01*
X5565318Y-68951217D01*
X5607977Y-68995776D01*
X5649032Y-69042197D01*
X5688485Y-69090481D01*
X5726335Y-69140627D01*
X5762582Y-69192636D01*
X5797227Y-69246506D01*
X5830268Y-69302240D01*
X5861707Y-69359835D01*
X5891543Y-69419293D01*
X5919776Y-69480613D01*
X5946406Y-69543796D01*
X4738869Y-69668848D01*
X4724587Y-69629559D01*
X4708484Y-69591316D01*
X4680916Y-69535912D01*
X4649253Y-69482861D01*
X4613494Y-69432162D01*
X4573639Y-69383817D01*
X4529688Y-69337824D01*
X4481641Y-69294183D01*
X4429499Y-69252896D01*
X4373260Y-69213961D01*
X4312926Y-69177379D01*
X4291905Y-69165708D01*
X4226869Y-69132709D01*
X4159258Y-69102956D01*
X4089070Y-69076449D01*
X4016307Y-69053188D01*
X3940968Y-69033173D01*
X3863052Y-69016403D01*
X3782561Y-69002879D01*
X3699494Y-68992601D01*
X3613850Y-68985568D01*
X3555324Y-68982683D01*
X3495652Y-68981241D01*
X3465387Y-68981060D01*
X3382474Y-68982304D01*
X3301530Y-68986037D01*
X3222556Y-68992257D01*
X3145551Y-69000966D01*
X3070515Y-69012163D01*
X2997448Y-69025848D01*
X2926350Y-69042022D01*
X2857222Y-69060683D01*
X2790063Y-69081833D01*
X2724873Y-69105471D01*
X2661652Y-69131598D01*
X2600401Y-69160212D01*
X2541118Y-69191315D01*
X2483805Y-69224906D01*
X2428461Y-69260985D01*
X2375087Y-69299553D01*
X2324511Y-69340910D01*
X2277199Y-69385358D01*
X2233149Y-69432898D01*
X2192363Y-69483529D01*
X2154839Y-69537251D01*
X2120578Y-69594064D01*
X2089580Y-69653968D01*
X2061845Y-69716964D01*
X2037373Y-69783051D01*
X2016164Y-69852229D01*
X1998218Y-69924498D01*
X1983535Y-69999858D01*
X1972115Y-70078310D01*
X1967628Y-70118695D01*
X1963957Y-70159853D01*
X1961102Y-70201783D01*
X1959063Y-70244486D01*
X1957839Y-70287963D01*
X1957431Y-70332212D01*
X1957834Y-70379108D01*
X1959040Y-70425154D01*
X1961051Y-70470348D01*
X1963866Y-70514692D01*
X1967485Y-70558184D01*
X1971909Y-70600825D01*
X1977136Y-70642616D01*
X1983169Y-70683555D01*
X1990005Y-70723643D01*
X1997646Y-70762880D01*
X2015340Y-70838802D01*
X2036251Y-70911319D01*
X2060380Y-70980432D01*
X2087725Y-71046141D01*
X2118288Y-71108446D01*
X2152068Y-71167347D01*
X2189065Y-71222843D01*
X2229279Y-71274936D01*
X2272711Y-71323624D01*
X2319359Y-71368908D01*
X2369225Y-71410788D01*
X2421667Y-71449710D01*
X2476043Y-71486122D01*
X2532354Y-71520022D01*
X2590601Y-71551411D01*
X2650782Y-71580289D01*
X2712897Y-71606656D01*
X2776948Y-71630511D01*
X2842934Y-71651856D01*
X2910854Y-71670689D01*
X2980710Y-71687011D01*
X3052500Y-71700823D01*
X3126225Y-71712123D01*
X3201885Y-71720912D01*
X3279480Y-71727189D01*
X3359009Y-71730956D01*
X3440474Y-71732212D01*
X3500758Y-71731387D01*
X3559977Y-71728914D01*
X3646810Y-71722114D01*
X3731247Y-71711604D01*
X3813288Y-71697384D01*
X3892934Y-71679455D01*
X3970184Y-71657817D01*
X4045038Y-71632469D01*
X4117497Y-71603412D01*
X4187559Y-71570645D01*
X4255227Y-71534169D01*
X4277250Y-71521186D01*
X4320258Y-71493861D01*
X4361720Y-71464644D01*
X4401636Y-71433533D01*
X4440007Y-71400530D01*
X4476833Y-71365634D01*
X4512112Y-71328845D01*
X4545847Y-71290163D01*
X4578035Y-71249588D01*
X4608678Y-71207120D01*
X4637775Y-71162759D01*
X4665327Y-71116506D01*
X4691333Y-71068360D01*
X4715794Y-71018320D01*
X4738709Y-70966388D01*
X4760078Y-70912563D01*
X4779902Y-70856845D01*
G37*
D12*
%TO.P,D3,1,K*%
%TO.N,Net-(D3-K)*%
X69250000Y-67000000D03*
D13*
%TO.P,D3,2,A*%
%TO.N,Net-(D3-A)*%
X56550000Y-67000000D03*
%TD*%
D12*
%TO.P,D1,1,K*%
%TO.N,Net-(D1-K)*%
X30300000Y-4800000D03*
D13*
%TO.P,D1,2,A*%
%TO.N,Net-(D1-A)*%
X22680000Y-4800000D03*
%TD*%
D14*
%TO.P,Z2,1,K*%
%TO.N,Net-(T1-C)*%
X37100000Y-15160000D03*
D15*
%TO.P,Z2,2,A*%
%TO.N,GND*%
X37100000Y-5000000D03*
%TD*%
D14*
%TO.P,Z1,1,K*%
%TO.N,Net-(D1-K)*%
X33020000Y-5080000D03*
D15*
%TO.P,Z1,2,A*%
%TO.N,Net-(T1-C)*%
X33020000Y-15240000D03*
%TD*%
D12*
%TO.P,D6,1,K*%
%TO.N,Net-(D5-A)*%
X19500000Y-33820000D03*
D13*
%TO.P,D6,2,A*%
%TO.N,Net-(D6-A)*%
X19500000Y-43980000D03*
%TD*%
D12*
%TO.P,D5,1,K*%
%TO.N,Net-(D5-K)*%
X19700000Y-19000000D03*
D13*
%TO.P,D5,2,A*%
%TO.N,Net-(D5-A)*%
X19700000Y-29160000D03*
%TD*%
D12*
%TO.P,D7,1,K*%
%TO.N,Net-(D6-A)*%
X19300000Y-56700000D03*
D13*
%TO.P,D7,2,A*%
%TO.N,Net-(D7-A)*%
X19300000Y-69400000D03*
%TD*%
D12*
%TO.P,D4,1,K*%
%TO.N,Net-(D4-K)*%
X45720000Y-33020000D03*
D13*
%TO.P,D4,2,A*%
%TO.N,Net-(D4-A)*%
X45720000Y-25400000D03*
%TD*%
D12*
%TO.P,D2,1,K*%
%TO.N,Net-(D2-K)*%
X80010000Y-25400000D03*
D13*
%TO.P,D2,2,A*%
%TO.N,Net-(D2-A)*%
X87630000Y-25400000D03*
%TD*%
D12*
%TO.P,D8,1,K*%
%TO.N,Net-(D7-A)*%
X19300000Y-74250000D03*
D13*
%TO.P,D8,2,A*%
%TO.N,9VAC+Phase*%
X19300000Y-86950000D03*
%TD*%
D16*
%TO.P,C  1,1*%
%TO.N,Net-(D7-A)*%
X9400000Y-57300000D03*
D17*
%TO.P,C  1,2*%
%TO.N,9VAC -Phase*%
X9400000Y-87300000D03*
%TD*%
D16*
%TO.P,C  4,1*%
%TO.N,Net-(D5-K)*%
X29600000Y-19100000D03*
D17*
%TO.P,C  4,2*%
%TO.N,GND*%
X29600000Y-49100000D03*
%TD*%
D16*
%TO.P,C  3,1*%
%TO.N,Net-(D5-A)*%
X9400000Y-18900000D03*
D17*
%TO.P,C  3,2*%
%TO.N,Net-(D7-A)*%
X9400000Y-48900000D03*
%TD*%
D16*
%TO.P,C  2,1*%
%TO.N,Net-(D6-A)*%
X29500000Y-57000000D03*
D17*
%TO.P,C  2,2*%
%TO.N,9VAC+Phase*%
X29500000Y-87000000D03*
%TD*%
D18*
%TO.P,CB1,6*%
%TO.N,Net-(IC4-VO)*%
X109900000Y-30000000D03*
%TO.P,CB1,5*%
%TO.N,Net-(D2-A)*%
X109890000Y-26010000D03*
%TO.P,CB1,4*%
X109890000Y-22010000D03*
%TO.P,CB1,1*%
%TO.N,Net-(EPROMSOCKEL1-VCC)*%
X107270000Y-22000000D03*
%TO.P,CB1,2*%
X107270000Y-26000000D03*
%TO.P,CB1,3*%
%TO.N,Net-(D2-A)*%
X107280000Y-29990000D03*
%TD*%
D19*
%TO.P,,1*%
%TO.N,Net-(D5-A)*%
X9400000Y-41600000D03*
%TD*%
%TO.P,,1*%
%TO.N,Net-(D5-K)*%
X29400000Y-41600000D03*
%TD*%
%TO.P,,1*%
%TO.N,Net-(D6-A)*%
X29400000Y-79800000D03*
%TD*%
%TO.P,,1*%
%TO.N,Net-(D7-A)*%
X9400000Y-79800000D03*
%TD*%
%TO.P,LED,2,A*%
%TO.N,Net-(EPROMSOCKEL1-VCC)*%
X107600000Y-10365000D03*
D20*
%TO.P,LED,1,K*%
%TO.N,Net-(LED1-K)*%
X107600000Y-7825000D03*
%TD*%
D21*
%TO.P,REF\u002A\u002A,1*%
%TO.N,N/C*%
X45500000Y-109500000D03*
%TD*%
%TO.P,REF\u002A\u002A,1*%
%TO.N,9VAC -Phase*%
X49500000Y-109500000D03*
%TD*%
%TO.P,REF\u002A\u002A,1*%
%TO.N,9VAC+Phase*%
X53500000Y-109500000D03*
%TD*%
%TO.P,REF\u002A\u002A,1*%
%TO.N,N/C*%
X57500000Y-109500000D03*
%TD*%
%TO.P,REF\u002A\u002A,1*%
%TO.N,N/C*%
X61500000Y-109500000D03*
%TD*%
%TO.P,REF\u002A\u002A,1*%
%TO.N,SP2*%
X65500000Y-109500000D03*
%TD*%
%TO.P,REF\u002A\u002A,1*%
%TO.N,N/C*%
X69500000Y-109500000D03*
%TD*%
%TO.P,REF\u002A\u002A,1*%
%TO.N,SP1*%
X73500000Y-109500000D03*
%TD*%
%TO.P,REF\u002A\u002A,1*%
%TO.N,N/C*%
X77500000Y-109500000D03*
%TD*%
%TO.P,REF\u002A\u002A,1*%
%TO.N,N/C*%
X81500000Y-109500000D03*
%TD*%
%TO.P,REF\u002A\u002A,1*%
%TO.N,Net-(D2-A)*%
X85500000Y-109500000D03*
%TD*%
%TO.P,REF\u002A\u002A,1*%
%TO.N,GND*%
X89500000Y-109500000D03*
%TD*%
D19*
%TO.P,,1*%
%TO.N,Net-(D2-A)*%
X103800000Y-17400000D03*
%TD*%
%TO.P,,1*%
%TO.N,Net-(IC2-O5)*%
X61400000Y-94200000D03*
%TD*%
%TO.P,REF\u002A\u002A,1*%
%TO.N,Net-(EPROMSOCKEL1-~{PGM})*%
X99000000Y-73800000D03*
%TD*%
%TO.P,,1*%
%TO.N,Net-(EPROMSOCKEL1-~{PGM})*%
X99200000Y-78800000D03*
%TD*%
%TO.P,,1*%
%TO.N,PB7*%
X42800000Y-54800000D03*
%TD*%
%TO.P,,1*%
%TO.N,Net-(D2-A)*%
X50000000Y-31600000D03*
%TD*%
D22*
%TO.P,T5,1,C*%
%TO.N,Net-(EPROMSOCKEL1-A13)*%
X77100000Y-59100000D03*
D23*
%TO.P,T5,2,B*%
%TO.N,Net-(T5-B)*%
X75830000Y-59100000D03*
%TO.P,T5,3,E*%
%TO.N,Net-(EPROMSOCKEL1-VCC)*%
X74560000Y-59100000D03*
%TD*%
D24*
%TO.P,IC1,1,Q11*%
%TO.N,Net-(D4-A)*%
X46000000Y-22820000D03*
D25*
%TO.P,IC1,2,Q5*%
%TO.N,Net-(EPROMSOCKEL1-A5)*%
X48540000Y-22820000D03*
%TO.P,IC1,3,Q4*%
%TO.N,Net-(EPROMSOCKEL1-A4)*%
X51080000Y-22820000D03*
%TO.P,IC1,4,Q6*%
%TO.N,Net-(EPROMSOCKEL1-A6)*%
X53620000Y-22820000D03*
%TO.P,IC1,5,Q3*%
%TO.N,Net-(EPROMSOCKEL1-A3)*%
X56160000Y-22820000D03*
%TO.P,IC1,6,Q2*%
%TO.N,Net-(EPROMSOCKEL1-A2)*%
X58700000Y-22820000D03*
%TO.P,IC1,7,Q1*%
%TO.N,Net-(EPROMSOCKEL1-A1)*%
X61240000Y-22820000D03*
%TO.P,IC1,8,VSS*%
%TO.N,GND*%
X63780000Y-22820000D03*
%TO.P,IC1,9,Q0*%
%TO.N,Net-(EPROMSOCKEL1-A0)*%
X63780000Y-15200000D03*
%TO.P,IC1,10,CLK*%
%TO.N,SP1*%
X61240000Y-15200000D03*
%TO.P,IC1,11,Reset*%
%TO.N,Net-(IC1-Reset)*%
X58700000Y-15200000D03*
%TO.P,IC1,12,Q8*%
%TO.N,Net-(EPROMSOCKEL1-A8)*%
X56160000Y-15200000D03*
%TO.P,IC1,13,Q7*%
%TO.N,Net-(EPROMSOCKEL1-A7)*%
X53620000Y-15200000D03*
%TO.P,IC1,14,Q9*%
%TO.N,Net-(EPROMSOCKEL1-A9)*%
X51080000Y-15200000D03*
%TO.P,IC1,15,Q10*%
%TO.N,Net-(EPROMSOCKEL1-A10)*%
X48540000Y-15200000D03*
%TO.P,IC1,16,VDD*%
%TO.N,Net-(EPROMSOCKEL1-VCC)*%
X46000000Y-15200000D03*
%TD*%
D19*
%TO.P,,1*%
%TO.N,SP1*%
X99200000Y-55400000D03*
%TD*%
D26*
%TO.P,T2,1,C*%
%TO.N,Net-(D1-A)*%
X10040000Y-6030000D03*
D27*
%TO.P,T2,2,B*%
%TO.N,Net-(T2-B)*%
X10040000Y-7300000D03*
%TO.P,T2,3,E*%
%TO.N,GND*%
X10040000Y-8570000D03*
%TD*%
D19*
%TO.P,,1*%
%TO.N,Net-(IC2-O5)*%
X96900000Y-77400000D03*
%TD*%
D28*
%TO.P,R7,1*%
%TO.N,Net-(IC2-O1)*%
X55800000Y-63200000D03*
D13*
%TO.P,R7,2*%
%TO.N,Net-(EPROMSOCKEL1-A13)*%
X68500000Y-63200000D03*
%TD*%
D28*
%TO.P,R1,1*%
%TO.N,Net-(D2-A)*%
X3840000Y-12600000D03*
D13*
%TO.P,R1,2*%
%TO.N,Net-(T2-B)*%
X14000000Y-12600000D03*
%TD*%
D28*
%TO.P,R8,1*%
%TO.N,Net-(D3-K)*%
X71500000Y-63700000D03*
D13*
%TO.P,R8,2*%
%TO.N,GND*%
X84200000Y-63700000D03*
%TD*%
D19*
%TO.P,,1*%
%TO.N,Net-(EPROMSOCKEL1-VCC)*%
X86400000Y-52400000D03*
%TD*%
%TO.P,,1*%
%TO.N,GND*%
X94000000Y-19400000D03*
%TD*%
%TO.P,,1*%
%TO.N,Net-(IC2-LE)*%
X46400000Y-87800000D03*
%TD*%
%TO.P,,1*%
%TO.N,Net-(EPROMSOCKEL1-~{PGM})*%
X89200000Y-86000000D03*
%TD*%
D28*
%TO.P,R6,1*%
%TO.N,Net-(D2-A)*%
X96900000Y-32350000D03*
D13*
%TO.P,R6,2*%
%TO.N,Net-(T4-B)*%
X96900000Y-45050000D03*
%TD*%
D28*
%TO.P,R11,1*%
%TO.N,GND*%
X89443809Y-100668990D03*
D29*
%TO.P,R11,2*%
%TO.N,Net-(IC2-O5)*%
X92084286Y-88246515D03*
%TD*%
D19*
%TO.P,,1*%
%TO.N,PA2*%
X48600000Y-45000000D03*
%TD*%
%TO.P,,1*%
%TO.N,SP1*%
X100800000Y-84800000D03*
%TD*%
D24*
%TO.P,EPROM-SOCKEL,1,VPP*%
%TO.N,Net-(D2-K)*%
X78740000Y-38100000D03*
D25*
%TO.P,EPROM-SOCKEL,2,A12*%
%TO.N,Net-(EPROMSOCKEL1-A12)*%
X76200000Y-38100000D03*
%TO.P,EPROM-SOCKEL,3,A7*%
%TO.N,Net-(EPROMSOCKEL1-A7)*%
X73660000Y-38100000D03*
%TO.P,EPROM-SOCKEL,4,A6*%
%TO.N,Net-(EPROMSOCKEL1-A6)*%
X71120000Y-38100000D03*
%TO.P,EPROM-SOCKEL,5,A5*%
%TO.N,Net-(EPROMSOCKEL1-A5)*%
X68580000Y-38100000D03*
%TO.P,EPROM-SOCKEL,6,A4*%
%TO.N,Net-(EPROMSOCKEL1-A4)*%
X66040000Y-38100000D03*
%TO.P,EPROM-SOCKEL,7,A3*%
%TO.N,Net-(EPROMSOCKEL1-A3)*%
X63500000Y-38100000D03*
%TO.P,EPROM-SOCKEL,8,A2*%
%TO.N,Net-(EPROMSOCKEL1-A2)*%
X60960000Y-38100000D03*
%TO.P,EPROM-SOCKEL,9,A1*%
%TO.N,Net-(EPROMSOCKEL1-A1)*%
X58420000Y-38100000D03*
%TO.P,EPROM-SOCKEL,10,A0*%
%TO.N,Net-(EPROMSOCKEL1-A0)*%
X55880000Y-38100000D03*
%TO.P,EPROM-SOCKEL,11,D0*%
%TO.N,PB0*%
X53340000Y-38100000D03*
%TO.P,EPROM-SOCKEL,12,D1*%
%TO.N,PB1*%
X50800000Y-38100000D03*
%TO.P,EPROM-SOCKEL,13,D2*%
%TO.N,PB2*%
X48260000Y-38100000D03*
%TO.P,EPROM-SOCKEL,14,GND*%
%TO.N,GND*%
X45720000Y-38100000D03*
%TO.P,EPROM-SOCKEL,15,D3*%
%TO.N,PB3*%
X45720000Y-53340000D03*
%TO.P,EPROM-SOCKEL,16,D4*%
%TO.N,PB4*%
X48260000Y-53340000D03*
%TO.P,EPROM-SOCKEL,17,D5*%
%TO.N,PB5*%
X50800000Y-53340000D03*
%TO.P,EPROM-SOCKEL,18,D6*%
%TO.N,PB6*%
X53340000Y-53340000D03*
%TO.P,EPROM-SOCKEL,19,D7*%
%TO.N,PB7*%
X55880000Y-53340000D03*
%TO.P,EPROM-SOCKEL,20,~{CE}*%
%TO.N,PA2*%
X58420000Y-53340000D03*
%TO.P,EPROM-SOCKEL,21,A10*%
%TO.N,Net-(EPROMSOCKEL1-A10)*%
X60960000Y-53340000D03*
%TO.P,EPROM-SOCKEL,22,~{OE}*%
%TO.N,Net-(D3-K)*%
X63500000Y-53340000D03*
%TO.P,EPROM-SOCKEL,23,A11*%
%TO.N,Net-(D4-K)*%
X66040000Y-53340000D03*
%TO.P,EPROM-SOCKEL,24,A9*%
%TO.N,Net-(EPROMSOCKEL1-A9)*%
X68580000Y-53340000D03*
%TO.P,EPROM-SOCKEL,25,A8*%
%TO.N,Net-(EPROMSOCKEL1-A8)*%
X71120000Y-53340000D03*
%TO.P,EPROM-SOCKEL,26,A13*%
%TO.N,Net-(EPROMSOCKEL1-A13)*%
X73660000Y-53340000D03*
%TO.P,EPROM-SOCKEL,27,~{PGM}*%
%TO.N,Net-(EPROMSOCKEL1-~{PGM})*%
X76200000Y-53340000D03*
%TO.P,EPROM-SOCKEL,28,VCC*%
%TO.N,Net-(EPROMSOCKEL1-VCC)*%
X78740000Y-53340000D03*
%TD*%
D26*
%TO.P,T4,1,C*%
%TO.N,Net-(D2-A)*%
X91440000Y-43180000D03*
D27*
%TO.P,T4,2,B*%
%TO.N,Net-(T4-B)*%
X91440000Y-44450000D03*
%TO.P,T4,3,E*%
%TO.N,Net-(D3-K)*%
X91440000Y-45720000D03*
%TD*%
D24*
%TO.P,IC3,1*%
%TO.N,Net-(IC2-O5)*%
X94140000Y-73100000D03*
D25*
%TO.P,IC3,2*%
%TO.N,Net-(T2-B)*%
X91600000Y-73100000D03*
%TO.P,IC3,3*%
%TO.N,Net-(EPROMSOCKEL1-~{PGM})*%
X89060000Y-73100000D03*
%TO.P,IC3,4*%
%TO.N,Net-(D2-A)*%
X86520000Y-73100000D03*
%TO.P,IC3,5*%
%TO.N,Net-(IC2-O1)*%
X83980000Y-73100000D03*
%TO.P,IC3,6*%
%TO.N,Net-(IC3-Pad6)*%
X81440000Y-73100000D03*
%TO.P,IC3,7,GND*%
%TO.N,GND*%
X78900000Y-73100000D03*
%TO.P,IC3,8*%
%TO.N,Net-(T3-B)*%
X78900000Y-80720000D03*
%TO.P,IC3,9*%
%TO.N,Net-(IC2-O6)*%
X81440000Y-80720000D03*
%TO.P,IC3,10*%
%TO.N,Net-(T4-B)*%
X83980000Y-80720000D03*
%TO.P,IC3,11*%
%TO.N,Net-(IC2-O7)*%
X86520000Y-80720000D03*
%TO.P,IC3,12*%
%TO.N,Net-(IC2-LE)*%
X89060000Y-80720000D03*
%TO.P,IC3,13*%
%TO.N,SP2*%
X91600000Y-80720000D03*
%TO.P,IC3,14,VCC*%
%TO.N,Net-(D2-A)*%
X94140000Y-80720000D03*
%TD*%
D19*
%TO.P,,1*%
%TO.N,Net-(D2-A)*%
X93000000Y-32600000D03*
%TD*%
D27*
%TO.P,T1,3,E*%
%TO.N,GND*%
X4420000Y-8570000D03*
%TO.P,T1,2,B*%
%TO.N,Net-(D2-A)*%
X4420000Y-7300000D03*
D26*
%TO.P,T1,1,C*%
%TO.N,Net-(T1-C)*%
X4420000Y-6030000D03*
%TD*%
D28*
%TO.P,C6,1*%
%TO.N,GND*%
X73600000Y-74000000D03*
%TO.P,C6,2*%
%TO.N,Net-(EPROMSOCKEL1-VCC)*%
X73600000Y-79000000D03*
%TD*%
D19*
%TO.P,,1*%
%TO.N,Net-(EPROMSOCKEL1-~{PGM})*%
X56400000Y-92000000D03*
%TD*%
%TO.P,,1*%
%TO.N,Net-(D2-A)*%
X37000000Y-23800000D03*
%TD*%
D28*
%TO.P,R9,1*%
%TO.N,Net-(T5-B)*%
X73100000Y-67500000D03*
D13*
%TO.P,R9,2*%
%TO.N,Net-(IC3-Pad6)*%
X85800000Y-67500000D03*
%TD*%
D24*
%TO.P,IC2,1,OE*%
%TO.N,GND*%
X68740000Y-73100000D03*
D25*
%TO.P,IC2,2,O0*%
%TO.N,Net-(EPROMSOCKEL1-A12)*%
X66200000Y-73100000D03*
%TO.P,IC2,3,D0*%
%TO.N,PB0*%
X63660000Y-73100000D03*
%TO.P,IC2,4,D1*%
%TO.N,PB1*%
X61120000Y-73100000D03*
%TO.P,IC2,5,O1*%
%TO.N,Net-(IC2-O1)*%
X58580000Y-73100000D03*
%TO.P,IC2,6,O2*%
%TO.N,Net-(D3-A)*%
X56040000Y-73100000D03*
%TO.P,IC2,7,D2*%
%TO.N,PB2*%
X53500000Y-73100000D03*
%TO.P,IC2,8,D3*%
%TO.N,PB3*%
X50960000Y-73100000D03*
%TO.P,IC2,9,O3*%
%TO.N,Net-(IC1-Reset)*%
X48420000Y-73100000D03*
%TO.P,IC2,10,GND*%
%TO.N,GND*%
X45880000Y-73100000D03*
%TO.P,IC2,11,LE*%
%TO.N,Net-(IC2-LE)*%
X45880000Y-80720000D03*
%TO.P,IC2,12,O4*%
%TO.N,Net-(EPROMSOCKEL1-~{PGM})*%
X48420000Y-80720000D03*
%TO.P,IC2,13,D4*%
%TO.N,PB4*%
X50960000Y-80720000D03*
%TO.P,IC2,14,D5*%
%TO.N,PB5*%
X53500000Y-80720000D03*
%TO.P,IC2,15,O5*%
%TO.N,Net-(IC2-O5)*%
X56040000Y-80720000D03*
%TO.P,IC2,16,O6*%
%TO.N,Net-(IC2-O6)*%
X58580000Y-80720000D03*
%TO.P,IC2,17,D6*%
%TO.N,PB6*%
X61120000Y-80720000D03*
%TO.P,IC2,18,D7*%
%TO.N,PB7*%
X63660000Y-80720000D03*
%TO.P,IC2,19,O7*%
%TO.N,Net-(IC2-O7)*%
X66200000Y-80720000D03*
%TO.P,IC2,20,VCC*%
%TO.N,Net-(EPROMSOCKEL1-VCC)*%
X68740000Y-80720000D03*
%TD*%
D19*
%TO.P,,1*%
%TO.N,SP1*%
X102200000Y-78800000D03*
%TD*%
D28*
%TO.P,R3,1*%
%TO.N,Net-(D2-A)*%
X36700000Y-35320000D03*
D13*
%TO.P,R3,2*%
%TO.N,Net-(T3-B)*%
X36700000Y-45480000D03*
%TD*%
D28*
%TO.P,R10,1*%
%TO.N,Net-(IC2-LE)*%
X85200000Y-85650000D03*
D13*
%TO.P,R10,2*%
%TO.N,Net-(EPROMSOCKEL1-VCC)*%
X85200000Y-98350000D03*
%TD*%
D22*
%TO.P,T3,1,C*%
%TO.N,Net-(D2-A)*%
X37430000Y-31100000D03*
D23*
%TO.P,T3,2,B*%
%TO.N,Net-(T3-B)*%
X38700000Y-31100000D03*
%TO.P,T3,3,E*%
%TO.N,Net-(D4-K)*%
X39970000Y-31100000D03*
%TD*%
D19*
%TO.P,,1*%
%TO.N,SP1*%
X99800000Y-65600000D03*
%TD*%
%TO.P,,1*%
%TO.N,Net-(T2-B)*%
X50000000Y-28800000D03*
%TD*%
D28*
%TO.P,R2,1*%
%TO.N,+5V*%
X3840000Y-15800000D03*
D13*
%TO.P,R2,2*%
%TO.N,Net-(D2-A)*%
X14000000Y-15800000D03*
%TD*%
D30*
%TO.P,IC4,3,VO*%
%TO.N,Net-(IC4-VO)*%
X17780000Y-7620000D03*
%TO.P,IC4,2,GND*%
%TO.N,Net-(D1-A)*%
X20320000Y-7620000D03*
D31*
%TO.P,IC4,1,VI*%
%TO.N,Net-(D5-K)*%
X22860000Y-7620000D03*
%TD*%
D28*
%TO.P,R5,1*%
%TO.N,GND*%
X84080000Y-9700000D03*
D13*
%TO.P,R5,2*%
%TO.N,Net-(LED1-K)*%
X99320000Y-9700000D03*
%TD*%
D28*
%TO.P,R4,1*%
%TO.N,GND*%
X59600000Y-26600000D03*
D13*
%TO.P,R4,2*%
%TO.N,Net-(D4-K)*%
X49440000Y-26600000D03*
%TD*%
D28*
%TO.P,C5,1*%
%TO.N,Net-(EPROMSOCKEL1-VCC)*%
X42400000Y-16200000D03*
%TO.P,C5,2*%
%TO.N,GND*%
X42400000Y-21200000D03*
%TD*%
D32*
%TO.N,Net-(EPROMSOCKEL1-VCC)*%
X104700000Y-24100000D02*
X104600000Y-24000000D01*
X104700000Y-59000000D02*
X104700000Y-24100000D01*
X42400000Y-8500000D02*
X42400000Y-16200000D01*
X100800000Y-4000000D02*
X46900000Y-4000000D01*
X46900000Y-4000000D02*
X42400000Y-8500000D01*
X101600000Y-4800000D02*
X100800000Y-4000000D01*
X104600000Y-24000000D02*
X101600000Y-21000000D01*
X101600000Y-21000000D02*
X101600000Y-4800000D01*
X107300000Y-24000000D02*
X104600000Y-24000000D01*
X107300000Y-24000000D02*
X107300000Y-25970000D01*
X107300000Y-22030000D02*
X107300000Y-24000000D01*
X106970000Y-22300000D02*
X107270000Y-22000000D01*
%TO.N,Net-(D2-A)*%
X109890000Y-19190000D02*
X109890000Y-26010000D01*
X108100000Y-17400000D02*
X109890000Y-19190000D01*
X105200000Y-17400000D02*
X108100000Y-17400000D01*
%TO.N,Net-(EPROMSOCKEL1-VCC)*%
X107300000Y-25970000D02*
X107270000Y-26000000D01*
X107270000Y-22000000D02*
X107300000Y-22030000D01*
%TO.N,Net-(D2-A)*%
X107143272Y-89056728D02*
X107143272Y-30126728D01*
X107143272Y-30126728D02*
X107280000Y-29990000D01*
X105100000Y-91100000D02*
X107143272Y-89056728D01*
X92200000Y-95100000D02*
X85500000Y-101800000D01*
X98400000Y-91100000D02*
X94400000Y-95100000D01*
X94400000Y-95100000D02*
X92200000Y-95100000D01*
X105100000Y-91100000D02*
X98400000Y-91100000D01*
%TO.N,Net-(EPROMSOCKEL1-VCC)*%
X94200000Y-54600000D02*
X86400000Y-54600000D01*
X98600000Y-59000000D02*
X94200000Y-54600000D01*
X104700000Y-59000000D02*
X98600000Y-59000000D01*
D33*
%TO.N,SP1*%
X99200000Y-52000000D02*
X99200000Y-55400000D01*
X102800000Y-48400000D02*
X99200000Y-52000000D01*
X102800000Y-26100000D02*
X102800000Y-48400000D01*
X98900000Y-16300000D02*
X98900000Y-22200000D01*
X89000000Y-6400000D02*
X98900000Y-16300000D01*
X69800000Y-6400000D02*
X89000000Y-6400000D01*
X61240000Y-14960000D02*
X69800000Y-6400000D01*
X61240000Y-15200000D02*
X61240000Y-14960000D01*
X98900000Y-22200000D02*
X102800000Y-26100000D01*
D32*
%TO.N,GND*%
X45880000Y-75180000D02*
X45880000Y-73100000D01*
X46800000Y-76100000D02*
X45880000Y-75180000D01*
X70000000Y-76100000D02*
X46800000Y-76100000D01*
X70500000Y-75600000D02*
X70000000Y-76100000D01*
X70500000Y-74000000D02*
X70500000Y-75600000D01*
%TO.N,Net-(EPROMSOCKEL1-VCC)*%
X97400000Y-80900000D02*
X104700000Y-80900000D01*
X76400000Y-76200000D02*
X92700000Y-76200000D01*
X73600000Y-79000000D02*
X76400000Y-76200000D01*
X92700000Y-76200000D02*
X97400000Y-80900000D01*
%TO.N,Net-(D2-A)*%
X84400000Y-101800000D02*
X85500000Y-101800000D01*
X82800000Y-100200000D02*
X84400000Y-101800000D01*
X82800000Y-97400000D02*
X82800000Y-100200000D01*
X84700000Y-95500000D02*
X82800000Y-97400000D01*
X87200000Y-95500000D02*
X84700000Y-95500000D01*
X90800000Y-91900000D02*
X87200000Y-95500000D01*
X93200000Y-91900000D02*
X90800000Y-91900000D01*
X96800000Y-88300000D02*
X93200000Y-91900000D01*
X102600000Y-88300000D02*
X96800000Y-88300000D01*
X102400000Y-82700000D02*
X103300000Y-83600000D01*
X103300000Y-87600000D02*
X102600000Y-88300000D01*
X95500000Y-82700000D02*
X102400000Y-82700000D01*
X103300000Y-83600000D02*
X103300000Y-87600000D01*
X94140000Y-81340000D02*
X95500000Y-82700000D01*
%TO.N,Net-(EPROMSOCKEL1-VCC)*%
X104700000Y-89100000D02*
X104700000Y-80900000D01*
X104100000Y-89700000D02*
X104700000Y-89100000D01*
X97400000Y-89700000D02*
X104100000Y-89700000D01*
X86150000Y-98350000D02*
X91200000Y-93300000D01*
X85950000Y-98350000D02*
X86150000Y-98350000D01*
X91200000Y-93300000D02*
X93800000Y-93300000D01*
X93800000Y-93300000D02*
X97400000Y-89700000D01*
%TO.N,Net-(D2-A)*%
X40200000Y-16600000D02*
X37800000Y-19000000D01*
X102200000Y-2200000D02*
X45500000Y-2200000D01*
X40200000Y-7500000D02*
X40200000Y-16600000D01*
X105200000Y-5200000D02*
X102200000Y-2200000D01*
X45500000Y-2200000D02*
X40200000Y-7500000D01*
X105200000Y-17400000D02*
X105200000Y-5200000D01*
X37800000Y-19000000D02*
X37800000Y-23000000D01*
D33*
%TO.N,Net-(T1-C)*%
X37100000Y-10900000D02*
X37100000Y-15160000D01*
X40200000Y-5200000D02*
X38900000Y-6500000D01*
X38900000Y-6500000D02*
X38900000Y-9100000D01*
X38600000Y-2100000D02*
X40200000Y-3700000D01*
X4420000Y-4080000D02*
X6400000Y-2100000D01*
X40200000Y-3700000D02*
X40200000Y-5200000D01*
X4420000Y-6030000D02*
X4420000Y-4080000D01*
X6400000Y-2100000D02*
X38600000Y-2100000D01*
X38900000Y-9100000D02*
X37100000Y-10900000D01*
D32*
%TO.N,9VAC+Phase*%
X40300000Y-88700000D02*
X31200000Y-88700000D01*
X47600000Y-93700000D02*
X45300000Y-93700000D01*
X45300000Y-93700000D02*
X40300000Y-88700000D01*
X31200000Y-88700000D02*
X29500000Y-87000000D01*
X53500000Y-99600000D02*
X47600000Y-93700000D01*
X53500000Y-109500000D02*
X53500000Y-99600000D01*
%TO.N,9VAC -Phase*%
X38100000Y-90300000D02*
X12400000Y-90300000D01*
X12400000Y-90300000D02*
X9400000Y-87300000D01*
X43700000Y-95900000D02*
X38100000Y-90300000D01*
X49500000Y-109500000D02*
X49500000Y-99400000D01*
X49500000Y-99400000D02*
X46000000Y-95900000D01*
X46000000Y-95900000D02*
X43700000Y-95900000D01*
D33*
%TO.N,SP2*%
X59700000Y-92500000D02*
X84700000Y-92500000D01*
X58600000Y-95500000D02*
X58600000Y-93600000D01*
X91600000Y-85600000D02*
X91600000Y-80720000D01*
X65500000Y-102400000D02*
X58600000Y-95500000D01*
X58600000Y-93600000D02*
X59700000Y-92500000D01*
X84700000Y-92500000D02*
X91600000Y-85600000D01*
X65500000Y-109500000D02*
X65500000Y-102400000D01*
%TO.N,SP1*%
X73500000Y-99800000D02*
X73500000Y-109500000D01*
X83200000Y-94500000D02*
X81800000Y-95900000D01*
X90763034Y-90300000D02*
X86563034Y-94500000D01*
X93100000Y-90300000D02*
X90763034Y-90300000D01*
X98600000Y-87000000D02*
X96400000Y-87000000D01*
X96400000Y-87000000D02*
X93100000Y-90300000D01*
X77400000Y-95900000D02*
X73500000Y-99800000D01*
X86563034Y-94500000D02*
X83200000Y-94500000D01*
X81800000Y-95900000D02*
X77400000Y-95900000D01*
X100800000Y-84800000D02*
X98600000Y-87000000D01*
%TO.N,Net-(D2-A)*%
X94140000Y-80720000D02*
X94140000Y-81340000D01*
%TO.N,Net-(EPROMSOCKEL1-VCC)*%
X85200000Y-98350000D02*
X85950000Y-98350000D01*
%TO.N,GND*%
X89443809Y-109443809D02*
X89500000Y-109500000D01*
D32*
X89443809Y-100668990D02*
X89443809Y-109443809D01*
D34*
%TO.N,Net-(D2-A)*%
X85500000Y-101800000D02*
X85500000Y-109500000D01*
D33*
%TO.N,Net-(D1-K)*%
X32740000Y-4800000D02*
X33020000Y-5080000D01*
X30300000Y-4800000D02*
X32740000Y-4800000D01*
%TO.N,Net-(D1-A)*%
X22680000Y-4800000D02*
X11270000Y-4800000D01*
X11270000Y-4800000D02*
X10040000Y-6030000D01*
X22680000Y-4800000D02*
X20320000Y-7160000D01*
%TO.N,Net-(D2-A)*%
X37430000Y-34590000D02*
X36700000Y-35320000D01*
X51000000Y-32600000D02*
X50000000Y-31600000D01*
X37800000Y-23000000D02*
X37000000Y-23800000D01*
D32*
X37430000Y-31100000D02*
X37430000Y-34590000D01*
D33*
X93000000Y-32600000D02*
X51000000Y-32600000D01*
D32*
X103800000Y-17400000D02*
X105200000Y-17400000D01*
D33*
%TO.N,Net-(D3-K)*%
X72410000Y-62790000D02*
X72410000Y-47890000D01*
X69250000Y-67000000D02*
X69800000Y-67000000D01*
X69800000Y-67000000D02*
X71500000Y-65300000D01*
X72410000Y-47890000D02*
X76900000Y-43400000D01*
X83800000Y-43400000D02*
X86120000Y-45720000D01*
X71500000Y-65300000D02*
X71500000Y-63700000D01*
X76900000Y-43400000D02*
X83800000Y-43400000D01*
X71500000Y-63700000D02*
X72410000Y-62790000D01*
X86120000Y-45720000D02*
X91440000Y-45720000D01*
%TO.N,Net-(D4-K)*%
X60000000Y-42900000D02*
X58300000Y-41200000D01*
X46970000Y-34270000D02*
X45720000Y-33020000D01*
X63200000Y-42900000D02*
X60000000Y-42900000D01*
X48200000Y-41200000D02*
X46970000Y-39970000D01*
X46970000Y-39970000D02*
X46970000Y-34270000D01*
X58300000Y-41200000D02*
X48200000Y-41200000D01*
X66040000Y-45740000D02*
X63200000Y-42900000D01*
X45720000Y-30320000D02*
X45720000Y-33020000D01*
X66040000Y-53340000D02*
X66040000Y-45740000D01*
X49440000Y-26600000D02*
X45720000Y-30320000D01*
%TO.N,Net-(D4-A)*%
X46000000Y-22820000D02*
X46000000Y-25120000D01*
X46000000Y-25120000D02*
X45720000Y-25400000D01*
D32*
%TO.N,Net-(D5-K)*%
X19700000Y-15000000D02*
X22900000Y-11800000D01*
D33*
X22900000Y-11800000D02*
X22860000Y-11760000D01*
D32*
X19700000Y-19000000D02*
X19700000Y-15000000D01*
X22860000Y-11760000D02*
X22860000Y-7620000D01*
D33*
%TO.N,Net-(EPROMSOCKEL1-A12)*%
X67290000Y-57310000D02*
X66700000Y-57900000D01*
X58412233Y-75100000D02*
X65200000Y-75100000D01*
X65200000Y-75100000D02*
X66200000Y-74100000D01*
X67290000Y-47710000D02*
X67290000Y-57310000D01*
X57330000Y-70270000D02*
X57330000Y-74017767D01*
X76200000Y-41200000D02*
X71800000Y-45600000D01*
X71800000Y-45600000D02*
X69400000Y-45600000D01*
X66200000Y-74100000D02*
X66200000Y-73100000D01*
X65600000Y-57900000D02*
X58300000Y-65200000D01*
X69400000Y-45600000D02*
X67290000Y-47710000D01*
X66700000Y-57900000D02*
X65600000Y-57900000D01*
X58300000Y-69300000D02*
X57330000Y-70270000D01*
X58300000Y-65200000D02*
X58300000Y-69300000D01*
X76200000Y-38100000D02*
X76200000Y-41200000D01*
X57330000Y-74017767D02*
X58412233Y-75100000D01*
D32*
%TO.N,Net-(EPROMSOCKEL1-VCC)*%
X70100000Y-78700000D02*
X73300000Y-78700000D01*
D33*
X68740000Y-80720000D02*
X68740000Y-80060000D01*
D32*
X68740000Y-80060000D02*
X70100000Y-78700000D01*
X86400000Y-54600000D02*
X80000000Y-54600000D01*
X86400000Y-54600000D02*
X86400000Y-52400000D01*
X42400000Y-16200000D02*
X43400000Y-15200000D01*
X80000000Y-54600000D02*
X78740000Y-53340000D01*
X43400000Y-15200000D02*
X46000000Y-15200000D01*
X104700000Y-80900000D02*
X104700000Y-59000000D01*
D33*
X73300000Y-78700000D02*
X73600000Y-79000000D01*
%TO.N,PB4*%
X48260000Y-54940000D02*
X36900000Y-66300000D01*
X50960000Y-81540000D02*
X50960000Y-80720000D01*
X41500000Y-84600000D02*
X47900000Y-84600000D01*
X48260000Y-53340000D02*
X48260000Y-54940000D01*
X47900000Y-84600000D02*
X50960000Y-81540000D01*
X36900000Y-80000000D02*
X41500000Y-84600000D01*
X36900000Y-66300000D02*
X36900000Y-80000000D01*
%TO.N,PB5*%
X41600000Y-78000000D02*
X51900000Y-78000000D01*
X53500000Y-79600000D02*
X53500000Y-80720000D01*
X50800000Y-55300000D02*
X38500000Y-67600000D01*
X38500000Y-67600000D02*
X38500000Y-74900000D01*
X51900000Y-78000000D02*
X53500000Y-79600000D01*
X50800000Y-53340000D02*
X50800000Y-55300000D01*
X38500000Y-74900000D02*
X41600000Y-78000000D01*
%TO.N,PB6*%
X53340000Y-53340000D02*
X53340000Y-55160000D01*
X40600000Y-74200000D02*
X43500000Y-77100000D01*
X43500000Y-77100000D02*
X59200000Y-77100000D01*
X40600000Y-67900000D02*
X40600000Y-74200000D01*
X61120000Y-79020000D02*
X61120000Y-80720000D01*
X59200000Y-77100000D02*
X61120000Y-79020000D01*
X53340000Y-55160000D02*
X40600000Y-67900000D01*
%TO.N,PB7*%
X53700000Y-46900000D02*
X45200000Y-46900000D01*
X45200000Y-46900000D02*
X42800000Y-49300000D01*
X55880000Y-49080000D02*
X53700000Y-46900000D01*
X55880000Y-53340000D02*
X55880000Y-49080000D01*
X42800000Y-49300000D02*
X42800000Y-54800000D01*
%TO.N,PA2*%
X55500000Y-45000000D02*
X48600000Y-45000000D01*
X58420000Y-53340000D02*
X58420000Y-47920000D01*
X58420000Y-47920000D02*
X55500000Y-45000000D01*
%TO.N,Net-(EPROMSOCKEL1-~{PGM})*%
X94800000Y-67400000D02*
X94800000Y-63200000D01*
X88300000Y-86000000D02*
X89200000Y-86000000D01*
X78800000Y-56800000D02*
X76200000Y-54200000D01*
X88400000Y-56800000D02*
X78800000Y-56800000D01*
X99200000Y-74000000D02*
X99000000Y-73800000D01*
X99200000Y-78800000D02*
X99200000Y-74000000D01*
X97300000Y-69900000D02*
X94800000Y-67400000D01*
X82800000Y-91500000D02*
X88300000Y-86000000D01*
X56400000Y-92000000D02*
X56900000Y-91500000D01*
X76200000Y-54200000D02*
X76200000Y-53340000D01*
X56900000Y-91500000D02*
X82800000Y-91500000D01*
X94800000Y-63200000D02*
X88400000Y-56800000D01*
X97300000Y-72100000D02*
X97300000Y-69900000D01*
X99000000Y-73800000D02*
X97300000Y-72100000D01*
D32*
%TO.N,GND*%
X78900000Y-73100000D02*
X74500000Y-73100000D01*
D33*
X63780000Y-19420000D02*
X63800000Y-19400000D01*
D32*
X29600000Y-49100000D02*
X24500000Y-44000000D01*
D33*
X61400000Y-26600000D02*
X63780000Y-24220000D01*
D32*
X42400000Y-34780000D02*
X45720000Y-38100000D01*
X84300000Y-9700000D02*
X94000000Y-19400000D01*
X74500000Y-73100000D02*
X73600000Y-74000000D01*
D33*
X63780000Y-24220000D02*
X63780000Y-22820000D01*
D32*
X24500000Y-19300000D02*
X37100000Y-6700000D01*
D33*
X84080000Y-9700000D02*
X84300000Y-9700000D01*
D32*
X69600000Y-73100000D02*
X70500000Y-74000000D01*
X63780000Y-22820000D02*
X63780000Y-19420000D01*
X24500000Y-44000000D02*
X24500000Y-19300000D01*
X42400000Y-21200000D02*
X44180000Y-19420000D01*
X44180000Y-19420000D02*
X63780000Y-19420000D01*
X73600000Y-74000000D02*
X70500000Y-74000000D01*
X94000000Y-19400000D02*
X63800000Y-19400000D01*
D33*
X59600000Y-26600000D02*
X61400000Y-26600000D01*
X68740000Y-73100000D02*
X69600000Y-73100000D01*
D32*
X37100000Y-6700000D02*
X37100000Y-5000000D01*
X42400000Y-21200000D02*
X42400000Y-34780000D01*
D33*
%TO.N,Net-(T2-B)*%
X101100000Y-47600000D02*
X101100000Y-32400000D01*
X87600000Y-50300000D02*
X98400000Y-50300000D01*
X74910000Y-54217767D02*
X74910000Y-48590000D01*
X91600000Y-62500000D02*
X87500000Y-58400000D01*
X101100000Y-32400000D02*
X97500000Y-28800000D01*
X79092233Y-58400000D02*
X74910000Y-54217767D01*
X87500000Y-58400000D02*
X79092233Y-58400000D01*
X82700000Y-45400000D02*
X87600000Y-50300000D01*
X91600000Y-73100000D02*
X91600000Y-62500000D01*
X98400000Y-50300000D02*
X101100000Y-47600000D01*
X78100000Y-45400000D02*
X82700000Y-45400000D01*
X14000000Y-10460000D02*
X10840000Y-7300000D01*
X74910000Y-48590000D02*
X78100000Y-45400000D01*
X10840000Y-7300000D02*
X10040000Y-7300000D01*
X14000000Y-12600000D02*
X14000000Y-10460000D01*
X97500000Y-28800000D02*
X50000000Y-28800000D01*
%TO.N,Net-(D2-A)*%
X5500000Y-7300000D02*
X4420000Y-7300000D01*
X14000000Y-15800000D02*
X5500000Y-7300000D01*
%TO.N,Net-(T3-B)*%
X75400000Y-86000000D02*
X78900000Y-82500000D01*
X36700000Y-56700000D02*
X35500000Y-57900000D01*
X35500000Y-80600000D02*
X40900000Y-86000000D01*
X35500000Y-57900000D02*
X35500000Y-80600000D01*
X78900000Y-82500000D02*
X78900000Y-80720000D01*
X36700000Y-45480000D02*
X36700000Y-56700000D01*
X40900000Y-86000000D02*
X75400000Y-86000000D01*
%TO.N,Net-(T4-B)*%
X96900000Y-45050000D02*
X96300000Y-44450000D01*
X96300000Y-44450000D02*
X91440000Y-44450000D01*
%TO.N,Net-(IC2-O1)*%
X60800000Y-69400000D02*
X66900000Y-69400000D01*
X80190000Y-71390000D02*
X80190000Y-74790000D01*
X58580000Y-73100000D02*
X58580000Y-71620000D01*
X80180000Y-74800000D02*
X82280000Y-74800000D01*
X82280000Y-74800000D02*
X83980000Y-73100000D01*
X80190000Y-74790000D02*
X80180000Y-74800000D01*
X78900000Y-70100000D02*
X80190000Y-71390000D01*
X67600000Y-70100000D02*
X78900000Y-70100000D01*
X66900000Y-69400000D02*
X67600000Y-70100000D01*
X58580000Y-71620000D02*
X60800000Y-69400000D01*
%TO.N,Net-(EPROMSOCKEL1-A13)*%
X68200000Y-69200000D02*
X77800000Y-69200000D01*
X66900000Y-63200000D02*
X66000000Y-64100000D01*
X66000000Y-67000000D02*
X68200000Y-69200000D01*
X77100000Y-57800000D02*
X73660000Y-54360000D01*
X80500000Y-62600000D02*
X77100000Y-59200000D01*
X66000000Y-64100000D02*
X66000000Y-67000000D01*
X80500000Y-66500000D02*
X80500000Y-62600000D01*
X73660000Y-54360000D02*
X73660000Y-53340000D01*
X77100000Y-59100000D02*
X77100000Y-57800000D01*
X68500000Y-63200000D02*
X66900000Y-63200000D01*
X77100000Y-59200000D02*
X77100000Y-59100000D01*
X77800000Y-69200000D02*
X80500000Y-66500000D01*
%TO.N,Net-(IC2-LE)*%
X80850000Y-90000000D02*
X48600000Y-90000000D01*
X48600000Y-90000000D02*
X46400000Y-87800000D01*
X85200000Y-85650000D02*
X80850000Y-90000000D01*
%TO.N,Net-(IC2-O5)*%
X95300000Y-73100000D02*
X94140000Y-73100000D01*
X90753485Y-88246515D02*
X85400000Y-93600000D01*
X92084287Y-88246515D02*
X90753485Y-88246515D01*
X85400000Y-93600000D02*
X62000000Y-93600000D01*
X62000000Y-93600000D02*
X61400000Y-94200000D01*
X96900000Y-77400000D02*
X96900000Y-74700000D01*
X96900000Y-74700000D02*
X95300000Y-73100000D01*
%TO.N,Net-(T1-C)*%
X37020000Y-15240000D02*
X37100000Y-15160000D01*
X33020000Y-15240000D02*
X37020000Y-15240000D01*
%TO.N,SP1*%
X102200000Y-78800000D02*
X102200000Y-70900000D01*
X102200000Y-70900000D02*
X99800000Y-68500000D01*
X99800000Y-68500000D02*
X99800000Y-65600000D01*
%TO.N,Net-(IC1-Reset)*%
X32800000Y-37300000D02*
X32800000Y-28200000D01*
X41200000Y-18400000D02*
X57300000Y-18400000D01*
X39100000Y-20500000D02*
X41200000Y-18400000D01*
X34400000Y-26600000D02*
X37500000Y-26600000D01*
X41800000Y-42500000D02*
X39100000Y-39800000D01*
X59670000Y-49030000D02*
X59700000Y-49000000D01*
X32800000Y-28200000D02*
X34400000Y-26600000D01*
X59700000Y-47300000D02*
X54900000Y-42500000D01*
X39100000Y-39800000D02*
X35300000Y-39800000D01*
X58700000Y-17000000D02*
X58700000Y-15200000D01*
X57300000Y-18400000D02*
X58700000Y-17000000D01*
X54900000Y-42500000D02*
X41800000Y-42500000D01*
X48420000Y-73100000D02*
X48420000Y-68380000D01*
X48500000Y-68300000D02*
X48500000Y-67800000D01*
X59670000Y-56630000D02*
X59670000Y-49030000D01*
X48500000Y-67800000D02*
X59670000Y-56630000D01*
X48420000Y-68380000D02*
X48500000Y-68300000D01*
X35300000Y-39800000D02*
X32800000Y-37300000D01*
X37500000Y-26600000D02*
X39100000Y-25000000D01*
X59700000Y-49000000D02*
X59700000Y-47300000D01*
X39100000Y-25000000D02*
X39100000Y-20500000D01*
%TO.N,Net-(IC2-O6)*%
X61100000Y-85000000D02*
X72100000Y-85000000D01*
X81440000Y-80340000D02*
X81440000Y-80720000D01*
X79900000Y-78800000D02*
X81440000Y-80340000D01*
X72100000Y-85000000D02*
X78300000Y-78800000D01*
X78300000Y-78800000D02*
X79900000Y-78800000D01*
X58580000Y-82480000D02*
X61100000Y-85000000D01*
X58580000Y-80720000D02*
X58580000Y-82480000D01*
%TO.N,Net-(IC2-O7)*%
X72400000Y-83600000D02*
X67200000Y-83600000D01*
X86520000Y-78720000D02*
X85200000Y-77400000D01*
X78600000Y-77400000D02*
X72400000Y-83600000D01*
X66200000Y-82600000D02*
X66200000Y-80720000D01*
X85200000Y-77400000D02*
X78600000Y-77400000D01*
X67200000Y-83600000D02*
X66200000Y-82600000D01*
X86520000Y-80720000D02*
X86520000Y-78720000D01*
%TD*%
%TA.AperFunction,Conductor*%
%TO.N,Net-(EPROMSOCKEL1-VCC)*%
G36*
X42848899Y-14603427D02*
G01*
X42852044Y-14609149D01*
X43136962Y-15884267D01*
X43135422Y-15893088D01*
X43130034Y-15897622D01*
X42404490Y-16199134D01*
X42395536Y-16199144D01*
X41669964Y-15897621D01*
X41663640Y-15891283D01*
X41663037Y-15884270D01*
X41947955Y-14609149D01*
X41953104Y-14601822D01*
X41959374Y-14600000D01*
X42840626Y-14600000D01*
X42848899Y-14603427D01*
G37*
%TD.AperFunction*%
%TD*%
%TA.AperFunction,Conductor*%
%TO.N,Net-(EPROMSOCKEL1-VCC)*%
G36*
X106819263Y-23566333D02*
G01*
X107861488Y-24449998D01*
X107944469Y-24520355D01*
X107948564Y-24528319D01*
X107947526Y-24534182D01*
X107278384Y-25983999D01*
X107271806Y-25990075D01*
X107262858Y-25989719D01*
X107259121Y-25986984D01*
X106221078Y-24849618D01*
X106218033Y-24841198D01*
X106221834Y-24833090D01*
X106223254Y-24831981D01*
X106800000Y-24450000D01*
X106800000Y-23575258D01*
X106803427Y-23566985D01*
X106811700Y-23563558D01*
X106819263Y-23566333D01*
G37*
%TD.AperFunction*%
%TD*%
%TA.AperFunction,Conductor*%
%TO.N,Net-(EPROMSOCKEL1-VCC)*%
G36*
X107275648Y-22012261D02*
G01*
X107278384Y-22016000D01*
X107687334Y-22902065D01*
X107806600Y-23160476D01*
X107947526Y-23465816D01*
X107947882Y-23474764D01*
X107944469Y-23479643D01*
X106819266Y-24433665D01*
X106810740Y-24436402D01*
X106802776Y-24432307D01*
X106800000Y-24424741D01*
X106800000Y-23550001D01*
X106800000Y-23550000D01*
X106223260Y-23168022D01*
X106218255Y-23160596D01*
X106219966Y-23151806D01*
X106221071Y-23150390D01*
X107259121Y-22013014D01*
X107267227Y-22009215D01*
X107275648Y-22012261D01*
G37*
%TD.AperFunction*%
%TD*%
%TA.AperFunction,Conductor*%
%TO.N,Net-(D2-A)*%
G36*
X107286602Y-29999125D02*
G01*
X107288359Y-30001138D01*
X108203801Y-31330448D01*
X108205671Y-31339205D01*
X108204491Y-31342585D01*
X107596574Y-32483801D01*
X107589660Y-32489491D01*
X107586248Y-32490000D01*
X106701558Y-32490000D01*
X106693285Y-32486573D01*
X106690521Y-32482184D01*
X106289473Y-31342585D01*
X106224186Y-31157068D01*
X106224673Y-31148128D01*
X106226570Y-31145311D01*
X107270074Y-29999894D01*
X107278179Y-29996087D01*
X107286602Y-29999125D01*
G37*
%TD.AperFunction*%
%TD*%
%TA.AperFunction,Conductor*%
%TO.N,SP1*%
G36*
X99450348Y-53603427D02*
G01*
X99452940Y-53607360D01*
X100027210Y-55044867D01*
X100027097Y-55053821D01*
X100020833Y-55060012D01*
X99204488Y-55399135D01*
X99195534Y-55399144D01*
X99195512Y-55399135D01*
X98379166Y-55060012D01*
X98372840Y-55053673D01*
X98372789Y-55044868D01*
X98947060Y-53607358D01*
X98953311Y-53600948D01*
X98957925Y-53600000D01*
X99442075Y-53600000D01*
X99450348Y-53603427D01*
G37*
%TD.AperFunction*%
%TD*%
%TA.AperFunction,Conductor*%
%TO.N,SP1*%
G36*
X62260492Y-13590735D02*
G01*
X62264110Y-13593196D01*
X62606934Y-13936020D01*
X62610361Y-13944293D01*
X62609635Y-13948350D01*
X62044024Y-15478492D01*
X62037942Y-15485063D01*
X62029082Y-15485442D01*
X61246689Y-15203373D01*
X61240068Y-15197343D01*
X61238967Y-15192851D01*
X61190254Y-14018272D01*
X61193335Y-14009866D01*
X61197643Y-14006908D01*
X62251538Y-13590587D01*
X62260492Y-13590735D01*
G37*
%TD.AperFunction*%
%TD*%
%TA.AperFunction,Conductor*%
%TO.N,GND*%
G36*
X45888087Y-73106738D02*
G01*
X46614334Y-73801583D01*
X46617943Y-73809779D01*
X46617664Y-73812588D01*
X46332044Y-75090851D01*
X46326896Y-75098178D01*
X46320626Y-75100000D01*
X45439374Y-75100000D01*
X45431101Y-75096573D01*
X45427956Y-75090851D01*
X45142335Y-73812588D01*
X45143875Y-73803767D01*
X45145660Y-73801588D01*
X45871913Y-73106737D01*
X45880257Y-73103495D01*
X45888087Y-73106738D01*
G37*
%TD.AperFunction*%
%TD*%
%TA.AperFunction,Conductor*%
%TO.N,Net-(EPROMSOCKEL1-VCC)*%
G36*
X74419800Y-77557060D02*
G01*
X75042939Y-78180199D01*
X75046366Y-78188472D01*
X75044544Y-78194742D01*
X74344368Y-79297853D01*
X74337041Y-79303001D01*
X74330025Y-79302398D01*
X73603787Y-79002562D01*
X73597448Y-78996237D01*
X73597437Y-78996212D01*
X73297601Y-78269974D01*
X73297612Y-78261019D01*
X73302143Y-78255633D01*
X74405258Y-77555454D01*
X74414078Y-77553915D01*
X74419800Y-77557060D01*
G37*
%TD.AperFunction*%
%TD*%
%TA.AperFunction,Conductor*%
%TO.N,Net-(D2-A)*%
G36*
X94938200Y-80497461D02*
G01*
X94943565Y-80503915D01*
X95455354Y-82014405D01*
X95454763Y-82023341D01*
X95452546Y-82026433D01*
X94828971Y-82650008D01*
X94820698Y-82653435D01*
X94813063Y-82650599D01*
X93917574Y-81879171D01*
X93913543Y-81871176D01*
X93913729Y-81868061D01*
X94137908Y-80726345D01*
X94142864Y-80718889D01*
X94146209Y-80717341D01*
X94929308Y-80496410D01*
X94938200Y-80497461D01*
G37*
%TD.AperFunction*%
%TD*%
%TA.AperFunction,Conductor*%
%TO.N,Net-(EPROMSOCKEL1-VCC)*%
G36*
X85211891Y-97550241D02*
G01*
X86286715Y-97572087D01*
X86294750Y-97575512D01*
X86917373Y-98198135D01*
X86920800Y-98206408D01*
X86917373Y-98214681D01*
X86915261Y-98216355D01*
X85517835Y-99081864D01*
X85508997Y-99083307D01*
X85501727Y-99078078D01*
X85500872Y-99076412D01*
X85200190Y-98352867D01*
X85199295Y-98348368D01*
X85199989Y-97561928D01*
X85203423Y-97553660D01*
X85211699Y-97550240D01*
X85211891Y-97550241D01*
G37*
%TD.AperFunction*%
%TD*%
%TA.AperFunction,Conductor*%
%TO.N,Net-(T1-C)*%
G36*
X37352423Y-13063427D02*
G01*
X37353510Y-13064680D01*
X38094201Y-14052268D01*
X38096423Y-14060943D01*
X38093502Y-14067154D01*
X37108661Y-15151464D01*
X37100562Y-15155285D01*
X37092134Y-15152259D01*
X37091339Y-15151464D01*
X36865449Y-14902759D01*
X36106496Y-14067152D01*
X36103471Y-14058726D01*
X36105797Y-14052270D01*
X36846490Y-13064680D01*
X36854195Y-13060118D01*
X36855850Y-13060000D01*
X37344150Y-13060000D01*
X37352423Y-13063427D01*
G37*
%TD.AperFunction*%
%TD*%
%TA.AperFunction,Conductor*%
%TO.N,Net-(T1-C)*%
G36*
X4671194Y-4983427D02*
G01*
X4673285Y-4986271D01*
X4941012Y-5497387D01*
X4941815Y-5506306D01*
X4938929Y-5511081D01*
X4428281Y-6022703D01*
X4420011Y-6026138D01*
X4411735Y-6022719D01*
X4411719Y-6022703D01*
X3901070Y-5511081D01*
X3897651Y-5502805D01*
X3898986Y-5497389D01*
X4166715Y-4986270D01*
X4173589Y-4980533D01*
X4177079Y-4980000D01*
X4662921Y-4980000D01*
X4671194Y-4983427D01*
G37*
%TD.AperFunction*%
%TD*%
%TA.AperFunction,Conductor*%
%TO.N,9VAC+Phase*%
G36*
X30653860Y-86743503D02*
G01*
X30658160Y-86748349D01*
X31091676Y-87656796D01*
X31337506Y-88171940D01*
X31360571Y-88220272D01*
X31361042Y-88229214D01*
X31358285Y-88233584D01*
X30733560Y-88858309D01*
X30725287Y-88861736D01*
X30720290Y-88860615D01*
X29262133Y-88171940D01*
X29256116Y-88165309D01*
X29255680Y-88158959D01*
X29497746Y-87006654D01*
X29502800Y-86999263D01*
X29506628Y-86997645D01*
X30645039Y-86741972D01*
X30653860Y-86743503D01*
G37*
%TD.AperFunction*%
%TD*%
%TA.AperFunction,Conductor*%
%TO.N,9VAC+Phase*%
G36*
X53951355Y-102503427D02*
G01*
X53953334Y-102506062D01*
X54498043Y-103496443D01*
X54499332Y-103504004D01*
X53511541Y-109431742D01*
X53506801Y-109439339D01*
X53498077Y-109441360D01*
X53490480Y-109436620D01*
X53488459Y-109431742D01*
X52500667Y-103504004D01*
X52501956Y-103496443D01*
X53046666Y-102506062D01*
X53053656Y-102500464D01*
X53056918Y-102500000D01*
X53943082Y-102500000D01*
X53951355Y-102503427D01*
G37*
%TD.AperFunction*%
%TD*%
%TA.AperFunction,Conductor*%
%TO.N,9VAC -Phase*%
G36*
X10553860Y-87043503D02*
G01*
X10558160Y-87048349D01*
X10991676Y-87956796D01*
X11237506Y-88471940D01*
X11260571Y-88520272D01*
X11261042Y-88529214D01*
X11258285Y-88533584D01*
X10633560Y-89158309D01*
X10625287Y-89161736D01*
X10620290Y-89160615D01*
X9162133Y-88471940D01*
X9156116Y-88465309D01*
X9155680Y-88458959D01*
X9397746Y-87306654D01*
X9402800Y-87299263D01*
X9406628Y-87297645D01*
X10545039Y-87041972D01*
X10553860Y-87043503D01*
G37*
%TD.AperFunction*%
%TD*%
%TA.AperFunction,Conductor*%
%TO.N,9VAC -Phase*%
G36*
X49951355Y-102503427D02*
G01*
X49953334Y-102506062D01*
X50498043Y-103496443D01*
X50499332Y-103504004D01*
X49511541Y-109431742D01*
X49506801Y-109439339D01*
X49498077Y-109441360D01*
X49490480Y-109436620D01*
X49488459Y-109431742D01*
X48500667Y-103504004D01*
X48501956Y-103496443D01*
X49046666Y-102506062D01*
X49053656Y-102500464D01*
X49056918Y-102500000D01*
X49943082Y-102500000D01*
X49951355Y-102503427D01*
G37*
%TD.AperFunction*%
%TD*%
%TA.AperFunction,Conductor*%
%TO.N,SP2*%
G36*
X91608087Y-80726738D02*
G01*
X91930429Y-81035142D01*
X92333511Y-81420796D01*
X92337120Y-81428991D01*
X92336367Y-81433386D01*
X91852859Y-82712437D01*
X91846728Y-82718964D01*
X91841915Y-82720000D01*
X91358085Y-82720000D01*
X91349812Y-82716573D01*
X91347141Y-82712437D01*
X90863632Y-81433386D01*
X90863912Y-81424436D01*
X90866484Y-81420800D01*
X91591913Y-80726737D01*
X91600257Y-80723495D01*
X91608087Y-80726738D01*
G37*
%TD.AperFunction*%
%TD*%
%TA.AperFunction,Conductor*%
%TO.N,SP2*%
G36*
X65752423Y-102503427D02*
G01*
X65753510Y-102504680D01*
X66496996Y-103495994D01*
X66499218Y-103504669D01*
X66499177Y-103504937D01*
X65511541Y-109431742D01*
X65506801Y-109439339D01*
X65498077Y-109441360D01*
X65490480Y-109436620D01*
X65488459Y-109431742D01*
X65390696Y-108845068D01*
X64500822Y-103504935D01*
X64502843Y-103496213D01*
X64502946Y-103496071D01*
X65246490Y-102504680D01*
X65254195Y-102500118D01*
X65255850Y-102500000D01*
X65744150Y-102500000D01*
X65752423Y-102503427D01*
G37*
%TD.AperFunction*%
%TD*%
%TA.AperFunction,Conductor*%
%TO.N,SP1*%
G36*
X73752423Y-102503427D02*
G01*
X73753510Y-102504680D01*
X74496996Y-103495994D01*
X74499218Y-103504669D01*
X74499177Y-103504937D01*
X73511541Y-109431742D01*
X73506801Y-109439339D01*
X73498077Y-109441360D01*
X73490480Y-109436620D01*
X73488459Y-109431742D01*
X73390696Y-108845068D01*
X72500822Y-103504935D01*
X72502843Y-103496213D01*
X72502946Y-103496071D01*
X73246490Y-102504680D01*
X73254195Y-102500118D01*
X73255850Y-102500000D01*
X73744150Y-102500000D01*
X73752423Y-102503427D01*
G37*
%TD.AperFunction*%
%TD*%
%TA.AperFunction,Conductor*%
%TO.N,SP1*%
G36*
X99979173Y-84459989D02*
G01*
X100796214Y-84797437D01*
X100802553Y-84803763D01*
X100802562Y-84803785D01*
X101140009Y-85620824D01*
X101140000Y-85629778D01*
X101133809Y-85636042D01*
X99711267Y-86246442D01*
X99702312Y-86246555D01*
X99698380Y-86243963D01*
X99356036Y-85901619D01*
X99352609Y-85893346D01*
X99353557Y-85888732D01*
X99461984Y-85636042D01*
X99963957Y-84466189D01*
X99970368Y-84459939D01*
X99979173Y-84459989D01*
G37*
%TD.AperFunction*%
%TD*%
%TA.AperFunction,Conductor*%
%TO.N,GND*%
G36*
X89895212Y-102503427D02*
G01*
X89897156Y-102505998D01*
X90449894Y-103496463D01*
X90451233Y-103503998D01*
X89511000Y-109431650D01*
X89506319Y-109439284D01*
X89497611Y-109441373D01*
X89489977Y-109436692D01*
X89487918Y-109431830D01*
X88452503Y-103504008D01*
X88453743Y-103496420D01*
X88990489Y-102506125D01*
X88997444Y-102500484D01*
X89000775Y-102500000D01*
X89886939Y-102500000D01*
X89895212Y-102503427D01*
G37*
%TD.AperFunction*%
%TD*%
%TA.AperFunction,Conductor*%
%TO.N,GND*%
G36*
X90173844Y-100971368D02*
G01*
X90180168Y-100977706D01*
X90180771Y-100984722D01*
X89895853Y-102259841D01*
X89890705Y-102267168D01*
X89884435Y-102268990D01*
X89003183Y-102268990D01*
X88994910Y-102265563D01*
X88991765Y-102259841D01*
X88909116Y-101889958D01*
X88706846Y-100984720D01*
X88708386Y-100975901D01*
X88713771Y-100971369D01*
X89439321Y-100669854D01*
X89448270Y-100669844D01*
X90173844Y-100971368D01*
G37*
%TD.AperFunction*%
%TD*%
%TA.AperFunction,Conductor*%
%TO.N,Net-(D2-A)*%
G36*
X86001042Y-102503427D02*
G01*
X86003234Y-102506468D01*
X86498298Y-103496597D01*
X86499374Y-103503752D01*
X85511541Y-109431742D01*
X85506801Y-109439339D01*
X85498077Y-109441360D01*
X85490480Y-109436620D01*
X85488459Y-109431742D01*
X84500625Y-103503752D01*
X84501700Y-103496598D01*
X84996766Y-102506468D01*
X85003531Y-102500600D01*
X85007231Y-102500000D01*
X85992769Y-102500000D01*
X86001042Y-102503427D01*
G37*
%TD.AperFunction*%
%TD*%
%TA.AperFunction,Conductor*%
%TO.N,Net-(D1-K)*%
G36*
X31108012Y-4005508D02*
G01*
X31894928Y-4546513D01*
X31899804Y-4554024D01*
X31900000Y-4556154D01*
X31900000Y-5043846D01*
X31896573Y-5052119D01*
X31894928Y-5053487D01*
X31108014Y-5594490D01*
X31099256Y-5596353D01*
X31093118Y-5593127D01*
X30552803Y-5053487D01*
X30307287Y-4808277D01*
X30303856Y-4800007D01*
X30307278Y-4791732D01*
X30307288Y-4791722D01*
X31093120Y-4006871D01*
X31101393Y-4003450D01*
X31108012Y-4005508D01*
G37*
%TD.AperFunction*%
%TD*%
%TA.AperFunction,Conductor*%
%TO.N,Net-(D1-K)*%
G36*
X31926311Y-3986306D02*
G01*
X33011650Y-5070658D01*
X33015081Y-5078930D01*
X33011658Y-5087204D01*
X33010594Y-5088147D01*
X31927702Y-5936079D01*
X31919076Y-5938481D01*
X31912700Y-5935598D01*
X30923911Y-5053489D01*
X30920019Y-5045424D01*
X30920000Y-5044758D01*
X30920000Y-4556798D01*
X30923427Y-4548525D01*
X30925902Y-4546635D01*
X31912249Y-3984417D01*
X31921133Y-3983299D01*
X31926311Y-3986306D01*
G37*
%TD.AperFunction*%
%TD*%
%TA.AperFunction,Conductor*%
%TO.N,Net-(D1-A)*%
G36*
X22372208Y-4065180D02*
G01*
X22378199Y-4071354D01*
X22679134Y-4795510D01*
X22679144Y-4804463D01*
X22679135Y-4804485D01*
X22679134Y-4804490D01*
X22378199Y-5528645D01*
X22371860Y-5534970D01*
X22363258Y-5535099D01*
X21087563Y-5052858D01*
X21081036Y-5046727D01*
X21080000Y-5041914D01*
X21080000Y-4558085D01*
X21083427Y-4549812D01*
X21087563Y-4547141D01*
X22363260Y-4064900D01*
X22372208Y-4065180D01*
G37*
%TD.AperFunction*%
%TD*%
%TA.AperFunction,Conductor*%
%TO.N,Net-(D1-A)*%
G36*
X10765839Y-4963378D02*
G01*
X11107277Y-5304816D01*
X11110704Y-5313089D01*
X11109659Y-5317923D01*
X10793077Y-6015678D01*
X10786538Y-6021796D01*
X10782550Y-6022543D01*
X10047217Y-6030619D01*
X10038907Y-6027284D01*
X10036272Y-6023380D01*
X9826420Y-5514416D01*
X9826435Y-5505461D01*
X9831329Y-5499858D01*
X10751659Y-4961551D01*
X10760530Y-4960333D01*
X10765839Y-4963378D01*
G37*
%TD.AperFunction*%
%TD*%
%TA.AperFunction,Conductor*%
%TO.N,Net-(D1-A)*%
G36*
X21951364Y-4498174D02*
G01*
X22676212Y-4797437D01*
X22682551Y-4803762D01*
X22682562Y-4803787D01*
X22981824Y-5528634D01*
X22981813Y-5537589D01*
X22975822Y-5543763D01*
X21732775Y-6104820D01*
X21723825Y-6105100D01*
X21719689Y-6102429D01*
X21377570Y-5760310D01*
X21374143Y-5752037D01*
X21375179Y-5747224D01*
X21801005Y-4803787D01*
X21936236Y-4504176D01*
X21942763Y-4498046D01*
X21951364Y-4498174D01*
G37*
%TD.AperFunction*%
%TD*%
%TA.AperFunction,Conductor*%
%TO.N,Net-(D1-A)*%
G36*
X21249582Y-5890059D02*
G01*
X21592002Y-6232479D01*
X21595429Y-6240752D01*
X21595153Y-6243277D01*
X21205164Y-8007584D01*
X21200033Y-8014923D01*
X21191215Y-8016483D01*
X21188901Y-8015712D01*
X20323614Y-7622669D01*
X20317560Y-7616285D01*
X19959029Y-6701525D01*
X19959200Y-6692572D01*
X19963696Y-6687350D01*
X21235085Y-5888425D01*
X21243912Y-5886925D01*
X21249582Y-5890059D01*
G37*
%TD.AperFunction*%
%TD*%
%TA.AperFunction,Conductor*%
%TO.N,Net-(D2-A)*%
G36*
X37872923Y-34025803D02*
G01*
X37876350Y-34034076D01*
X37875931Y-34037177D01*
X37442613Y-35613381D01*
X37437116Y-35620450D01*
X37428231Y-35621561D01*
X37426867Y-35621095D01*
X36702161Y-35321892D01*
X36698346Y-35319343D01*
X36143190Y-34763206D01*
X36139770Y-34754930D01*
X36143204Y-34746660D01*
X36143790Y-34746114D01*
X36966482Y-34034076D01*
X36976704Y-34025229D01*
X36984361Y-34022376D01*
X37864650Y-34022376D01*
X37872923Y-34025803D01*
G37*
%TD.AperFunction*%
%TD*%
%TA.AperFunction,Conductor*%
%TO.N,Net-(D2-A)*%
G36*
X50830432Y-31259732D02*
G01*
X50836388Y-31265253D01*
X51384525Y-32347508D01*
X51385787Y-32352794D01*
X51385787Y-32835132D01*
X51382360Y-32843405D01*
X51374087Y-32846832D01*
X51371336Y-32846504D01*
X49668862Y-32434703D01*
X49661627Y-32429427D01*
X49660241Y-32420580D01*
X49660794Y-32418877D01*
X49997146Y-31604487D01*
X50003470Y-31598150D01*
X50821477Y-31259728D01*
X50830432Y-31259732D01*
G37*
%TD.AperFunction*%
%TD*%
%TA.AperFunction,Conductor*%
%TO.N,Net-(D2-A)*%
G36*
X38243565Y-22334797D02*
G01*
X38246992Y-22343070D01*
X38246692Y-22345702D01*
X37834597Y-24130962D01*
X37829397Y-24138252D01*
X37820565Y-24139730D01*
X37818731Y-24139144D01*
X37002162Y-23801893D01*
X36998349Y-23799347D01*
X36372592Y-23172606D01*
X36369173Y-23164332D01*
X36372606Y-23156061D01*
X36373317Y-23155408D01*
X37346731Y-22334127D01*
X37354276Y-22331370D01*
X38235292Y-22331370D01*
X38243565Y-22334797D01*
G37*
%TD.AperFunction*%
%TD*%
%TA.AperFunction,Conductor*%
%TO.N,Net-(D2-A)*%
G36*
X37436704Y-31109831D02*
G01*
X37439587Y-31112714D01*
X37767728Y-31582111D01*
X37952353Y-31846214D01*
X37954346Y-31854573D01*
X37881435Y-32364955D01*
X37876873Y-32372660D01*
X37869853Y-32375000D01*
X36990147Y-32375000D01*
X36981874Y-32371573D01*
X36978565Y-32364955D01*
X36905653Y-31854573D01*
X36907645Y-31846215D01*
X37420412Y-31112715D01*
X37427960Y-31107899D01*
X37436704Y-31109831D01*
G37*
%TD.AperFunction*%
%TD*%
%TA.AperFunction,Conductor*%
%TO.N,Net-(D2-A)*%
G36*
X92653821Y-31772902D02*
G01*
X92660012Y-31779166D01*
X92999135Y-32595512D01*
X92999144Y-32604466D01*
X92999135Y-32604488D01*
X92660012Y-33420833D01*
X92653673Y-33427159D01*
X92644867Y-33427210D01*
X91207360Y-32852940D01*
X91200948Y-32846689D01*
X91200000Y-32842075D01*
X91200000Y-32357924D01*
X91203427Y-32349651D01*
X91207357Y-32347060D01*
X92644868Y-31772789D01*
X92653821Y-31772902D01*
G37*
%TD.AperFunction*%
%TD*%
%TA.AperFunction,Conductor*%
%TO.N,Net-(D2-A)*%
G36*
X104156392Y-16577042D02*
G01*
X104750000Y-17000000D01*
X105618283Y-17000000D01*
X105626556Y-17003427D01*
X105629983Y-17011700D01*
X105626556Y-17019973D01*
X105625881Y-17020597D01*
X104444613Y-18029377D01*
X104436096Y-18032144D01*
X104428748Y-18028760D01*
X103805534Y-17406525D01*
X103802101Y-17398254D01*
X103802990Y-17393772D01*
X104138793Y-16582096D01*
X104145121Y-16575764D01*
X104154076Y-16575760D01*
X104156392Y-16577042D01*
G37*
%TD.AperFunction*%
%TD*%
%TA.AperFunction,Conductor*%
%TO.N,Net-(D3-K)*%
G36*
X70441817Y-66010598D02*
G01*
X70443012Y-66011642D01*
X70785619Y-66354249D01*
X70789046Y-66362522D01*
X70787025Y-66369096D01*
X70056059Y-67445295D01*
X70048575Y-67450213D01*
X70040614Y-67448901D01*
X70034247Y-67445295D01*
X69867604Y-67350910D01*
X69253524Y-67003103D01*
X69248014Y-66996044D01*
X69248007Y-66996018D01*
X69033220Y-66212879D01*
X69034336Y-66203994D01*
X69041408Y-66198501D01*
X69042907Y-66198194D01*
X70433157Y-66008323D01*
X70441817Y-66010598D01*
G37*
%TD.AperFunction*%
%TD*%
%TA.AperFunction,Conductor*%
%TO.N,Net-(D3-K)*%
G36*
X72228646Y-64001801D02*
G01*
X72234970Y-64008139D01*
X72235099Y-64016741D01*
X71752859Y-65292437D01*
X71746728Y-65298964D01*
X71741915Y-65300000D01*
X71258085Y-65300000D01*
X71249812Y-65296573D01*
X71247141Y-65292437D01*
X70764900Y-64016739D01*
X70765180Y-64007791D01*
X70771352Y-64001801D01*
X71495512Y-63700864D01*
X71504461Y-63700854D01*
X72228646Y-64001801D01*
G37*
%TD.AperFunction*%
%TD*%
%TA.AperFunction,Conductor*%
%TO.N,Net-(D3-K)*%
G36*
X72652917Y-62480361D02*
G01*
X72656344Y-62488634D01*
X72655925Y-62491739D01*
X72242616Y-63993386D01*
X72237116Y-64000453D01*
X72228230Y-64001562D01*
X72226870Y-64001096D01*
X71504490Y-63702853D01*
X71498151Y-63696528D01*
X71498143Y-63696510D01*
X71198013Y-62970953D01*
X71198018Y-62961998D01*
X71203583Y-62956021D01*
X71988741Y-62562720D01*
X72157527Y-62478173D01*
X72162767Y-62476934D01*
X72644644Y-62476934D01*
X72652917Y-62480361D01*
G37*
%TD.AperFunction*%
%TD*%
%TA.AperFunction,Conductor*%
%TO.N,Net-(D3-K)*%
G36*
X91015915Y-45238013D02*
G01*
X91018932Y-45240463D01*
X91434196Y-45712270D01*
X91437089Y-45720744D01*
X91434196Y-45727730D01*
X91018932Y-46199536D01*
X91010893Y-46203482D01*
X91007028Y-46203082D01*
X90173579Y-45972374D01*
X90166520Y-45966864D01*
X90165000Y-45961098D01*
X90165000Y-45478901D01*
X90168427Y-45470628D01*
X90173578Y-45467625D01*
X91007030Y-45236917D01*
X91015915Y-45238013D01*
G37*
%TD.AperFunction*%
%TD*%
%TA.AperFunction,Conductor*%
%TO.N,Net-(D4-K)*%
G36*
X46518280Y-32720500D02*
G01*
X46524306Y-32726750D01*
X47213431Y-34417488D01*
X47213380Y-34426443D01*
X47207012Y-34432739D01*
X47202596Y-34433604D01*
X46722516Y-34433604D01*
X46717704Y-34432568D01*
X45370863Y-33824804D01*
X45364731Y-33818278D01*
X45365002Y-33809346D01*
X45718011Y-33023426D01*
X45724522Y-33017288D01*
X46509329Y-32720224D01*
X46518280Y-32720500D01*
G37*
%TD.AperFunction*%
%TD*%
%TA.AperFunction,Conductor*%
%TO.N,Net-(D4-K)*%
G36*
X45972119Y-31423427D02*
G01*
X45973487Y-31425072D01*
X46514490Y-32211985D01*
X46516353Y-32220743D01*
X46513127Y-32226881D01*
X45728278Y-33012711D01*
X45720007Y-33016143D01*
X45711732Y-33012721D01*
X45711722Y-33012711D01*
X44926872Y-32226881D01*
X44923450Y-32218606D01*
X44925507Y-32211988D01*
X45466513Y-31425072D01*
X45474024Y-31420196D01*
X45476154Y-31420000D01*
X45963846Y-31420000D01*
X45972119Y-31423427D01*
G37*
%TD.AperFunction*%
%TD*%
%TA.AperFunction,Conductor*%
%TO.N,Net-(D4-K)*%
G36*
X66290188Y-51343427D02*
G01*
X66292859Y-51347563D01*
X66776367Y-52626613D01*
X66776087Y-52635563D01*
X66773511Y-52639204D01*
X66048087Y-53333261D01*
X66039741Y-53336504D01*
X66031911Y-53333261D01*
X65306487Y-52639202D01*
X65302879Y-52631008D01*
X65303631Y-52626617D01*
X65787141Y-51347562D01*
X65793272Y-51341036D01*
X65798085Y-51340000D01*
X66281915Y-51340000D01*
X66290188Y-51343427D01*
G37*
%TD.AperFunction*%
%TD*%
%TA.AperFunction,Conductor*%
%TO.N,Net-(D4-K)*%
G36*
X48711364Y-26298174D02*
G01*
X49436212Y-26597437D01*
X49442551Y-26603762D01*
X49442562Y-26603787D01*
X49741824Y-27328634D01*
X49741813Y-27337589D01*
X49735822Y-27343763D01*
X48492775Y-27904820D01*
X48483825Y-27905100D01*
X48479689Y-27902429D01*
X48137570Y-27560310D01*
X48134143Y-27552037D01*
X48135179Y-27547224D01*
X48561005Y-26603787D01*
X48696236Y-26304176D01*
X48702763Y-26298046D01*
X48711364Y-26298174D01*
G37*
%TD.AperFunction*%
%TD*%
%TA.AperFunction,Conductor*%
%TO.N,Net-(D4-A)*%
G36*
X46248441Y-23859122D02*
G01*
X46251693Y-23865380D01*
X46517605Y-25386302D01*
X46515654Y-25395042D01*
X46508095Y-25399842D01*
X46506095Y-25400017D01*
X45722341Y-25400997D01*
X45717837Y-25400101D01*
X44993609Y-25099136D01*
X44987284Y-25092797D01*
X44987295Y-25083842D01*
X44988157Y-25082163D01*
X45746567Y-23861220D01*
X45753844Y-23856002D01*
X45756506Y-23855695D01*
X46240168Y-23855695D01*
X46248441Y-23859122D01*
G37*
%TD.AperFunction*%
%TD*%
%TA.AperFunction,Conductor*%
%TO.N,Net-(D4-A)*%
G36*
X46006486Y-22830366D02*
G01*
X46009737Y-22833617D01*
X46795610Y-24013410D01*
X46797345Y-24022195D01*
X46795514Y-24026524D01*
X46253487Y-24814928D01*
X46245976Y-24819804D01*
X46243846Y-24820000D01*
X45756154Y-24820000D01*
X45747881Y-24816573D01*
X45746513Y-24814928D01*
X45204485Y-24026524D01*
X45202622Y-24017766D01*
X45204387Y-24013412D01*
X45990263Y-22833616D01*
X45997701Y-22828631D01*
X46006486Y-22830366D01*
G37*
%TD.AperFunction*%
%TD*%
%TA.AperFunction,Conductor*%
%TO.N,Net-(D5-K)*%
G36*
X20150621Y-17403427D02*
G01*
X20153067Y-17407010D01*
X20496801Y-18192688D01*
X20496978Y-18201641D01*
X20494360Y-18205646D01*
X19708278Y-18992711D01*
X19700007Y-18996143D01*
X19691732Y-18992721D01*
X19691722Y-18992711D01*
X18905639Y-18205646D01*
X18902217Y-18197371D01*
X18903197Y-18192692D01*
X19246933Y-17407009D01*
X19253389Y-17400804D01*
X19257652Y-17400000D01*
X20142348Y-17400000D01*
X20150621Y-17403427D01*
G37*
%TD.AperFunction*%
%TD*%
%TA.AperFunction,Conductor*%
%TO.N,Net-(D5-K)*%
G36*
X22868065Y-7627496D02*
G01*
X22868464Y-7627895D01*
X23702208Y-8504092D01*
X23806705Y-8613910D01*
X23809925Y-8622265D01*
X23808577Y-8627434D01*
X23313292Y-9566259D01*
X23306401Y-9571978D01*
X23302944Y-9572500D01*
X22417056Y-9572500D01*
X22408783Y-9569073D01*
X22406708Y-9566259D01*
X21911422Y-8627434D01*
X21910592Y-8618518D01*
X21913292Y-8613912D01*
X22851524Y-7627906D01*
X22859710Y-7624276D01*
X22868065Y-7627496D01*
G37*
%TD.AperFunction*%
%TD*%
%TA.AperFunction,Conductor*%
%TO.N,Net-(EPROMSOCKEL1-A12)*%
G36*
X76208087Y-38106737D02*
G01*
X76933511Y-38800796D01*
X76937120Y-38808991D01*
X76936367Y-38813386D01*
X76452859Y-40092437D01*
X76446728Y-40098964D01*
X76441915Y-40100000D01*
X75958085Y-40100000D01*
X75949812Y-40096573D01*
X75947141Y-40092437D01*
X75463632Y-38813386D01*
X75463912Y-38804436D01*
X75466484Y-38800800D01*
X76191912Y-38106737D01*
X76200258Y-38103495D01*
X76208087Y-38106737D01*
G37*
%TD.AperFunction*%
%TD*%
%TA.AperFunction,Conductor*%
%TO.N,Net-(EPROMSOCKEL1-VCC)*%
G36*
X73596315Y-78203548D02*
G01*
X73600009Y-78211705D01*
X73600015Y-78212070D01*
X73600997Y-78997658D01*
X73600101Y-79002163D01*
X73298580Y-79727728D01*
X73292241Y-79734053D01*
X73283286Y-79734042D01*
X73282736Y-79733797D01*
X72066333Y-79153178D01*
X72060343Y-79146521D01*
X72059673Y-79142619D01*
X72059673Y-78261326D01*
X72063100Y-78253053D01*
X72070991Y-78249632D01*
X73587936Y-78200391D01*
X73596315Y-78203548D01*
G37*
%TD.AperFunction*%
%TD*%
%TA.AperFunction,Conductor*%
%TO.N,Net-(EPROMSOCKEL1-VCC)*%
G36*
X69405116Y-78774092D02*
G01*
X70028659Y-79397635D01*
X70032086Y-79405908D01*
X70031526Y-79409485D01*
X69543425Y-80929374D01*
X69537632Y-80936204D01*
X69529194Y-80937081D01*
X69525992Y-80936204D01*
X69474918Y-80922213D01*
X68746169Y-80722590D01*
X68739095Y-80717099D01*
X68737814Y-80713733D01*
X68496441Y-79575377D01*
X68498078Y-79566573D01*
X68500112Y-79564207D01*
X68681731Y-79402686D01*
X69389070Y-78773621D01*
X69397527Y-78770685D01*
X69405116Y-78774092D01*
G37*
%TD.AperFunction*%
%TD*%
%TA.AperFunction,Conductor*%
%TO.N,Net-(EPROMSOCKEL1-VCC)*%
G36*
X87003877Y-52649860D02*
G01*
X87222077Y-52740504D01*
X87228403Y-52746843D01*
X87228907Y-52754275D01*
X86852289Y-54191266D01*
X86846876Y-54198400D01*
X86840971Y-54200000D01*
X85959029Y-54200000D01*
X85950756Y-54196573D01*
X85947711Y-54191266D01*
X85571092Y-52754275D01*
X85572310Y-52745404D01*
X85577921Y-52740504D01*
X86395512Y-52400863D01*
X86404465Y-52400855D01*
X87003877Y-52649860D01*
G37*
%TD.AperFunction*%
%TD*%
%TA.AperFunction,Conductor*%
%TO.N,Net-(EPROMSOCKEL1-VCC)*%
G36*
X43584648Y-14763502D02*
G01*
X43585786Y-14768535D01*
X43585786Y-15647131D01*
X43584459Y-15652543D01*
X43144056Y-16496654D01*
X43137191Y-16502404D01*
X43129211Y-16502054D01*
X42403489Y-16201856D01*
X42397154Y-16195527D01*
X42397146Y-16195509D01*
X42322544Y-16014816D01*
X42098086Y-15471148D01*
X42098097Y-15462195D01*
X42103866Y-15456124D01*
X43569053Y-14757972D01*
X43577996Y-14757508D01*
X43584648Y-14763502D01*
G37*
%TD.AperFunction*%
%TD*%
%TA.AperFunction,Conductor*%
%TO.N,Net-(EPROMSOCKEL1-VCC)*%
G36*
X79544640Y-53011787D02*
G01*
X80043685Y-54147751D01*
X80044673Y-54152457D01*
X80044673Y-55032284D01*
X80041246Y-55040557D01*
X80032973Y-55043984D01*
X80028380Y-55043045D01*
X78821606Y-54527910D01*
X78815342Y-54521510D01*
X78814523Y-54517898D01*
X78791092Y-54152457D01*
X78739531Y-53348287D01*
X78742421Y-53339813D01*
X78746645Y-53336766D01*
X79529371Y-53005716D01*
X79538325Y-53005651D01*
X79544640Y-53011787D01*
G37*
%TD.AperFunction*%
%TD*%
%TA.AperFunction,Conductor*%
%TO.N,Net-(EPROMSOCKEL1-VCC)*%
G36*
X45324825Y-14403203D02*
G01*
X45328949Y-14406310D01*
X45994597Y-15192439D01*
X45997328Y-15200968D01*
X45994597Y-15207561D01*
X45328949Y-15993689D01*
X45320988Y-15997788D01*
X45315874Y-15997069D01*
X44407553Y-15652862D01*
X44401031Y-15646726D01*
X44400000Y-15641925D01*
X44400000Y-14758075D01*
X44403426Y-14749805D01*
X44407550Y-14747138D01*
X45315875Y-14402930D01*
X45324825Y-14403203D01*
G37*
%TD.AperFunction*%
%TD*%
%TA.AperFunction,Conductor*%
%TO.N,PB4*%
G36*
X48268494Y-53348033D02*
G01*
X48268766Y-53348328D01*
X48891224Y-54046147D01*
X48947073Y-54108757D01*
X48950023Y-54117212D01*
X48948277Y-54122725D01*
X48161719Y-55387103D01*
X48154439Y-55392318D01*
X48145604Y-55390858D01*
X48143511Y-55389196D01*
X47802550Y-55048235D01*
X47799555Y-55043112D01*
X47540759Y-54117212D01*
X47522785Y-54052905D01*
X47523858Y-54044016D01*
X47525966Y-54041302D01*
X48251953Y-53347656D01*
X48260301Y-53344419D01*
X48268494Y-53348033D01*
G37*
%TD.AperFunction*%
%TD*%
%TA.AperFunction,Conductor*%
%TO.N,PB5*%
G36*
X50808789Y-53347030D02*
G01*
X51533372Y-54040660D01*
X51536978Y-54048857D01*
X51536126Y-54053502D01*
X50955120Y-55488687D01*
X50948839Y-55495070D01*
X50939885Y-55495142D01*
X50936002Y-55492570D01*
X50596341Y-55152909D01*
X50594079Y-55149726D01*
X50064600Y-54053814D01*
X50064087Y-54044874D01*
X50067052Y-54040265D01*
X50792617Y-53347021D01*
X50800964Y-53343785D01*
X50808789Y-53347030D01*
G37*
%TD.AperFunction*%
%TD*%
%TA.AperFunction,Conductor*%
%TO.N,PB6*%
G36*
X53348789Y-53347030D02*
G01*
X54072942Y-54040248D01*
X54076548Y-54048445D01*
X54075373Y-54053817D01*
X53396679Y-55449286D01*
X53389978Y-55455227D01*
X53381040Y-55454691D01*
X53377884Y-55452442D01*
X53037610Y-55112168D01*
X53035054Y-55108324D01*
X52603912Y-54053525D01*
X52603954Y-54044571D01*
X52606657Y-54040642D01*
X53332617Y-53347021D01*
X53340964Y-53343785D01*
X53348789Y-53347030D01*
G37*
%TD.AperFunction*%
%TD*%
%TA.AperFunction,Conductor*%
%TO.N,PB6*%
G36*
X61090247Y-78642035D02*
G01*
X61092189Y-78644604D01*
X61840275Y-79984410D01*
X61841317Y-79993304D01*
X61838360Y-79998360D01*
X61128793Y-80712567D01*
X61120531Y-80716021D01*
X61112410Y-80712780D01*
X60386294Y-80019011D01*
X60382680Y-80010818D01*
X60383300Y-80006786D01*
X60730215Y-78987220D01*
X60733015Y-78982721D01*
X61073702Y-78642034D01*
X61081974Y-78638608D01*
X61090247Y-78642035D01*
G37*
%TD.AperFunction*%
%TD*%
%TA.AperFunction,Conductor*%
%TO.N,PB7*%
G36*
X56130188Y-51343427D02*
G01*
X56132859Y-51347563D01*
X56616367Y-52626613D01*
X56616087Y-52635563D01*
X56613511Y-52639204D01*
X55888088Y-53333261D01*
X55879742Y-53336504D01*
X55871912Y-53333261D01*
X55528502Y-53004700D01*
X55146487Y-52639202D01*
X55142879Y-52631008D01*
X55143631Y-52626617D01*
X55627141Y-51347562D01*
X55633272Y-51341036D01*
X55638085Y-51340000D01*
X56121915Y-51340000D01*
X56130188Y-51343427D01*
G37*
%TD.AperFunction*%
%TD*%
%TA.AperFunction,Conductor*%
%TO.N,PB7*%
G36*
X43050348Y-53003427D02*
G01*
X43052940Y-53007360D01*
X43627210Y-54444867D01*
X43627097Y-54453821D01*
X43620833Y-54460012D01*
X42804488Y-54799135D01*
X42795534Y-54799144D01*
X42795512Y-54799135D01*
X41979166Y-54460012D01*
X41972840Y-54453673D01*
X41972789Y-54444868D01*
X42547060Y-53007358D01*
X42553311Y-53000948D01*
X42557925Y-53000000D01*
X43042075Y-53000000D01*
X43050348Y-53003427D01*
G37*
%TD.AperFunction*%
%TD*%
%TA.AperFunction,Conductor*%
%TO.N,PA2*%
G36*
X50392641Y-44747060D02*
G01*
X50399052Y-44753310D01*
X50400000Y-44757924D01*
X50400000Y-45242075D01*
X50396573Y-45250348D01*
X50392640Y-45252940D01*
X48955132Y-45827210D01*
X48946178Y-45827097D01*
X48939987Y-45820833D01*
X48704075Y-45252940D01*
X48600863Y-45004487D01*
X48600855Y-44995534D01*
X48600864Y-44995512D01*
X48702854Y-44750000D01*
X48939987Y-44179165D01*
X48946326Y-44172840D01*
X48955131Y-44172789D01*
X50392641Y-44747060D01*
G37*
%TD.AperFunction*%
%TD*%
%TA.AperFunction,Conductor*%
%TO.N,PA2*%
G36*
X58670188Y-51343427D02*
G01*
X58672859Y-51347563D01*
X59156367Y-52626613D01*
X59156087Y-52635563D01*
X59153511Y-52639204D01*
X58428087Y-53333261D01*
X58419741Y-53336504D01*
X58411911Y-53333261D01*
X57686487Y-52639202D01*
X57682879Y-52631008D01*
X57683631Y-52626617D01*
X58167141Y-51347562D01*
X58173272Y-51341036D01*
X58178085Y-51340000D01*
X58661915Y-51340000D01*
X58670188Y-51343427D01*
G37*
%TD.AperFunction*%
%TD*%
%TA.AperFunction,Conductor*%
%TO.N,Net-(EPROMSOCKEL1-~{PGM})*%
G36*
X99601527Y-74048883D02*
G01*
X99822012Y-74140477D01*
X99828338Y-74146816D01*
X99828821Y-74154326D01*
X99452332Y-75551562D01*
X99446871Y-75558659D01*
X99441035Y-75560218D01*
X98956906Y-75560218D01*
X98948633Y-75556791D01*
X98946663Y-75554172D01*
X98764248Y-75223698D01*
X98174823Y-74155857D01*
X98173826Y-74146960D01*
X98179413Y-74139962D01*
X98180571Y-74139403D01*
X98995512Y-73800863D01*
X99004465Y-73800855D01*
X99601527Y-74048883D01*
G37*
%TD.AperFunction*%
%TD*%
%TA.AperFunction,Conductor*%
%TO.N,Net-(EPROMSOCKEL1-~{PGM})*%
G36*
X99450348Y-77003427D02*
G01*
X99452940Y-77007360D01*
X100027210Y-78444867D01*
X100027097Y-78453821D01*
X100020833Y-78460012D01*
X99204488Y-78799135D01*
X99195534Y-78799144D01*
X99195512Y-78799135D01*
X98379166Y-78460012D01*
X98372840Y-78453673D01*
X98372789Y-78444868D01*
X98947060Y-77007358D01*
X98953311Y-77000948D01*
X98957925Y-77000000D01*
X99442075Y-77000000D01*
X99450348Y-77003427D01*
G37*
%TD.AperFunction*%
%TD*%
%TA.AperFunction,Conductor*%
%TO.N,Net-(EPROMSOCKEL1-~{PGM})*%
G36*
X89197818Y-85765942D02*
G01*
X89200000Y-85772746D01*
X89200000Y-86239553D01*
X89196573Y-86247826D01*
X89189620Y-86251178D01*
X88413326Y-86339325D01*
X88404719Y-86336854D01*
X88400381Y-86329020D01*
X88402852Y-86320413D01*
X88405196Y-86318187D01*
X89181496Y-85763227D01*
X89190219Y-85761204D01*
X89197818Y-85765942D01*
G37*
%TD.AperFunction*%
%TD*%
%TA.AperFunction,Conductor*%
%TO.N,Net-(EPROMSOCKEL1-~{PGM})*%
G36*
X56412738Y-91101174D02*
G01*
X58016908Y-91249020D01*
X58024831Y-91253192D01*
X58027533Y-91260671D01*
X58027533Y-91744767D01*
X58024106Y-91753040D01*
X58023632Y-91753488D01*
X57044637Y-92629025D01*
X57036186Y-92631986D01*
X57028572Y-92628584D01*
X56402437Y-92003432D01*
X56399005Y-91995162D01*
X56399005Y-91995140D01*
X56399985Y-91112811D01*
X56403421Y-91104544D01*
X56411698Y-91101126D01*
X56412738Y-91101174D01*
G37*
%TD.AperFunction*%
%TD*%
%TA.AperFunction,Conductor*%
%TO.N,Net-(EPROMSOCKEL1-~{PGM})*%
G36*
X97911267Y-72353557D02*
G01*
X99333809Y-72963957D01*
X99340060Y-72970368D01*
X99340009Y-72979175D01*
X99002562Y-73796214D01*
X98996236Y-73802553D01*
X98996214Y-73802562D01*
X98179175Y-74140009D01*
X98170221Y-74140000D01*
X98163957Y-74133809D01*
X97553557Y-72711267D01*
X97553444Y-72702312D01*
X97556034Y-72698382D01*
X97898381Y-72356035D01*
X97906653Y-72352609D01*
X97911267Y-72353557D01*
G37*
%TD.AperFunction*%
%TD*%
%TA.AperFunction,Conductor*%
%TO.N,GND*%
G36*
X78224825Y-72303203D02*
G01*
X78228949Y-72306310D01*
X78894597Y-73092439D01*
X78897328Y-73100968D01*
X78894597Y-73107561D01*
X78228949Y-73893689D01*
X78220988Y-73897788D01*
X78215874Y-73897069D01*
X77307554Y-73552862D01*
X77301032Y-73546726D01*
X77300000Y-73541921D01*
X77300000Y-72658078D01*
X77303427Y-72649805D01*
X77307552Y-72647138D01*
X78215875Y-72302930D01*
X78224825Y-72303203D01*
G37*
%TD.AperFunction*%
%TD*%
%TA.AperFunction,Conductor*%
%TO.N,GND*%
G36*
X28379709Y-47239384D02*
G01*
X28384592Y-47241690D01*
X29837865Y-47928058D01*
X29843882Y-47934689D01*
X29844318Y-47941042D01*
X29602253Y-49093344D01*
X29597199Y-49100736D01*
X29593367Y-49102355D01*
X28454961Y-49358026D01*
X28446138Y-49356495D01*
X28441838Y-49351649D01*
X28422935Y-49312038D01*
X27739427Y-47879724D01*
X27738957Y-47870785D01*
X27741712Y-47866417D01*
X28366440Y-47241689D01*
X28374712Y-47238263D01*
X28379709Y-47239384D01*
G37*
%TD.AperFunction*%
%TD*%
%TA.AperFunction,Conductor*%
%TO.N,GND*%
G36*
X44754010Y-36493616D02*
G01*
X45656302Y-36908419D01*
X45662388Y-36914988D01*
X45663101Y-36918480D01*
X45720305Y-38092471D01*
X45717285Y-38100901D01*
X45713085Y-38103854D01*
X44929173Y-38427581D01*
X44920218Y-38427572D01*
X44914766Y-38422937D01*
X44716730Y-38103854D01*
X44115106Y-37134492D01*
X44113655Y-37125655D01*
X44116772Y-37120051D01*
X44740851Y-36495972D01*
X44749123Y-36492546D01*
X44754010Y-36493616D01*
G37*
%TD.AperFunction*%
%TD*%
%TA.AperFunction,Conductor*%
%TO.N,GND*%
G36*
X93053196Y-17813565D02*
G01*
X94335616Y-18563363D01*
X94341028Y-18570496D01*
X94340524Y-18577928D01*
X94002562Y-19396214D01*
X93996236Y-19402553D01*
X93996214Y-19402562D01*
X93177928Y-19740524D01*
X93168974Y-19740515D01*
X93163363Y-19735616D01*
X92413565Y-18453197D01*
X92412348Y-18444329D01*
X92415391Y-18439024D01*
X93039023Y-17815392D01*
X93047295Y-17811966D01*
X93053196Y-17813565D01*
G37*
%TD.AperFunction*%
%TD*%
%TA.AperFunction,Conductor*%
%TO.N,GND*%
G36*
X84652868Y-9143673D02*
G01*
X84653813Y-9144743D01*
X85611331Y-10373137D01*
X85613714Y-10381769D01*
X85610376Y-10388603D01*
X84987149Y-11011830D01*
X84978876Y-11015257D01*
X84973821Y-11014108D01*
X84498275Y-10786234D01*
X83783836Y-10443887D01*
X83777856Y-10437222D01*
X83778076Y-10428873D01*
X84078401Y-9701452D01*
X84080948Y-9697641D01*
X84636324Y-9143651D01*
X84644600Y-9140236D01*
X84652868Y-9143673D01*
G37*
%TD.AperFunction*%
%TD*%
%TA.AperFunction,Conductor*%
%TO.N,GND*%
G36*
X74820132Y-72656507D02*
G01*
X74826377Y-72662925D01*
X74827208Y-72667255D01*
X74827208Y-73546551D01*
X74825338Y-73552896D01*
X74344393Y-74297952D01*
X74337027Y-74303045D01*
X74330091Y-74302419D01*
X74164410Y-74233884D01*
X73603489Y-74001856D01*
X73597154Y-73995527D01*
X73597146Y-73995509D01*
X73414408Y-73552896D01*
X73298373Y-73271844D01*
X73298384Y-73262890D01*
X73304722Y-73256565D01*
X74811179Y-72656386D01*
X74820132Y-72656507D01*
G37*
%TD.AperFunction*%
%TD*%
%TA.AperFunction,Conductor*%
%TO.N,GND*%
G36*
X63786240Y-22828757D02*
G01*
X64341667Y-23778813D01*
X64342884Y-23787685D01*
X64340767Y-23791945D01*
X63540659Y-24810666D01*
X63532854Y-24815055D01*
X63524231Y-24812640D01*
X63523185Y-24811712D01*
X63181643Y-24470170D01*
X63178362Y-24463740D01*
X62981350Y-23228466D01*
X62983431Y-23219758D01*
X62987666Y-23216163D01*
X63770903Y-22824198D01*
X63779835Y-22823561D01*
X63786240Y-22828757D01*
G37*
%TD.AperFunction*%
%TD*%
%TA.AperFunction,Conductor*%
%TO.N,GND*%
G36*
X64228899Y-20823427D02*
G01*
X64232044Y-20829149D01*
X64517664Y-22107411D01*
X64516124Y-22116232D01*
X64514334Y-22118416D01*
X63788088Y-22813261D01*
X63779742Y-22816504D01*
X63771912Y-22813261D01*
X63045665Y-22118416D01*
X63042056Y-22110220D01*
X63042335Y-22107411D01*
X63327956Y-20829149D01*
X63333104Y-20821822D01*
X63339374Y-20820000D01*
X64220626Y-20820000D01*
X64228899Y-20823427D01*
G37*
%TD.AperFunction*%
%TD*%
%TA.AperFunction,Conductor*%
%TO.N,GND*%
G36*
X43219800Y-19757060D02*
G01*
X43842939Y-20380199D01*
X43846366Y-20388472D01*
X43844544Y-20394742D01*
X43144368Y-21497853D01*
X43137041Y-21503001D01*
X43130025Y-21502398D01*
X42403787Y-21202562D01*
X42397448Y-21196237D01*
X42397437Y-21196212D01*
X42097601Y-20469974D01*
X42097612Y-20461019D01*
X42102143Y-20455633D01*
X43205258Y-19755454D01*
X43214078Y-19753915D01*
X43219800Y-19757060D01*
G37*
%TD.AperFunction*%
%TD*%
%TA.AperFunction,Conductor*%
%TO.N,GND*%
G36*
X73293088Y-73264577D02*
G01*
X73297622Y-73269965D01*
X73599134Y-73995510D01*
X73599144Y-74004463D01*
X73599135Y-74004485D01*
X73599134Y-74004490D01*
X73297622Y-74730034D01*
X73291283Y-74736359D01*
X73284267Y-74736962D01*
X72009149Y-74452044D01*
X72001822Y-74446896D01*
X72000000Y-74440626D01*
X72000000Y-73559373D01*
X72003427Y-73551100D01*
X72009146Y-73547956D01*
X73284269Y-73263037D01*
X73293088Y-73264577D01*
G37*
%TD.AperFunction*%
%TD*%
%TA.AperFunction,Conductor*%
%TO.N,GND*%
G36*
X93654595Y-18572310D02*
G01*
X93659495Y-18577922D01*
X93999135Y-19395512D01*
X93999144Y-19404466D01*
X93999135Y-19404488D01*
X93659495Y-20222077D01*
X93653156Y-20228403D01*
X93645724Y-20228907D01*
X92208734Y-19852289D01*
X92201600Y-19846876D01*
X92200000Y-19840971D01*
X92200000Y-18959028D01*
X92203427Y-18950755D01*
X92208731Y-18947711D01*
X93645725Y-18571092D01*
X93654595Y-18572310D01*
G37*
%TD.AperFunction*%
%TD*%
%TA.AperFunction,Conductor*%
%TO.N,GND*%
G36*
X61192437Y-26347141D02*
G01*
X61198964Y-26353272D01*
X61200000Y-26358085D01*
X61200000Y-26841914D01*
X61196573Y-26850187D01*
X61192437Y-26852858D01*
X59916741Y-27335099D01*
X59907791Y-27334819D01*
X59901801Y-27328646D01*
X59600864Y-26604487D01*
X59600854Y-26595538D01*
X59901801Y-25871352D01*
X59908139Y-25865029D01*
X59916739Y-25864900D01*
X61192437Y-26347141D01*
G37*
%TD.AperFunction*%
%TD*%
%TA.AperFunction,Conductor*%
%TO.N,GND*%
G36*
X69546826Y-72552763D02*
G01*
X69974340Y-72912260D01*
X70431694Y-73296851D01*
X70435821Y-73304799D01*
X70433119Y-73313336D01*
X70432437Y-73314079D01*
X69805060Y-73941457D01*
X69549862Y-74246081D01*
X69541922Y-74250222D01*
X69533379Y-74247536D01*
X69531268Y-74245219D01*
X69321331Y-73941457D01*
X69168538Y-73720377D01*
X68745951Y-73108926D01*
X68744066Y-73100172D01*
X68748922Y-73092651D01*
X69532657Y-72552087D01*
X69541411Y-72550211D01*
X69546826Y-72552763D01*
G37*
%TD.AperFunction*%
%TD*%
%TA.AperFunction,Conductor*%
%TO.N,GND*%
G36*
X37105729Y-5002239D02*
G01*
X38023199Y-5540396D01*
X38028601Y-5547538D01*
X38027696Y-5555814D01*
X37142675Y-7286723D01*
X37135858Y-7292529D01*
X37126932Y-7291814D01*
X37123985Y-7289670D01*
X36500911Y-6666596D01*
X36498086Y-6662028D01*
X36087184Y-5431288D01*
X36087815Y-5422358D01*
X36093799Y-5416778D01*
X37095328Y-5001522D01*
X37104283Y-5001520D01*
X37105729Y-5002239D01*
G37*
%TD.AperFunction*%
%TD*%
%TA.AperFunction,Conductor*%
%TO.N,GND*%
G36*
X43130035Y-21502378D02*
G01*
X43136359Y-21508716D01*
X43136962Y-21515732D01*
X42852044Y-22790851D01*
X42846896Y-22798178D01*
X42840626Y-22800000D01*
X41959374Y-22800000D01*
X41951101Y-22796573D01*
X41947956Y-22790851D01*
X41865307Y-22420968D01*
X41663037Y-21515730D01*
X41664577Y-21506911D01*
X41669962Y-21502379D01*
X42395512Y-21200864D01*
X42404461Y-21200854D01*
X43130035Y-21502378D01*
G37*
%TD.AperFunction*%
%TD*%
%TA.AperFunction,Conductor*%
%TO.N,Net-(T2-B)*%
G36*
X91850188Y-71103427D02*
G01*
X91852859Y-71107563D01*
X92336367Y-72386613D01*
X92336087Y-72395563D01*
X92333511Y-72399204D01*
X91608087Y-73093261D01*
X91599741Y-73096504D01*
X91591911Y-73093261D01*
X90866487Y-72399202D01*
X90862879Y-72391008D01*
X90863631Y-72386617D01*
X91347141Y-71107562D01*
X91353272Y-71101036D01*
X91358085Y-71100000D01*
X91841915Y-71100000D01*
X91850188Y-71103427D01*
G37*
%TD.AperFunction*%
%TD*%
%TA.AperFunction,Conductor*%
%TO.N,Net-(T2-B)*%
G36*
X10642613Y-6933493D02*
G01*
X11341740Y-7451021D01*
X11346351Y-7458698D01*
X11344183Y-7467386D01*
X11343052Y-7468698D01*
X11002444Y-7809306D01*
X10994368Y-7812731D01*
X10272850Y-7824867D01*
X10264520Y-7821580D01*
X10261902Y-7817785D01*
X10259732Y-7812731D01*
X10043262Y-7308539D01*
X10043148Y-7299587D01*
X10047841Y-7293986D01*
X10629484Y-6932956D01*
X10638319Y-6931506D01*
X10642613Y-6933493D01*
G37*
%TD.AperFunction*%
%TD*%
%TA.AperFunction,Conductor*%
%TO.N,Net-(T2-B)*%
G36*
X14250188Y-11003427D02*
G01*
X14252859Y-11007563D01*
X14735099Y-12283258D01*
X14734819Y-12292208D01*
X14728645Y-12298199D01*
X14004490Y-12599134D01*
X13995536Y-12599144D01*
X13271353Y-12298198D01*
X13265029Y-12291860D01*
X13264900Y-12283260D01*
X13747141Y-11007562D01*
X13753272Y-11001036D01*
X13758085Y-11000000D01*
X14241915Y-11000000D01*
X14250188Y-11003427D01*
G37*
%TD.AperFunction*%
%TD*%
%TA.AperFunction,Conductor*%
%TO.N,Net-(T2-B)*%
G36*
X51792641Y-28547060D02*
G01*
X51799052Y-28553310D01*
X51800000Y-28557924D01*
X51800000Y-29042075D01*
X51796573Y-29050348D01*
X51792640Y-29052940D01*
X50355132Y-29627210D01*
X50346178Y-29627097D01*
X50339987Y-29620833D01*
X50000864Y-28804487D01*
X50000855Y-28795534D01*
X50339987Y-27979165D01*
X50346326Y-27972840D01*
X50355131Y-27972789D01*
X51792641Y-28547060D01*
G37*
%TD.AperFunction*%
%TD*%
%TA.AperFunction,Conductor*%
%TO.N,Net-(D2-A)*%
G36*
X4861747Y-6823915D02*
G01*
X5512900Y-7122662D01*
X5799374Y-7254096D01*
X5805464Y-7260660D01*
X5805129Y-7269609D01*
X5802768Y-7273003D01*
X5463290Y-7612481D01*
X5458140Y-7615484D01*
X4852980Y-7783078D01*
X4844092Y-7781983D01*
X4841066Y-7779523D01*
X4426186Y-7307141D01*
X4423301Y-7298663D01*
X4426312Y-7291558D01*
X4848205Y-6826686D01*
X4856303Y-6822864D01*
X4861747Y-6823915D01*
G37*
%TD.AperFunction*%
%TD*%
%TA.AperFunction,Conductor*%
%TO.N,Net-(D2-A)*%
G36*
X13052775Y-14495179D02*
G01*
X14295822Y-15056236D01*
X14301953Y-15062763D01*
X14301824Y-15071365D01*
X14002562Y-15796212D01*
X13996237Y-15802551D01*
X13996212Y-15802562D01*
X13271365Y-16101824D01*
X13262410Y-16101813D01*
X13256236Y-16095822D01*
X12695179Y-14852775D01*
X12694899Y-14843825D01*
X12697568Y-14839691D01*
X13039690Y-14497569D01*
X13047962Y-14494143D01*
X13052775Y-14495179D01*
G37*
%TD.AperFunction*%
%TD*%
%TA.AperFunction,Conductor*%
%TO.N,Net-(T3-B)*%
G36*
X78908789Y-80727030D02*
G01*
X79632816Y-81420128D01*
X79636422Y-81428324D01*
X79635146Y-81433899D01*
X78928529Y-82818009D01*
X78921715Y-82823819D01*
X78912788Y-82823110D01*
X78909835Y-82820962D01*
X78569409Y-82480536D01*
X78566769Y-82476481D01*
X78163709Y-81433429D01*
X78163925Y-81424477D01*
X78166541Y-81420753D01*
X78892617Y-80727021D01*
X78900964Y-80723785D01*
X78908789Y-80727030D01*
G37*
%TD.AperFunction*%
%TD*%
%TA.AperFunction,Conductor*%
%TO.N,Net-(T3-B)*%
G36*
X37428646Y-45781801D02*
G01*
X37434970Y-45788139D01*
X37435099Y-45796741D01*
X36952859Y-47072437D01*
X36946728Y-47078964D01*
X36941915Y-47080000D01*
X36458085Y-47080000D01*
X36449812Y-47076573D01*
X36447141Y-47072437D01*
X35964900Y-45796739D01*
X35965180Y-45787791D01*
X35971352Y-45781801D01*
X36695512Y-45480864D01*
X36704461Y-45480854D01*
X37428646Y-45781801D01*
G37*
%TD.AperFunction*%
%TD*%
%TA.AperFunction,Conductor*%
%TO.N,Net-(T4-B)*%
G36*
X95560613Y-44200447D02*
G01*
X96888748Y-44249583D01*
X96896887Y-44253313D01*
X96900014Y-44261260D01*
X96900993Y-45045139D01*
X96897576Y-45053417D01*
X96897559Y-45053434D01*
X96343243Y-45606771D01*
X96334967Y-45610191D01*
X96326697Y-45606757D01*
X96326098Y-45606110D01*
X95551349Y-44703287D01*
X95548528Y-44695668D01*
X95548528Y-44212140D01*
X95551955Y-44203867D01*
X95560228Y-44200440D01*
X95560613Y-44200447D01*
G37*
%TD.AperFunction*%
%TD*%
%TA.AperFunction,Conductor*%
%TO.N,Net-(T4-B)*%
G36*
X91872966Y-43966916D02*
G01*
X92706421Y-44197625D01*
X92713480Y-44203135D01*
X92715000Y-44208901D01*
X92715000Y-44691098D01*
X92711573Y-44699371D01*
X92706421Y-44702374D01*
X91872971Y-44933082D01*
X91864084Y-44931986D01*
X91861067Y-44929536D01*
X91445802Y-44457728D01*
X91442910Y-44449256D01*
X91445802Y-44442271D01*
X91861068Y-43970462D01*
X91869106Y-43966517D01*
X91872966Y-43966916D01*
G37*
%TD.AperFunction*%
%TD*%
%TA.AperFunction,Conductor*%
%TO.N,Net-(IC2-O1)*%
G36*
X58779210Y-71084045D02*
G01*
X58780681Y-71085291D01*
X59121974Y-71426584D01*
X59125170Y-71432543D01*
X59317829Y-72387533D01*
X59316106Y-72396321D01*
X59314443Y-72398306D01*
X58590002Y-73090475D01*
X58581653Y-73093713D01*
X58573460Y-73090099D01*
X58571818Y-73087921D01*
X58018139Y-72140856D01*
X58016922Y-72131984D01*
X58018721Y-72128149D01*
X58762891Y-71086760D01*
X58770487Y-71082023D01*
X58779210Y-71084045D01*
G37*
%TD.AperFunction*%
%TD*%
%TA.AperFunction,Conductor*%
%TO.N,Net-(IC2-O1)*%
G36*
X83190376Y-72772914D02*
G01*
X83318868Y-72825976D01*
X83973085Y-73096145D01*
X83979424Y-73102470D01*
X83980305Y-73107528D01*
X83923172Y-74280060D01*
X83919347Y-74288157D01*
X83914478Y-74290802D01*
X82871695Y-74566644D01*
X82862821Y-74565447D01*
X82860430Y-74563606D01*
X82517407Y-74220583D01*
X82513980Y-74212310D01*
X82515059Y-74207402D01*
X83175290Y-72778818D01*
X83181871Y-72772747D01*
X83190376Y-72772914D01*
G37*
%TD.AperFunction*%
%TD*%
%TA.AperFunction,Conductor*%
%TO.N,Net-(EPROMSOCKEL1-A13)*%
G36*
X77624338Y-58902588D02*
G01*
X77629866Y-58907733D01*
X78168894Y-59911794D01*
X78169788Y-59920704D01*
X78166859Y-59925601D01*
X77825732Y-60266728D01*
X77817459Y-60270155D01*
X77811717Y-60268649D01*
X77074733Y-59853515D01*
X77069206Y-59846469D01*
X77068785Y-59842845D01*
X77098977Y-59106992D01*
X77102739Y-59098870D01*
X77106490Y-59096546D01*
X77615388Y-58902336D01*
X77624338Y-58902588D01*
G37*
%TD.AperFunction*%
%TD*%
%TA.AperFunction,Conductor*%
%TO.N,Net-(EPROMSOCKEL1-A13)*%
G36*
X77351194Y-57828427D02*
G01*
X77353285Y-57831271D01*
X77621698Y-58343697D01*
X77622501Y-58352616D01*
X77620923Y-58355829D01*
X77109589Y-59087282D01*
X77102041Y-59092100D01*
X77093297Y-59090168D01*
X77090411Y-59087283D01*
X76579076Y-58355830D01*
X76577144Y-58347085D01*
X76578299Y-58343700D01*
X76846715Y-57831270D01*
X76853589Y-57825533D01*
X76857079Y-57825000D01*
X77342921Y-57825000D01*
X77351194Y-57828427D01*
G37*
%TD.AperFunction*%
%TD*%
%TA.AperFunction,Conductor*%
%TO.N,Net-(EPROMSOCKEL1-A13)*%
G36*
X68192208Y-62465180D02*
G01*
X68198199Y-62471354D01*
X68499134Y-63195510D01*
X68499144Y-63204463D01*
X68499135Y-63204485D01*
X68499134Y-63204490D01*
X68198199Y-63928645D01*
X68191860Y-63934970D01*
X68183258Y-63935099D01*
X66907563Y-63452858D01*
X66901036Y-63446727D01*
X66900000Y-63441914D01*
X66900000Y-62958085D01*
X66903427Y-62949812D01*
X66907563Y-62947141D01*
X68183260Y-62464900D01*
X68192208Y-62465180D01*
G37*
%TD.AperFunction*%
%TD*%
%TA.AperFunction,Conductor*%
%TO.N,Net-(IC2-LE)*%
G36*
X47229778Y-87459999D02*
G01*
X47236042Y-87466190D01*
X47846442Y-88888732D01*
X47846555Y-88897687D01*
X47843963Y-88901619D01*
X47501619Y-89243963D01*
X47493346Y-89247390D01*
X47488732Y-89246442D01*
X46066190Y-88636042D01*
X46059939Y-88629631D01*
X46059989Y-88620826D01*
X46397438Y-87803783D01*
X46403761Y-87797447D01*
X47220826Y-87459990D01*
X47229778Y-87459999D01*
G37*
%TD.AperFunction*%
%TD*%
%TA.AperFunction,Conductor*%
%TO.N,Net-(IC2-LE)*%
G36*
X84471364Y-85348174D02*
G01*
X85196212Y-85647437D01*
X85202551Y-85653762D01*
X85202562Y-85653787D01*
X85501824Y-86378634D01*
X85501813Y-86387589D01*
X85495822Y-86393763D01*
X84252775Y-86954820D01*
X84243825Y-86955100D01*
X84239689Y-86952429D01*
X83897570Y-86610310D01*
X83894143Y-86602037D01*
X83895179Y-86597224D01*
X84321005Y-85653787D01*
X84456236Y-85354176D01*
X84462763Y-85348046D01*
X84471364Y-85348174D01*
G37*
%TD.AperFunction*%
%TD*%
%TA.AperFunction,Conductor*%
%TO.N,Net-(IC2-O5)*%
G36*
X94947433Y-72458044D02*
G01*
X95778960Y-73226090D01*
X95782712Y-73234221D01*
X95779616Y-73242624D01*
X95779294Y-73242958D01*
X95434350Y-73587903D01*
X94949182Y-74077430D01*
X94940924Y-74080894D01*
X94932636Y-74077504D01*
X94931784Y-74076563D01*
X94248709Y-73234221D01*
X94146667Y-73108387D01*
X94144119Y-73099804D01*
X94148385Y-73091932D01*
X94932134Y-72457544D01*
X94940719Y-72455003D01*
X94947433Y-72458044D01*
G37*
%TD.AperFunction*%
%TD*%
%TA.AperFunction,Conductor*%
%TO.N,Net-(IC2-O5)*%
G36*
X91782598Y-87518299D02*
G01*
X91783111Y-87519375D01*
X92083128Y-88241322D01*
X92083139Y-88250277D01*
X92083131Y-88250295D01*
X91782406Y-88975331D01*
X91776071Y-88981660D01*
X91767653Y-88981862D01*
X90742381Y-88614529D01*
X90738054Y-88611788D01*
X90397454Y-88271188D01*
X90394027Y-88262915D01*
X90397454Y-88254642D01*
X90400161Y-88252624D01*
X90404501Y-88250277D01*
X91766743Y-87513573D01*
X91775649Y-87512652D01*
X91782598Y-87518299D01*
G37*
%TD.AperFunction*%
%TD*%
%TA.AperFunction,Conductor*%
%TO.N,Net-(IC2-O5)*%
G36*
X61412035Y-93300385D02*
G01*
X62949390Y-93349637D01*
X62957549Y-93353327D01*
X62960715Y-93361331D01*
X62960715Y-93845375D01*
X62957552Y-93853375D01*
X62044653Y-94827583D01*
X62036496Y-94831277D01*
X62028116Y-94828120D01*
X62027865Y-94827878D01*
X61402437Y-94203432D01*
X61399005Y-94195162D01*
X61399005Y-94195140D01*
X61399385Y-93853375D01*
X61399986Y-93312065D01*
X61403422Y-93303798D01*
X61411699Y-93300380D01*
X61412035Y-93300385D01*
G37*
%TD.AperFunction*%
%TD*%
%TA.AperFunction,Conductor*%
%TO.N,Net-(IC2-O5)*%
G36*
X97150348Y-75603427D02*
G01*
X97152940Y-75607360D01*
X97727210Y-77044867D01*
X97727097Y-77053821D01*
X97720833Y-77060012D01*
X96904488Y-77399135D01*
X96895534Y-77399144D01*
X96895512Y-77399135D01*
X96079166Y-77060012D01*
X96072840Y-77053673D01*
X96072789Y-77044868D01*
X96647060Y-75607358D01*
X96653311Y-75600948D01*
X96657925Y-75600000D01*
X97142075Y-75600000D01*
X97150348Y-75603427D01*
G37*
%TD.AperFunction*%
%TD*%
%TA.AperFunction,Conductor*%
%TO.N,Net-(T1-C)*%
G36*
X36007313Y-14207566D02*
G01*
X37091285Y-15151540D01*
X37095273Y-15159556D01*
X37092424Y-15168046D01*
X37091646Y-15168857D01*
X36006992Y-16196025D01*
X35998629Y-16199226D01*
X35992157Y-16197058D01*
X35990707Y-16196025D01*
X35004910Y-15493499D01*
X35000161Y-15485907D01*
X35000000Y-15483971D01*
X35000000Y-14995672D01*
X35003427Y-14987399D01*
X35004447Y-14986491D01*
X35992386Y-14207203D01*
X36001002Y-14204771D01*
X36007313Y-14207566D01*
G37*
%TD.AperFunction*%
%TD*%
%TA.AperFunction,Conductor*%
%TO.N,Net-(T1-C)*%
G36*
X33475953Y-14244830D02*
G01*
X33476015Y-14244858D01*
X35113130Y-14986886D01*
X35119251Y-14993422D01*
X35120000Y-14997542D01*
X35120000Y-15482457D01*
X35116573Y-15490730D01*
X35113130Y-15493113D01*
X33476015Y-16235141D01*
X33467065Y-16235436D01*
X33460529Y-16229315D01*
X33460501Y-16229253D01*
X33340715Y-15960854D01*
X33021126Y-15244765D01*
X33020884Y-15235817D01*
X33021114Y-15235262D01*
X33460501Y-14250745D01*
X33467002Y-14244587D01*
X33475953Y-14244830D01*
G37*
%TD.AperFunction*%
%TD*%
%TA.AperFunction,Conductor*%
%TO.N,SP1*%
G36*
X102450348Y-77003427D02*
G01*
X102452940Y-77007360D01*
X103027210Y-78444867D01*
X103027097Y-78453821D01*
X103020833Y-78460012D01*
X102204487Y-78799135D01*
X102195533Y-78799144D01*
X102195511Y-78799135D01*
X101379166Y-78460012D01*
X101372840Y-78453673D01*
X101372789Y-78444868D01*
X101947060Y-77007358D01*
X101953311Y-77000948D01*
X101957925Y-77000000D01*
X102442075Y-77000000D01*
X102450348Y-77003427D01*
G37*
%TD.AperFunction*%
%TD*%
%TA.AperFunction,Conductor*%
%TO.N,SP1*%
G36*
X99804487Y-65600864D02*
G01*
X100620833Y-65939987D01*
X100627159Y-65946326D01*
X100627210Y-65955132D01*
X100052940Y-67392640D01*
X100046689Y-67399052D01*
X100042075Y-67400000D01*
X99557925Y-67400000D01*
X99549652Y-67396573D01*
X99547060Y-67392640D01*
X98972789Y-65955132D01*
X98972902Y-65946178D01*
X98979165Y-65939987D01*
X99795512Y-65600863D01*
X99804465Y-65600855D01*
X99804487Y-65600864D01*
G37*
%TD.AperFunction*%
%TD*%
%TA.AperFunction,Conductor*%
%TO.N,Net-(IC1-Reset)*%
G36*
X58708789Y-15207030D02*
G01*
X59432879Y-15900188D01*
X59436485Y-15908385D01*
X59435260Y-15913859D01*
X58742605Y-17303649D01*
X58735847Y-17309525D01*
X58726914Y-17308902D01*
X58723860Y-17306703D01*
X58383509Y-16966352D01*
X58380910Y-16962402D01*
X57963811Y-15913478D01*
X57963938Y-15904524D01*
X57966597Y-15900699D01*
X58692617Y-15207021D01*
X58700964Y-15203785D01*
X58708789Y-15207030D01*
G37*
%TD.AperFunction*%
%TD*%
%TA.AperFunction,Conductor*%
%TO.N,Net-(IC1-Reset)*%
G36*
X48670188Y-71103427D02*
G01*
X48672859Y-71107563D01*
X49156367Y-72386613D01*
X49156087Y-72395563D01*
X49153511Y-72399204D01*
X48428088Y-73093261D01*
X48419742Y-73096504D01*
X48411912Y-73093261D01*
X48068502Y-72764700D01*
X47686487Y-72399202D01*
X47682879Y-72391008D01*
X47683631Y-72386617D01*
X48167141Y-71107562D01*
X48173272Y-71101036D01*
X48178085Y-71100000D01*
X48661915Y-71100000D01*
X48670188Y-71103427D01*
G37*
%TD.AperFunction*%
%TD*%
%TA.AperFunction,Conductor*%
%TO.N,Net-(IC2-O6)*%
G36*
X80484869Y-79027436D02*
G01*
X81226663Y-79384194D01*
X81550346Y-79539866D01*
X81556316Y-79546540D01*
X81556918Y-79551567D01*
X81441457Y-80713151D01*
X81437228Y-80721045D01*
X81433499Y-80723098D01*
X80651216Y-80982712D01*
X80642285Y-80982066D01*
X80636427Y-80975293D01*
X80636390Y-80975182D01*
X80552334Y-80713151D01*
X80126022Y-79384192D01*
X80126758Y-79375269D01*
X80128887Y-79372350D01*
X80471530Y-79029707D01*
X80479802Y-79026281D01*
X80484869Y-79027436D01*
G37*
%TD.AperFunction*%
%TD*%
%TA.AperFunction,Conductor*%
%TO.N,Net-(IC2-O6)*%
G36*
X58587382Y-80727022D02*
G01*
X58587391Y-80727030D01*
X59313519Y-81420811D01*
X59317133Y-81429004D01*
X59316391Y-81433379D01*
X58927371Y-82470557D01*
X58924689Y-82474721D01*
X58584191Y-82815219D01*
X58575918Y-82818646D01*
X58567645Y-82815219D01*
X58565551Y-82812369D01*
X57844968Y-81433938D01*
X57844173Y-81425020D01*
X57847247Y-81420067D01*
X58571211Y-80727029D01*
X58579556Y-80723785D01*
X58587382Y-80727022D01*
G37*
%TD.AperFunction*%
%TD*%
%TA.AperFunction,Conductor*%
%TO.N,Net-(IC2-O7)*%
G36*
X66207382Y-80727022D02*
G01*
X66933168Y-81420475D01*
X66936782Y-81428668D01*
X66935789Y-81433658D01*
X66462512Y-82506075D01*
X66460081Y-82509624D01*
X66120054Y-82849651D01*
X66111781Y-82853078D01*
X66103508Y-82849651D01*
X66101115Y-82846187D01*
X65949377Y-82509624D01*
X65464294Y-81433686D01*
X65464019Y-81424737D01*
X65466867Y-81420430D01*
X66191211Y-80727029D01*
X66199556Y-80723785D01*
X66207382Y-80727022D01*
G37*
%TD.AperFunction*%
%TD*%
%TA.AperFunction,Conductor*%
%TO.N,Net-(IC2-O7)*%
G36*
X86770188Y-78723427D02*
G01*
X86772859Y-78727563D01*
X87256367Y-80006613D01*
X87256087Y-80015563D01*
X87253511Y-80019204D01*
X86528088Y-80713261D01*
X86519742Y-80716504D01*
X86511912Y-80713261D01*
X86168502Y-80384700D01*
X85786487Y-80019202D01*
X85782879Y-80011008D01*
X85783631Y-80006617D01*
X86267141Y-78727562D01*
X86273272Y-78721036D01*
X86278085Y-78720000D01*
X86761915Y-78720000D01*
X86770188Y-78723427D01*
G37*
%TD.AperFunction*%
%TD*%
M02*
