%TF.GenerationSoftware,KiCad,Pcbnew,7.0.7*%
%TF.CreationDate,2024-05-12T11:23:56+02:00*%
%TF.ProjectId,Projekt,50726f6a-656b-4742-9e6b-696361645f70,rev?*%
%TF.SameCoordinates,Original*%
%TF.FileFunction,Other,User*%
%FSLAX46Y46*%
G04 Gerber Fmt 4.6, Leading zero omitted, Abs format (unit mm)*
G04 Created by KiCad (PCBNEW 7.0.7) date 2024-05-12 11:23:56*
%MOMM*%
%LPD*%
G01*
G04 APERTURE LIST*
%ADD10C,0.050000*%
G04 APERTURE END LIST*
D10*
%TO.C,D3*%
X70300000Y-68250000D02*
X70300000Y-65750000D01*
X70300000Y-65750000D02*
X55500000Y-65750000D01*
X55500000Y-68250000D02*
X70300000Y-68250000D01*
X55500000Y-65750000D02*
X55500000Y-68250000D01*
%TO.C,D1*%
X31350000Y-6050000D02*
X31350000Y-3550000D01*
X31350000Y-3550000D02*
X21630000Y-3550000D01*
X21630000Y-6050000D02*
X31350000Y-6050000D01*
X21630000Y-3550000D02*
X21630000Y-6050000D01*
%TO.C,Z2*%
X35500000Y-16510000D02*
X38700000Y-16510000D01*
X38700000Y-16510000D02*
X38700000Y-3650000D01*
X35500000Y-3650000D02*
X35500000Y-16510000D01*
X38700000Y-3650000D02*
X35500000Y-3650000D01*
%TO.C,Z1*%
X34620000Y-3730000D02*
X31420000Y-3730000D01*
X31420000Y-3730000D02*
X31420000Y-16590000D01*
X34620000Y-16590000D02*
X34620000Y-3730000D01*
X31420000Y-16590000D02*
X34620000Y-16590000D01*
%TO.C,D6*%
X20750000Y-32770000D02*
X18250000Y-32770000D01*
X18250000Y-32770000D02*
X18250000Y-45030000D01*
X20750000Y-45030000D02*
X20750000Y-32770000D01*
X18250000Y-45030000D02*
X20750000Y-45030000D01*
%TO.C,D5*%
X20950000Y-17950000D02*
X18450000Y-17950000D01*
X18450000Y-17950000D02*
X18450000Y-30210000D01*
X20950000Y-30210000D02*
X20950000Y-17950000D01*
X18450000Y-30210000D02*
X20950000Y-30210000D01*
%TO.C,D7*%
X20550000Y-55650000D02*
X18050000Y-55650000D01*
X18050000Y-55650000D02*
X18050000Y-70450000D01*
X20550000Y-70450000D02*
X20550000Y-55650000D01*
X18050000Y-70450000D02*
X20550000Y-70450000D01*
%TO.C,D4*%
X44470000Y-34070000D02*
X46970000Y-34070000D01*
X46970000Y-34070000D02*
X46970000Y-24350000D01*
X44470000Y-24350000D02*
X44470000Y-34070000D01*
X46970000Y-24350000D02*
X44470000Y-24350000D01*
%TO.C,D2*%
X78960000Y-24150000D02*
X78960000Y-26650000D01*
X78960000Y-26650000D02*
X88680000Y-26650000D01*
X88680000Y-24150000D02*
X78960000Y-24150000D01*
X88680000Y-26650000D02*
X88680000Y-24150000D01*
%TO.C,D8*%
X20550000Y-73200000D02*
X18050000Y-73200000D01*
X18050000Y-73200000D02*
X18050000Y-88000000D01*
X20550000Y-88000000D02*
X20550000Y-73200000D01*
X18050000Y-88000000D02*
X20550000Y-88000000D01*
%TO.C,C  1*%
X14650000Y-55850000D02*
X4150000Y-55850000D01*
X4150000Y-55850000D02*
X4150000Y-88750000D01*
X14650000Y-88750000D02*
X14650000Y-55850000D01*
X4150000Y-88750000D02*
X14650000Y-88750000D01*
%TO.C,C  4*%
X34850000Y-17650000D02*
X24350000Y-17650000D01*
X24350000Y-17650000D02*
X24350000Y-50550000D01*
X34850000Y-50550000D02*
X34850000Y-17650000D01*
X24350000Y-50550000D02*
X34850000Y-50550000D01*
%TO.C,C  3*%
X14650000Y-17450000D02*
X4150000Y-17450000D01*
X4150000Y-17450000D02*
X4150000Y-50350000D01*
X14650000Y-50350000D02*
X14650000Y-17450000D01*
X4150000Y-50350000D02*
X14650000Y-50350000D01*
%TO.C,C  2*%
X34750000Y-55550000D02*
X24250000Y-55550000D01*
X24250000Y-55550000D02*
X24250000Y-88450000D01*
X34750000Y-88450000D02*
X34750000Y-55550000D01*
X24250000Y-88450000D02*
X34750000Y-88450000D01*
%TO.C,CB1*%
X111930000Y-18010000D02*
X111930000Y-34010000D01*
X111930000Y-18010000D02*
X105250000Y-18010000D01*
X105250000Y-34010000D02*
X111930000Y-34010000D01*
X105250000Y-34010000D02*
X105250000Y-18010000D01*
%TO.C,LED*%
X105350000Y-11525000D02*
X109850000Y-11525000D01*
X109850000Y-11525000D02*
X109850000Y-6675000D01*
X105350000Y-6675000D02*
X105350000Y-11525000D01*
X109850000Y-6675000D02*
X105350000Y-6675000D01*
%TO.C,REF\u002A\u002A*%
X47400000Y-116000000D02*
X47400000Y-103000000D01*
X47400000Y-116000000D02*
X43600000Y-116000000D01*
X43600000Y-103000000D02*
X47400000Y-103000000D01*
X43600000Y-103000000D02*
X43600000Y-116000000D01*
X47600000Y-103000000D02*
X47600000Y-116000000D01*
X47600000Y-103000000D02*
X51400000Y-103000000D01*
X51400000Y-116000000D02*
X47600000Y-116000000D01*
X51400000Y-116000000D02*
X51400000Y-103000000D01*
X51600000Y-103000000D02*
X51600000Y-116000000D01*
X51600000Y-103000000D02*
X55400000Y-103000000D01*
X55400000Y-116000000D02*
X51600000Y-116000000D01*
X55400000Y-116000000D02*
X55400000Y-103000000D01*
X55600000Y-103000000D02*
X55600000Y-116000000D01*
X55600000Y-103000000D02*
X59400000Y-103000000D01*
X59400000Y-116000000D02*
X55600000Y-116000000D01*
X59400000Y-116000000D02*
X59400000Y-103000000D01*
X59600000Y-103000000D02*
X59600000Y-116000000D01*
X59600000Y-103000000D02*
X63400000Y-103000000D01*
X63400000Y-116000000D02*
X59600000Y-116000000D01*
X63400000Y-116000000D02*
X63400000Y-103000000D01*
X63600000Y-103000000D02*
X63600000Y-116000000D01*
X63600000Y-103000000D02*
X67400000Y-103000000D01*
X67400000Y-116000000D02*
X63600000Y-116000000D01*
X67400000Y-116000000D02*
X67400000Y-103000000D01*
X67600000Y-103000000D02*
X67600000Y-116000000D01*
X67600000Y-103000000D02*
X71400000Y-103000000D01*
X71400000Y-116000000D02*
X67600000Y-116000000D01*
X71400000Y-116000000D02*
X71400000Y-103000000D01*
X71600000Y-103000000D02*
X71600000Y-116000000D01*
X71600000Y-103000000D02*
X75400000Y-103000000D01*
X75400000Y-116000000D02*
X71600000Y-116000000D01*
X75400000Y-116000000D02*
X75400000Y-103000000D01*
X75600000Y-103000000D02*
X75600000Y-116000000D01*
X75600000Y-103000000D02*
X79400000Y-103000000D01*
X79400000Y-116000000D02*
X75600000Y-116000000D01*
X79400000Y-116000000D02*
X79400000Y-103000000D01*
X79600000Y-103000000D02*
X79600000Y-116000000D01*
X79600000Y-103000000D02*
X83400000Y-103000000D01*
X83400000Y-116000000D02*
X79600000Y-116000000D01*
X83400000Y-116000000D02*
X83400000Y-103000000D01*
X83600000Y-103000000D02*
X83600000Y-116000000D01*
X83600000Y-103000000D02*
X87400000Y-103000000D01*
X87400000Y-116000000D02*
X83600000Y-116000000D01*
X87400000Y-116000000D02*
X87400000Y-103000000D01*
X91400000Y-116000000D02*
X91400000Y-103000000D01*
X87600000Y-103000000D02*
X91400000Y-103000000D01*
X87600000Y-103000000D02*
X87600000Y-116000000D01*
X91400000Y-116000000D02*
X87600000Y-116000000D01*
X97850000Y-72800000D02*
X97850000Y-74800000D01*
X97850000Y-74800000D02*
X100150000Y-74800000D01*
X100150000Y-72800000D02*
X97850000Y-72800000D01*
X100150000Y-74800000D02*
X100150000Y-72800000D01*
%TO.C,T5*%
X78560000Y-61830000D02*
X78560000Y-57090000D01*
X78560000Y-61830000D02*
X73100000Y-61830000D01*
X73100000Y-57090000D02*
X78560000Y-57090000D01*
X73100000Y-57090000D02*
X73100000Y-61830000D01*
%TO.C,IC1*%
X44450000Y-24270000D02*
X65300000Y-24270000D01*
X65300000Y-24270000D02*
X65300000Y-13720000D01*
X44450000Y-13720000D02*
X44450000Y-24270000D01*
X65300000Y-13720000D02*
X44450000Y-13720000D01*
%TO.C,T2*%
X12770000Y-4570000D02*
X8030000Y-4570000D01*
X12770000Y-4570000D02*
X12770000Y-10030000D01*
X8030000Y-10030000D02*
X8030000Y-4570000D01*
X8030000Y-10030000D02*
X12770000Y-10030000D01*
%TO.C,R7*%
X54750000Y-61350000D02*
X54750000Y-65050000D01*
X54750000Y-65050000D02*
X69550000Y-65050000D01*
X69550000Y-61350000D02*
X54750000Y-61350000D01*
X69550000Y-65050000D02*
X69550000Y-61350000D01*
%TO.C,R1*%
X2790000Y-11100000D02*
X2790000Y-14100000D01*
X2790000Y-14100000D02*
X15050000Y-14100000D01*
X15050000Y-11100000D02*
X2790000Y-11100000D01*
X15050000Y-14100000D02*
X15050000Y-11100000D01*
%TO.C,R8*%
X70450000Y-61850000D02*
X70450000Y-65550000D01*
X70450000Y-65550000D02*
X85250000Y-65550000D01*
X85250000Y-61850000D02*
X70450000Y-61850000D01*
X85250000Y-65550000D02*
X85250000Y-61850000D01*
%TO.C,R6*%
X98750000Y-31300000D02*
X95050000Y-31300000D01*
X95050000Y-31300000D02*
X95050000Y-46100000D01*
X98750000Y-46100000D02*
X98750000Y-31300000D01*
X95050000Y-46100000D02*
X98750000Y-46100000D01*
%TO.C,R11*%
X87415929Y-101311408D02*
X91035075Y-102080682D01*
X91035075Y-102080682D02*
X94112168Y-87604097D01*
X90493022Y-86834824D02*
X87415929Y-101311408D01*
X94112168Y-87604097D02*
X90493022Y-86834824D01*
%TO.C,EPROM-SOCKEL*%
X80290000Y-36600000D02*
X44190000Y-36600000D01*
X44190000Y-36600000D02*
X44190000Y-54800000D01*
X80290000Y-54800000D02*
X80290000Y-36600000D01*
X44190000Y-54800000D02*
X80290000Y-54800000D01*
%TO.C,T4*%
X94170000Y-41720000D02*
X89430000Y-41720000D01*
X94170000Y-41720000D02*
X94170000Y-47180000D01*
X89430000Y-47180000D02*
X89430000Y-41720000D01*
X89430000Y-47180000D02*
X94170000Y-47180000D01*
%TO.C,IC3*%
X95690000Y-71650000D02*
X77340000Y-71650000D01*
X77340000Y-71650000D02*
X77340000Y-82200000D01*
X95690000Y-82200000D02*
X95690000Y-71650000D01*
X77340000Y-82200000D02*
X95690000Y-82200000D01*
%TO.C,T1*%
X2410000Y-10030000D02*
X7150000Y-10030000D01*
X2410000Y-10030000D02*
X2410000Y-4570000D01*
X7150000Y-4570000D02*
X7150000Y-10030000D01*
X7150000Y-4570000D02*
X2410000Y-4570000D01*
%TO.C,C6*%
X75100000Y-72250000D02*
X72100000Y-72250000D01*
X72100000Y-72250000D02*
X72100000Y-80750000D01*
X75100000Y-80750000D02*
X75100000Y-72250000D01*
X72100000Y-80750000D02*
X75100000Y-80750000D01*
%TO.C,R9*%
X72050000Y-65650000D02*
X72050000Y-69350000D01*
X72050000Y-69350000D02*
X86850000Y-69350000D01*
X86850000Y-65650000D02*
X72050000Y-65650000D01*
X86850000Y-69350000D02*
X86850000Y-65650000D01*
%TO.C,IC2*%
X70290000Y-71650000D02*
X44340000Y-71650000D01*
X44340000Y-71650000D02*
X44340000Y-82200000D01*
X70290000Y-82200000D02*
X70290000Y-71650000D01*
X44340000Y-82200000D02*
X70290000Y-82200000D01*
%TO.C,R3*%
X38200000Y-34270000D02*
X35200000Y-34270000D01*
X35200000Y-34270000D02*
X35200000Y-46530000D01*
X38200000Y-46530000D02*
X38200000Y-34270000D01*
X35200000Y-46530000D02*
X38200000Y-46530000D01*
%TO.C,R10*%
X87050000Y-84600000D02*
X83350000Y-84600000D01*
X83350000Y-84600000D02*
X83350000Y-99400000D01*
X87050000Y-99400000D02*
X87050000Y-84600000D01*
X83350000Y-99400000D02*
X87050000Y-99400000D01*
%TO.C,T3*%
X35970000Y-28370000D02*
X35970000Y-33110000D01*
X35970000Y-28370000D02*
X41430000Y-28370000D01*
X41430000Y-33110000D02*
X35970000Y-33110000D01*
X41430000Y-33110000D02*
X41430000Y-28370000D01*
%TO.C,R2*%
X2790000Y-14300000D02*
X2790000Y-17300000D01*
X2790000Y-17300000D02*
X15050000Y-17300000D01*
X15050000Y-14300000D02*
X2790000Y-14300000D01*
X15050000Y-17300000D02*
X15050000Y-14300000D01*
%TO.C,IC4*%
X15070000Y-6110000D02*
X15070000Y-11020000D01*
X15070000Y-11020000D02*
X25570000Y-11020000D01*
X25570000Y-6110000D02*
X15070000Y-6110000D01*
X25570000Y-11020000D02*
X25570000Y-6110000D01*
%TO.C,R5*%
X83030000Y-8200000D02*
X83030000Y-11200000D01*
X83030000Y-11200000D02*
X100370000Y-11200000D01*
X100370000Y-8200000D02*
X83030000Y-8200000D01*
X100370000Y-11200000D02*
X100370000Y-8200000D01*
%TO.C,R4*%
X60650000Y-28100000D02*
X60650000Y-25100000D01*
X60650000Y-25100000D02*
X48390000Y-25100000D01*
X48390000Y-28100000D02*
X60650000Y-28100000D01*
X48390000Y-25100000D02*
X48390000Y-28100000D01*
%TO.C,C5*%
X43900000Y-15150000D02*
X40900000Y-15150000D01*
X40900000Y-15150000D02*
X40900000Y-22250000D01*
X43900000Y-22250000D02*
X43900000Y-15150000D01*
X40900000Y-22250000D02*
X43900000Y-22250000D01*
%TD*%
M02*
