%TF.GenerationSoftware,KiCad,Pcbnew,7.0.7*%
%TF.CreationDate,2024-05-12T11:23:56+02:00*%
%TF.ProjectId,Projekt,50726f6a-656b-4742-9e6b-696361645f70,rev?*%
%TF.SameCoordinates,Original*%
%TF.FileFunction,Soldermask,Top*%
%TF.FilePolarity,Negative*%
%FSLAX46Y46*%
G04 Gerber Fmt 4.6, Leading zero omitted, Abs format (unit mm)*
G04 Created by KiCad (PCBNEW 7.0.7) date 2024-05-12 11:23:56*
%MOMM*%
%LPD*%
G01*
G04 APERTURE LIST*
G04 Aperture macros list*
%AMRoundRect*
0 Rectangle with rounded corners*
0 $1 Rounding radius*
0 $2 $3 $4 $5 $6 $7 $8 $9 X,Y pos of 4 corners*
0 Add a 4 corners polygon primitive as box body*
4,1,4,$2,$3,$4,$5,$6,$7,$8,$9,$2,$3,0*
0 Add four circle primitives for the rounded corners*
1,1,$1+$1,$2,$3*
1,1,$1+$1,$4,$5*
1,1,$1+$1,$6,$7*
1,1,$1+$1,$8,$9*
0 Add four rect primitives between the rounded corners*
20,1,$1+$1,$2,$3,$4,$5,0*
20,1,$1+$1,$4,$5,$6,$7,0*
20,1,$1+$1,$6,$7,$8,$9,0*
20,1,$1+$1,$8,$9,$2,$3,0*%
%AMHorizOval*
0 Thick line with rounded ends*
0 $1 width*
0 $2 $3 position (X,Y) of the first rounded end (center of the circle)*
0 $4 $5 position (X,Y) of the second rounded end (center of the circle)*
0 Add line between two ends*
20,1,$1,$2,$3,$4,$5,0*
0 Add two circle primitives to create the rounded ends*
1,1,$1,$2,$3*
1,1,$1,$4,$5*%
G04 Aperture macros list end*
%ADD10R,1.600000X1.600000*%
%ADD11O,1.600000X1.600000*%
%ADD12R,2.200000X2.200000*%
%ADD13O,2.200000X2.200000*%
%ADD14R,2.400000X2.400000*%
%ADD15O,2.400000X2.400000*%
%ADD16RoundRect,0.550000X-0.550000X-0.950000X0.550000X-0.950000X0.550000X0.950000X-0.550000X0.950000X0*%
%ADD17C,1.800000*%
%ADD18R,1.800000X1.800000*%
%ADD19R,3.000000X12.000000*%
%ADD20R,1.050000X1.500000*%
%ADD21O,1.050000X1.500000*%
%ADD22R,1.600000X2.400000*%
%ADD23O,1.600000X2.400000*%
%ADD24R,1.500000X1.050000*%
%ADD25O,1.500000X1.050000*%
%ADD26C,1.600000*%
%ADD27HorizOval,1.600000X0.000000X0.000000X0.000000X0.000000X0*%
%ADD28O,1.905000X2.000000*%
%ADD29R,1.905000X2.000000*%
G04 APERTURE END LIST*
D10*
%TO.C,D3*%
X69250000Y-67000000D03*
D11*
X56550000Y-67000000D03*
%TD*%
D10*
%TO.C,D1*%
X30300000Y-4800000D03*
D11*
X22680000Y-4800000D03*
%TD*%
D12*
%TO.C,Z2*%
X37100000Y-15160000D03*
D13*
X37100000Y-5000000D03*
%TD*%
D12*
%TO.C,Z1*%
X33020000Y-5080000D03*
D13*
X33020000Y-15240000D03*
%TD*%
D10*
%TO.C,D6*%
X19500000Y-33820000D03*
D11*
X19500000Y-43980000D03*
%TD*%
D10*
%TO.C,D5*%
X19700000Y-19000000D03*
D11*
X19700000Y-29160000D03*
%TD*%
D10*
%TO.C,D7*%
X19300000Y-56700000D03*
D11*
X19300000Y-69400000D03*
%TD*%
D10*
%TO.C,D4*%
X45720000Y-33020000D03*
D11*
X45720000Y-25400000D03*
%TD*%
D10*
%TO.C,D2*%
X80010000Y-25400000D03*
D11*
X87630000Y-25400000D03*
%TD*%
D10*
%TO.C,D8*%
X19300000Y-74250000D03*
D11*
X19300000Y-86950000D03*
%TD*%
D14*
%TO.C,C  1*%
X9400000Y-57300000D03*
D15*
X9400000Y-87300000D03*
%TD*%
D14*
%TO.C,C  4*%
X29600000Y-19100000D03*
D15*
X29600000Y-49100000D03*
%TD*%
D14*
%TO.C,C  3*%
X9400000Y-18900000D03*
D15*
X9400000Y-48900000D03*
%TD*%
D14*
%TO.C,C  2*%
X29500000Y-57000000D03*
D15*
X29500000Y-87000000D03*
%TD*%
D16*
%TO.C,CB1*%
X109900000Y-30000000D03*
X109890000Y-26010000D03*
X109890000Y-22010000D03*
X107270000Y-22000000D03*
X107270000Y-26000000D03*
X107280000Y-29990000D03*
%TD*%
D17*
%TO.C,*%
X9400000Y-41600000D03*
%TD*%
%TO.C,*%
X29400000Y-41600000D03*
%TD*%
%TO.C,*%
X29400000Y-79800000D03*
%TD*%
%TO.C,*%
X9400000Y-79800000D03*
%TD*%
%TO.C,LED*%
X107600000Y-10365000D03*
D18*
X107600000Y-7825000D03*
%TD*%
D19*
%TO.C,REF\u002A\u002A*%
X45500000Y-109500000D03*
%TD*%
%TO.C,REF\u002A\u002A*%
X49500000Y-109500000D03*
%TD*%
%TO.C,REF\u002A\u002A*%
X53500000Y-109500000D03*
%TD*%
%TO.C,REF\u002A\u002A*%
X57500000Y-109500000D03*
%TD*%
%TO.C,REF\u002A\u002A*%
X61500000Y-109500000D03*
%TD*%
%TO.C,REF\u002A\u002A*%
X65500000Y-109500000D03*
%TD*%
%TO.C,REF\u002A\u002A*%
X69500000Y-109500000D03*
%TD*%
%TO.C,REF\u002A\u002A*%
X73500000Y-109500000D03*
%TD*%
%TO.C,REF\u002A\u002A*%
X77500000Y-109500000D03*
%TD*%
%TO.C,REF\u002A\u002A*%
X81500000Y-109500000D03*
%TD*%
%TO.C,REF\u002A\u002A*%
X85500000Y-109500000D03*
%TD*%
%TO.C,REF\u002A\u002A*%
X89500000Y-109500000D03*
%TD*%
D17*
%TO.C,*%
X103800000Y-17400000D03*
%TD*%
%TO.C,*%
X61400000Y-94200000D03*
%TD*%
%TO.C,REF\u002A\u002A*%
X99000000Y-73800000D03*
%TD*%
%TO.C,*%
X99200000Y-78800000D03*
%TD*%
%TO.C,*%
X42800000Y-54800000D03*
%TD*%
%TO.C,*%
X50000000Y-31600000D03*
%TD*%
D20*
%TO.C,T5*%
X77100000Y-59100000D03*
D21*
X75830000Y-59100000D03*
X74560000Y-59100000D03*
%TD*%
D22*
%TO.C,IC1*%
X46000000Y-22820000D03*
D23*
X48540000Y-22820000D03*
X51080000Y-22820000D03*
X53620000Y-22820000D03*
X56160000Y-22820000D03*
X58700000Y-22820000D03*
X61240000Y-22820000D03*
X63780000Y-22820000D03*
X63780000Y-15200000D03*
X61240000Y-15200000D03*
X58700000Y-15200000D03*
X56160000Y-15200000D03*
X53620000Y-15200000D03*
X51080000Y-15200000D03*
X48540000Y-15200000D03*
X46000000Y-15200000D03*
%TD*%
D17*
%TO.C,*%
X99200000Y-55400000D03*
%TD*%
D24*
%TO.C,T2*%
X10040000Y-6030000D03*
D25*
X10040000Y-7300000D03*
X10040000Y-8570000D03*
%TD*%
D17*
%TO.C,*%
X96900000Y-77400000D03*
%TD*%
D26*
%TO.C,R7*%
X55800000Y-63200000D03*
D11*
X68500000Y-63200000D03*
%TD*%
D26*
%TO.C,R1*%
X3840000Y-12600000D03*
D11*
X14000000Y-12600000D03*
%TD*%
D26*
%TO.C,R8*%
X71500000Y-63700000D03*
D11*
X84200000Y-63700000D03*
%TD*%
D17*
%TO.C,*%
X86400000Y-52400000D03*
%TD*%
%TO.C,*%
X94000000Y-19400000D03*
%TD*%
%TO.C,*%
X46400000Y-87800000D03*
%TD*%
%TO.C,*%
X89200000Y-86000000D03*
%TD*%
D26*
%TO.C,R6*%
X96900000Y-32350000D03*
D11*
X96900000Y-45050000D03*
%TD*%
D26*
%TO.C,R11*%
X89443809Y-100668990D03*
D27*
X92084286Y-88246515D03*
%TD*%
D17*
%TO.C,*%
X48600000Y-45000000D03*
%TD*%
%TO.C,*%
X100800000Y-84800000D03*
%TD*%
D22*
%TO.C,EPROM-SOCKEL*%
X78740000Y-38100000D03*
D23*
X76200000Y-38100000D03*
X73660000Y-38100000D03*
X71120000Y-38100000D03*
X68580000Y-38100000D03*
X66040000Y-38100000D03*
X63500000Y-38100000D03*
X60960000Y-38100000D03*
X58420000Y-38100000D03*
X55880000Y-38100000D03*
X53340000Y-38100000D03*
X50800000Y-38100000D03*
X48260000Y-38100000D03*
X45720000Y-38100000D03*
X45720000Y-53340000D03*
X48260000Y-53340000D03*
X50800000Y-53340000D03*
X53340000Y-53340000D03*
X55880000Y-53340000D03*
X58420000Y-53340000D03*
X60960000Y-53340000D03*
X63500000Y-53340000D03*
X66040000Y-53340000D03*
X68580000Y-53340000D03*
X71120000Y-53340000D03*
X73660000Y-53340000D03*
X76200000Y-53340000D03*
X78740000Y-53340000D03*
%TD*%
D24*
%TO.C,T4*%
X91440000Y-43180000D03*
D25*
X91440000Y-44450000D03*
X91440000Y-45720000D03*
%TD*%
D22*
%TO.C,IC3*%
X94140000Y-73100000D03*
D23*
X91600000Y-73100000D03*
X89060000Y-73100000D03*
X86520000Y-73100000D03*
X83980000Y-73100000D03*
X81440000Y-73100000D03*
X78900000Y-73100000D03*
X78900000Y-80720000D03*
X81440000Y-80720000D03*
X83980000Y-80720000D03*
X86520000Y-80720000D03*
X89060000Y-80720000D03*
X91600000Y-80720000D03*
X94140000Y-80720000D03*
%TD*%
D17*
%TO.C,*%
X93000000Y-32600000D03*
%TD*%
D25*
%TO.C,T1*%
X4420000Y-8570000D03*
X4420000Y-7300000D03*
D24*
X4420000Y-6030000D03*
%TD*%
D26*
%TO.C,C6*%
X73600000Y-74000000D03*
X73600000Y-79000000D03*
%TD*%
D17*
%TO.C,*%
X56400000Y-92000000D03*
%TD*%
%TO.C,*%
X37000000Y-23800000D03*
%TD*%
D26*
%TO.C,R9*%
X73100000Y-67500000D03*
D11*
X85800000Y-67500000D03*
%TD*%
D22*
%TO.C,IC2*%
X68740000Y-73100000D03*
D23*
X66200000Y-73100000D03*
X63660000Y-73100000D03*
X61120000Y-73100000D03*
X58580000Y-73100000D03*
X56040000Y-73100000D03*
X53500000Y-73100000D03*
X50960000Y-73100000D03*
X48420000Y-73100000D03*
X45880000Y-73100000D03*
X45880000Y-80720000D03*
X48420000Y-80720000D03*
X50960000Y-80720000D03*
X53500000Y-80720000D03*
X56040000Y-80720000D03*
X58580000Y-80720000D03*
X61120000Y-80720000D03*
X63660000Y-80720000D03*
X66200000Y-80720000D03*
X68740000Y-80720000D03*
%TD*%
D17*
%TO.C,*%
X102200000Y-78800000D03*
%TD*%
D26*
%TO.C,R3*%
X36700000Y-35320000D03*
D11*
X36700000Y-45480000D03*
%TD*%
D26*
%TO.C,R10*%
X85200000Y-85650000D03*
D11*
X85200000Y-98350000D03*
%TD*%
D20*
%TO.C,T3*%
X37430000Y-31100000D03*
D21*
X38700000Y-31100000D03*
X39970000Y-31100000D03*
%TD*%
D17*
%TO.C,*%
X99800000Y-65600000D03*
%TD*%
%TO.C,*%
X50000000Y-28800000D03*
%TD*%
D26*
%TO.C,R2*%
X3840000Y-15800000D03*
D11*
X14000000Y-15800000D03*
%TD*%
D28*
%TO.C,IC4*%
X17780000Y-7620000D03*
X20320000Y-7620000D03*
D29*
X22860000Y-7620000D03*
%TD*%
D26*
%TO.C,R5*%
X84080000Y-9700000D03*
D11*
X99320000Y-9700000D03*
%TD*%
D26*
%TO.C,R4*%
X59600000Y-26600000D03*
D11*
X49440000Y-26600000D03*
%TD*%
D26*
%TO.C,C5*%
X42400000Y-16200000D03*
X42400000Y-21200000D03*
%TD*%
M02*
