M48
INCH,TZ
T1C0.0315
T2C0.0433
T3C0.0709
%
G90
G05
T1
X1512Y-4961
X1512Y-6220
X1740Y-2374
X1740Y-2874
X1740Y-3374
X3701Y-16378
X3701Y-31417
X3953Y-2374
X3953Y-2874
X3953Y-3374
X5512Y-4961
X5512Y-6220
X7598Y-22323
X7598Y-27323
X7598Y-29232
X7598Y-34232
X7677Y-13315
X7677Y-17315
X7756Y-7480
X7756Y-11480
X8929Y-1890
X11575Y-16378
X11575Y-31417
X11929Y-1890
X14449Y-13906
X14449Y-17906
X14567Y-9370
X14736Y-12244
X15236Y-12244
X15736Y-12244
X16693Y-6378
X16693Y-8346
X16850Y-21575
X18000Y-10000
X18000Y-13000
X18000Y-15000
X18000Y-21000
X18063Y-28780
X18063Y-31780
X18110Y-5984
X18110Y-8984
X18268Y-34567
X19000Y-15000
X19000Y-21000
X19063Y-28780
X19063Y-31780
X19110Y-5984
X19110Y-8984
X19134Y-17717
X19465Y-10472
X19685Y-11339
X19685Y-12441
X20000Y-15000
X20000Y-21000
X20063Y-28780
X20063Y-31780
X20110Y-5984
X20110Y-8984
X21000Y-15000
X21000Y-21000
X21063Y-28780
X21063Y-31780
X21110Y-5984
X21110Y-8984
X21969Y-24882
X22000Y-15000
X22000Y-21000
X22063Y-28780
X22063Y-31780
X22110Y-5984
X22110Y-8984
X22205Y-36220
X22264Y-26378
X23000Y-15000
X23000Y-21000
X23063Y-28780
X23063Y-31780
X23110Y-5984
X23110Y-8984
X23465Y-10472
X24000Y-15000
X24000Y-21000
X24063Y-28780
X24063Y-31780
X24110Y-5984
X24110Y-8984
X24173Y-37087
X25000Y-15000
X25000Y-21000
X25063Y-28780
X25063Y-31780
X25110Y-5984
X25110Y-8984
X26000Y-15000
X26000Y-21000
X26063Y-28780
X26063Y-31780
X26969Y-24882
X27000Y-15000
X27000Y-21000
X27063Y-28780
X27063Y-31780
X27264Y-26378
X28000Y-15000
X28000Y-21000
X28150Y-25079
X28780Y-26575
X28976Y-29134
X28976Y-31102
X29000Y-15000
X29000Y-21000
X29354Y-23268
X29854Y-23268
X30000Y-15000
X30000Y-21000
X30354Y-23268
X31000Y-15000
X31000Y-21000
X31063Y-28780
X31063Y-31780
X31500Y-10000
X32063Y-28780
X32063Y-31780
X33063Y-28780
X33063Y-31780
X33102Y-3819
X33150Y-25079
X33543Y-33720
X33543Y-38720
X33780Y-26575
X34016Y-20630
X34063Y-28780
X34063Y-31780
X34500Y-10000
X35063Y-28780
X35063Y-31780
X35118Y-33858
X35214Y-39633
X36000Y-17000
X36000Y-17500
X36000Y-18000
X36063Y-28780
X36063Y-31780
X36254Y-34743
X36614Y-12835
X37008Y-7638
X37063Y-28780
X37063Y-31780
X38150Y-12736
X38150Y-17736
X38150Y-30472
X38976Y-29055
X39055Y-21811
X39055Y-31024
X39102Y-3819
X39291Y-25827
X39685Y-33386
X40236Y-31024
X40866Y-6850
T2
X3701Y-7441
X3701Y-19252
X3701Y-22559
X3701Y-34370
X7000Y-3000
X8000Y-3000
X9000Y-3000
X11614Y-22441
X11614Y-34252
X11654Y-7520
X11654Y-19331
X13000Y-2000
X13000Y-6000
X14606Y-1969
X14606Y-5969
X42362Y-3081
X42362Y-4081
T3
X42232Y-8661
X42232Y-10236
X42236Y-11807
X43264Y-8665
X43264Y-10240
X43268Y-11811
T0
M30
